<?xml version="1.0" encoding="UTF-8"?>
<svg xmlns="http://www.w3.org/2000/svg" xmlns:xlink="http://www.w3.org/1999/xlink" width="506.137451pt" height="390.22171pt" viewBox="0 0 506.137451 390.22171">
<defs>
<clipPath id="clip-0">
<path clip-rule="nonzero" d="M 55.808594 6.796875 L 502.207031 6.796875 L 502.207031 350.957031 L 55.808594 350.957031 Z M 55.808594 6.796875 "/>
</clipPath>
<clipPath id="clip-1">
<path clip-rule="nonzero" d="M 0.808594 49 L 447.207031 49 L 447.207031 296 L 0.808594 296 Z M 0.808594 49 "/>
</clipPath>
<clipPath id="clip-2">
<rect x="0" y="0" width="448" height="345"/>
</clipPath>
<g id="source-5" clip-path="url(#clip-2)">
<g clip-path="url(#clip-1)">
<path fill="none" stroke-width="1" stroke-linecap="square" stroke-linejoin="round" stroke="rgb(0%, 0%, 100%)" stroke-opacity="1" stroke-miterlimit="100000" d="M 55.808594 301.246094 L 64.917969 300.941406 L 74.027344 300.054688 L 83.136719 298.605469 L 92.246094 296.617188 L 101.359375 294.121094 L 110.46875 291.136719 L 119.578125 287.6875 L 128.6875 283.804688 L 137.800781 279.507813 L 146.910156 274.824219 L 156.019531 269.78125 L 165.128906 264.398438 L 174.238281 258.707031 L 183.351562 252.726563 L 192.460938 246.484375 L 201.570312 240.003906 L 210.679688 233.3125 L 219.789062 226.433594 L 228.902344 219.390625 L 238.011719 212.210938 L 247.121094 204.921875 L 256.230469 197.542969 L 265.339844 190.101563 L 274.453125 182.621094 L 283.5625 175.132813 L 292.671875 167.652344 L 301.78125 160.210938 L 310.894531 152.832031 L 320.003906 145.542969 L 329.113281 138.363281 L 338.222656 131.320313 L 347.332031 124.441406 L 356.445312 117.75 L 365.554688 111.269531 L 374.664062 105.027344 L 383.773438 99.046875 L 392.882812 93.355469 L 401.996094 87.972656 L 411.105469 82.925781 L 420.214844 78.246094 L 429.324219 73.949219 L 438.4375 70.066406 L 447.546875 66.617188 L 456.65625 63.632813 L 465.765625 61.136719 L 474.875 59.148438 L 483.988281 57.699219 L 493.097656 56.808594 L 502.207031 56.507813 " transform="matrix(1, 0, 0, 1, -55, -6)"/>
</g>
</g>
<clipPath id="clip-3">
<path clip-rule="nonzero" d="M 498 355 L 506.136719 355 L 506.136719 367 L 498 367 Z M 498 355 "/>
</clipPath>
<clipPath id="clip-4">
<path clip-rule="nonzero" d="M 306 375 L 310 375 L 310 390.222656 L 306 390.222656 Z M 306 375 "/>
</clipPath>
<clipPath id="clip-5">
<path clip-rule="nonzero" d="M 316 375 L 321 375 L 321 390.222656 L 316 390.222656 Z M 316 375 "/>
</clipPath>
</defs>
<path fill-rule="nonzero" fill="rgb(100%, 100%, 100%)" fill-opacity="1" d="M 55.808594 6.796875 L 502.207031 6.796875 L 502.207031 350.957031 L 55.808594 350.957031 Z M 55.808594 6.796875 "/>
<g clip-path="url(#clip-0)">
<use xlink:href="#source-5" transform="matrix(1, 0, 0, 1, 55, 6)"/>
</g>
<path fill="none" stroke-width="1" stroke-linecap="square" stroke-linejoin="miter" stroke="rgb(0%, 0%, 0%)" stroke-opacity="1" stroke-miterlimit="100000" d="M 55.808594 6.796875 L 502.207031 6.796875 "/>
<path fill="none" stroke-width="1" stroke-linecap="square" stroke-linejoin="miter" stroke="rgb(0%, 0%, 0%)" stroke-opacity="1" stroke-miterlimit="100000" d="M 502.207031 350.957031 L 502.207031 6.796875 "/>
<path fill="none" stroke-width="1" stroke-linecap="square" stroke-linejoin="miter" stroke="rgb(0%, 0%, 0%)" stroke-opacity="1" stroke-miterlimit="100000" d="M 55.808594 350.957031 L 55.808594 6.796875 "/>
<path fill="none" stroke-width="1" stroke-linecap="square" stroke-linejoin="miter" stroke="rgb(0%, 0%, 0%)" stroke-opacity="1" stroke-miterlimit="100000" d="M 55.808594 350.957031 L 502.207031 350.957031 "/>
<path fill="none" stroke-width="0.5" stroke-linecap="butt" stroke-linejoin="round" stroke="rgb(0%, 0%, 0%)" stroke-opacity="1" stroke-miterlimit="100000" d="M 55.808594 350.957031 L 55.808594 346.957031 "/>
<path fill="none" stroke-width="0.5" stroke-linecap="butt" stroke-linejoin="round" stroke="rgb(0%, 0%, 0%)" stroke-opacity="1" stroke-miterlimit="100000" d="M 55.808594 6.796875 L 55.808594 10.796875 "/>
<path fill-rule="nonzero" fill="rgb(0%, 0%, 0%)" fill-opacity="1" d="M 46.339844 361.03125 L 55.726562 361.03125 L 55.726562 362.273438 L 46.339844 362.273438 Z M 46.339844 361.03125 "/>
<path fill-rule="nonzero" fill="rgb(0%, 0%, 0%)" fill-opacity="1" d="M 62.988281 356.707031 L 59.253906 362.546875 L 62.988281 362.546875 Z M 62.597656 355.417969 L 64.460938 355.417969 L 64.460938 362.546875 L 66.019531 362.546875 L 66.019531 363.777344 L 64.460938 363.777344 L 64.460938 366.355469 L 62.988281 366.355469 L 62.988281 363.777344 L 58.050781 363.777344 L 58.050781 362.347656 Z M 62.597656 355.417969 "/>
<path fill="none" stroke-width="0.5" stroke-linecap="butt" stroke-linejoin="round" stroke="rgb(0%, 0%, 0%)" stroke-opacity="1" stroke-miterlimit="100000" d="M 111.605469 350.957031 L 111.605469 346.957031 "/>
<path fill="none" stroke-width="0.5" stroke-linecap="butt" stroke-linejoin="round" stroke="rgb(0%, 0%, 0%)" stroke-opacity="1" stroke-miterlimit="100000" d="M 111.605469 6.796875 L 111.605469 10.796875 "/>
<path fill-rule="nonzero" fill="rgb(0%, 0%, 0%)" fill-opacity="1" d="M 102.140625 361.03125 L 111.527344 361.03125 L 111.527344 362.273438 L 102.140625 362.273438 Z M 102.140625 361.03125 "/>
<path fill-rule="nonzero" fill="rgb(0%, 0%, 0%)" fill-opacity="1" d="M 119.207031 360.457031 C 119.914062 360.609375 120.464844 360.925781 120.863281 361.40625 C 121.261719 361.882812 121.460938 362.472656 121.460938 363.175781 C 121.460938 364.253906 121.089844 365.089844 120.347656 365.683594 C 119.605469 366.273438 118.550781 366.566406 117.183594 366.566406 C 116.726562 366.566406 116.253906 366.523438 115.765625 366.433594 C 115.28125 366.339844 114.78125 366.207031 114.261719 366.023438 L 114.261719 364.597656 C 114.671875 364.835938 115.121094 365.015625 115.609375 365.136719 C 116.097656 365.261719 116.609375 365.320312 117.140625 365.320312 C 118.066406 365.320312 118.773438 365.136719 119.257812 364.773438 C 119.746094 364.40625 119.988281 363.875 119.988281 363.175781 C 119.988281 362.53125 119.761719 362.027344 119.3125 361.664062 C 118.859375 361.300781 118.230469 361.117188 117.425781 361.117188 L 116.152344 361.117188 L 116.152344 359.902344 L 117.484375 359.902344 C 118.210938 359.902344 118.769531 359.757812 119.152344 359.464844 C 119.539062 359.175781 119.734375 358.757812 119.734375 358.210938 C 119.734375 357.648438 119.535156 357.21875 119.136719 356.917969 C 118.738281 356.617188 118.167969 356.464844 117.425781 356.464844 C 117.019531 356.464844 116.585938 356.511719 116.121094 356.601562 C 115.65625 356.6875 115.148438 356.824219 114.589844 357.007812 L 114.589844 355.691406 C 115.152344 355.535156 115.679688 355.417969 116.171875 355.339844 C 116.660156 355.261719 117.125 355.222656 117.558594 355.222656 C 118.679688 355.222656 119.570312 355.476562 120.222656 355.988281 C 120.878906 356.496094 121.203125 357.1875 121.203125 358.054688 C 121.203125 358.660156 121.03125 359.171875 120.683594 359.589844 C 120.335938 360.007812 119.84375 360.296875 119.207031 360.457031 "/>
<path fill="none" stroke-width="0.5" stroke-linecap="butt" stroke-linejoin="round" stroke="rgb(0%, 0%, 0%)" stroke-opacity="1" stroke-miterlimit="100000" d="M 167.40625 350.957031 L 167.40625 346.957031 "/>
<path fill="none" stroke-width="0.5" stroke-linecap="butt" stroke-linejoin="round" stroke="rgb(0%, 0%, 0%)" stroke-opacity="1" stroke-miterlimit="100000" d="M 167.40625 6.796875 L 167.40625 10.796875 "/>
<path fill-rule="nonzero" fill="rgb(0%, 0%, 0%)" fill-opacity="1" d="M 157.9375 361.03125 L 167.328125 361.03125 L 167.328125 362.273438 L 157.9375 362.273438 Z M 157.9375 361.03125 "/>
<path fill-rule="nonzero" fill="rgb(0%, 0%, 0%)" fill-opacity="1" d="M 171.796875 365.109375 L 176.960938 365.109375 L 176.960938 366.355469 L 170.019531 366.355469 L 170.019531 365.109375 C 170.578125 364.527344 171.34375 363.75 172.3125 362.769531 C 173.28125 361.792969 173.890625 361.160156 174.140625 360.875 C 174.613281 360.34375 174.945312 359.894531 175.132812 359.523438 C 175.320312 359.15625 175.414062 358.792969 175.414062 358.4375 C 175.414062 357.855469 175.210938 357.382812 174.804688 357.015625 C 174.394531 356.648438 173.863281 356.464844 173.210938 356.464844 C 172.746094 356.464844 172.257812 356.546875 171.742188 356.707031 C 171.226562 356.867188 170.675781 357.113281 170.089844 357.441406 L 170.089844 355.945312 C 170.6875 355.707031 171.242188 355.527344 171.757812 355.40625 C 172.277344 355.28125 172.753906 355.222656 173.183594 355.222656 C 174.316406 355.222656 175.21875 355.503906 175.890625 356.074219 C 176.566406 356.636719 176.902344 357.394531 176.902344 358.339844 C 176.902344 358.792969 176.816406 359.21875 176.648438 359.621094 C 176.480469 360.023438 176.175781 360.496094 175.730469 361.042969 C 175.609375 361.1875 175.21875 361.59375 174.566406 362.273438 C 173.910156 362.949219 172.988281 363.894531 171.796875 365.109375 "/>
<path fill="none" stroke-width="0.5" stroke-linecap="butt" stroke-linejoin="round" stroke="rgb(0%, 0%, 0%)" stroke-opacity="1" stroke-miterlimit="100000" d="M 223.207031 350.957031 L 223.207031 346.957031 "/>
<path fill="none" stroke-width="0.5" stroke-linecap="butt" stroke-linejoin="round" stroke="rgb(0%, 0%, 0%)" stroke-opacity="1" stroke-miterlimit="100000" d="M 223.207031 6.796875 L 223.207031 10.796875 "/>
<path fill-rule="nonzero" fill="rgb(0%, 0%, 0%)" fill-opacity="1" d="M 213.738281 361.03125 L 223.128906 361.03125 L 223.128906 362.273438 L 213.738281 362.273438 Z M 213.738281 361.03125 "/>
<path fill-rule="nonzero" fill="rgb(0%, 0%, 0%)" fill-opacity="1" d="M 226.578125 365.109375 L 228.996094 365.109375 L 228.996094 356.765625 L 226.367188 357.292969 L 226.367188 355.945312 L 228.980469 355.417969 L 230.460938 355.417969 L 230.460938 365.109375 L 232.878906 365.109375 L 232.878906 366.355469 L 226.578125 366.355469 Z M 226.578125 365.109375 "/>
<path fill="none" stroke-width="0.5" stroke-linecap="butt" stroke-linejoin="round" stroke="rgb(0%, 0%, 0%)" stroke-opacity="1" stroke-miterlimit="100000" d="M 279.007812 350.957031 L 279.007812 346.957031 "/>
<path fill="none" stroke-width="0.5" stroke-linecap="butt" stroke-linejoin="round" stroke="rgb(0%, 0%, 0%)" stroke-opacity="1" stroke-miterlimit="100000" d="M 279.007812 6.796875 L 279.007812 10.796875 "/>
<path fill-rule="nonzero" fill="rgb(0%, 0%, 0%)" fill-opacity="1" d="M 279.003906 356.394531 C 278.242188 356.394531 277.667969 356.769531 277.285156 357.519531 C 276.902344 358.265625 276.710938 359.394531 276.710938 360.898438 C 276.710938 362.398438 276.902344 363.519531 277.285156 364.269531 C 277.667969 365.019531 278.242188 365.394531 279.003906 365.394531 C 279.769531 365.394531 280.34375 365.019531 280.726562 364.269531 C 281.113281 363.519531 281.304688 362.398438 281.304688 360.898438 C 281.304688 359.394531 281.113281 358.265625 280.726562 357.519531 C 280.34375 356.769531 279.769531 356.394531 279.003906 356.394531 M 279.003906 355.222656 C 280.230469 355.222656 281.164062 355.707031 281.8125 356.675781 C 282.460938 357.644531 282.78125 359.054688 282.78125 360.898438 C 282.78125 362.738281 282.460938 364.144531 281.8125 365.113281 C 281.164062 366.082031 280.230469 366.566406 279.003906 366.566406 C 277.777344 366.566406 276.839844 366.082031 276.195312 365.113281 C 275.546875 364.144531 275.222656 362.738281 275.222656 360.898438 C 275.222656 359.054688 275.546875 357.644531 276.195312 356.675781 C 276.839844 355.707031 277.777344 355.222656 279.003906 355.222656 "/>
<path fill="none" stroke-width="0.5" stroke-linecap="butt" stroke-linejoin="round" stroke="rgb(0%, 0%, 0%)" stroke-opacity="1" stroke-miterlimit="100000" d="M 334.808594 350.957031 L 334.808594 346.957031 "/>
<path fill="none" stroke-width="0.5" stroke-linecap="butt" stroke-linejoin="round" stroke="rgb(0%, 0%, 0%)" stroke-opacity="1" stroke-miterlimit="100000" d="M 334.808594 6.796875 L 334.808594 10.796875 "/>
<path fill-rule="nonzero" fill="rgb(0%, 0%, 0%)" fill-opacity="1" d="M 331.894531 365.109375 L 334.3125 365.109375 L 334.3125 356.765625 L 331.683594 357.292969 L 331.683594 355.945312 L 334.296875 355.417969 L 335.777344 355.417969 L 335.777344 365.109375 L 338.195312 365.109375 L 338.195312 366.355469 L 331.894531 366.355469 Z M 331.894531 365.109375 "/>
<path fill="none" stroke-width="0.5" stroke-linecap="butt" stroke-linejoin="round" stroke="rgb(0%, 0%, 0%)" stroke-opacity="1" stroke-miterlimit="100000" d="M 390.605469 350.957031 L 390.605469 346.957031 "/>
<path fill="none" stroke-width="0.5" stroke-linecap="butt" stroke-linejoin="round" stroke="rgb(0%, 0%, 0%)" stroke-opacity="1" stroke-miterlimit="100000" d="M 390.605469 6.796875 L 390.605469 10.796875 "/>
<path fill-rule="nonzero" fill="rgb(0%, 0%, 0%)" fill-opacity="1" d="M 388.714844 365.109375 L 393.875 365.109375 L 393.875 366.355469 L 386.933594 366.355469 L 386.933594 365.109375 C 387.496094 364.527344 388.261719 363.75 389.230469 362.769531 C 390.199219 361.792969 390.808594 361.160156 391.058594 360.875 C 391.53125 360.34375 391.859375 359.894531 392.046875 359.523438 C 392.238281 359.15625 392.332031 358.792969 392.332031 358.4375 C 392.332031 357.855469 392.128906 357.382812 391.71875 357.015625 C 391.3125 356.648438 390.78125 356.464844 390.125 356.464844 C 389.664062 356.464844 389.171875 356.546875 388.65625 356.707031 C 388.144531 356.867188 387.59375 357.113281 387.007812 357.441406 L 387.007812 355.945312 C 387.601562 355.707031 388.160156 355.527344 388.675781 355.40625 C 389.195312 355.28125 389.667969 355.222656 390.097656 355.222656 C 391.230469 355.222656 392.132812 355.503906 392.808594 356.074219 C 393.480469 356.636719 393.816406 357.394531 393.816406 358.339844 C 393.816406 358.792969 393.734375 359.21875 393.566406 359.621094 C 393.398438 360.023438 393.089844 360.496094 392.644531 361.042969 C 392.523438 361.1875 392.136719 361.59375 391.480469 362.273438 C 390.828125 362.949219 389.90625 363.894531 388.714844 365.109375 "/>
<path fill="none" stroke-width="0.5" stroke-linecap="butt" stroke-linejoin="round" stroke="rgb(0%, 0%, 0%)" stroke-opacity="1" stroke-miterlimit="100000" d="M 446.40625 350.957031 L 446.40625 346.957031 "/>
<path fill="none" stroke-width="0.5" stroke-linecap="butt" stroke-linejoin="round" stroke="rgb(0%, 0%, 0%)" stroke-opacity="1" stroke-miterlimit="100000" d="M 446.40625 6.796875 L 446.40625 10.796875 "/>
<path fill-rule="nonzero" fill="rgb(0%, 0%, 0%)" fill-opacity="1" d="M 447.722656 360.457031 C 448.429688 360.609375 448.980469 360.925781 449.378906 361.40625 C 449.777344 361.882812 449.976562 362.472656 449.976562 363.175781 C 449.976562 364.253906 449.605469 365.089844 448.863281 365.683594 C 448.121094 366.273438 447.066406 366.566406 445.699219 366.566406 C 445.242188 366.566406 444.769531 366.523438 444.285156 366.433594 C 443.796875 366.339844 443.296875 366.207031 442.777344 366.023438 L 442.777344 364.597656 C 443.1875 364.835938 443.636719 365.015625 444.125 365.136719 C 444.613281 365.261719 445.125 365.320312 445.65625 365.320312 C 446.582031 365.320312 447.289062 365.136719 447.777344 364.773438 C 448.261719 364.40625 448.503906 363.875 448.503906 363.175781 C 448.503906 362.53125 448.277344 362.027344 447.828125 361.664062 C 447.375 361.300781 446.746094 361.117188 445.941406 361.117188 L 444.667969 361.117188 L 444.667969 359.902344 L 446 359.902344 C 446.726562 359.902344 447.285156 359.757812 447.671875 359.464844 C 448.054688 359.175781 448.25 358.757812 448.25 358.210938 C 448.25 357.648438 448.050781 357.21875 447.652344 356.917969 C 447.253906 356.617188 446.683594 356.464844 445.941406 356.464844 C 445.535156 356.464844 445.101562 356.511719 444.636719 356.601562 C 444.171875 356.6875 443.664062 356.824219 443.105469 357.007812 L 443.105469 355.691406 C 443.667969 355.535156 444.195312 355.417969 444.6875 355.339844 C 445.175781 355.261719 445.640625 355.222656 446.074219 355.222656 C 447.199219 355.222656 448.085938 355.476562 448.738281 355.988281 C 449.394531 356.496094 449.722656 357.1875 449.722656 358.054688 C 449.722656 358.660156 449.546875 359.171875 449.199219 359.589844 C 448.855469 360.007812 448.359375 360.296875 447.722656 360.457031 "/>
<path fill="none" stroke-width="0.5" stroke-linecap="butt" stroke-linejoin="round" stroke="rgb(0%, 0%, 0%)" stroke-opacity="1" stroke-miterlimit="100000" d="M 502.207031 350.957031 L 502.207031 346.957031 "/>
<path fill="none" stroke-width="0.5" stroke-linecap="butt" stroke-linejoin="round" stroke="rgb(0%, 0%, 0%)" stroke-opacity="1" stroke-miterlimit="100000" d="M 502.207031 6.796875 L 502.207031 10.796875 "/>
<g clip-path="url(#clip-3)">
<path fill-rule="nonzero" fill="rgb(0%, 0%, 0%)" fill-opacity="1" d="M 503.105469 356.707031 L 499.367188 362.546875 L 503.105469 362.546875 Z M 502.714844 355.417969 L 504.578125 355.417969 L 504.578125 362.546875 L 506.136719 362.546875 L 506.136719 363.777344 L 504.578125 363.777344 L 504.578125 366.355469 L 503.105469 366.355469 L 503.105469 363.777344 L 498.167969 363.777344 L 498.167969 362.347656 Z M 502.714844 355.417969 "/>
</g>
<path fill-rule="nonzero" fill="rgb(0%, 0%, 0%)" fill-opacity="1" d="M 237.730469 375.535156 L 244.644531 375.535156 L 244.644531 376.78125 L 239.207031 376.78125 L 239.207031 380.019531 L 244.414062 380.019531 L 244.414062 381.265625 L 239.207031 381.265625 L 239.207031 385.226562 L 244.773438 385.226562 L 244.773438 386.472656 L 237.730469 386.472656 Z M 237.730469 375.535156 "/>
<path fill-rule="nonzero" fill="rgb(0%, 0%, 0%)" fill-opacity="1" d="M 253.96875 381.519531 L 253.96875 386.472656 L 252.621094 386.472656 L 252.621094 381.5625 C 252.621094 380.789062 252.46875 380.207031 252.164062 379.824219 C 251.863281 379.4375 251.410156 379.242188 250.804688 379.242188 C 250.074219 379.242188 249.5 379.476562 249.082031 379.941406 C 248.660156 380.402344 248.449219 381.035156 248.449219 381.835938 L 248.449219 386.472656 L 247.097656 386.472656 L 247.097656 378.269531 L 248.449219 378.269531 L 248.449219 379.542969 C 248.773438 379.050781 249.152344 378.679688 249.589844 378.4375 C 250.027344 378.195312 250.53125 378.070312 251.105469 378.070312 C 252.046875 378.070312 252.757812 378.363281 253.242188 378.945312 C 253.726562 379.527344 253.96875 380.386719 253.96875 381.519531 "/>
<path fill-rule="nonzero" fill="rgb(0%, 0%, 0%)" fill-opacity="1" d="M 257.988281 375.9375 L 257.988281 378.269531 L 260.761719 378.269531 L 260.761719 379.316406 L 257.988281 379.316406 L 257.988281 383.769531 C 257.988281 384.4375 258.078125 384.867188 258.261719 385.058594 C 258.445312 385.25 258.816406 385.34375 259.378906 385.34375 L 260.761719 385.34375 L 260.761719 386.472656 L 259.378906 386.472656 C 258.339844 386.472656 257.621094 386.277344 257.226562 385.890625 C 256.832031 385.5 256.632812 384.792969 256.632812 383.769531 L 256.632812 379.316406 L 255.644531 379.316406 L 255.644531 378.269531 L 256.632812 378.269531 L 256.632812 375.9375 Z M 257.988281 375.9375 "/>
<path fill-rule="nonzero" fill="rgb(0%, 0%, 0%)" fill-opacity="1" d="M 267.289062 379.527344 C 267.136719 379.441406 266.972656 379.375 266.792969 379.335938 C 266.617188 379.292969 266.421875 379.273438 266.207031 379.273438 C 265.445312 379.273438 264.859375 379.519531 264.449219 380.015625 C 264.042969 380.511719 263.839844 381.222656 263.839844 382.148438 L 263.839844 386.472656 L 262.484375 386.472656 L 262.484375 378.269531 L 263.839844 378.269531 L 263.839844 379.542969 C 264.125 379.046875 264.492188 378.675781 264.945312 378.433594 C 265.398438 378.191406 265.953125 378.070312 266.601562 378.070312 C 266.695312 378.070312 266.796875 378.078125 266.910156 378.089844 C 267.023438 378.101562 267.144531 378.121094 267.28125 378.144531 Z M 267.289062 379.527344 "/>
<path fill-rule="nonzero" fill="rgb(0%, 0%, 0%)" fill-opacity="1" d="M 275.71875 382.03125 L 275.71875 382.691406 L 269.523438 382.691406 C 269.582031 383.621094 269.863281 384.328125 270.363281 384.8125 C 270.863281 385.296875 271.558594 385.542969 272.453125 385.542969 C 272.96875 385.542969 273.472656 385.476562 273.957031 385.351562 C 274.445312 385.226562 274.925781 385.035156 275.40625 384.78125 L 275.40625 386.054688 C 274.921875 386.257812 274.425781 386.414062 273.917969 386.523438 C 273.410156 386.632812 272.894531 386.683594 272.375 386.683594 C 271.0625 386.683594 270.027344 386.304688 269.261719 385.542969 C 268.5 384.78125 268.117188 383.75 268.117188 382.449219 C 268.117188 381.109375 268.480469 380.042969 269.203125 379.253906 C 269.929688 378.464844 270.90625 378.070312 272.140625 378.070312 C 273.242188 378.070312 274.113281 378.425781 274.757812 379.136719 C 275.398438 379.847656 275.71875 380.8125 275.71875 382.03125 M 274.371094 381.636719 C 274.363281 380.902344 274.15625 380.3125 273.753906 379.875 C 273.351562 379.433594 272.816406 379.214844 272.152344 379.214844 C 271.402344 379.214844 270.800781 379.425781 270.347656 379.851562 C 269.898438 380.277344 269.636719 380.875 269.566406 381.644531 Z M 273.070312 374.472656 L 274.527344 374.472656 L 272.140625 377.226562 L 271.019531 377.226562 Z M 273.070312 374.472656 "/>
<path fill-rule="nonzero" fill="rgb(0%, 0%, 0%)" fill-opacity="1" d="M 284.949219 382.03125 L 284.949219 382.691406 L 278.75 382.691406 C 278.8125 383.621094 279.089844 384.328125 279.589844 384.8125 C 280.089844 385.296875 280.789062 385.542969 281.679688 385.542969 C 282.199219 385.542969 282.699219 385.476562 283.1875 385.351562 C 283.671875 385.226562 284.15625 385.035156 284.632812 384.78125 L 284.632812 386.054688 C 284.148438 386.257812 283.652344 386.414062 283.144531 386.523438 C 282.636719 386.632812 282.125 386.683594 281.601562 386.683594 C 280.292969 386.683594 279.253906 386.304688 278.492188 385.542969 C 277.726562 384.78125 277.34375 383.75 277.34375 382.449219 C 277.34375 381.109375 277.707031 380.042969 278.433594 379.253906 C 279.15625 378.464844 280.136719 378.070312 281.367188 378.070312 C 282.46875 378.070312 283.34375 378.425781 283.984375 379.136719 C 284.628906 379.847656 284.949219 380.8125 284.949219 382.03125 M 283.601562 381.636719 C 283.589844 380.902344 283.386719 380.3125 282.980469 379.875 C 282.578125 379.433594 282.046875 379.214844 281.382812 379.214844 C 280.628906 379.214844 280.027344 379.425781 279.578125 379.851562 C 279.125 380.277344 278.863281 380.875 278.796875 381.644531 Z M 283.601562 381.636719 "/>
<path fill-rule="nonzero" fill="rgb(0%, 0%, 0%)" fill-opacity="1" d="M 293.125 386.640625 C 292.492188 386.640625 291.996094 386.402344 291.628906 385.925781 C 291.269531 385.449219 291.085938 384.886719 291.085938 384.238281 C 291.085938 383.597656 291.253906 382.933594 291.582031 382.246094 C 291.917969 381.558594 292.363281 380.984375 292.929688 380.527344 C 293.492188 380.070312 294.097656 379.84375 294.746094 379.84375 C 295.046875 379.84375 295.3125 379.925781 295.546875 380.085938 C 295.78125 380.246094 295.964844 380.464844 296.09375 380.742188 C 296.207031 380.34375 296.429688 380.144531 296.757812 380.144531 C 296.882812 380.144531 296.988281 380.183594 297.074219 380.257812 C 297.160156 380.332031 297.203125 380.433594 297.203125 380.5625 C 297.203125 380.589844 297.199219 380.613281 297.195312 380.628906 C 297.195312 380.644531 297.191406 380.660156 297.1875 380.679688 L 296.140625 384.867188 C 296.070312 385.164062 296.035156 385.410156 296.035156 385.601562 C 296.035156 386.03125 296.179688 386.246094 296.46875 386.246094 C 296.78125 386.246094 297.019531 386.046875 297.183594 385.648438 C 297.347656 385.25 297.484375 384.789062 297.597656 384.265625 C 297.617188 384.207031 297.65625 384.179688 297.714844 384.179688 L 297.898438 384.179688 C 297.9375 384.179688 297.96875 384.195312 297.992188 384.230469 C 298.015625 384.265625 298.027344 384.296875 298.027344 384.324219 C 297.855469 385.023438 297.664062 385.585938 297.453125 386.007812 C 297.246094 386.429688 296.910156 386.640625 296.441406 386.640625 C 296.105469 386.640625 295.804688 386.542969 295.546875 386.34375 C 295.289062 386.148438 295.125 385.882812 295.0625 385.554688 C 294.417969 386.277344 293.773438 386.640625 293.125 386.640625 M 293.136719 386.246094 C 293.5 386.246094 293.847656 386.109375 294.1875 385.839844 C 294.527344 385.566406 294.820312 385.25 295.0625 384.882812 C 295.074219 384.875 295.078125 384.859375 295.078125 384.839844 L 295.882812 381.578125 L 295.898438 381.535156 C 295.839844 381.179688 295.710938 380.875 295.511719 380.617188 C 295.316406 380.359375 295.046875 380.230469 294.710938 380.230469 C 294.375 380.230469 294.0625 380.367188 293.769531 380.644531 C 293.480469 380.921875 293.234375 381.246094 293.035156 381.621094 C 292.839844 382.023438 292.652344 382.570312 292.472656 383.269531 C 292.296875 383.96875 292.207031 384.511719 292.207031 384.898438 C 292.207031 385.242188 292.28125 385.554688 292.429688 385.832031 C 292.578125 386.105469 292.816406 386.246094 293.136719 386.246094 "/>
<path fill-rule="nonzero" fill="rgb(0%, 0%, 0%)" fill-opacity="1" d="M 299.40625 389.023438 L 299.40625 388.652344 C 300.28125 388.652344 300.71875 388.542969 300.71875 388.320312 L 300.71875 382.808594 C 300.355469 382.984375 299.898438 383.070312 299.34375 383.070312 L 299.34375 382.703125 C 300.203125 382.703125 300.851562 382.476562 301.289062 382.027344 L 301.4375 382.027344 C 301.460938 382.027344 301.484375 382.039062 301.503906 382.058594 C 301.527344 382.078125 301.539062 382.097656 301.539062 382.121094 L 301.539062 388.320312 C 301.539062 388.542969 301.976562 388.652344 302.851562 388.652344 L 302.851562 389.023438 Z M 299.40625 389.023438 "/>
<g clip-path="url(#clip-4)">
<path fill-rule="nonzero" fill="rgb(0%, 0%, 0%)" fill-opacity="1" d="M 309.289062 390.195312 C 308.734375 389.753906 308.253906 389.25 307.851562 388.679688 C 307.449219 388.109375 307.117188 387.503906 306.859375 386.859375 C 306.605469 386.214844 306.414062 385.542969 306.285156 384.839844 C 306.160156 384.136719 306.097656 383.429688 306.097656 382.722656 C 306.097656 382.003906 306.160156 381.292969 306.285156 380.589844 C 306.414062 379.886719 306.605469 379.210938 306.867188 378.5625 C 307.128906 377.910156 307.464844 377.304688 307.867188 376.738281 C 308.273438 376.171875 308.75 375.675781 309.289062 375.25 C 309.289062 375.230469 309.3125 375.222656 309.363281 375.222656 L 309.503906 375.222656 C 309.53125 375.222656 309.558594 375.234375 309.582031 375.261719 C 309.605469 375.289062 309.621094 375.320312 309.621094 375.351562 C 309.621094 375.398438 309.609375 375.429688 309.589844 375.449219 C 309.101562 375.925781 308.695312 376.441406 308.371094 376.988281 C 308.046875 377.535156 307.785156 378.117188 307.585938 378.734375 C 307.386719 379.351562 307.246094 379.992188 307.160156 380.65625 C 307.070312 381.316406 307.027344 382.003906 307.027344 382.722656 C 307.027344 385.898438 307.875 388.316406 309.574219 389.964844 C 309.605469 389.996094 309.621094 390.035156 309.621094 390.089844 C 309.621094 390.113281 309.605469 390.140625 309.578125 390.171875 C 309.554688 390.207031 309.527344 390.222656 309.503906 390.222656 L 309.363281 390.222656 C 309.3125 390.222656 309.289062 390.210938 309.289062 390.195312 "/>
</g>
<path fill-rule="nonzero" fill="rgb(0%, 0%, 0%)" fill-opacity="1" d="M 311.390625 385.253906 C 311.390625 385.109375 311.40625 384.96875 311.4375 384.839844 L 312.519531 380.53125 L 310.945312 380.53125 C 310.84375 380.53125 310.792969 380.464844 310.792969 380.332031 C 310.832031 380.113281 310.898438 380.003906 310.988281 380.003906 L 312.652344 380.003906 L 313.253906 377.558594 C 313.292969 377.425781 313.371094 377.3125 313.488281 377.222656 C 313.605469 377.128906 313.734375 377.082031 313.882812 377.082031 C 314.007812 377.082031 314.117188 377.121094 314.199219 377.199219 C 314.285156 377.273438 314.328125 377.375 314.328125 377.5 C 314.328125 377.53125 314.328125 377.554688 314.324219 377.570312 C 314.324219 377.585938 314.320312 377.605469 314.316406 377.625 L 313.714844 380.003906 L 315.257812 380.003906 C 315.363281 380.003906 315.414062 380.070312 315.414062 380.203125 C 315.40625 380.226562 315.398438 380.269531 315.382812 380.328125 C 315.371094 380.386719 315.351562 380.433594 315.324219 380.472656 C 315.300781 380.511719 315.261719 380.53125 315.214844 380.53125 L 313.582031 380.53125 L 312.503906 384.867188 C 312.433594 385.152344 312.394531 385.394531 312.394531 385.601562 C 312.394531 386.03125 312.542969 386.246094 312.835938 386.246094 C 313.273438 386.246094 313.664062 386.039062 314.003906 385.625 C 314.34375 385.214844 314.601562 384.761719 314.785156 384.265625 C 314.824219 384.207031 314.863281 384.179688 314.902344 384.179688 L 315.082031 384.179688 C 315.121094 384.179688 315.152344 384.191406 315.175781 384.21875 C 315.203125 384.246094 315.214844 384.277344 315.214844 384.3125 C 315.214844 384.332031 315.210938 384.347656 315.199219 384.355469 C 314.980469 384.960938 314.660156 385.492188 314.238281 385.953125 C 313.820312 386.410156 313.339844 386.640625 312.796875 386.640625 C 312.402344 386.640625 312.070312 386.511719 311.796875 386.253906 C 311.527344 385.996094 311.390625 385.660156 311.390625 385.253906 "/>
<g clip-path="url(#clip-5)">
<path fill-rule="nonzero" fill="rgb(0%, 0%, 0%)" fill-opacity="1" d="M 316.847656 390.222656 C 316.761719 390.222656 316.714844 390.179688 316.714844 390.089844 C 316.714844 390.046875 316.726562 390.015625 316.746094 389.996094 C 318.457031 388.324219 319.308594 385.898438 319.308594 382.722656 C 319.308594 379.542969 318.464844 377.128906 316.773438 375.476562 C 316.734375 375.453125 316.714844 375.414062 316.714844 375.351562 C 316.714844 375.320312 316.730469 375.289062 316.753906 375.261719 C 316.785156 375.234375 316.816406 375.222656 316.847656 375.222656 L 316.988281 375.222656 C 317.015625 375.222656 317.042969 375.230469 317.058594 375.25 C 317.777344 375.816406 318.378906 376.507812 318.855469 377.316406 C 319.332031 378.125 319.683594 378.992188 319.90625 379.910156 C 320.128906 380.828125 320.242188 381.765625 320.242188 382.722656 C 320.242188 383.429688 320.179688 384.125 320.058594 384.8125 C 319.941406 385.5 319.75 386.175781 319.488281 386.839844 C 319.226562 387.507812 318.898438 388.121094 318.496094 388.6875 C 318.097656 389.25 317.617188 389.753906 317.058594 390.195312 C 317.042969 390.210938 317.015625 390.222656 316.988281 390.222656 Z M 316.847656 390.222656 "/>
</g>
<path fill="none" stroke-width="0.5" stroke-linecap="butt" stroke-linejoin="round" stroke="rgb(0%, 0%, 0%)" stroke-opacity="1" stroke-miterlimit="100000" d="M 55.808594 350.957031 L 59.808594 350.957031 "/>
<path fill="none" stroke-width="0.5" stroke-linecap="butt" stroke-linejoin="round" stroke="rgb(0%, 0%, 0%)" stroke-opacity="1" stroke-miterlimit="100000" d="M 502.207031 350.957031 L 498.207031 350.957031 "/>
<path fill-rule="nonzero" fill="rgb(0%, 0%, 0%)" fill-opacity="1" d="M 21.738281 349.769531 L 31.128906 349.769531 L 31.128906 351.015625 L 21.738281 351.015625 Z M 21.738281 349.769531 "/>
<path fill-rule="nonzero" fill="rgb(0%, 0%, 0%)" fill-opacity="1" d="M 34.578125 353.851562 L 36.996094 353.851562 L 36.996094 345.507812 L 34.367188 346.035156 L 34.367188 344.6875 L 36.980469 344.160156 L 38.460938 344.160156 L 38.460938 353.851562 L 40.875 353.851562 L 40.875 355.097656 L 34.578125 355.097656 Z M 34.578125 353.851562 "/>
<path fill-rule="nonzero" fill="rgb(0%, 0%, 0%)" fill-opacity="1" d="M 43.882812 344.160156 L 49.6875 344.160156 L 49.6875 345.40625 L 45.234375 345.40625 L 45.234375 348.085938 C 45.449219 348.011719 45.664062 347.957031 45.878906 347.921875 C 46.09375 347.886719 46.308594 347.867188 46.523438 347.867188 C 47.746094 347.867188 48.710938 348.203125 49.425781 348.871094 C 50.136719 349.539062 50.496094 350.445312 50.496094 351.585938 C 50.496094 352.765625 50.128906 353.679688 49.394531 354.332031 C 48.664062 354.984375 47.628906 355.308594 46.296875 355.308594 C 45.839844 355.308594 45.371094 355.269531 44.894531 355.191406 C 44.417969 355.113281 43.925781 354.996094 43.417969 354.839844 L 43.417969 353.351562 C 43.859375 353.589844 44.3125 353.769531 44.78125 353.886719 C 45.25 354.003906 45.746094 354.0625 46.265625 354.0625 C 47.113281 354.0625 47.78125 353.839844 48.273438 353.398438 C 48.765625 352.953125 49.015625 352.351562 49.015625 351.585938 C 49.015625 350.828125 48.765625 350.222656 48.273438 349.78125 C 47.78125 349.335938 47.113281 349.113281 46.265625 349.113281 C 45.871094 349.113281 45.476562 349.15625 45.082031 349.242188 C 44.691406 349.332031 44.289062 349.46875 43.882812 349.652344 Z M 43.882812 344.160156 "/>
<path fill="none" stroke-width="0.5" stroke-linecap="butt" stroke-linejoin="round" stroke="rgb(0%, 0%, 0%)" stroke-opacity="1" stroke-miterlimit="100000" d="M 55.808594 293.597656 L 59.808594 293.597656 "/>
<path fill="none" stroke-width="0.5" stroke-linecap="butt" stroke-linejoin="round" stroke="rgb(0%, 0%, 0%)" stroke-opacity="1" stroke-miterlimit="100000" d="M 502.207031 293.597656 L 498.207031 293.597656 "/>
<path fill-rule="nonzero" fill="rgb(0%, 0%, 0%)" fill-opacity="1" d="M 21.738281 292.410156 L 31.128906 292.410156 L 31.128906 293.65625 L 21.738281 293.65625 Z M 21.738281 292.410156 "/>
<path fill-rule="nonzero" fill="rgb(0%, 0%, 0%)" fill-opacity="1" d="M 34.578125 296.492188 L 36.996094 296.492188 L 36.996094 288.148438 L 34.367188 288.675781 L 34.367188 287.328125 L 36.980469 286.800781 L 38.460938 286.800781 L 38.460938 296.492188 L 40.875 296.492188 L 40.875 297.734375 L 34.578125 297.734375 Z M 34.578125 296.492188 "/>
<path fill-rule="nonzero" fill="rgb(0%, 0%, 0%)" fill-opacity="1" d="M 47.027344 287.773438 C 46.269531 287.773438 45.695312 288.148438 45.3125 288.898438 C 44.929688 289.648438 44.738281 290.773438 44.738281 292.28125 C 44.738281 293.777344 44.929688 294.902344 45.3125 295.652344 C 45.695312 296.402344 46.269531 296.777344 47.027344 296.777344 C 47.796875 296.777344 48.371094 296.402344 48.753906 295.652344 C 49.136719 294.902344 49.332031 293.777344 49.332031 292.28125 C 49.332031 290.773438 49.136719 289.648438 48.753906 288.898438 C 48.371094 288.148438 47.796875 287.773438 47.027344 287.773438 M 47.027344 286.601562 C 48.253906 286.601562 49.191406 287.089844 49.839844 288.058594 C 50.484375 289.027344 50.808594 290.433594 50.808594 292.28125 C 50.808594 294.121094 50.484375 295.527344 49.839844 296.496094 C 49.191406 297.464844 48.253906 297.949219 47.027344 297.949219 C 45.804688 297.949219 44.867188 297.464844 44.222656 296.496094 C 43.574219 295.527344 43.25 294.121094 43.25 292.28125 C 43.25 290.433594 43.574219 289.027344 44.222656 288.058594 C 44.867188 287.089844 45.804688 286.601562 47.027344 286.601562 "/>
<path fill="none" stroke-width="0.5" stroke-linecap="butt" stroke-linejoin="round" stroke="rgb(0%, 0%, 0%)" stroke-opacity="1" stroke-miterlimit="100000" d="M 55.808594 236.238281 L 59.808594 236.238281 "/>
<path fill="none" stroke-width="0.5" stroke-linecap="butt" stroke-linejoin="round" stroke="rgb(0%, 0%, 0%)" stroke-opacity="1" stroke-miterlimit="100000" d="M 502.207031 236.238281 L 498.207031 236.238281 "/>
<path fill-rule="nonzero" fill="rgb(0%, 0%, 0%)" fill-opacity="1" d="M 31.28125 235.050781 L 40.671875 235.050781 L 40.671875 236.296875 L 31.28125 236.296875 Z M 31.28125 235.050781 "/>
<path fill-rule="nonzero" fill="rgb(0%, 0%, 0%)" fill-opacity="1" d="M 43.882812 229.441406 L 49.6875 229.441406 L 49.6875 230.6875 L 45.234375 230.6875 L 45.234375 233.367188 C 45.449219 233.292969 45.664062 233.238281 45.878906 233.203125 C 46.09375 233.164062 46.308594 233.148438 46.523438 233.148438 C 47.746094 233.148438 48.710938 233.480469 49.425781 234.152344 C 50.136719 234.820312 50.496094 235.726562 50.496094 236.867188 C 50.496094 238.042969 50.128906 238.957031 49.394531 239.613281 C 48.664062 240.261719 47.628906 240.589844 46.296875 240.589844 C 45.839844 240.589844 45.371094 240.550781 44.894531 240.472656 C 44.417969 240.394531 43.925781 240.277344 43.417969 240.121094 L 43.417969 238.632812 C 43.859375 238.871094 44.3125 239.050781 44.78125 239.167969 C 45.25 239.285156 45.746094 239.34375 46.265625 239.34375 C 47.113281 239.34375 47.78125 239.121094 48.273438 238.675781 C 48.765625 238.234375 49.015625 237.628906 49.015625 236.867188 C 49.015625 236.105469 48.765625 235.503906 48.273438 235.058594 C 47.78125 234.613281 47.113281 234.390625 46.265625 234.390625 C 45.871094 234.390625 45.476562 234.4375 45.082031 234.523438 C 44.691406 234.609375 44.289062 234.746094 43.882812 234.933594 Z M 43.882812 229.441406 "/>
<path fill="none" stroke-width="0.5" stroke-linecap="butt" stroke-linejoin="round" stroke="rgb(0%, 0%, 0%)" stroke-opacity="1" stroke-miterlimit="100000" d="M 55.808594 178.875 L 59.808594 178.875 "/>
<path fill="none" stroke-width="0.5" stroke-linecap="butt" stroke-linejoin="round" stroke="rgb(0%, 0%, 0%)" stroke-opacity="1" stroke-miterlimit="100000" d="M 502.207031 178.875 L 498.207031 178.875 "/>
<path fill-rule="nonzero" fill="rgb(0%, 0%, 0%)" fill-opacity="1" d="M 47.03125 173.054688 C 46.269531 173.054688 45.695312 173.429688 45.3125 174.179688 C 44.929688 174.929688 44.738281 176.054688 44.738281 177.558594 C 44.738281 179.058594 44.929688 180.183594 45.3125 180.933594 C 45.695312 181.683594 46.269531 182.058594 47.03125 182.058594 C 47.796875 182.058594 48.371094 181.683594 48.753906 180.933594 C 49.140625 180.183594 49.332031 179.058594 49.332031 177.558594 C 49.332031 176.054688 49.140625 174.929688 48.753906 174.179688 C 48.371094 173.429688 47.796875 173.054688 47.03125 173.054688 M 47.03125 171.882812 C 48.257812 171.882812 49.195312 172.367188 49.839844 173.339844 C 50.488281 174.308594 50.8125 175.714844 50.8125 177.558594 C 50.8125 179.398438 50.488281 180.804688 49.839844 181.777344 C 49.195312 182.746094 48.257812 183.230469 47.03125 183.230469 C 45.804688 183.230469 44.871094 182.746094 44.222656 181.777344 C 43.574219 180.804688 43.253906 179.398438 43.253906 177.558594 C 43.253906 175.714844 43.574219 174.308594 44.222656 173.339844 C 44.871094 172.367188 45.804688 171.882812 47.03125 171.882812 "/>
<path fill="none" stroke-width="0.5" stroke-linecap="butt" stroke-linejoin="round" stroke="rgb(0%, 0%, 0%)" stroke-opacity="1" stroke-miterlimit="100000" d="M 55.808594 121.515625 L 59.808594 121.515625 "/>
<path fill="none" stroke-width="0.5" stroke-linecap="butt" stroke-linejoin="round" stroke="rgb(0%, 0%, 0%)" stroke-opacity="1" stroke-miterlimit="100000" d="M 502.207031 121.515625 L 498.207031 121.515625 "/>
<path fill-rule="nonzero" fill="rgb(0%, 0%, 0%)" fill-opacity="1" d="M 43.882812 114.71875 L 49.691406 114.71875 L 49.691406 115.96875 L 45.238281 115.96875 L 45.238281 118.644531 C 45.453125 118.574219 45.664062 118.519531 45.878906 118.480469 C 46.09375 118.445312 46.3125 118.429688 46.527344 118.429688 C 47.746094 118.429688 48.714844 118.761719 49.425781 119.429688 C 50.140625 120.101562 50.496094 121.003906 50.496094 122.148438 C 50.496094 123.324219 50.128906 124.238281 49.398438 124.890625 C 48.664062 125.542969 47.632812 125.871094 46.300781 125.871094 C 45.839844 125.871094 45.371094 125.832031 44.894531 125.753906 C 44.421875 125.675781 43.929688 125.558594 43.421875 125.402344 L 43.421875 123.914062 C 43.859375 124.152344 44.3125 124.328125 44.78125 124.445312 C 45.25 124.5625 45.746094 124.621094 46.269531 124.621094 C 47.113281 124.621094 47.78125 124.402344 48.273438 123.957031 C 48.769531 123.511719 49.015625 122.910156 49.015625 122.148438 C 49.015625 121.386719 48.769531 120.785156 48.273438 120.339844 C 47.78125 119.894531 47.113281 119.671875 46.269531 119.671875 C 45.875 119.671875 45.480469 119.714844 45.085938 119.804688 C 44.691406 119.890625 44.292969 120.027344 43.882812 120.214844 Z M 43.882812 114.71875 "/>
<path fill="none" stroke-width="0.5" stroke-linecap="butt" stroke-linejoin="round" stroke="rgb(0%, 0%, 0%)" stroke-opacity="1" stroke-miterlimit="100000" d="M 55.808594 64.15625 L 59.808594 64.15625 "/>
<path fill="none" stroke-width="0.5" stroke-linecap="butt" stroke-linejoin="round" stroke="rgb(0%, 0%, 0%)" stroke-opacity="1" stroke-miterlimit="100000" d="M 502.207031 64.15625 L 498.207031 64.15625 "/>
<path fill-rule="nonzero" fill="rgb(0%, 0%, 0%)" fill-opacity="1" d="M 34.582031 67.050781 L 36.996094 67.050781 L 36.996094 58.707031 L 34.367188 59.234375 L 34.367188 57.886719 L 36.984375 57.359375 L 38.460938 57.359375 L 38.460938 67.050781 L 40.878906 67.050781 L 40.878906 68.296875 L 34.582031 68.296875 Z M 34.582031 67.050781 "/>
<path fill-rule="nonzero" fill="rgb(0%, 0%, 0%)" fill-opacity="1" d="M 47.03125 58.335938 C 46.269531 58.335938 45.695312 58.710938 45.3125 59.460938 C 44.929688 60.207031 44.738281 61.335938 44.738281 62.839844 C 44.738281 64.339844 44.929688 65.460938 45.3125 66.210938 C 45.695312 66.960938 46.269531 67.335938 47.03125 67.335938 C 47.796875 67.335938 48.371094 66.960938 48.753906 66.210938 C 49.140625 65.460938 49.332031 64.339844 49.332031 62.839844 C 49.332031 61.335938 49.140625 60.207031 48.753906 59.460938 C 48.371094 58.710938 47.796875 58.335938 47.03125 58.335938 M 47.03125 57.164062 C 48.257812 57.164062 49.195312 57.648438 49.839844 58.617188 C 50.488281 59.585938 50.8125 60.996094 50.8125 62.839844 C 50.8125 64.679688 50.488281 66.085938 49.839844 67.054688 C 49.195312 68.023438 48.257812 68.507812 47.03125 68.507812 C 45.804688 68.507812 44.871094 68.023438 44.222656 67.054688 C 43.574219 66.085938 43.253906 64.679688 43.253906 62.839844 C 43.253906 60.996094 43.574219 59.585938 44.222656 58.617188 C 44.871094 57.648438 45.804688 57.164062 47.03125 57.164062 "/>
<path fill="none" stroke-width="0.5" stroke-linecap="butt" stroke-linejoin="round" stroke="rgb(0%, 0%, 0%)" stroke-opacity="1" stroke-miterlimit="100000" d="M 55.808594 6.796875 L 59.808594 6.796875 "/>
<path fill="none" stroke-width="0.5" stroke-linecap="butt" stroke-linejoin="round" stroke="rgb(0%, 0%, 0%)" stroke-opacity="1" stroke-miterlimit="100000" d="M 502.207031 6.796875 L 498.207031 6.796875 "/>
<path fill-rule="nonzero" fill="rgb(0%, 0%, 0%)" fill-opacity="1" d="M 34.582031 9.691406 L 36.996094 9.691406 L 36.996094 1.347656 L 34.367188 1.875 L 34.367188 0.527344 L 36.984375 0 L 38.460938 0 L 38.460938 9.691406 L 40.878906 9.691406 L 40.878906 10.9375 L 34.582031 10.9375 Z M 34.582031 9.691406 "/>
<path fill-rule="nonzero" fill="rgb(0%, 0%, 0%)" fill-opacity="1" d="M 43.882812 0 L 49.691406 0 L 49.691406 1.246094 L 45.238281 1.246094 L 45.238281 3.925781 C 45.453125 3.851562 45.664062 3.796875 45.878906 3.761719 C 46.09375 3.726562 46.3125 3.707031 46.527344 3.707031 C 47.746094 3.707031 48.714844 4.042969 49.425781 4.710938 C 50.140625 5.378906 50.496094 6.285156 50.496094 7.425781 C 50.496094 8.605469 50.128906 9.519531 49.398438 10.171875 C 48.664062 10.824219 47.632812 11.148438 46.300781 11.148438 C 45.839844 11.148438 45.371094 11.109375 44.894531 11.03125 C 44.421875 10.953125 43.929688 10.835938 43.421875 10.679688 L 43.421875 9.191406 C 43.859375 9.429688 44.3125 9.609375 44.78125 9.726562 C 45.25 9.84375 45.746094 9.902344 46.269531 9.902344 C 47.113281 9.902344 47.78125 9.679688 48.273438 9.238281 C 48.769531 8.792969 49.015625 8.191406 49.015625 7.425781 C 49.015625 6.667969 48.769531 6.0625 48.273438 5.621094 C 47.78125 5.175781 47.113281 4.953125 46.269531 4.953125 C 45.875 4.953125 45.480469 4.996094 45.085938 5.082031 C 44.691406 5.171875 44.292969 5.308594 43.882812 5.492188 Z M 43.882812 0 "/>
<path fill-rule="nonzero" fill="rgb(0%, 0%, 0%)" fill-opacity="1" d="M 0.820312 259.949219 L 2.265625 259.949219 C 1.996094 260.511719 1.796875 261.039062 1.664062 261.539062 C 1.53125 262.035156 1.464844 262.519531 1.464844 262.980469 C 1.464844 263.785156 1.621094 264.40625 1.933594 264.84375 C 2.246094 265.28125 2.691406 265.5 3.265625 265.5 C 3.75 265.5 4.117188 265.355469 4.363281 265.066406 C 4.609375 264.773438 4.808594 264.222656 4.960938 263.414062 L 5.140625 262.519531 C 5.351562 261.417969 5.722656 260.601562 6.253906 260.078125 C 6.78125 259.554688 7.492188 259.289062 8.378906 259.289062 C 9.441406 259.289062 10.242188 259.644531 10.789062 260.355469 C 11.335938 261.066406 11.609375 262.105469 11.609375 263.480469 C 11.609375 263.996094 11.550781 264.546875 11.433594 265.132812 C 11.316406 265.714844 11.144531 266.316406 10.914062 266.941406 L 9.390625 266.941406 C 9.726562 266.34375 9.980469 265.753906 10.152344 265.179688 C 10.324219 264.601562 10.410156 264.035156 10.410156 263.480469 C 10.410156 262.636719 10.242188 261.984375 9.910156 261.523438 C 9.578125 261.066406 9.105469 260.835938 8.488281 260.835938 C 7.953125 260.835938 7.535156 261 7.230469 261.328125 C 6.925781 261.660156 6.699219 262.199219 6.546875 262.953125 L 6.371094 263.855469 C 6.152344 264.957031 5.808594 265.753906 5.339844 266.25 C 4.871094 266.742188 4.21875 266.988281 3.382812 266.988281 C 2.417969 266.988281 1.65625 266.648438 1.097656 265.964844 C 0.542969 265.285156 0.265625 264.347656 0.265625 263.152344 C 0.265625 262.636719 0.3125 262.113281 0.40625 261.582031 C 0.496094 261.050781 0.636719 260.503906 0.820312 259.949219 "/>
<path fill-rule="nonzero" fill="rgb(0%, 0%, 0%)" fill-opacity="1" d="M 4.140625 253.863281 C 4.140625 254.585938 4.421875 255.15625 4.984375 255.578125 C 5.550781 255.996094 6.320312 256.207031 7.304688 256.207031 C 8.285156 256.207031 9.058594 256 9.621094 255.582031 C 10.183594 255.164062 10.46875 254.589844 10.46875 253.863281 C 10.46875 253.144531 10.183594 252.578125 9.617188 252.15625 C 9.050781 251.738281 8.28125 251.527344 7.304688 251.527344 C 6.332031 251.527344 5.5625 251.738281 4.992188 252.15625 C 4.421875 252.578125 4.140625 253.144531 4.140625 253.863281 M 2.996094 253.863281 C 2.996094 252.691406 3.378906 251.773438 4.140625 251.101562 C 4.902344 250.433594 5.957031 250.097656 7.304688 250.097656 C 8.644531 250.097656 9.699219 250.433594 10.464844 251.101562 C 11.230469 251.773438 11.609375 252.691406 11.609375 253.863281 C 11.609375 255.039062 11.230469 255.960938 10.464844 256.628906 C 9.699219 257.296875 8.644531 257.628906 7.304688 257.628906 C 5.957031 257.628906 4.902344 257.296875 4.140625 256.628906 C 3.378906 255.960938 2.996094 255.039062 2.996094 253.863281 "/>
<path fill-rule="nonzero" fill="rgb(0%, 0%, 0%)" fill-opacity="1" d="M 4.453125 243.113281 C 4.367188 243.261719 4.300781 243.429688 4.261719 243.605469 C 4.21875 243.785156 4.199219 243.980469 4.199219 244.195312 C 4.199219 244.957031 4.445312 245.542969 4.941406 245.949219 C 5.4375 246.359375 6.148438 246.5625 7.074219 246.5625 L 11.398438 246.5625 L 11.398438 247.917969 L 3.195312 247.917969 L 3.195312 246.5625 L 4.46875 246.5625 C 3.972656 246.277344 3.601562 245.910156 3.359375 245.457031 C 3.117188 245 2.996094 244.449219 2.996094 243.796875 C 2.996094 243.707031 3.003906 243.605469 3.015625 243.492188 C 3.027344 243.378906 3.046875 243.253906 3.070312 243.117188 Z M 4.453125 243.113281 "/>
<path fill-rule="nonzero" fill="rgb(0%, 0%, 0%)" fill-opacity="1" d="M 0.863281 240.363281 L 3.195312 240.363281 L 3.195312 237.589844 L 4.242188 237.589844 L 4.242188 240.363281 L 8.695312 240.363281 C 9.363281 240.363281 9.792969 240.273438 9.984375 240.089844 C 10.175781 239.90625 10.269531 239.535156 10.269531 238.972656 L 10.269531 237.589844 L 11.398438 237.589844 L 11.398438 238.972656 C 11.398438 240.011719 11.203125 240.730469 10.816406 241.125 C 10.425781 241.519531 9.71875 241.71875 8.695312 241.71875 L 4.242188 241.71875 L 4.242188 242.707031 L 3.195312 242.707031 L 3.195312 241.71875 L 0.863281 241.71875 Z M 0.863281 240.363281 "/>
<path fill-rule="nonzero" fill="rgb(0%, 0%, 0%)" fill-opacity="1" d="M 3.195312 235.816406 L 3.195312 234.46875 L 11.398438 234.46875 L 11.398438 235.816406 Z M 0 235.816406 L 0 234.46875 L 1.707031 234.46875 L 1.707031 235.816406 Z M 0 235.816406 "/>
<path fill-rule="nonzero" fill="rgb(0%, 0%, 0%)" fill-opacity="1" d="M 6.957031 224.632812 L 7.617188 224.632812 L 7.617188 230.828125 C 8.546875 230.769531 9.253906 230.488281 9.738281 229.988281 C 10.222656 229.488281 10.46875 228.792969 10.46875 227.898438 C 10.46875 227.382812 10.402344 226.878906 10.277344 226.394531 C 10.152344 225.910156 9.960938 225.425781 9.707031 224.945312 L 10.980469 224.945312 C 11.183594 225.429688 11.339844 225.925781 11.449219 226.433594 C 11.558594 226.941406 11.609375 227.457031 11.609375 227.980469 C 11.609375 229.289062 11.230469 230.324219 10.46875 231.089844 C 9.707031 231.851562 8.675781 232.234375 7.375 232.234375 C 6.035156 232.234375 4.96875 231.871094 4.179688 231.148438 C 3.390625 230.421875 2.996094 229.445312 2.996094 228.214844 C 2.996094 227.109375 3.351562 226.238281 4.0625 225.59375 C 4.773438 224.953125 5.738281 224.632812 6.957031 224.632812 M 6.5625 225.980469 C 5.828125 225.988281 5.238281 226.195312 4.800781 226.597656 C 4.359375 227 4.140625 227.535156 4.140625 228.199219 C 4.140625 228.949219 4.351562 229.550781 4.777344 230.003906 C 5.203125 230.457031 5.800781 230.714844 6.570312 230.785156 Z M 6.5625 225.980469 "/>
<path fill-rule="nonzero" fill="rgb(0%, 0%, 0%)" fill-opacity="1" d="M 11.566406 216.472656 C 11.566406 217.078125 11.328125 217.550781 10.855469 217.886719 C 10.382812 218.222656 9.828125 218.390625 9.191406 218.390625 C 9.101562 218.390625 8.917969 218.367188 8.648438 218.324219 C 8.375 218.277344 8.207031 218.253906 8.144531 218.253906 L 2.324219 216.800781 C 2.152344 216.761719 2.019531 216.738281 1.917969 216.730469 C 1.757812 216.730469 1.679688 217.054688 1.679688 217.703125 C 1.679688 217.800781 1.613281 217.847656 1.480469 217.847656 C 1.457031 217.84375 1.414062 217.832031 1.351562 217.816406 C 1.285156 217.800781 1.238281 217.777344 1.203125 217.75 C 1.167969 217.722656 1.152344 217.6875 1.152344 217.636719 L 0.988281 215.617188 C 0.988281 215.492188 1.054688 215.433594 1.179688 215.433594 L 5.605469 216.546875 C 5.046875 215.980469 4.769531 215.40625 4.769531 214.832031 C 4.769531 214.40625 4.882812 214.042969 5.105469 213.738281 C 5.332031 213.433594 5.625 213.203125 5.992188 213.050781 C 6.359375 212.898438 6.75 212.824219 7.164062 212.824219 C 7.648438 212.824219 8.148438 212.917969 8.664062 213.109375 C 9.175781 213.296875 9.65625 213.554688 10.097656 213.886719 C 10.539062 214.21875 10.894531 214.609375 11.164062 215.054688 C 11.433594 215.496094 11.566406 215.96875 11.566406 216.472656 M 11.171875 216.441406 C 11.171875 216.101562 11.027344 215.78125 10.742188 215.484375 C 10.457031 215.1875 10.132812 214.945312 9.777344 214.757812 C 9.378906 214.558594 8.835938 214.371094 8.148438 214.199219 C 7.464844 214.023438 6.914062 213.9375 6.503906 213.9375 C 6.148438 213.9375 5.835938 214.011719 5.5625 214.164062 C 5.292969 214.3125 5.15625 214.546875 5.15625 214.867188 C 5.15625 215.230469 5.289062 215.578125 5.558594 215.90625 C 5.824219 216.234375 6.136719 216.523438 6.503906 216.773438 L 8.203125 217.191406 C 8.835938 217.351562 9.339844 217.4375 9.71875 217.445312 C 10.097656 217.445312 10.433594 217.363281 10.726562 217.203125 C 11.023438 217.039062 11.171875 216.785156 11.171875 216.441406 "/>
<path fill-rule="nonzero" fill="rgb(0%, 0%, 0%)" fill-opacity="1" d="M 13.949219 212.105469 L 13.667969 212.105469 C 13.648438 212.105469 13.628906 212.097656 13.609375 212.085938 L 11.804688 210.453125 C 11.539062 210.207031 11.316406 210.007812 11.136719 209.855469 C 10.953125 209.699219 10.746094 209.550781 10.507812 209.398438 C 10.273438 209.25 10.03125 209.128906 9.789062 209.042969 C 9.542969 208.953125 9.285156 208.910156 9.011719 208.910156 C 8.722656 208.910156 8.449219 208.964844 8.1875 209.070312 C 7.925781 209.175781 7.71875 209.332031 7.558594 209.542969 C 7.402344 209.753906 7.324219 210.007812 7.324219 210.304688 C 7.324219 210.609375 7.414062 210.882812 7.597656 211.125 C 7.78125 211.367188 8.019531 211.539062 8.308594 211.636719 C 8.300781 211.609375 8.296875 211.574219 8.296875 211.523438 C 8.296875 211.367188 8.351562 211.234375 8.457031 211.125 C 8.5625 211.011719 8.699219 210.957031 8.867188 210.957031 C 9.027344 210.957031 9.164062 211.011719 9.277344 211.125 C 9.386719 211.234375 9.441406 211.367188 9.441406 211.523438 C 9.441406 211.6875 9.386719 211.828125 9.269531 211.9375 C 9.15625 212.050781 9.023438 212.105469 8.867188 212.105469 C 8.605469 212.105469 8.355469 212.054688 8.128906 211.957031 C 7.898438 211.855469 7.691406 211.714844 7.511719 211.527344 C 7.332031 211.339844 7.195312 211.132812 7.097656 210.898438 C 7.003906 210.664062 6.953125 210.414062 6.953125 210.152344 C 6.953125 209.75 7.039062 209.378906 7.207031 209.035156 C 7.378906 208.6875 7.617188 208.414062 7.925781 208.214844 C 8.234375 208.011719 8.597656 207.910156 9.011719 207.910156 C 9.316406 207.910156 9.605469 207.976562 9.878906 208.109375 C 10.152344 208.246094 10.402344 208.414062 10.625 208.625 C 10.847656 208.832031 11.101562 209.097656 11.386719 209.421875 C 11.667969 209.75 11.859375 209.960938 11.953125 210.0625 L 13.097656 211.253906 L 13.097656 210.242188 C 13.097656 209.75 13.09375 209.332031 13.085938 209 C 13.078125 208.667969 13.0625 208.488281 13.046875 208.46875 C 12.957031 208.386719 12.632812 208.304688 12.078125 208.21875 L 12.078125 207.910156 L 13.949219 208.207031 Z M 13.949219 212.105469 "/>
<path fill-rule="nonzero" fill="rgb(0%, 0%, 0%)" fill-opacity="1" d="M 15.121094 201.769531 C 14.679688 202.328125 14.175781 202.808594 13.605469 203.210938 C 13.035156 203.613281 12.429688 203.941406 11.785156 204.199219 C 11.140625 204.457031 10.46875 204.648438 9.765625 204.773438 C 9.0625 204.898438 8.355469 204.964844 7.648438 204.964844 C 6.929688 204.964844 6.21875 204.898438 5.515625 204.773438 C 4.8125 204.648438 4.136719 204.453125 3.488281 204.191406 C 2.835938 203.929688 2.230469 203.597656 1.664062 203.191406 C 1.097656 202.785156 0.601562 202.3125 0.175781 201.769531 C 0.15625 201.769531 0.148438 201.746094 0.148438 201.695312 L 0.148438 201.558594 C 0.148438 201.527344 0.160156 201.5 0.1875 201.476562 C 0.214844 201.453125 0.246094 201.441406 0.277344 201.441406 C 0.324219 201.441406 0.355469 201.449219 0.375 201.46875 C 0.851562 201.957031 1.367188 202.363281 1.914062 202.691406 C 2.460938 203.015625 3.042969 203.277344 3.660156 203.476562 C 4.277344 203.671875 4.917969 203.8125 5.582031 203.902344 C 6.242188 203.988281 6.929688 204.03125 7.648438 204.03125 C 10.824219 204.03125 13.242188 203.183594 14.890625 201.484375 C 14.921875 201.457031 14.960938 201.441406 15.015625 201.441406 C 15.039062 201.441406 15.066406 201.453125 15.097656 201.480469 C 15.132812 201.507812 15.148438 201.53125 15.148438 201.558594 L 15.148438 201.695312 C 15.148438 201.746094 15.136719 201.769531 15.121094 201.769531 "/>
<path fill-rule="nonzero" fill="rgb(0%, 0%, 0%)" fill-opacity="1" d="M 10.179688 199.667969 C 10.035156 199.667969 9.894531 199.652344 9.765625 199.625 L 5.457031 198.539062 L 5.457031 200.117188 C 5.457031 200.21875 5.390625 200.269531 5.257812 200.269531 C 5.039062 200.230469 4.929688 200.164062 4.929688 200.070312 L 4.929688 198.410156 L 2.484375 197.808594 C 2.351562 197.769531 2.238281 197.691406 2.148438 197.574219 C 2.054688 197.457031 2.007812 197.324219 2.007812 197.179688 C 2.007812 197.050781 2.046875 196.945312 2.125 196.859375 C 2.199219 196.773438 2.300781 196.730469 2.425781 196.730469 C 2.457031 196.730469 2.480469 196.734375 2.496094 196.734375 C 2.511719 196.738281 2.53125 196.742188 2.550781 196.746094 L 4.929688 197.34375 L 4.929688 195.800781 C 4.929688 195.699219 4.996094 195.644531 5.128906 195.644531 C 5.152344 195.652344 5.195312 195.664062 5.253906 195.675781 C 5.3125 195.691406 5.359375 195.710938 5.398438 195.734375 C 5.4375 195.761719 5.457031 195.796875 5.457031 195.84375 L 5.457031 197.480469 L 9.792969 198.554688 C 10.078125 198.628906 10.320312 198.664062 10.527344 198.664062 C 10.957031 198.664062 11.171875 198.519531 11.171875 198.222656 C 11.171875 197.785156 10.964844 197.394531 10.550781 197.058594 C 10.140625 196.71875 9.6875 196.457031 9.191406 196.277344 C 9.132812 196.238281 9.105469 196.199219 9.105469 196.160156 L 9.105469 195.976562 C 9.105469 195.9375 9.117188 195.90625 9.144531 195.882812 C 9.171875 195.859375 9.203125 195.84375 9.238281 195.84375 C 9.257812 195.84375 9.273438 195.851562 9.28125 195.859375 C 9.886719 196.078125 10.417969 196.398438 10.878906 196.820312 C 11.335938 197.238281 11.566406 197.71875 11.566406 198.261719 C 11.566406 198.65625 11.4375 198.992188 11.179688 199.261719 C 10.921875 199.53125 10.585938 199.667969 10.179688 199.667969 "/>
<path fill-rule="nonzero" fill="rgb(0%, 0%, 0%)" fill-opacity="1" d="M 15.148438 194.210938 C 15.148438 194.300781 15.105469 194.34375 15.015625 194.34375 C 14.972656 194.34375 14.941406 194.335938 14.921875 194.3125 C 13.25 192.605469 10.824219 191.75 7.648438 191.75 C 4.46875 191.75 2.054688 192.59375 0.402344 194.285156 C 0.378906 194.324219 0.339844 194.34375 0.277344 194.34375 C 0.246094 194.34375 0.214844 194.332031 0.1875 194.304688 C 0.160156 194.277344 0.148438 194.246094 0.148438 194.210938 L 0.148438 194.074219 C 0.148438 194.042969 0.15625 194.019531 0.175781 194 C 0.742188 193.28125 1.433594 192.683594 2.242188 192.203125 C 3.050781 191.726562 3.917969 191.375 4.835938 191.15625 C 5.753906 190.929688 6.691406 190.820312 7.648438 190.820312 C 8.355469 190.820312 9.050781 190.878906 9.738281 191 C 10.425781 191.121094 11.101562 191.3125 11.765625 191.570312 C 12.433594 191.832031 13.046875 192.164062 13.613281 192.5625 C 14.175781 192.964844 14.679688 193.441406 15.121094 194 C 15.136719 194.019531 15.148438 194.042969 15.148438 194.074219 Z M 15.148438 194.210938 "/>
<path fill-rule="nonzero" fill="rgb(0%, 0%, 0%)" fill-opacity="1" d="M 10.167969 181.878906 L 14.515625 181.878906 L 14.515625 183.234375 L 3.195312 183.234375 L 3.195312 181.878906 L 4.4375 181.878906 C 3.953125 181.59375 3.589844 181.238281 3.355469 180.804688 C 3.117188 180.371094 2.996094 179.855469 2.996094 179.257812 C 2.996094 178.257812 3.394531 177.449219 4.183594 176.828125 C 4.972656 176.203125 6.015625 175.894531 7.304688 175.894531 C 8.59375 175.894531 9.632812 176.203125 10.425781 176.828125 C 11.214844 177.449219 11.609375 178.257812 11.609375 179.257812 C 11.609375 179.855469 11.492188 180.371094 11.253906 180.804688 C 11.015625 181.238281 10.65625 181.59375 10.167969 181.878906 M 7.304688 177.292969 C 6.3125 177.292969 5.535156 177.496094 4.972656 177.902344 C 4.40625 178.3125 4.125 178.871094 4.125 179.585938 C 4.125 180.296875 4.40625 180.859375 4.972656 181.265625 C 5.535156 181.675781 6.3125 181.878906 7.304688 181.878906 C 8.292969 181.878906 9.070312 181.675781 9.636719 181.265625 C 10.199219 180.859375 10.480469 180.296875 10.480469 179.585938 C 10.480469 178.871094 10.199219 178.3125 9.636719 177.902344 C 9.070312 177.496094 8.292969 177.292969 7.304688 177.292969 "/>
<path fill-rule="nonzero" fill="rgb(0%, 0%, 0%)" fill-opacity="1" d="M 4.140625 170.480469 C 4.140625 171.203125 4.421875 171.773438 4.984375 172.195312 C 5.550781 172.617188 6.320312 172.824219 7.304688 172.824219 C 8.285156 172.824219 9.058594 172.617188 9.621094 172.199219 C 10.183594 171.78125 10.46875 171.207031 10.46875 170.480469 C 10.46875 169.761719 10.183594 169.195312 9.617188 168.777344 C 9.050781 168.355469 8.28125 168.144531 7.304688 168.144531 C 6.332031 168.144531 5.5625 168.355469 4.992188 168.777344 C 4.421875 169.195312 4.140625 169.761719 4.140625 170.480469 M 2.996094 170.480469 C 2.996094 169.308594 3.378906 168.390625 4.140625 167.722656 C 4.902344 167.050781 5.957031 166.714844 7.304688 166.714844 C 8.644531 166.714844 9.699219 167.050781 10.464844 167.722656 C 11.230469 168.390625 11.609375 169.308594 11.609375 170.480469 C 11.609375 171.660156 11.230469 172.582031 10.464844 173.246094 C 9.699219 173.914062 8.644531 174.246094 7.304688 174.246094 C 5.957031 174.246094 4.902344 173.914062 4.140625 173.246094 C 3.378906 172.582031 2.996094 171.660156 2.996094 170.480469 "/>
<path fill-rule="nonzero" fill="rgb(0%, 0%, 0%)" fill-opacity="1" d="M 8.160156 164.621094 L 3.195312 164.621094 L 3.195312 163.273438 L 8.109375 163.273438 C 8.886719 163.273438 9.46875 163.121094 9.859375 162.820312 C 10.246094 162.519531 10.4375 162.0625 10.4375 161.457031 C 10.4375 160.730469 10.207031 160.15625 9.742188 159.734375 C 9.277344 159.3125 8.644531 159.097656 7.84375 159.097656 L 3.195312 159.097656 L 3.195312 157.75 L 11.398438 157.75 L 11.398438 159.097656 L 10.136719 159.097656 C 10.636719 159.425781 11.003906 159.804688 11.246094 160.238281 C 11.488281 160.667969 11.609375 161.171875 11.609375 161.742188 C 11.609375 162.683594 11.316406 163.402344 10.730469 163.890625 C 10.144531 164.378906 9.289062 164.621094 8.160156 164.621094 "/>
<path fill-rule="nonzero" fill="rgb(0%, 0%, 0%)" fill-opacity="1" d="M 4.453125 150.222656 C 4.367188 150.375 4.300781 150.539062 4.261719 150.71875 C 4.21875 150.894531 4.199219 151.089844 4.199219 151.304688 C 4.199219 152.066406 4.445312 152.652344 4.941406 153.0625 C 5.4375 153.46875 6.148438 153.671875 7.074219 153.671875 L 11.398438 153.671875 L 11.398438 155.027344 L 3.195312 155.027344 L 3.195312 153.671875 L 4.46875 153.671875 C 3.972656 153.386719 3.601562 153.019531 3.359375 152.566406 C 3.117188 152.113281 2.996094 151.558594 2.996094 150.910156 C 2.996094 150.816406 3.003906 150.714844 3.015625 150.601562 C 3.027344 150.488281 3.046875 150.367188 3.070312 150.230469 Z M 4.453125 150.222656 "/>
<path fill-rule="nonzero" fill="rgb(0%, 0%, 0%)" fill-opacity="1" d="M 11.566406 142.847656 C 11.566406 143.476562 11.328125 143.976562 10.851562 144.339844 C 10.375 144.703125 9.8125 144.882812 9.164062 144.882812 C 8.523438 144.882812 7.859375 144.71875 7.171875 144.386719 C 6.484375 144.054688 5.910156 143.605469 5.453125 143.039062 C 4.996094 142.476562 4.769531 141.871094 4.769531 141.222656 C 4.769531 140.921875 4.851562 140.65625 5.011719 140.421875 C 5.171875 140.1875 5.390625 140.003906 5.667969 139.875 C 5.269531 139.761719 5.070312 139.542969 5.070312 139.214844 C 5.070312 139.085938 5.109375 138.980469 5.183594 138.898438 C 5.257812 138.8125 5.359375 138.769531 5.488281 138.769531 C 5.515625 138.769531 5.539062 138.769531 5.554688 138.773438 C 5.570312 138.773438 5.585938 138.777344 5.605469 138.78125 L 9.792969 139.828125 C 10.089844 139.898438 10.335938 139.933594 10.527344 139.933594 C 10.957031 139.933594 11.171875 139.789062 11.171875 139.5 C 11.171875 139.1875 10.972656 138.949219 10.574219 138.785156 C 10.175781 138.621094 9.714844 138.484375 9.191406 138.371094 C 9.132812 138.351562 9.105469 138.3125 9.105469 138.253906 L 9.105469 138.070312 C 9.105469 138.03125 9.121094 138 9.15625 137.976562 C 9.191406 137.953125 9.222656 137.941406 9.25 137.941406 C 9.949219 138.117188 10.511719 138.308594 10.933594 138.515625 C 11.355469 138.722656 11.566406 139.0625 11.566406 139.53125 C 11.566406 139.867188 11.46875 140.164062 11.269531 140.421875 C 11.074219 140.683594 10.808594 140.84375 10.480469 140.90625 C 11.203125 141.550781 11.566406 142.199219 11.566406 142.847656 M 11.171875 142.832031 C 11.171875 142.472656 11.035156 142.121094 10.765625 141.78125 C 10.492188 141.441406 10.175781 141.152344 9.808594 140.90625 C 9.800781 140.894531 9.785156 140.890625 9.765625 140.890625 L 6.503906 140.085938 L 6.460938 140.070312 C 6.105469 140.128906 5.800781 140.257812 5.542969 140.457031 C 5.285156 140.65625 5.15625 140.921875 5.15625 141.257812 C 5.15625 141.59375 5.292969 141.910156 5.570312 142.199219 C 5.847656 142.488281 6.171875 142.734375 6.546875 142.933594 C 6.949219 143.128906 7.496094 143.316406 8.195312 143.496094 C 8.894531 143.671875 9.4375 143.761719 9.824219 143.761719 C 10.167969 143.761719 10.480469 143.6875 10.757812 143.539062 C 11.03125 143.390625 11.171875 143.152344 11.171875 142.832031 "/>
<path fill-rule="nonzero" fill="rgb(0%, 0%, 0%)" fill-opacity="1" d="M 13.949219 137.011719 L 13.667969 137.011719 C 13.648438 137.011719 13.628906 137.007812 13.609375 136.992188 L 11.804688 135.363281 C 11.539062 135.117188 11.316406 134.917969 11.136719 134.765625 C 10.953125 134.609375 10.746094 134.457031 10.507812 134.308594 C 10.273438 134.15625 10.03125 134.039062 9.789062 133.949219 C 9.542969 133.863281 9.285156 133.820312 9.011719 133.820312 C 8.722656 133.820312 8.449219 133.871094 8.1875 133.976562 C 7.925781 134.085938 7.71875 134.242188 7.558594 134.453125 C 7.402344 134.664062 7.324219 134.917969 7.324219 135.214844 C 7.324219 135.519531 7.414062 135.792969 7.597656 136.035156 C 7.78125 136.277344 8.019531 136.449219 8.308594 136.546875 C 8.300781 136.519531 8.296875 136.484375 8.296875 136.433594 C 8.296875 136.277344 8.351562 136.144531 8.457031 136.03125 C 8.5625 135.921875 8.699219 135.863281 8.867188 135.863281 C 9.027344 135.863281 9.164062 135.921875 9.277344 136.03125 C 9.386719 136.144531 9.441406 136.277344 9.441406 136.433594 C 9.441406 136.597656 9.386719 136.734375 9.269531 136.847656 C 9.15625 136.957031 9.023438 137.011719 8.867188 137.011719 C 8.605469 137.011719 8.355469 136.964844 8.128906 136.867188 C 7.898438 136.765625 7.691406 136.625 7.511719 136.4375 C 7.332031 136.25 7.195312 136.039062 7.097656 135.804688 C 7.003906 135.570312 6.953125 135.324219 6.953125 135.0625 C 6.953125 134.660156 7.039062 134.289062 7.207031 133.945312 C 7.378906 133.597656 7.617188 133.324219 7.925781 133.125 C 8.234375 132.921875 8.597656 132.820312 9.011719 132.820312 C 9.316406 132.820312 9.605469 132.886719 9.878906 133.019531 C 10.152344 133.152344 10.402344 133.324219 10.625 133.535156 C 10.847656 133.742188 11.101562 134.007812 11.386719 134.332031 C 11.667969 134.65625 11.859375 134.871094 11.953125 134.972656 L 13.097656 136.160156 L 13.097656 135.152344 C 13.097656 134.65625 13.09375 134.242188 13.085938 133.910156 C 13.078125 133.574219 13.0625 133.398438 13.046875 133.378906 C 12.957031 133.296875 12.632812 133.214844 12.078125 133.125 L 12.078125 132.820312 L 13.949219 133.117188 Z M 13.949219 137.011719 "/>
<path fill-rule="nonzero" fill="rgb(0%, 0%, 0%)" fill-opacity="1" d="M 15.121094 126.679688 C 14.679688 127.238281 14.175781 127.714844 13.605469 128.121094 C 13.035156 128.519531 12.429688 128.851562 11.785156 129.109375 C 11.140625 129.363281 10.46875 129.554688 9.765625 129.683594 C 9.0625 129.808594 8.355469 129.871094 7.648438 129.871094 C 6.929688 129.871094 6.21875 129.808594 5.515625 129.683594 C 4.8125 129.554688 4.136719 129.363281 3.488281 129.101562 C 2.835938 128.839844 2.230469 128.503906 1.664062 128.101562 C 1.097656 127.695312 0.601562 127.222656 0.175781 126.679688 C 0.15625 126.679688 0.148438 126.65625 0.148438 126.605469 L 0.148438 126.46875 C 0.148438 126.4375 0.160156 126.410156 0.1875 126.386719 C 0.214844 126.363281 0.246094 126.351562 0.277344 126.351562 C 0.324219 126.351562 0.355469 126.359375 0.375 126.378906 C 0.851562 126.867188 1.367188 127.273438 1.914062 127.597656 C 2.460938 127.925781 3.042969 128.1875 3.660156 128.382812 C 4.277344 128.582031 4.917969 128.722656 5.582031 128.8125 C 6.242188 128.898438 6.929688 128.941406 7.648438 128.941406 C 10.824219 128.941406 13.242188 128.09375 14.890625 126.394531 C 14.921875 126.363281 14.960938 126.351562 15.015625 126.351562 C 15.039062 126.351562 15.066406 126.363281 15.097656 126.390625 C 15.132812 126.417969 15.148438 126.441406 15.148438 126.46875 L 15.148438 126.605469 C 15.148438 126.65625 15.136719 126.679688 15.121094 126.679688 "/>
<path fill-rule="nonzero" fill="rgb(0%, 0%, 0%)" fill-opacity="1" d="M 10.179688 124.578125 C 10.035156 124.578125 9.894531 124.5625 9.765625 124.53125 L 5.457031 123.449219 L 5.457031 125.023438 C 5.457031 125.125 5.390625 125.175781 5.257812 125.175781 C 5.039062 125.136719 4.929688 125.074219 4.929688 124.980469 L 4.929688 123.320312 L 2.484375 122.714844 C 2.351562 122.675781 2.238281 122.597656 2.148438 122.480469 C 2.054688 122.363281 2.007812 122.234375 2.007812 122.089844 C 2.007812 121.960938 2.046875 121.855469 2.125 121.769531 C 2.199219 121.683594 2.300781 121.640625 2.425781 121.640625 C 2.457031 121.640625 2.480469 121.640625 2.496094 121.644531 C 2.511719 121.648438 2.53125 121.648438 2.550781 121.65625 L 4.929688 122.253906 L 4.929688 120.710938 C 4.929688 120.605469 4.996094 120.554688 5.128906 120.554688 C 5.152344 120.5625 5.195312 120.570312 5.253906 120.585938 C 5.3125 120.601562 5.359375 120.621094 5.398438 120.644531 C 5.4375 120.667969 5.457031 120.707031 5.457031 120.753906 L 5.457031 122.386719 L 9.792969 123.464844 C 10.078125 123.539062 10.320312 123.574219 10.527344 123.574219 C 10.957031 123.574219 11.171875 123.425781 11.171875 123.132812 C 11.171875 122.695312 10.964844 122.304688 10.550781 121.964844 C 10.140625 121.628906 9.6875 121.367188 9.191406 121.1875 C 9.132812 121.148438 9.105469 121.109375 9.105469 121.070312 L 9.105469 120.886719 C 9.105469 120.847656 9.117188 120.816406 9.144531 120.792969 C 9.171875 120.765625 9.203125 120.753906 9.238281 120.753906 C 9.257812 120.753906 9.273438 120.757812 9.28125 120.769531 C 9.886719 120.988281 10.417969 121.308594 10.878906 121.730469 C 11.335938 122.148438 11.566406 122.628906 11.566406 123.171875 C 11.566406 123.566406 11.4375 123.898438 11.179688 124.171875 C 10.921875 124.441406 10.585938 124.578125 10.179688 124.578125 "/>
<path fill-rule="nonzero" fill="rgb(0%, 0%, 0%)" fill-opacity="1" d="M 15.148438 119.121094 C 15.148438 119.207031 15.105469 119.253906 15.015625 119.253906 C 14.972656 119.253906 14.941406 119.242188 14.921875 119.222656 C 13.25 117.511719 10.824219 116.660156 7.648438 116.660156 C 4.46875 116.660156 2.054688 117.503906 0.402344 119.195312 C 0.378906 119.234375 0.339844 119.253906 0.277344 119.253906 C 0.246094 119.253906 0.214844 119.238281 0.1875 119.214844 C 0.160156 119.183594 0.148438 119.152344 0.148438 119.121094 L 0.148438 118.980469 C 0.148438 118.953125 0.15625 118.925781 0.175781 118.910156 C 0.742188 118.191406 1.433594 117.589844 2.242188 117.113281 C 3.050781 116.636719 3.917969 116.285156 4.835938 116.0625 C 5.753906 115.839844 6.691406 115.726562 7.648438 115.726562 C 8.355469 115.726562 9.050781 115.789062 9.738281 115.910156 C 10.425781 116.027344 11.101562 116.21875 11.765625 116.480469 C 12.433594 116.742188 13.046875 117.070312 13.613281 117.472656 C 14.175781 117.871094 14.679688 118.351562 15.121094 118.910156 C 15.136719 118.925781 15.148438 118.953125 15.148438 118.980469 Z M 15.148438 119.121094 "/>
<path fill-rule="nonzero" fill="rgb(0%, 0%, 0%)" fill-opacity="1" d="M 9.40625 110.511719 C 9.40625 110.59375 9.375 110.664062 9.3125 110.71875 C 9.246094 110.769531 9.179688 110.796875 9.105469 110.796875 C 9.023438 110.796875 8.953125 110.769531 8.894531 110.71875 C 8.835938 110.664062 8.804688 110.59375 8.804688 110.511719 L 8.804688 101.089844 C 8.804688 101.019531 8.835938 100.953125 8.894531 100.902344 C 8.953125 100.847656 9.023438 100.820312 9.105469 100.820312 C 9.179688 100.820312 9.246094 100.847656 9.3125 100.902344 C 9.375 100.953125 9.40625 101.019531 9.40625 101.089844 Z M 6.488281 110.511719 C 6.488281 110.59375 6.460938 110.664062 6.402344 110.71875 C 6.34375 110.769531 6.273438 110.796875 6.191406 110.796875 C 6.117188 110.796875 6.046875 110.769531 5.984375 110.71875 C 5.921875 110.664062 5.890625 110.59375 5.890625 110.511719 L 5.890625 101.089844 C 5.890625 101.019531 5.921875 100.953125 5.984375 100.902344 C 6.046875 100.847656 6.117188 100.820312 6.191406 100.820312 C 6.273438 100.820312 6.34375 100.847656 6.402344 100.902344 C 6.460938 100.953125 6.488281 101.019531 6.488281 101.089844 Z M 6.488281 110.511719 "/>
<path fill-rule="nonzero" fill="rgb(0%, 0%, 0%)" fill-opacity="1" d="M 11.726562 93.601562 C 11.726562 94.828125 11.222656 95.660156 10.214844 96.101562 C 9.207031 96.542969 8.007812 96.765625 6.613281 96.765625 C 5.746094 96.765625 4.929688 96.6875 4.164062 96.527344 C 3.394531 96.371094 2.746094 96.054688 2.210938 95.585938 C 1.675781 95.113281 1.40625 94.453125 1.40625 93.601562 C 1.40625 92.941406 1.566406 92.402344 1.890625 91.984375 C 2.214844 91.5625 2.628906 91.242188 3.140625 91.023438 C 3.648438 90.804688 4.195312 90.652344 4.78125 90.574219 C 5.363281 90.492188 5.976562 90.453125 6.613281 90.453125 C 7.472656 90.453125 8.277344 90.53125 9.027344 90.691406 C 9.777344 90.847656 10.414062 91.160156 10.941406 91.625 C 11.464844 92.085938 11.726562 92.746094 11.726562 93.601562 M 11.339844 93.601562 C 11.339844 93.046875 11.054688 92.628906 10.484375 92.355469 C 9.910156 92.082031 9.277344 91.914062 8.585938 91.851562 C 7.890625 91.785156 7.152344 91.753906 6.371094 91.753906 C 5.621094 91.753906 4.929688 91.785156 4.292969 91.851562 C 3.65625 91.914062 3.082031 92.082031 2.570312 92.355469 C 2.054688 92.625 1.796875 93.039062 1.796875 93.601562 C 1.796875 94.167969 2.054688 94.585938 2.574219 94.859375 C 3.089844 95.132812 3.664062 95.300781 4.296875 95.367188 C 4.929688 95.429688 5.621094 95.460938 6.371094 95.460938 C 6.929688 95.460938 7.453125 95.449219 7.949219 95.421875 C 8.441406 95.394531 8.949219 95.320312 9.476562 95.203125 C 10 95.085938 10.441406 94.898438 10.800781 94.636719 C 11.160156 94.375 11.339844 94.03125 11.339844 93.601562 "/>
</svg>
