<?xml version="1.0" encoding="UTF-8"?>
<svg xmlns="http://www.w3.org/2000/svg" xmlns:xlink="http://www.w3.org/1999/xlink" width="495.504669pt" height="390.418579pt" viewBox="0 0 495.504669 390.418579">
<defs>
<clipPath id="clip-0">
<path clip-rule="nonzero" d="M 48 6 L 495.503906 6 L 495.503906 352 L 48 352 Z M 48 6 "/>
</clipPath>
<clipPath id="clip-1">
<path clip-rule="nonzero" d="M 48.605469 6.992188 L 495.003906 6.992188 L 495.003906 351.152344 L 48.605469 351.152344 Z M 48.605469 6.992188 "/>
</clipPath>
<clipPath id="clip-2">
<path clip-rule="nonzero" d="M 0.605469 0.992188 L 447.003906 0.992188 L 447.003906 327 L 0.605469 327 Z M 0.605469 0.992188 "/>
</clipPath>
<clipPath id="clip-3">
<rect x="0" y="0" width="448" height="346"/>
</clipPath>
<g id="source-5" clip-path="url(#clip-3)">
<g clip-path="url(#clip-2)">
<path fill="none" stroke-width="1" stroke-linecap="square" stroke-linejoin="round" stroke="rgb(0%, 0%, 100%)" stroke-opacity="1" stroke-miterlimit="100000" d="M 48.605469 6.992188 L 57.714844 7.128906 L 66.824219 7.535156 L 75.933594 8.210938 L 85.046875 9.160156 L 94.15625 10.378906 L 103.265625 11.867188 L 112.375 13.628906 L 121.484375 15.660156 L 130.597656 17.960938 L 139.707031 20.535156 L 148.816406 23.378906 L 157.925781 26.492188 L 167.039062 29.878906 L 176.148438 33.53125 L 185.257812 37.460938 L 194.367188 41.65625 L 203.476562 46.125 L 212.589844 50.863281 L 221.699219 55.875 L 230.808594 61.15625 L 239.917969 66.707031 L 249.027344 72.53125 L 258.140625 78.625 L 267.25 84.988281 L 276.359375 91.621094 L 285.46875 98.527344 L 294.582031 105.703125 L 303.691406 113.152344 L 312.800781 120.871094 L 321.910156 128.859375 L 331.019531 137.117188 L 340.132812 145.648438 L 349.242188 154.449219 L 358.351562 163.523438 L 367.460938 172.867188 L 376.570312 182.480469 L 385.683594 192.363281 L 394.792969 202.519531 L 403.902344 212.945313 L 413.011719 223.640625 L 422.125 234.609375 L 431.234375 245.847656 L 440.34375 257.359375 L 449.453125 269.136719 L 458.5625 281.191406 L 467.675781 293.511719 L 476.785156 306.105469 L 485.894531 318.96875 L 495.003906 332.101563 " transform="matrix(1, 0, 0, 1, -48, -6)"/>
</g>
</g>
<clipPath id="clip-4">
<path clip-rule="nonzero" d="M 47 6 L 495.503906 6 L 495.503906 8 L 47 8 Z M 47 6 "/>
</clipPath>
<clipPath id="clip-5">
<path clip-rule="nonzero" d="M 47 350 L 495.503906 350 L 495.503906 352 L 47 352 Z M 47 350 "/>
</clipPath>
<clipPath id="clip-6">
<path clip-rule="nonzero" d="M 494 6 L 495.503906 6 L 495.503906 352 L 494 352 Z M 494 6 "/>
</clipPath>
<clipPath id="clip-7">
<path clip-rule="nonzero" d="M 335 375 L 336 375 L 336 390.417969 L 335 390.417969 Z M 335 375 "/>
</clipPath>
<clipPath id="clip-8">
<path clip-rule="nonzero" d="M 356 375 L 358 375 L 358 390.417969 L 356 390.417969 Z M 356 375 "/>
</clipPath>
<clipPath id="clip-9">
<path clip-rule="nonzero" d="M 490 350 L 495.503906 350 L 495.503906 352 L 490 352 Z M 490 350 "/>
</clipPath>
<clipPath id="clip-10">
<path clip-rule="nonzero" d="M 490 301 L 495.503906 301 L 495.503906 303 L 490 303 Z M 490 301 "/>
</clipPath>
<clipPath id="clip-11">
<path clip-rule="nonzero" d="M 490 252 L 495.503906 252 L 495.503906 254 L 490 254 Z M 490 252 "/>
</clipPath>
<clipPath id="clip-12">
<path clip-rule="nonzero" d="M 490 203 L 495.503906 203 L 495.503906 204 L 490 204 Z M 490 203 "/>
</clipPath>
<clipPath id="clip-13">
<path clip-rule="nonzero" d="M 490 154 L 495.503906 154 L 495.503906 155 L 490 155 Z M 490 154 "/>
</clipPath>
<clipPath id="clip-14">
<path clip-rule="nonzero" d="M 490 105 L 495.503906 105 L 495.503906 106 L 490 106 Z M 490 105 "/>
</clipPath>
<clipPath id="clip-15">
<path clip-rule="nonzero" d="M 490 55 L 495.503906 55 L 495.503906 57 L 490 57 Z M 490 55 "/>
</clipPath>
<clipPath id="clip-16">
<path clip-rule="nonzero" d="M 490 6 L 495.503906 6 L 495.503906 8 L 490 8 Z M 490 6 "/>
</clipPath>
</defs>
<g clip-path="url(#clip-0)">
<path fill-rule="nonzero" fill="rgb(100%, 100%, 100%)" fill-opacity="1" d="M 48.605469 6.992188 L 495.003906 6.992188 L 495.003906 351.152344 L 48.605469 351.152344 Z M 48.605469 6.992188 "/>
</g>
<g clip-path="url(#clip-1)">
<use xlink:href="#source-5" transform="matrix(1, 0, 0, 1, 48, 6)"/>
</g>
<g clip-path="url(#clip-4)">
<path fill="none" stroke-width="1" stroke-linecap="square" stroke-linejoin="miter" stroke="rgb(0%, 0%, 0%)" stroke-opacity="1" stroke-miterlimit="100000" d="M 48.605469 6.992188 L 495.003906 6.992188 "/>
</g>
<path fill="none" stroke-width="1" stroke-linecap="square" stroke-linejoin="miter" stroke="rgb(0%, 0%, 0%)" stroke-opacity="1" stroke-miterlimit="100000" d="M 48.605469 351.152344 L 48.605469 6.992188 "/>
<g clip-path="url(#clip-5)">
<path fill="none" stroke-width="1" stroke-linecap="square" stroke-linejoin="miter" stroke="rgb(0%, 0%, 0%)" stroke-opacity="1" stroke-miterlimit="100000" d="M 48.605469 351.152344 L 495.003906 351.152344 "/>
</g>
<g clip-path="url(#clip-6)">
<path fill="none" stroke-width="1" stroke-linecap="square" stroke-linejoin="miter" stroke="rgb(0%, 0%, 0%)" stroke-opacity="1" stroke-miterlimit="100000" d="M 495.003906 351.152344 L 495.003906 6.992188 "/>
</g>
<path fill="none" stroke-width="0.5" stroke-linecap="butt" stroke-linejoin="round" stroke="rgb(0%, 0%, 0%)" stroke-opacity="1" stroke-miterlimit="100000" d="M 48.605469 351.152344 L 48.605469 347.152344 "/>
<path fill="none" stroke-width="0.5" stroke-linecap="butt" stroke-linejoin="round" stroke="rgb(0%, 0%, 0%)" stroke-opacity="1" stroke-miterlimit="100000" d="M 48.605469 6.992188 L 48.605469 10.992188 "/>
<path fill-rule="nonzero" fill="rgb(0%, 0%, 0%)" fill-opacity="1" d="M 48.601562 356.589844 C 47.839844 356.589844 47.265625 356.964844 46.882812 357.714844 C 46.5 358.464844 46.308594 359.589844 46.308594 361.09375 C 46.308594 362.59375 46.5 363.71875 46.882812 364.46875 C 47.265625 365.21875 47.839844 365.59375 48.601562 365.59375 C 49.367188 365.59375 49.941406 365.21875 50.324219 364.46875 C 50.710938 363.71875 50.902344 362.59375 50.902344 361.09375 C 50.902344 359.589844 50.710938 358.464844 50.324219 357.714844 C 49.941406 356.964844 49.367188 356.589844 48.601562 356.589844 M 48.601562 355.417969 C 49.828125 355.417969 50.761719 355.902344 51.410156 356.875 C 52.058594 357.84375 52.378906 359.25 52.378906 361.09375 C 52.378906 362.9375 52.058594 364.339844 51.410156 365.3125 C 50.761719 366.28125 49.828125 366.765625 48.601562 366.765625 C 47.375 366.765625 46.4375 366.28125 45.792969 365.3125 C 45.144531 364.339844 44.820312 362.9375 44.820312 361.09375 C 44.820312 359.25 45.144531 357.84375 45.792969 356.875 C 46.4375 355.902344 47.375 355.417969 48.601562 355.417969 "/>
<path fill="none" stroke-width="0.5" stroke-linecap="butt" stroke-linejoin="round" stroke="rgb(0%, 0%, 0%)" stroke-opacity="1" stroke-miterlimit="100000" d="M 145.648438 351.152344 L 145.648438 347.152344 "/>
<path fill="none" stroke-width="0.5" stroke-linecap="butt" stroke-linejoin="round" stroke="rgb(0%, 0%, 0%)" stroke-opacity="1" stroke-miterlimit="100000" d="M 145.648438 6.992188 L 145.648438 10.992188 "/>
<path fill-rule="nonzero" fill="rgb(0%, 0%, 0%)" fill-opacity="1" d="M 142.738281 365.308594 L 145.152344 365.308594 L 145.152344 356.964844 L 142.523438 357.492188 L 142.523438 356.144531 L 145.140625 355.617188 L 146.617188 355.617188 L 146.617188 365.308594 L 149.035156 365.308594 L 149.035156 366.550781 L 142.738281 366.550781 Z M 142.738281 365.308594 "/>
<path fill="none" stroke-width="0.5" stroke-linecap="butt" stroke-linejoin="round" stroke="rgb(0%, 0%, 0%)" stroke-opacity="1" stroke-miterlimit="100000" d="M 242.691406 351.152344 L 242.691406 347.152344 "/>
<path fill="none" stroke-width="0.5" stroke-linecap="butt" stroke-linejoin="round" stroke="rgb(0%, 0%, 0%)" stroke-opacity="1" stroke-miterlimit="100000" d="M 242.691406 6.992188 L 242.691406 10.992188 "/>
<path fill-rule="nonzero" fill="rgb(0%, 0%, 0%)" fill-opacity="1" d="M 240.796875 365.308594 L 245.960938 365.308594 L 245.960938 366.550781 L 239.019531 366.550781 L 239.019531 365.308594 C 239.578125 364.726562 240.34375 363.945312 241.3125 362.96875 C 242.285156 361.988281 242.894531 361.355469 243.140625 361.070312 C 243.613281 360.539062 243.945312 360.089844 244.132812 359.722656 C 244.320312 359.351562 244.417969 358.992188 244.417969 358.632812 C 244.417969 358.054688 244.210938 357.578125 243.804688 357.214844 C 243.398438 356.847656 242.867188 356.664062 242.210938 356.664062 C 241.746094 356.664062 241.257812 356.742188 240.742188 356.90625 C 240.226562 357.066406 239.675781 357.308594 239.089844 357.636719 L 239.089844 356.144531 C 239.6875 355.902344 240.242188 355.722656 240.761719 355.601562 C 241.277344 355.480469 241.753906 355.417969 242.183594 355.417969 C 243.316406 355.417969 244.21875 355.703125 244.890625 356.269531 C 245.566406 356.835938 245.902344 357.589844 245.902344 358.539062 C 245.902344 358.988281 245.816406 359.414062 245.648438 359.816406 C 245.480469 360.21875 245.175781 360.695312 244.730469 361.242188 C 244.609375 361.382812 244.21875 361.792969 243.566406 362.46875 C 242.914062 363.144531 241.988281 364.089844 240.796875 365.308594 "/>
<path fill="none" stroke-width="0.5" stroke-linecap="butt" stroke-linejoin="round" stroke="rgb(0%, 0%, 0%)" stroke-opacity="1" stroke-miterlimit="100000" d="M 339.734375 351.152344 L 339.734375 347.152344 "/>
<path fill="none" stroke-width="0.5" stroke-linecap="butt" stroke-linejoin="round" stroke="rgb(0%, 0%, 0%)" stroke-opacity="1" stroke-miterlimit="100000" d="M 339.734375 6.992188 L 339.734375 10.992188 "/>
<path fill-rule="nonzero" fill="rgb(0%, 0%, 0%)" fill-opacity="1" d="M 341.050781 360.65625 C 341.757812 360.804688 342.308594 361.121094 342.707031 361.601562 C 343.105469 362.078125 343.304688 362.671875 343.304688 363.375 C 343.304688 364.453125 342.933594 365.285156 342.191406 365.878906 C 341.449219 366.46875 340.394531 366.765625 339.027344 366.765625 C 338.570312 366.765625 338.097656 366.71875 337.613281 366.628906 C 337.125 366.539062 336.625 366.402344 336.105469 366.222656 L 336.105469 364.792969 C 336.515625 365.03125 336.964844 365.214844 337.453125 365.335938 C 337.941406 365.457031 338.453125 365.519531 338.984375 365.519531 C 339.910156 365.519531 340.617188 365.335938 341.105469 364.96875 C 341.589844 364.605469 341.832031 364.070312 341.832031 363.375 C 341.832031 362.726562 341.605469 362.222656 341.15625 361.863281 C 340.703125 361.496094 340.074219 361.316406 339.269531 361.316406 L 337.996094 361.316406 L 337.996094 360.097656 L 339.328125 360.097656 C 340.054688 360.097656 340.613281 359.953125 341 359.664062 C 341.382812 359.371094 341.578125 358.953125 341.578125 358.40625 C 341.578125 357.847656 341.378906 357.414062 340.980469 357.117188 C 340.582031 356.8125 340.011719 356.664062 339.269531 356.664062 C 338.863281 356.664062 338.429688 356.707031 337.964844 356.796875 C 337.5 356.882812 336.992188 357.019531 336.433594 357.203125 L 336.433594 355.886719 C 336.996094 355.730469 337.523438 355.613281 338.015625 355.535156 C 338.503906 355.457031 338.96875 355.417969 339.402344 355.417969 C 340.527344 355.417969 341.414062 355.675781 342.066406 356.183594 C 342.722656 356.695312 343.050781 357.382812 343.050781 358.253906 C 343.050781 358.859375 342.875 359.371094 342.527344 359.789062 C 342.183594 360.203125 341.6875 360.492188 341.050781 360.65625 "/>
<path fill="none" stroke-width="0.5" stroke-linecap="butt" stroke-linejoin="round" stroke="rgb(0%, 0%, 0%)" stroke-opacity="1" stroke-miterlimit="100000" d="M 436.777344 351.152344 L 436.777344 347.152344 "/>
<path fill="none" stroke-width="0.5" stroke-linecap="butt" stroke-linejoin="round" stroke="rgb(0%, 0%, 0%)" stroke-opacity="1" stroke-miterlimit="100000" d="M 436.777344 6.992188 L 436.777344 10.992188 "/>
<path fill-rule="nonzero" fill="rgb(0%, 0%, 0%)" fill-opacity="1" d="M 437.675781 356.90625 L 433.941406 362.742188 L 437.675781 362.742188 Z M 437.289062 355.617188 L 439.148438 355.617188 L 439.148438 362.742188 L 440.710938 362.742188 L 440.710938 363.972656 L 439.148438 363.972656 L 439.148438 366.550781 L 437.675781 366.550781 L 437.675781 363.972656 L 432.742188 363.972656 L 432.742188 362.546875 Z M 437.289062 355.617188 "/>
<path fill-rule="nonzero" fill="rgb(0%, 0%, 0%)" fill-opacity="1" d="M 189.332031 377.191406 L 187.324219 382.632812 L 191.347656 382.632812 Z M 188.496094 375.734375 L 190.175781 375.734375 L 194.339844 386.667969 L 192.804688 386.667969 L 191.808594 383.863281 L 186.878906 383.863281 L 185.882812 386.667969 L 184.320312 386.667969 Z M 188.496094 375.734375 "/>
<path fill-rule="nonzero" fill="rgb(0%, 0%, 0%)" fill-opacity="1" d="M 202.265625 380.039062 C 202.601562 379.433594 203.007812 378.988281 203.476562 378.699219 C 203.945312 378.414062 204.496094 378.269531 205.128906 378.269531 C 205.984375 378.269531 206.644531 378.566406 207.109375 379.167969 C 207.570312 379.761719 207.804688 380.613281 207.804688 381.714844 L 207.804688 386.667969 L 206.449219 386.667969 L 206.449219 381.761719 C 206.449219 380.976562 206.308594 380.390625 206.03125 380.011719 C 205.75 379.632812 205.328125 379.441406 204.757812 379.441406 C 204.058594 379.441406 203.507812 379.671875 203.101562 380.136719 C 202.695312 380.597656 202.492188 381.230469 202.492188 382.03125 L 202.492188 386.667969 L 201.136719 386.667969 L 201.136719 381.761719 C 201.136719 380.96875 201 380.386719 200.722656 380.007812 C 200.441406 379.628906 200.011719 379.441406 199.433594 379.441406 C 198.742188 379.441406 198.195312 379.671875 197.789062 380.140625 C 197.382812 380.605469 197.183594 381.234375 197.183594 382.03125 L 197.183594 386.667969 L 195.828125 386.667969 L 195.828125 378.464844 L 197.183594 378.464844 L 197.183594 379.742188 C 197.488281 379.238281 197.859375 378.867188 198.289062 378.628906 C 198.71875 378.386719 199.226562 378.269531 199.820312 378.269531 C 200.414062 378.269531 200.921875 378.421875 201.339844 378.722656 C 201.757812 379.023438 202.066406 379.464844 202.265625 380.039062 "/>
<path fill-rule="nonzero" fill="rgb(0%, 0%, 0%)" fill-opacity="1" d="M 211.792969 385.4375 L 211.792969 389.789062 L 210.4375 389.789062 L 210.4375 378.464844 L 211.792969 378.464844 L 211.792969 379.710938 C 212.078125 379.222656 212.4375 378.859375 212.867188 378.625 C 213.300781 378.386719 213.816406 378.269531 214.417969 378.269531 C 215.414062 378.269531 216.222656 378.664062 216.84375 379.453125 C 217.46875 380.246094 217.78125 381.285156 217.78125 382.574219 C 217.78125 383.863281 217.46875 384.902344 216.84375 385.695312 C 216.222656 386.488281 215.414062 386.882812 214.417969 386.882812 C 213.816406 386.882812 213.300781 386.761719 212.867188 386.527344 C 212.4375 386.289062 212.078125 385.925781 211.792969 385.4375 M 216.378906 382.574219 C 216.378906 381.582031 216.175781 380.804688 215.769531 380.242188 C 215.359375 379.679688 214.800781 379.394531 214.089844 379.394531 C 213.375 379.394531 212.8125 379.679688 212.40625 380.242188 C 211.996094 380.804688 211.792969 381.582031 211.792969 382.574219 C 211.792969 383.566406 211.996094 384.34375 212.40625 384.90625 C 212.8125 385.46875 213.375 385.753906 214.089844 385.753906 C 214.800781 385.753906 215.359375 385.46875 215.769531 384.90625 C 216.175781 384.34375 216.378906 383.566406 216.378906 382.574219 "/>
<path fill-rule="nonzero" fill="rgb(0%, 0%, 0%)" fill-opacity="1" d="M 220.011719 375.269531 L 221.359375 375.269531 L 221.359375 386.667969 L 220.011719 386.667969 Z M 220.011719 375.269531 "/>
<path fill-rule="nonzero" fill="rgb(0%, 0%, 0%)" fill-opacity="1" d="M 224.179688 378.464844 L 225.527344 378.464844 L 225.527344 386.667969 L 224.179688 386.667969 Z M 224.179688 375.269531 L 225.527344 375.269531 L 225.527344 376.980469 L 224.179688 376.980469 Z M 224.179688 375.269531 "/>
<path fill-rule="nonzero" fill="rgb(0%, 0%, 0%)" fill-opacity="1" d="M 229.679688 376.136719 L 229.679688 378.464844 L 232.457031 378.464844 L 232.457031 379.511719 L 229.679688 379.511719 L 229.679688 383.964844 C 229.679688 384.636719 229.773438 385.066406 229.957031 385.253906 C 230.136719 385.445312 230.511719 385.542969 231.074219 385.542969 L 232.457031 385.542969 L 232.457031 386.667969 L 231.074219 386.667969 C 230.03125 386.667969 229.316406 386.476562 228.917969 386.085938 C 228.523438 385.699219 228.328125 384.992188 228.328125 383.964844 L 228.328125 379.511719 L 227.335938 379.511719 L 227.335938 378.464844 L 228.328125 378.464844 L 228.328125 376.136719 Z M 229.679688 376.136719 "/>
<path fill-rule="nonzero" fill="rgb(0%, 0%, 0%)" fill-opacity="1" d="M 234.089844 383.433594 L 234.089844 378.464844 L 235.4375 378.464844 L 235.4375 383.378906 C 235.4375 384.15625 235.589844 384.738281 235.890625 385.128906 C 236.195312 385.515625 236.648438 385.710938 237.253906 385.710938 C 237.980469 385.710938 238.554688 385.476562 238.976562 385.015625 C 239.402344 384.550781 239.613281 383.917969 239.613281 383.117188 L 239.613281 378.464844 L 240.960938 378.464844 L 240.960938 386.667969 L 239.613281 386.667969 L 239.613281 385.40625 C 239.285156 385.90625 238.90625 386.277344 238.472656 386.519531 C 238.042969 386.761719 237.539062 386.882812 236.96875 386.882812 C 236.027344 386.882812 235.3125 386.589844 234.820312 386.003906 C 234.335938 385.417969 234.089844 384.558594 234.089844 383.433594 "/>
<path fill-rule="nonzero" fill="rgb(0%, 0%, 0%)" fill-opacity="1" d="M 249.132812 379.710938 L 249.132812 375.269531 L 250.480469 375.269531 L 250.480469 386.667969 L 249.132812 386.667969 L 249.132812 385.4375 C 248.851562 385.925781 248.492188 386.289062 248.058594 386.527344 C 247.628906 386.761719 247.109375 386.882812 246.503906 386.882812 C 245.511719 386.882812 244.707031 386.488281 244.082031 385.695312 C 243.460938 384.902344 243.148438 383.863281 243.148438 382.574219 C 243.148438 381.285156 243.460938 380.246094 244.082031 379.453125 C 244.707031 378.664062 245.511719 378.269531 246.503906 378.269531 C 247.109375 378.269531 247.628906 378.386719 248.058594 378.625 C 248.492188 378.859375 248.851562 379.222656 249.132812 379.710938 M 244.542969 382.574219 C 244.542969 383.566406 244.746094 384.34375 245.152344 384.90625 C 245.5625 385.46875 246.121094 385.753906 246.835938 385.753906 C 247.546875 385.753906 248.109375 385.46875 248.515625 384.90625 C 248.929688 384.34375 249.132812 383.566406 249.132812 382.574219 C 249.132812 381.582031 248.929688 380.804688 248.515625 380.242188 C 248.109375 379.679688 247.546875 379.394531 246.835938 379.394531 C 246.121094 379.394531 245.5625 379.679688 245.152344 380.242188 C 244.746094 380.804688 244.542969 381.582031 244.542969 382.574219 "/>
<path fill-rule="nonzero" fill="rgb(0%, 0%, 0%)" fill-opacity="1" d="M 260.273438 382.230469 L 260.273438 382.886719 L 254.078125 382.886719 C 254.136719 383.816406 254.417969 384.523438 254.917969 385.007812 C 255.417969 385.496094 256.113281 385.738281 257.007812 385.738281 C 257.523438 385.738281 258.027344 385.675781 258.511719 385.546875 C 258.996094 385.421875 259.480469 385.230469 259.960938 384.976562 L 259.960938 386.25 C 259.476562 386.457031 258.980469 386.613281 258.472656 386.71875 C 257.964844 386.828125 257.449219 386.882812 256.925781 386.882812 C 255.617188 386.882812 254.582031 386.5 253.816406 385.742188 C 253.054688 384.976562 252.671875 383.945312 252.671875 382.648438 C 252.671875 381.304688 253.035156 380.238281 253.757812 379.453125 C 254.484375 378.664062 255.460938 378.269531 256.691406 378.269531 C 257.796875 378.269531 258.667969 378.625 259.3125 379.335938 C 259.953125 380.042969 260.273438 381.007812 260.273438 382.230469 M 258.925781 381.832031 C 258.917969 381.097656 258.710938 380.511719 258.308594 380.070312 C 257.90625 379.628906 257.371094 379.410156 256.707031 379.410156 C 255.957031 379.410156 255.355469 379.621094 254.902344 380.046875 C 254.449219 380.472656 254.191406 381.070312 254.121094 381.84375 Z M 258.925781 381.832031 "/>
<path fill-rule="nonzero" fill="rgb(0%, 0%, 0%)" fill-opacity="1" d="M 272.652344 379.710938 L 272.652344 375.269531 L 274 375.269531 L 274 386.667969 L 272.652344 386.667969 L 272.652344 385.4375 C 272.367188 385.925781 272.011719 386.289062 271.578125 386.527344 C 271.148438 386.761719 270.628906 386.882812 270.023438 386.882812 C 269.03125 386.882812 268.222656 386.488281 267.601562 385.695312 C 266.980469 384.902344 266.667969 383.863281 266.667969 382.574219 C 266.667969 381.285156 266.980469 380.246094 267.601562 379.453125 C 268.222656 378.664062 269.03125 378.269531 270.023438 378.269531 C 270.628906 378.269531 271.148438 378.386719 271.578125 378.625 C 272.011719 378.859375 272.367188 379.222656 272.652344 379.710938 M 268.058594 382.574219 C 268.058594 383.566406 268.265625 384.34375 268.671875 384.90625 C 269.078125 385.46875 269.640625 385.753906 270.351562 385.753906 C 271.066406 385.753906 271.625 385.46875 272.035156 384.90625 C 272.445312 384.34375 272.652344 383.566406 272.652344 382.574219 C 272.652344 381.582031 272.445312 380.804688 272.035156 380.242188 C 271.625 379.679688 271.066406 379.394531 270.351562 379.394531 C 269.640625 379.394531 269.078125 379.679688 268.671875 380.242188 C 268.265625 380.804688 268.058594 381.582031 268.058594 382.574219 "/>
<path fill-rule="nonzero" fill="rgb(0%, 0%, 0%)" fill-opacity="1" d="M 278.050781 375.734375 L 278.050781 379.800781 L 276.804688 379.800781 L 276.804688 375.734375 Z M 278.050781 375.734375 "/>
<path fill-rule="nonzero" fill="rgb(0%, 0%, 0%)" fill-opacity="1" d="M 287.914062 382.230469 L 287.914062 382.886719 L 281.71875 382.886719 C 281.777344 383.816406 282.058594 384.523438 282.558594 385.007812 C 283.058594 385.496094 283.753906 385.738281 284.648438 385.738281 C 285.164062 385.738281 285.667969 385.675781 286.152344 385.546875 C 286.640625 385.421875 287.121094 385.230469 287.601562 384.976562 L 287.601562 386.25 C 287.117188 386.457031 286.621094 386.613281 286.113281 386.71875 C 285.605469 386.828125 285.089844 386.882812 284.570312 386.882812 C 283.257812 386.882812 282.222656 386.5 281.457031 385.742188 C 280.695312 384.976562 280.3125 383.945312 280.3125 382.648438 C 280.3125 381.304688 280.675781 380.238281 281.398438 379.453125 C 282.125 378.664062 283.101562 378.269531 284.335938 378.269531 C 285.4375 378.269531 286.308594 378.625 286.953125 379.335938 C 287.59375 380.042969 287.914062 381.007812 287.914062 382.230469 M 286.566406 381.832031 C 286.558594 381.097656 286.351562 380.511719 285.949219 380.070312 C 285.546875 379.628906 285.011719 379.410156 284.347656 379.410156 C 283.597656 379.410156 282.996094 379.621094 282.542969 380.046875 C 282.09375 380.472656 281.832031 381.070312 281.761719 381.84375 Z M 286.566406 381.832031 "/>
<path fill-rule="nonzero" fill="rgb(0%, 0%, 0%)" fill-opacity="1" d="M 296.949219 381.714844 L 296.949219 386.667969 L 295.601562 386.667969 L 295.601562 381.761719 C 295.601562 380.984375 295.449219 380.402344 295.144531 380.019531 C 294.84375 379.632812 294.386719 379.441406 293.785156 379.441406 C 293.054688 379.441406 292.480469 379.671875 292.0625 380.136719 C 291.640625 380.597656 291.429688 381.230469 291.429688 382.03125 L 291.429688 386.667969 L 290.074219 386.667969 L 290.074219 378.464844 L 291.429688 378.464844 L 291.429688 379.742188 C 291.753906 379.246094 292.132812 378.878906 292.570312 378.632812 C 293.007812 378.390625 293.511719 378.269531 294.082031 378.269531 C 295.027344 378.269531 295.738281 378.558594 296.222656 379.144531 C 296.707031 379.726562 296.949219 380.582031 296.949219 381.714844 "/>
<path fill-rule="nonzero" fill="rgb(0%, 0%, 0%)" fill-opacity="1" d="M 300.96875 376.136719 L 300.96875 378.464844 L 303.742188 378.464844 L 303.742188 379.511719 L 300.96875 379.511719 L 300.96875 383.964844 C 300.96875 384.636719 301.058594 385.066406 301.242188 385.253906 C 301.425781 385.445312 301.796875 385.542969 302.359375 385.542969 L 303.742188 385.542969 L 303.742188 386.667969 L 302.359375 386.667969 C 301.320312 386.667969 300.601562 386.476562 300.207031 386.085938 C 299.8125 385.699219 299.613281 384.992188 299.613281 383.964844 L 299.613281 379.511719 L 298.625 379.511719 L 298.625 378.464844 L 299.613281 378.464844 L 299.613281 376.136719 Z M 300.96875 376.136719 "/>
<path fill-rule="nonzero" fill="rgb(0%, 0%, 0%)" fill-opacity="1" d="M 310.269531 379.722656 C 310.117188 379.636719 309.953125 379.574219 309.773438 379.53125 C 309.597656 379.488281 309.398438 379.46875 309.1875 379.46875 C 308.421875 379.46875 307.839844 379.714844 307.429688 380.210938 C 307.023438 380.707031 306.820312 381.417969 306.820312 382.347656 L 306.820312 386.667969 L 305.464844 386.667969 L 305.464844 378.464844 L 306.820312 378.464844 L 306.820312 379.742188 C 307.101562 379.242188 307.472656 378.871094 307.925781 378.632812 C 308.378906 378.390625 308.933594 378.269531 309.582031 378.269531 C 309.675781 378.269531 309.777344 378.273438 309.890625 378.289062 C 310 378.296875 310.125 378.316406 310.261719 378.339844 Z M 310.269531 379.722656 "/>
<path fill-rule="nonzero" fill="rgb(0%, 0%, 0%)" fill-opacity="1" d="M 318.699219 382.230469 L 318.699219 382.886719 L 312.503906 382.886719 C 312.5625 383.816406 312.839844 384.523438 313.339844 385.007812 C 313.839844 385.496094 314.539062 385.738281 315.433594 385.738281 C 315.949219 385.738281 316.449219 385.675781 316.9375 385.546875 C 317.421875 385.421875 317.90625 385.230469 318.386719 384.976562 L 318.386719 386.25 C 317.902344 386.457031 317.40625 386.613281 316.898438 386.71875 C 316.390625 386.828125 315.875 386.882812 315.351562 386.882812 C 314.042969 386.882812 313.007812 386.5 312.242188 385.742188 C 311.476562 384.976562 311.097656 383.945312 311.097656 382.648438 C 311.097656 381.304688 311.457031 380.238281 312.183594 379.453125 C 312.910156 378.664062 313.886719 378.269531 315.117188 378.269531 C 316.222656 378.269531 317.09375 378.625 317.734375 379.335938 C 318.378906 380.042969 318.699219 381.007812 318.699219 382.230469 M 317.351562 381.832031 C 317.34375 381.097656 317.136719 380.511719 316.734375 380.070312 C 316.328125 379.628906 315.796875 379.410156 315.132812 379.410156 C 314.378906 379.410156 313.777344 379.621094 313.328125 380.046875 C 312.875 380.472656 312.617188 381.070312 312.546875 381.84375 Z M 316.046875 374.671875 L 317.507812 374.671875 L 315.121094 377.425781 L 313.996094 377.425781 Z M 316.046875 374.671875 "/>
<path fill-rule="nonzero" fill="rgb(0%, 0%, 0%)" fill-opacity="1" d="M 327.929688 382.230469 L 327.929688 382.886719 L 321.730469 382.886719 C 321.789062 383.816406 322.070312 384.523438 322.570312 385.007812 C 323.070312 385.496094 323.765625 385.738281 324.660156 385.738281 C 325.179688 385.738281 325.679688 385.675781 326.164062 385.546875 C 326.652344 385.421875 327.132812 385.230469 327.613281 384.976562 L 327.613281 386.25 C 327.128906 386.457031 326.632812 386.613281 326.125 386.71875 C 325.617188 386.828125 325.101562 386.882812 324.582031 386.882812 C 323.273438 386.882812 322.234375 386.5 321.472656 385.742188 C 320.707031 384.976562 320.324219 383.945312 320.324219 382.648438 C 320.324219 381.304688 320.6875 380.238281 321.414062 379.453125 C 322.136719 378.664062 323.117188 378.269531 324.347656 378.269531 C 325.449219 378.269531 326.324219 378.625 326.964844 379.335938 C 327.605469 380.042969 327.929688 381.007812 327.929688 382.230469 M 326.582031 381.832031 C 326.570312 381.097656 326.363281 380.511719 325.960938 380.070312 C 325.558594 379.628906 325.023438 379.410156 324.359375 379.410156 C 323.609375 379.410156 323.007812 379.621094 322.554688 380.046875 C 322.105469 380.472656 321.84375 381.070312 321.777344 381.84375 Z M 326.582031 381.832031 "/>
<g clip-path="url(#clip-7)">
<path fill-rule="nonzero" fill="rgb(0%, 0%, 0%)" fill-opacity="1" d="M 335.28125 390.148438 L 335.28125 375.691406 C 335.28125 375.613281 335.3125 375.546875 335.371094 375.496094 C 335.429688 375.445312 335.5 375.417969 335.582031 375.417969 C 335.65625 375.417969 335.722656 375.445312 335.785156 375.496094 C 335.851562 375.546875 335.882812 375.613281 335.882812 375.691406 L 335.882812 390.148438 C 335.882812 390.226562 335.851562 390.289062 335.785156 390.339844 C 335.722656 390.394531 335.65625 390.417969 335.582031 390.417969 C 335.5 390.417969 335.429688 390.394531 335.371094 390.339844 C 335.3125 390.289062 335.28125 390.226562 335.28125 390.148438 "/>
</g>
<path fill-rule="nonzero" fill="rgb(0%, 0%, 0%)" fill-opacity="1" d="M 338.320312 386.667969 C 338.222656 386.667969 338.175781 386.601562 338.175781 386.472656 C 338.214844 386.25 338.277344 386.140625 338.363281 386.140625 C 338.769531 386.140625 339.121094 386.0625 339.417969 385.898438 C 339.710938 385.738281 339.964844 385.488281 340.179688 385.152344 L 340.210938 385.125 L 345.5625 376.089844 C 345.640625 375.984375 345.738281 375.933594 345.851562 375.933594 L 346.046875 375.933594 C 346.078125 375.933594 346.105469 375.9375 346.136719 375.949219 C 346.164062 375.960938 346.191406 375.980469 346.214844 376.007812 C 346.234375 376.035156 346.246094 376.0625 346.246094 376.089844 L 347.152344 385.78125 C 347.152344 385.828125 347.175781 385.890625 347.21875 385.980469 C 347.316406 386.085938 347.691406 386.140625 348.339844 386.140625 C 348.441406 386.140625 348.492188 386.207031 348.492188 386.339844 C 348.460938 386.472656 348.429688 386.558594 348.410156 386.601562 C 348.386719 386.648438 348.332031 386.667969 348.238281 386.667969 L 344.488281 386.667969 C 344.394531 386.667969 344.347656 386.601562 344.347656 386.472656 C 344.402344 386.25 344.46875 386.140625 344.546875 386.140625 C 345.335938 386.140625 345.757812 386.007812 345.804688 385.738281 L 345.578125 383.261719 L 341.878906 383.261719 L 340.679688 385.277344 C 340.605469 385.382812 340.570312 385.507812 340.570312 385.652344 C 340.570312 385.828125 340.652344 385.953125 340.824219 386.027344 C 340.992188 386.105469 341.179688 386.140625 341.382812 386.140625 C 341.480469 386.140625 341.527344 386.207031 341.527344 386.339844 C 341.492188 386.480469 341.464844 386.570312 341.445312 386.609375 C 341.425781 386.648438 341.371094 386.667969 341.28125 386.667969 Z M 342.171875 382.734375 L 345.519531 382.734375 L 345.074219 377.878906 Z M 342.171875 382.734375 "/>
<path fill-rule="nonzero" fill="rgb(0%, 0%, 0%)" fill-opacity="1" d="M 349.871094 389.21875 L 349.871094 388.851562 C 350.746094 388.851562 351.183594 388.738281 351.183594 388.515625 L 351.183594 383.003906 C 350.820312 383.179688 350.363281 383.265625 349.808594 383.265625 L 349.808594 382.898438 C 350.667969 382.898438 351.316406 382.675781 351.753906 382.226562 L 351.902344 382.226562 C 351.925781 382.226562 351.949219 382.234375 351.96875 382.253906 C 351.992188 382.273438 352.003906 382.296875 352.003906 382.320312 L 352.003906 388.515625 C 352.003906 388.738281 352.441406 388.851562 353.316406 388.851562 L 353.316406 389.21875 Z M 349.871094 389.21875 "/>
<g clip-path="url(#clip-8)">
<path fill-rule="nonzero" fill="rgb(0%, 0%, 0%)" fill-opacity="1" d="M 356.890625 390.148438 L 356.890625 375.691406 C 356.890625 375.613281 356.921875 375.546875 356.980469 375.496094 C 357.039062 375.445312 357.109375 375.417969 357.191406 375.417969 C 357.265625 375.417969 357.332031 375.445312 357.394531 375.496094 C 357.460938 375.546875 357.492188 375.613281 357.492188 375.691406 L 357.492188 390.148438 C 357.492188 390.226562 357.460938 390.289062 357.394531 390.339844 C 357.332031 390.394531 357.265625 390.417969 357.191406 390.417969 C 357.109375 390.417969 357.039062 390.394531 356.980469 390.339844 C 356.921875 390.289062 356.890625 390.226562 356.890625 390.148438 "/>
</g>
<path fill="none" stroke-width="0.5" stroke-linecap="butt" stroke-linejoin="round" stroke="rgb(0%, 0%, 0%)" stroke-opacity="1" stroke-miterlimit="100000" d="M 48.605469 351.152344 L 52.605469 351.152344 "/>
<g clip-path="url(#clip-9)">
<path fill="none" stroke-width="0.5" stroke-linecap="butt" stroke-linejoin="round" stroke="rgb(0%, 0%, 0%)" stroke-opacity="1" stroke-miterlimit="100000" d="M 495.003906 351.152344 L 491.003906 351.152344 "/>
</g>
<path fill-rule="nonzero" fill="rgb(0%, 0%, 0%)" fill-opacity="1" d="M 23.628906 354.046875 L 28.792969 354.046875 L 28.792969 355.292969 L 21.847656 355.292969 L 21.847656 354.046875 C 22.410156 353.46875 23.175781 352.6875 24.144531 351.710938 C 25.113281 350.730469 25.722656 350.097656 25.972656 349.8125 C 26.445312 349.28125 26.777344 348.832031 26.964844 348.464844 C 27.152344 348.09375 27.246094 347.730469 27.246094 347.375 C 27.246094 346.792969 27.042969 346.320312 26.636719 345.957031 C 26.226562 345.589844 25.695312 345.40625 25.042969 345.40625 C 24.578125 345.40625 24.085938 345.484375 23.570312 345.644531 C 23.058594 345.808594 22.507812 346.050781 21.921875 346.378906 L 21.921875 344.882812 C 22.515625 344.644531 23.074219 344.464844 23.589844 344.34375 C 24.109375 344.222656 24.582031 344.160156 25.011719 344.160156 C 26.144531 344.160156 27.050781 344.445312 27.722656 345.011719 C 28.394531 345.578125 28.734375 346.332031 28.734375 347.28125 C 28.734375 347.730469 28.648438 348.15625 28.480469 348.558594 C 28.3125 348.960938 28.007812 349.433594 27.5625 349.980469 C 27.4375 350.125 27.050781 350.535156 26.394531 351.210938 C 25.742188 351.886719 24.820312 352.832031 23.628906 354.046875 "/>
<path fill-rule="nonzero" fill="rgb(0%, 0%, 0%)" fill-opacity="1" d="M 31.898438 353.433594 L 33.445312 353.433594 L 33.445312 355.292969 L 31.898438 355.292969 Z M 31.898438 353.433594 "/>
<path fill-rule="nonzero" fill="rgb(0%, 0%, 0%)" fill-opacity="1" d="M 40.015625 349.238281 C 39.351562 349.238281 38.824219 349.464844 38.433594 349.917969 C 38.046875 350.371094 37.851562 350.992188 37.851562 351.785156 C 37.851562 352.570312 38.046875 353.191406 38.433594 353.648438 C 38.824219 354.105469 39.351562 354.335938 40.015625 354.335938 C 40.679688 354.335938 41.203125 354.105469 41.589844 353.648438 C 41.980469 353.191406 42.171875 352.570312 42.171875 351.785156 C 42.171875 350.992188 41.980469 350.371094 41.589844 349.917969 C 41.203125 349.464844 40.679688 349.238281 40.015625 349.238281 M 42.949219 344.597656 L 42.949219 345.945312 C 42.578125 345.769531 42.203125 345.636719 41.824219 345.546875 C 41.449219 345.453125 41.074219 345.40625 40.699219 345.40625 C 39.722656 345.40625 38.976562 345.734375 38.460938 346.394531 C 37.949219 347.054688 37.65625 348.050781 37.582031 349.382812 C 37.867188 348.957031 38.230469 348.632812 38.664062 348.40625 C 39.101562 348.179688 39.578125 348.066406 40.101562 348.066406 C 41.199219 348.066406 42.066406 348.398438 42.703125 349.066406 C 43.34375 349.730469 43.660156 350.636719 43.660156 351.785156 C 43.660156 352.90625 43.328125 353.808594 42.664062 354.488281 C 42 355.167969 41.117188 355.507812 40.015625 355.507812 C 38.75 355.507812 37.78125 355.023438 37.113281 354.054688 C 36.445312 353.082031 36.109375 351.675781 36.109375 349.835938 C 36.109375 348.109375 36.519531 346.730469 37.339844 345.703125 C 38.160156 344.675781 39.261719 344.160156 40.640625 344.160156 C 41.015625 344.160156 41.390625 344.195312 41.765625 344.269531 C 42.144531 344.34375 42.539062 344.453125 42.949219 344.597656 "/>
<path fill="none" stroke-width="0.5" stroke-linecap="butt" stroke-linejoin="round" stroke="rgb(0%, 0%, 0%)" stroke-opacity="1" stroke-miterlimit="100000" d="M 48.605469 301.988281 L 52.605469 301.988281 "/>
<g clip-path="url(#clip-10)">
<path fill="none" stroke-width="0.5" stroke-linecap="butt" stroke-linejoin="round" stroke="rgb(0%, 0%, 0%)" stroke-opacity="1" stroke-miterlimit="100000" d="M 495.003906 301.988281 L 491.003906 301.988281 "/>
</g>
<path fill-rule="nonzero" fill="rgb(0%, 0%, 0%)" fill-opacity="1" d="M 23.628906 304.882812 L 28.792969 304.882812 L 28.792969 306.128906 L 21.847656 306.128906 L 21.847656 304.882812 C 22.410156 304.300781 23.175781 303.523438 24.144531 302.542969 C 25.113281 301.5625 25.722656 300.933594 25.972656 300.648438 C 26.445312 300.117188 26.777344 299.667969 26.964844 299.296875 C 27.152344 298.929688 27.246094 298.566406 27.246094 298.210938 C 27.246094 297.628906 27.042969 297.15625 26.636719 296.789062 C 26.226562 296.421875 25.695312 296.238281 25.042969 296.238281 C 24.578125 296.238281 24.085938 296.320312 23.570312 296.480469 C 23.058594 296.640625 22.507812 296.886719 21.921875 297.214844 L 21.921875 295.71875 C 22.515625 295.480469 23.074219 295.300781 23.589844 295.175781 C 24.109375 295.054688 24.582031 294.996094 25.011719 294.996094 C 26.144531 294.996094 27.050781 295.277344 27.722656 295.84375 C 28.394531 296.410156 28.734375 297.167969 28.734375 298.113281 C 28.734375 298.5625 28.648438 298.992188 28.480469 299.394531 C 28.3125 299.796875 28.007812 300.269531 27.5625 300.816406 C 27.4375 300.957031 27.050781 301.367188 26.394531 302.042969 C 25.742188 302.722656 24.820312 303.667969 23.628906 304.882812 "/>
<path fill-rule="nonzero" fill="rgb(0%, 0%, 0%)" fill-opacity="1" d="M 31.898438 304.265625 L 33.445312 304.265625 L 33.445312 306.128906 L 31.898438 306.128906 Z M 31.898438 304.265625 "/>
<path fill-rule="nonzero" fill="rgb(0%, 0%, 0%)" fill-opacity="1" d="M 39.828125 300.933594 C 39.125 300.933594 38.574219 301.121094 38.167969 301.5 C 37.769531 301.875 37.566406 302.390625 37.566406 303.050781 C 37.566406 303.710938 37.769531 304.226562 38.167969 304.605469 C 38.574219 304.980469 39.125 305.167969 39.828125 305.167969 C 40.53125 305.167969 41.085938 304.980469 41.492188 304.601562 C 41.898438 304.222656 42.101562 303.703125 42.101562 303.050781 C 42.101562 302.390625 41.898438 301.875 41.496094 301.5 C 41.09375 301.121094 40.539062 300.933594 39.828125 300.933594 M 38.351562 300.304688 C 37.714844 300.148438 37.222656 299.855469 36.867188 299.417969 C 36.511719 298.984375 36.335938 298.453125 36.335938 297.828125 C 36.335938 296.953125 36.648438 296.265625 37.269531 295.757812 C 37.894531 295.25 38.746094 294.996094 39.828125 294.996094 C 40.917969 294.996094 41.773438 295.25 42.394531 295.757812 C 43.011719 296.265625 43.324219 296.953125 43.324219 297.828125 C 43.324219 298.453125 43.144531 298.984375 42.792969 299.417969 C 42.4375 299.855469 41.945312 300.148438 41.316406 300.304688 C 42.03125 300.472656 42.585938 300.796875 42.980469 301.28125 C 43.378906 301.761719 43.578125 302.351562 43.578125 303.050781 C 43.578125 304.109375 43.253906 304.925781 42.609375 305.492188 C 41.960938 306.058594 41.035156 306.339844 39.828125 306.339844 C 38.625 306.339844 37.699219 306.058594 37.050781 305.492188 C 36.402344 304.925781 36.078125 304.109375 36.078125 303.050781 C 36.078125 302.351562 36.277344 301.761719 36.679688 301.28125 C 37.082031 300.796875 37.636719 300.472656 38.351562 300.304688 M 37.808594 297.96875 C 37.808594 298.535156 37.984375 298.976562 38.339844 299.292969 C 38.691406 299.609375 39.191406 299.769531 39.828125 299.769531 C 40.464844 299.769531 40.960938 299.609375 41.320312 299.292969 C 41.679688 298.976562 41.859375 298.535156 41.859375 297.96875 C 41.859375 297.402344 41.679688 296.960938 41.320312 296.640625 C 40.960938 296.324219 40.464844 296.167969 39.828125 296.167969 C 39.191406 296.167969 38.691406 296.324219 38.339844 296.640625 C 37.984375 296.960938 37.808594 297.402344 37.808594 297.96875 "/>
<path fill="none" stroke-width="0.5" stroke-linecap="butt" stroke-linejoin="round" stroke="rgb(0%, 0%, 0%)" stroke-opacity="1" stroke-miterlimit="100000" d="M 48.605469 252.824219 L 52.605469 252.824219 "/>
<g clip-path="url(#clip-11)">
<path fill="none" stroke-width="0.5" stroke-linecap="butt" stroke-linejoin="round" stroke="rgb(0%, 0%, 0%)" stroke-opacity="1" stroke-miterlimit="100000" d="M 495.003906 252.824219 L 491.003906 252.824219 "/>
</g>
<path fill-rule="nonzero" fill="rgb(0%, 0%, 0%)" fill-opacity="1" d="M 26.835938 251.066406 C 27.542969 251.214844 28.097656 251.53125 28.492188 252.011719 C 28.890625 252.488281 29.089844 253.082031 29.089844 253.785156 C 29.089844 254.863281 28.71875 255.695312 27.976562 256.289062 C 27.234375 256.878906 26.179688 257.175781 24.8125 257.175781 C 24.355469 257.175781 23.882812 257.128906 23.398438 257.039062 C 22.914062 256.949219 22.410156 256.8125 21.894531 256.632812 L 21.894531 255.203125 C 22.304688 255.441406 22.75 255.625 23.238281 255.746094 C 23.726562 255.867188 24.238281 255.929688 24.773438 255.929688 C 25.699219 255.929688 26.40625 255.746094 26.890625 255.378906 C 27.375 255.015625 27.621094 254.480469 27.621094 253.785156 C 27.621094 253.136719 27.394531 252.632812 26.941406 252.273438 C 26.492188 251.90625 25.863281 251.726562 25.058594 251.726562 L 23.78125 251.726562 L 23.78125 250.507812 L 25.117188 250.507812 C 25.84375 250.507812 26.398438 250.363281 26.785156 250.074219 C 27.171875 249.78125 27.363281 249.363281 27.363281 248.816406 C 27.363281 248.257812 27.164062 247.824219 26.765625 247.527344 C 26.371094 247.222656 25.800781 247.074219 25.058594 247.074219 C 24.652344 247.074219 24.214844 247.117188 23.753906 247.207031 C 23.289062 247.292969 22.777344 247.429688 22.222656 247.613281 L 22.222656 246.296875 C 22.785156 246.140625 23.3125 246.023438 23.800781 245.945312 C 24.292969 245.867188 24.753906 245.828125 25.1875 245.828125 C 26.3125 245.828125 27.199219 246.085938 27.855469 246.59375 C 28.507812 247.105469 28.835938 247.792969 28.835938 248.664062 C 28.835938 249.269531 28.664062 249.78125 28.316406 250.199219 C 27.96875 250.613281 27.476562 250.902344 26.835938 251.066406 "/>
<path fill-rule="nonzero" fill="rgb(0%, 0%, 0%)" fill-opacity="1" d="M 31.898438 255.101562 L 33.445312 255.101562 L 33.445312 256.960938 L 31.898438 256.960938 Z M 31.898438 255.101562 "/>
<path fill-rule="nonzero" fill="rgb(0%, 0%, 0%)" fill-opacity="1" d="M 39.828125 247 C 39.066406 247 38.496094 247.375 38.109375 248.125 C 37.726562 248.875 37.535156 250 37.535156 251.503906 C 37.535156 253.003906 37.726562 254.128906 38.109375 254.878906 C 38.496094 255.628906 39.066406 256.003906 39.828125 256.003906 C 40.597656 256.003906 41.171875 255.628906 41.554688 254.878906 C 41.9375 254.128906 42.128906 253.003906 42.128906 251.503906 C 42.128906 250 41.9375 248.875 41.554688 248.125 C 41.171875 247.375 40.597656 247 39.828125 247 M 39.828125 245.828125 C 41.054688 245.828125 41.992188 246.3125 42.640625 247.285156 C 43.285156 248.253906 43.609375 249.660156 43.609375 251.503906 C 43.609375 253.347656 43.285156 254.75 42.640625 255.722656 C 41.992188 256.691406 41.054688 257.175781 39.828125 257.175781 C 38.605469 257.175781 37.667969 256.691406 37.019531 255.722656 C 36.375 254.75 36.050781 253.347656 36.050781 251.503906 C 36.050781 249.660156 36.375 248.253906 37.019531 247.285156 C 37.667969 246.3125 38.605469 245.828125 39.828125 245.828125 "/>
<path fill="none" stroke-width="0.5" stroke-linecap="butt" stroke-linejoin="round" stroke="rgb(0%, 0%, 0%)" stroke-opacity="1" stroke-miterlimit="100000" d="M 48.605469 203.65625 L 52.605469 203.65625 "/>
<g clip-path="url(#clip-12)">
<path fill="none" stroke-width="0.5" stroke-linecap="butt" stroke-linejoin="round" stroke="rgb(0%, 0%, 0%)" stroke-opacity="1" stroke-miterlimit="100000" d="M 495.003906 203.65625 L 491.003906 203.65625 "/>
</g>
<path fill-rule="nonzero" fill="rgb(0%, 0%, 0%)" fill-opacity="1" d="M 26.835938 201.898438 C 27.542969 202.050781 28.097656 202.367188 28.492188 202.84375 C 28.890625 203.324219 29.089844 203.914062 29.089844 204.617188 C 29.089844 205.695312 28.71875 206.53125 27.976562 207.121094 C 27.234375 207.714844 26.179688 208.007812 24.8125 208.007812 C 24.355469 208.007812 23.882812 207.964844 23.398438 207.871094 C 22.914062 207.78125 22.410156 207.644531 21.894531 207.464844 L 21.894531 206.039062 C 22.304688 206.277344 22.75 206.457031 23.238281 206.578125 C 23.726562 206.699219 24.238281 206.761719 24.773438 206.761719 C 25.699219 206.761719 26.40625 206.578125 26.890625 206.214844 C 27.375 205.847656 27.621094 205.316406 27.621094 204.617188 C 27.621094 203.972656 27.394531 203.46875 26.941406 203.105469 C 26.492188 202.742188 25.863281 202.558594 25.058594 202.558594 L 23.78125 202.558594 L 23.78125 201.34375 L 25.117188 201.34375 C 25.84375 201.34375 26.398438 201.199219 26.785156 200.90625 C 27.171875 200.617188 27.363281 200.199219 27.363281 199.652344 C 27.363281 199.089844 27.164062 198.660156 26.765625 198.359375 C 26.371094 198.058594 25.800781 197.90625 25.058594 197.90625 C 24.652344 197.90625 24.214844 197.953125 23.753906 198.039062 C 23.289062 198.128906 22.777344 198.265625 22.222656 198.449219 L 22.222656 197.132812 C 22.785156 196.976562 23.3125 196.859375 23.800781 196.78125 C 24.292969 196.703125 24.753906 196.664062 25.1875 196.664062 C 26.3125 196.664062 27.199219 196.917969 27.855469 197.429688 C 28.507812 197.9375 28.835938 198.628906 28.835938 199.496094 C 28.835938 200.101562 28.664062 200.613281 28.316406 201.03125 C 27.96875 201.449219 27.476562 201.738281 26.835938 201.898438 "/>
<path fill-rule="nonzero" fill="rgb(0%, 0%, 0%)" fill-opacity="1" d="M 31.898438 205.933594 L 33.445312 205.933594 L 33.445312 207.796875 L 31.898438 207.796875 Z M 31.898438 205.933594 "/>
<path fill-rule="nonzero" fill="rgb(0%, 0%, 0%)" fill-opacity="1" d="M 37.941406 206.550781 L 43.101562 206.550781 L 43.101562 207.796875 L 36.160156 207.796875 L 36.160156 206.550781 C 36.722656 205.96875 37.488281 205.191406 38.457031 204.210938 C 39.425781 203.230469 40.035156 202.601562 40.285156 202.316406 C 40.757812 201.785156 41.085938 201.335938 41.273438 200.964844 C 41.464844 200.597656 41.558594 200.234375 41.558594 199.878906 C 41.558594 199.296875 41.355469 198.824219 40.945312 198.457031 C 40.539062 198.089844 40.007812 197.90625 39.351562 197.90625 C 38.890625 197.90625 38.398438 197.988281 37.882812 198.148438 C 37.371094 198.308594 36.820312 198.554688 36.234375 198.882812 L 36.234375 197.386719 C 36.828125 197.148438 37.386719 196.96875 37.902344 196.84375 C 38.421875 196.722656 38.894531 196.664062 39.324219 196.664062 C 40.457031 196.664062 41.359375 196.945312 42.035156 197.511719 C 42.707031 198.078125 43.042969 198.835938 43.042969 199.78125 C 43.042969 200.230469 42.960938 200.660156 42.792969 201.0625 C 42.625 201.464844 42.316406 201.9375 41.871094 202.484375 C 41.75 202.625 41.363281 203.035156 40.707031 203.710938 C 40.054688 204.390625 39.132812 205.335938 37.941406 206.550781 "/>
<path fill="none" stroke-width="0.5" stroke-linecap="butt" stroke-linejoin="round" stroke="rgb(0%, 0%, 0%)" stroke-opacity="1" stroke-miterlimit="100000" d="M 48.605469 154.492188 L 52.605469 154.492188 "/>
<g clip-path="url(#clip-13)">
<path fill="none" stroke-width="0.5" stroke-linecap="butt" stroke-linejoin="round" stroke="rgb(0%, 0%, 0%)" stroke-opacity="1" stroke-miterlimit="100000" d="M 495.003906 154.492188 L 491.003906 154.492188 "/>
</g>
<path fill-rule="nonzero" fill="rgb(0%, 0%, 0%)" fill-opacity="1" d="M 26.835938 152.734375 C 27.542969 152.882812 28.097656 153.199219 28.492188 153.679688 C 28.890625 154.15625 29.089844 154.75 29.089844 155.453125 C 29.089844 156.53125 28.71875 157.363281 27.976562 157.957031 C 27.234375 158.546875 26.179688 158.84375 24.8125 158.84375 C 24.355469 158.84375 23.882812 158.796875 23.398438 158.707031 C 22.914062 158.617188 22.410156 158.480469 21.894531 158.300781 L 21.894531 156.871094 C 22.304688 157.109375 22.75 157.292969 23.238281 157.414062 C 23.726562 157.535156 24.238281 157.597656 24.773438 157.597656 C 25.699219 157.597656 26.40625 157.414062 26.890625 157.046875 C 27.375 156.683594 27.621094 156.148438 27.621094 155.453125 C 27.621094 154.804688 27.394531 154.300781 26.941406 153.941406 C 26.492188 153.574219 25.863281 153.394531 25.058594 153.394531 L 23.78125 153.394531 L 23.78125 152.175781 L 25.117188 152.175781 C 25.84375 152.175781 26.398438 152.03125 26.785156 151.742188 C 27.171875 151.449219 27.363281 151.03125 27.363281 150.484375 C 27.363281 149.925781 27.164062 149.492188 26.765625 149.195312 C 26.371094 148.890625 25.800781 148.742188 25.058594 148.742188 C 24.652344 148.742188 24.214844 148.785156 23.753906 148.875 C 23.289062 148.960938 22.777344 149.097656 22.222656 149.28125 L 22.222656 147.964844 C 22.785156 147.808594 23.3125 147.691406 23.800781 147.613281 C 24.292969 147.535156 24.753906 147.496094 25.1875 147.496094 C 26.3125 147.496094 27.199219 147.753906 27.855469 148.261719 C 28.507812 148.773438 28.835938 149.460938 28.835938 150.332031 C 28.835938 150.9375 28.664062 151.449219 28.316406 151.867188 C 27.96875 152.28125 27.476562 152.570312 26.835938 152.734375 "/>
<path fill-rule="nonzero" fill="rgb(0%, 0%, 0%)" fill-opacity="1" d="M 31.898438 156.769531 L 33.445312 156.769531 L 33.445312 158.628906 L 31.898438 158.628906 Z M 31.898438 156.769531 "/>
<path fill-rule="nonzero" fill="rgb(0%, 0%, 0%)" fill-opacity="1" d="M 40.730469 148.984375 L 36.996094 154.820312 L 40.730469 154.820312 Z M 40.34375 147.695312 L 42.203125 147.695312 L 42.203125 154.820312 L 43.765625 154.820312 L 43.765625 156.050781 L 42.203125 156.050781 L 42.203125 158.628906 L 40.730469 158.628906 L 40.730469 156.050781 L 35.796875 156.050781 L 35.796875 154.625 Z M 40.34375 147.695312 "/>
<path fill="none" stroke-width="0.5" stroke-linecap="butt" stroke-linejoin="round" stroke="rgb(0%, 0%, 0%)" stroke-opacity="1" stroke-miterlimit="100000" d="M 48.605469 105.324219 L 52.605469 105.324219 "/>
<g clip-path="url(#clip-14)">
<path fill="none" stroke-width="0.5" stroke-linecap="butt" stroke-linejoin="round" stroke="rgb(0%, 0%, 0%)" stroke-opacity="1" stroke-miterlimit="100000" d="M 495.003906 105.324219 L 491.003906 105.324219 "/>
</g>
<path fill-rule="nonzero" fill="rgb(0%, 0%, 0%)" fill-opacity="1" d="M 26.835938 103.566406 C 27.542969 103.71875 28.097656 104.035156 28.492188 104.515625 C 28.890625 104.992188 29.089844 105.582031 29.089844 106.285156 C 29.089844 107.363281 28.71875 108.199219 27.976562 108.792969 C 27.234375 109.382812 26.179688 109.675781 24.8125 109.675781 C 24.355469 109.675781 23.882812 109.632812 23.398438 109.542969 C 22.914062 109.449219 22.410156 109.316406 21.894531 109.132812 L 21.894531 107.707031 C 22.304688 107.945312 22.75 108.125 23.238281 108.246094 C 23.726562 108.371094 24.238281 108.429688 24.773438 108.429688 C 25.699219 108.429688 26.40625 108.246094 26.890625 107.882812 C 27.375 107.515625 27.621094 106.984375 27.621094 106.285156 C 27.621094 105.640625 27.394531 105.136719 26.941406 104.773438 C 26.492188 104.410156 25.863281 104.226562 25.058594 104.226562 L 23.78125 104.226562 L 23.78125 103.011719 L 25.117188 103.011719 C 25.84375 103.011719 26.398438 102.867188 26.785156 102.574219 C 27.171875 102.285156 27.363281 101.867188 27.363281 101.320312 C 27.363281 100.757812 27.164062 100.328125 26.765625 100.027344 C 26.371094 99.726562 25.800781 99.574219 25.058594 99.574219 C 24.652344 99.574219 24.214844 99.621094 23.753906 99.710938 C 23.289062 99.796875 22.777344 99.933594 22.222656 100.117188 L 22.222656 98.800781 C 22.785156 98.644531 23.3125 98.527344 23.800781 98.449219 C 24.292969 98.371094 24.753906 98.332031 25.1875 98.332031 C 26.3125 98.332031 27.199219 98.585938 27.855469 99.097656 C 28.507812 99.605469 28.835938 100.296875 28.835938 101.164062 C 28.835938 101.769531 28.664062 102.28125 28.316406 102.699219 C 27.96875 103.117188 27.476562 103.40625 26.835938 103.566406 "/>
<path fill-rule="nonzero" fill="rgb(0%, 0%, 0%)" fill-opacity="1" d="M 31.898438 107.601562 L 33.445312 107.601562 L 33.445312 109.464844 L 31.898438 109.464844 Z M 31.898438 107.601562 "/>
<path fill-rule="nonzero" fill="rgb(0%, 0%, 0%)" fill-opacity="1" d="M 40.015625 103.40625 C 39.351562 103.40625 38.824219 103.636719 38.433594 104.089844 C 38.046875 104.542969 37.851562 105.164062 37.851562 105.957031 C 37.851562 106.742188 38.046875 107.363281 38.433594 107.820312 C 38.824219 108.277344 39.351562 108.503906 40.015625 108.503906 C 40.679688 108.503906 41.203125 108.277344 41.589844 107.820312 C 41.980469 107.363281 42.171875 106.742188 42.171875 105.957031 C 42.171875 105.164062 41.980469 104.542969 41.589844 104.089844 C 41.203125 103.636719 40.679688 103.40625 40.015625 103.40625 M 42.949219 98.769531 L 42.949219 100.117188 C 42.578125 99.941406 42.203125 99.808594 41.824219 99.714844 C 41.449219 99.621094 41.074219 99.574219 40.699219 99.574219 C 39.722656 99.574219 38.976562 99.90625 38.460938 100.566406 C 37.949219 101.222656 37.65625 102.21875 37.582031 103.554688 C 37.867188 103.128906 38.230469 102.800781 38.664062 102.574219 C 39.101562 102.347656 39.578125 102.234375 40.101562 102.234375 C 41.199219 102.234375 42.066406 102.570312 42.703125 103.238281 C 43.34375 103.902344 43.660156 104.808594 43.660156 105.957031 C 43.660156 107.078125 43.328125 107.980469 42.664062 108.660156 C 42 109.339844 41.117188 109.675781 40.015625 109.675781 C 38.75 109.675781 37.78125 109.191406 37.113281 108.222656 C 36.445312 107.253906 36.109375 105.847656 36.109375 104.007812 C 36.109375 102.28125 36.519531 100.902344 37.339844 99.875 C 38.160156 98.84375 39.261719 98.332031 40.640625 98.332031 C 41.015625 98.332031 41.390625 98.367188 41.765625 98.441406 C 42.144531 98.515625 42.539062 98.625 42.949219 98.769531 "/>
<path fill="none" stroke-width="0.5" stroke-linecap="butt" stroke-linejoin="round" stroke="rgb(0%, 0%, 0%)" stroke-opacity="1" stroke-miterlimit="100000" d="M 48.605469 56.160156 L 52.605469 56.160156 "/>
<g clip-path="url(#clip-15)">
<path fill="none" stroke-width="0.5" stroke-linecap="butt" stroke-linejoin="round" stroke="rgb(0%, 0%, 0%)" stroke-opacity="1" stroke-miterlimit="100000" d="M 495.003906 56.160156 L 491.003906 56.160156 "/>
</g>
<path fill-rule="nonzero" fill="rgb(0%, 0%, 0%)" fill-opacity="1" d="M 26.835938 54.402344 C 27.542969 54.554688 28.097656 54.867188 28.492188 55.347656 C 28.890625 55.828125 29.089844 56.417969 29.089844 57.121094 C 29.089844 58.199219 28.71875 59.035156 27.976562 59.625 C 27.234375 60.214844 26.179688 60.511719 24.8125 60.511719 C 24.355469 60.511719 23.882812 60.464844 23.398438 60.375 C 22.914062 60.285156 22.410156 60.148438 21.894531 59.96875 L 21.894531 58.539062 C 22.304688 58.78125 22.75 58.960938 23.238281 59.082031 C 23.726562 59.203125 24.238281 59.265625 24.773438 59.265625 C 25.699219 59.265625 26.40625 59.082031 26.890625 58.714844 C 27.375 58.351562 27.621094 57.820312 27.621094 57.121094 C 27.621094 56.476562 27.394531 55.972656 26.941406 55.609375 C 26.492188 55.246094 25.863281 55.0625 25.058594 55.0625 L 23.78125 55.0625 L 23.78125 53.847656 L 25.117188 53.847656 C 25.84375 53.847656 26.398438 53.699219 26.785156 53.410156 C 27.171875 53.121094 27.363281 52.699219 27.363281 52.152344 C 27.363281 51.59375 27.164062 51.164062 26.765625 50.863281 C 26.371094 50.5625 25.800781 50.410156 25.058594 50.410156 C 24.652344 50.410156 24.214844 50.453125 23.753906 50.542969 C 23.289062 50.632812 22.777344 50.765625 22.222656 50.953125 L 22.222656 49.632812 C 22.785156 49.476562 23.3125 49.359375 23.800781 49.28125 C 24.292969 49.203125 24.753906 49.164062 25.1875 49.164062 C 26.3125 49.164062 27.199219 49.421875 27.855469 49.933594 C 28.507812 50.441406 28.835938 51.128906 28.835938 52 C 28.835938 52.605469 28.664062 53.117188 28.316406 53.535156 C 27.96875 53.953125 27.476562 54.242188 26.835938 54.402344 "/>
<path fill-rule="nonzero" fill="rgb(0%, 0%, 0%)" fill-opacity="1" d="M 31.898438 58.4375 L 33.445312 58.4375 L 33.445312 60.296875 L 31.898438 60.296875 Z M 31.898438 58.4375 "/>
<path fill-rule="nonzero" fill="rgb(0%, 0%, 0%)" fill-opacity="1" d="M 39.828125 55.105469 C 39.125 55.105469 38.574219 55.292969 38.167969 55.667969 C 37.769531 56.046875 37.566406 56.5625 37.566406 57.222656 C 37.566406 57.878906 37.769531 58.398438 38.167969 58.773438 C 38.574219 59.152344 39.125 59.339844 39.828125 59.339844 C 40.53125 59.339844 41.085938 59.152344 41.492188 58.773438 C 41.898438 58.394531 42.101562 57.875 42.101562 57.222656 C 42.101562 56.5625 41.898438 56.046875 41.496094 55.667969 C 41.09375 55.292969 40.539062 55.105469 39.828125 55.105469 M 38.351562 54.476562 C 37.714844 54.320312 37.222656 54.023438 36.867188 53.589844 C 36.511719 53.15625 36.335938 52.625 36.335938 52 C 36.335938 51.125 36.648438 50.433594 37.269531 49.925781 C 37.894531 49.417969 38.746094 49.164062 39.828125 49.164062 C 40.917969 49.164062 41.773438 49.417969 42.394531 49.925781 C 43.011719 50.433594 43.324219 51.125 43.324219 52 C 43.324219 52.625 43.144531 53.15625 42.792969 53.589844 C 42.4375 54.023438 41.945312 54.320312 41.316406 54.476562 C 42.03125 54.640625 42.585938 54.96875 42.980469 55.453125 C 43.378906 55.933594 43.578125 56.523438 43.578125 57.222656 C 43.578125 58.28125 43.253906 59.097656 42.609375 59.664062 C 41.960938 60.230469 41.035156 60.511719 39.828125 60.511719 C 38.625 60.511719 37.699219 60.230469 37.050781 59.664062 C 36.402344 59.097656 36.078125 58.28125 36.078125 57.222656 C 36.078125 56.523438 36.277344 55.933594 36.679688 55.453125 C 37.082031 54.96875 37.636719 54.640625 38.351562 54.476562 M 37.808594 52.140625 C 37.808594 52.707031 37.984375 53.148438 38.339844 53.464844 C 38.691406 53.78125 39.191406 53.941406 39.828125 53.941406 C 40.464844 53.941406 40.960938 53.78125 41.320312 53.464844 C 41.679688 53.148438 41.859375 52.707031 41.859375 52.140625 C 41.859375 51.574219 41.679688 51.128906 41.320312 50.8125 C 40.960938 50.496094 40.464844 50.335938 39.828125 50.335938 C 39.191406 50.335938 38.691406 50.496094 38.339844 50.8125 C 37.984375 51.128906 37.808594 51.574219 37.808594 52.140625 "/>
<path fill="none" stroke-width="0.5" stroke-linecap="butt" stroke-linejoin="round" stroke="rgb(0%, 0%, 0%)" stroke-opacity="1" stroke-miterlimit="100000" d="M 48.605469 6.992188 L 52.605469 6.992188 "/>
<g clip-path="url(#clip-16)">
<path fill="none" stroke-width="0.5" stroke-linecap="butt" stroke-linejoin="round" stroke="rgb(0%, 0%, 0%)" stroke-opacity="1" stroke-miterlimit="100000" d="M 495.003906 6.992188 L 491.003906 6.992188 "/>
</g>
<path fill-rule="nonzero" fill="rgb(0%, 0%, 0%)" fill-opacity="1" d="M 26.417969 1.484375 L 22.683594 7.324219 L 26.417969 7.324219 Z M 26.03125 0.195312 L 27.890625 0.195312 L 27.890625 7.324219 L 29.453125 7.324219 L 29.453125 8.554688 L 27.890625 8.554688 L 27.890625 11.132812 L 26.417969 11.132812 L 26.417969 8.554688 L 21.484375 8.554688 L 21.484375 7.128906 Z M 26.03125 0.195312 "/>
<path fill-rule="nonzero" fill="rgb(0%, 0%, 0%)" fill-opacity="1" d="M 31.898438 9.273438 L 33.445312 9.273438 L 33.445312 11.132812 L 31.898438 11.132812 Z M 31.898438 9.273438 "/>
<path fill-rule="nonzero" fill="rgb(0%, 0%, 0%)" fill-opacity="1" d="M 39.828125 1.171875 C 39.066406 1.171875 38.496094 1.546875 38.109375 2.296875 C 37.726562 3.046875 37.535156 4.171875 37.535156 5.675781 C 37.535156 7.175781 37.726562 8.300781 38.109375 9.050781 C 38.496094 9.800781 39.066406 10.175781 39.828125 10.175781 C 40.597656 10.175781 41.171875 9.800781 41.554688 9.050781 C 41.9375 8.300781 42.128906 7.175781 42.128906 5.675781 C 42.128906 4.171875 41.9375 3.046875 41.554688 2.296875 C 41.171875 1.546875 40.597656 1.171875 39.828125 1.171875 M 39.828125 0 C 41.054688 0 41.992188 0.484375 42.640625 1.457031 C 43.285156 2.425781 43.609375 3.832031 43.609375 5.675781 C 43.609375 7.515625 43.285156 8.921875 42.640625 9.894531 C 41.992188 10.863281 41.054688 11.347656 39.828125 11.347656 C 38.605469 11.347656 37.667969 10.863281 37.019531 9.894531 C 36.375 8.921875 36.050781 7.515625 36.050781 5.675781 C 36.050781 3.832031 36.375 2.425781 37.019531 1.457031 C 37.667969 0.484375 38.605469 0 39.828125 0 "/>
<path fill-rule="nonzero" fill="rgb(0%, 0%, 0%)" fill-opacity="1" d="M 10.4375 265.921875 L 7.5 265.921875 L 7.5 268.335938 L 6.285156 268.335938 L 6.285156 264.457031 L 10.980469 264.457031 C 11.386719 265.027344 11.691406 265.65625 11.898438 266.34375 C 12.105469 267.03125 12.210938 267.765625 12.210938 268.546875 C 12.210938 270.257812 11.710938 271.59375 10.714844 272.5625 C 9.714844 273.523438 8.324219 274.007812 6.542969 274.007812 C 4.753906 274.007812 3.359375 273.523438 2.363281 272.5625 C 1.363281 271.59375 0.863281 270.257812 0.863281 268.546875 C 0.863281 267.835938 0.953125 267.160156 1.128906 266.515625 C 1.304688 265.875 1.5625 265.28125 1.90625 264.738281 L 3.480469 264.738281 C 3.015625 265.285156 2.667969 265.867188 2.433594 266.484375 C 2.199219 267.097656 2.082031 267.746094 2.082031 268.425781 C 2.082031 269.761719 2.453125 270.769531 3.203125 271.441406 C 3.949219 272.109375 5.0625 272.445312 6.542969 272.445312 C 8.015625 272.445312 9.128906 272.109375 9.875 271.441406 C 10.621094 270.769531 10.996094 269.761719 10.996094 268.425781 C 10.996094 267.902344 10.949219 267.4375 10.859375 267.027344 C 10.769531 266.617188 10.628906 266.246094 10.4375 265.921875 "/>
<path fill-rule="nonzero" fill="rgb(0%, 0%, 0%)" fill-opacity="1" d="M 7.875 258.082031 C 7.875 259.171875 8 259.925781 8.246094 260.347656 C 8.496094 260.765625 8.921875 260.976562 9.523438 260.976562 C 10 260.976562 10.378906 260.820312 10.660156 260.503906 C 10.941406 260.1875 11.082031 259.761719 11.082031 259.21875 C 11.082031 258.472656 10.816406 257.871094 10.285156 257.417969 C 9.757812 256.96875 9.054688 256.742188 8.175781 256.742188 L 7.875 256.742188 Z M 7.316406 255.394531 L 11.996094 255.394531 L 11.996094 256.742188 L 10.753906 256.742188 C 11.25 257.050781 11.617188 257.433594 11.855469 257.894531 C 12.09375 258.351562 12.210938 258.914062 12.210938 259.578125 C 12.210938 260.417969 11.976562 261.085938 11.503906 261.582031 C 11.03125 262.078125 10.398438 262.324219 9.609375 262.324219 C 8.6875 262.324219 7.992188 262.015625 7.523438 261.398438 C 7.054688 260.78125 6.820312 259.859375 6.820312 258.632812 L 6.820312 256.742188 L 6.6875 256.742188 C 6.066406 256.742188 5.585938 256.945312 5.246094 257.355469 C 4.910156 257.761719 4.738281 258.335938 4.738281 259.070312 C 4.738281 259.539062 4.796875 259.996094 4.90625 260.441406 C 5.019531 260.886719 5.1875 261.3125 5.414062 261.722656 L 4.167969 261.722656 C 3.976562 261.230469 3.835938 260.753906 3.742188 260.289062 C 3.644531 259.824219 3.597656 259.371094 3.597656 258.933594 C 3.597656 257.746094 3.90625 256.859375 4.519531 256.273438 C 5.136719 255.6875 6.066406 255.394531 7.316406 255.394531 "/>
<path fill-rule="nonzero" fill="rgb(0%, 0%, 0%)" fill-opacity="1" d="M 3.792969 252.621094 L 3.792969 251.273438 L 11.996094 251.273438 L 11.996094 252.621094 Z M 0.601562 252.621094 L 0.601562 251.273438 L 2.308594 251.273438 L 2.308594 252.621094 Z M 0.601562 252.621094 "/>
<path fill-rule="nonzero" fill="rgb(0%, 0%, 0%)" fill-opacity="1" d="M 7.046875 241.632812 L 11.996094 241.632812 L 11.996094 242.980469 L 7.089844 242.980469 C 6.3125 242.980469 5.734375 243.132812 5.347656 243.433594 C 4.960938 243.738281 4.769531 244.191406 4.769531 244.796875 C 4.769531 245.523438 5 246.097656 5.464844 246.519531 C 5.929688 246.9375 6.558594 247.148438 7.363281 247.148438 L 11.996094 247.148438 L 11.996094 248.503906 L 3.792969 248.503906 L 3.792969 247.148438 L 5.070312 247.148438 C 4.574219 246.824219 4.207031 246.445312 3.964844 246.011719 C 3.71875 245.574219 3.597656 245.066406 3.597656 244.496094 C 3.597656 243.554688 3.890625 242.839844 4.472656 242.359375 C 5.054688 241.875 5.914062 241.632812 7.046875 241.632812 "/>
<path fill-rule="nonzero" fill="rgb(0%, 0%, 0%)" fill-opacity="1" d="M 7.046875 227.355469 L 11.996094 227.355469 L 11.996094 228.703125 L 7.089844 228.703125 C 6.3125 228.703125 5.734375 228.855469 5.347656 229.160156 C 4.960938 229.460938 4.769531 229.917969 4.769531 230.519531 C 4.769531 231.25 5 231.824219 5.464844 232.242188 C 5.929688 232.664062 6.558594 232.875 7.363281 232.875 L 11.996094 232.875 L 11.996094 234.230469 L 3.792969 234.230469 L 3.792969 232.875 L 5.070312 232.875 C 4.574219 232.550781 4.207031 232.171875 3.964844 231.734375 C 3.71875 231.296875 3.597656 230.792969 3.597656 230.222656 C 3.597656 229.277344 3.890625 228.566406 4.472656 228.082031 C 5.054688 227.597656 5.914062 227.355469 7.046875 227.355469 "/>
<path fill-rule="nonzero" fill="rgb(0%, 0%, 0%)" fill-opacity="1" d="M 4.738281 221.492188 C 4.738281 222.214844 5.019531 222.785156 5.585938 223.207031 C 6.148438 223.625 6.921875 223.835938 7.902344 223.835938 C 8.882812 223.835938 9.65625 223.628906 10.222656 223.210938 C 10.785156 222.792969 11.066406 222.21875 11.066406 221.492188 C 11.066406 220.773438 10.785156 220.207031 10.21875 219.785156 C 9.652344 219.367188 8.878906 219.15625 7.902344 219.15625 C 6.929688 219.15625 6.160156 219.367188 5.59375 219.785156 C 5.023438 220.207031 4.738281 220.773438 4.738281 221.492188 M 3.597656 221.492188 C 3.597656 220.320312 3.980469 219.402344 4.742188 218.730469 C 5.503906 218.0625 6.554688 217.726562 7.902344 217.726562 C 9.246094 217.726562 10.300781 218.0625 11.066406 218.730469 C 11.828125 219.402344 12.210938 220.320312 12.210938 221.492188 C 12.210938 222.667969 11.828125 223.589844 11.066406 224.257812 C 10.300781 224.925781 9.246094 225.257812 7.902344 225.257812 C 6.554688 225.257812 5.503906 224.925781 4.742188 224.257812 C 3.980469 223.589844 3.597656 222.667969 3.597656 221.492188 "/>
<path fill-rule="nonzero" fill="rgb(0%, 0%, 0%)" fill-opacity="1" d="M 7.046875 208.671875 L 11.996094 208.671875 L 11.996094 210.019531 L 7.089844 210.019531 C 6.3125 210.019531 5.734375 210.171875 5.347656 210.476562 C 4.960938 210.777344 4.769531 211.234375 4.769531 211.835938 C 4.769531 212.566406 5 213.140625 5.464844 213.558594 C 5.929688 213.980469 6.558594 214.191406 7.363281 214.191406 L 11.996094 214.191406 L 11.996094 215.546875 L 3.792969 215.546875 L 3.792969 214.191406 L 5.070312 214.191406 C 4.574219 213.867188 4.207031 213.488281 3.964844 213.050781 C 3.71875 212.613281 3.597656 212.109375 3.597656 211.539062 C 3.597656 210.59375 3.890625 209.882812 4.472656 209.398438 C 5.054688 208.914062 5.914062 208.671875 7.046875 208.671875 "/>
<path fill-rule="nonzero" fill="rgb(0%, 0%, 0%)" fill-opacity="1" d="M 7.289062 206.667969 L 7.289062 202.71875 L 8.488281 202.71875 L 8.488281 206.667969 Z M 7.289062 206.667969 "/>
<path fill-rule="nonzero" fill="rgb(0%, 0%, 0%)" fill-opacity="1" d="M 0.601562 200.574219 L 0.601562 199.226562 L 11.996094 199.226562 L 11.996094 200.574219 Z M 0.601562 200.574219 "/>
<path fill-rule="nonzero" fill="rgb(0%, 0%, 0%)" fill-opacity="1" d="M 3.792969 196.40625 L 3.792969 195.058594 L 11.996094 195.058594 L 11.996094 196.40625 Z M 0.601562 196.40625 L 0.601562 195.058594 L 2.308594 195.058594 L 2.308594 196.40625 Z M 0.601562 196.40625 "/>
<path fill-rule="nonzero" fill="rgb(0%, 0%, 0%)" fill-opacity="1" d="M 7.046875 185.417969 L 11.996094 185.417969 L 11.996094 186.765625 L 7.089844 186.765625 C 6.3125 186.765625 5.734375 186.917969 5.347656 187.222656 C 4.960938 187.523438 4.769531 187.976562 4.769531 188.582031 C 4.769531 189.3125 5 189.886719 5.464844 190.304688 C 5.929688 190.726562 6.558594 190.9375 7.363281 190.9375 L 11.996094 190.9375 L 11.996094 192.289062 L 3.792969 192.289062 L 3.792969 190.9375 L 5.070312 190.9375 C 4.574219 190.613281 4.207031 190.234375 3.964844 189.796875 C 3.71875 189.359375 3.597656 188.855469 3.597656 188.28125 C 3.597656 187.339844 3.890625 186.628906 4.472656 186.144531 C 5.054688 185.660156 5.914062 185.417969 7.046875 185.417969 "/>
<path fill-rule="nonzero" fill="rgb(0%, 0%, 0%)" fill-opacity="1" d="M 7.558594 175.714844 L 8.21875 175.714844 L 8.21875 181.910156 C 9.144531 181.851562 9.851562 181.574219 10.339844 181.074219 C 10.824219 180.574219 11.066406 179.875 11.066406 178.980469 C 11.066406 178.464844 11.003906 177.964844 10.878906 177.476562 C 10.75 176.992188 10.558594 176.507812 10.304688 176.027344 L 11.582031 176.027344 C 11.785156 176.511719 11.941406 177.007812 12.050781 177.515625 C 12.15625 178.023438 12.210938 178.539062 12.210938 179.0625 C 12.210938 180.371094 11.832031 181.40625 11.070312 182.171875 C 10.308594 182.9375 9.277344 183.316406 7.976562 183.316406 C 6.632812 183.316406 5.570312 182.957031 4.78125 182.230469 C 3.992188 181.503906 3.597656 180.527344 3.597656 179.296875 C 3.597656 178.191406 3.953125 177.320312 4.664062 176.679688 C 5.375 176.035156 6.339844 175.714844 7.558594 175.714844 M 7.164062 177.0625 C 6.425781 177.070312 5.839844 177.277344 5.398438 177.679688 C 4.960938 178.085938 4.738281 178.617188 4.738281 179.28125 C 4.738281 180.035156 4.953125 180.636719 5.375 181.085938 C 5.800781 181.539062 6.398438 181.796875 7.171875 181.867188 Z M 0 178.367188 L 0 176.90625 L 2.753906 179.292969 L 2.753906 180.417969 Z M 0 178.367188 "/>
<path fill-rule="nonzero" fill="rgb(0%, 0%, 0%)" fill-opacity="1" d="M 7.875 169.773438 C 7.875 170.863281 8 171.617188 8.246094 172.039062 C 8.496094 172.460938 8.921875 172.667969 9.523438 172.667969 C 10 172.667969 10.378906 172.511719 10.660156 172.195312 C 10.941406 171.878906 11.082031 171.453125 11.082031 170.910156 C 11.082031 170.164062 10.816406 169.5625 10.285156 169.113281 C 9.757812 168.660156 9.054688 168.433594 8.175781 168.433594 L 7.875 168.433594 Z M 7.316406 167.085938 L 11.996094 167.085938 L 11.996094 168.433594 L 10.753906 168.433594 C 11.25 168.742188 11.617188 169.125 11.855469 169.585938 C 12.09375 170.042969 12.210938 170.605469 12.210938 171.269531 C 12.210938 172.109375 11.976562 172.777344 11.503906 173.273438 C 11.03125 173.769531 10.398438 174.015625 9.609375 174.015625 C 8.6875 174.015625 7.992188 173.707031 7.523438 173.089844 C 7.054688 172.472656 6.820312 171.550781 6.820312 170.324219 L 6.820312 168.433594 L 6.6875 168.433594 C 6.066406 168.433594 5.585938 168.636719 5.246094 169.046875 C 4.910156 169.453125 4.738281 170.027344 4.738281 170.765625 C 4.738281 171.234375 4.796875 171.691406 4.90625 172.136719 C 5.019531 172.578125 5.1875 173.003906 5.414062 173.414062 L 4.167969 173.414062 C 3.976562 172.921875 3.835938 172.445312 3.742188 171.980469 C 3.644531 171.515625 3.597656 171.066406 3.597656 170.625 C 3.597656 169.4375 3.90625 168.550781 4.519531 167.964844 C 5.136719 167.378906 6.066406 167.085938 7.316406 167.085938 "/>
<path fill-rule="nonzero" fill="rgb(0%, 0%, 0%)" fill-opacity="1" d="M 3.792969 164.3125 L 3.792969 162.964844 L 11.996094 162.964844 L 11.996094 164.3125 Z M 0.601562 164.3125 L 0.601562 162.964844 L 2.308594 162.964844 L 2.308594 164.3125 Z M 0.601562 164.3125 "/>
<path fill-rule="nonzero" fill="rgb(0%, 0%, 0%)" fill-opacity="1" d="M 5.054688 155.390625 C 4.964844 155.542969 4.902344 155.707031 4.859375 155.886719 C 4.820312 156.0625 4.796875 156.261719 4.796875 156.472656 C 4.796875 157.238281 5.046875 157.820312 5.539062 158.230469 C 6.035156 158.636719 6.746094 158.839844 7.675781 158.839844 L 11.996094 158.839844 L 11.996094 160.195312 L 3.792969 160.195312 L 3.792969 158.839844 L 5.070312 158.839844 C 4.570312 158.558594 4.203125 158.1875 3.960938 157.734375 C 3.71875 157.28125 3.597656 156.726562 3.597656 156.078125 C 3.597656 155.984375 3.605469 155.882812 3.617188 155.769531 C 3.628906 155.660156 3.644531 155.535156 3.671875 155.398438 Z M 5.054688 155.390625 "/>
<path fill-rule="nonzero" fill="rgb(0%, 0%, 0%)" fill-opacity="1" d="M 7.558594 146.960938 L 8.21875 146.960938 L 8.21875 153.15625 C 9.144531 153.097656 9.851562 152.816406 10.339844 152.316406 C 10.824219 151.816406 11.066406 151.121094 11.066406 150.226562 C 11.066406 149.710938 11.003906 149.207031 10.878906 148.722656 C 10.75 148.238281 10.558594 147.753906 10.304688 147.273438 L 11.582031 147.273438 C 11.785156 147.757812 11.941406 148.253906 12.050781 148.761719 C 12.15625 149.269531 12.210938 149.785156 12.210938 150.308594 C 12.210938 151.617188 11.832031 152.652344 11.070312 153.417969 C 10.308594 154.179688 9.277344 154.5625 7.976562 154.5625 C 6.632812 154.5625 5.570312 154.199219 4.78125 153.476562 C 3.992188 152.75 3.597656 151.773438 3.597656 150.542969 C 3.597656 149.4375 3.953125 148.566406 4.664062 147.921875 C 5.375 147.28125 6.339844 146.960938 7.558594 146.960938 M 7.164062 148.308594 C 6.425781 148.316406 5.839844 148.523438 5.398438 148.925781 C 4.960938 149.328125 4.738281 149.863281 4.738281 150.527344 C 4.738281 151.277344 4.953125 151.878906 5.375 152.332031 C 5.800781 152.785156 6.398438 153.042969 7.171875 153.113281 Z M 7.164062 148.308594 "/>
<path fill-rule="nonzero" fill="rgb(0%, 0%, 0%)" fill-opacity="1" d="M 15.476562 139.605469 L 1.019531 139.605469 C 0.941406 139.605469 0.875 139.578125 0.824219 139.519531 C 0.773438 139.460938 0.746094 139.390625 0.746094 139.304688 C 0.746094 139.234375 0.773438 139.164062 0.824219 139.101562 C 0.875 139.039062 0.941406 139.007812 1.019531 139.007812 L 15.476562 139.007812 C 15.554688 139.007812 15.617188 139.039062 15.671875 139.101562 C 15.722656 139.164062 15.746094 139.234375 15.746094 139.304688 C 15.746094 139.390625 15.722656 139.460938 15.671875 139.519531 C 15.617188 139.578125 15.554688 139.605469 15.476562 139.605469 "/>
<path fill-rule="nonzero" fill="rgb(0%, 0%, 0%)" fill-opacity="1" d="M 12.328125 136.324219 C 12.328125 136.355469 12.3125 136.382812 12.277344 136.40625 C 12.242188 136.429688 12.210938 136.441406 12.179688 136.441406 L 8.679688 135.578125 C 8.621094 135.558594 8.59375 135.515625 8.59375 135.453125 L 8.59375 135.277344 C 8.59375 135.238281 8.605469 135.207031 8.636719 135.1875 C 8.664062 135.164062 8.699219 135.152344 8.746094 135.152344 C 9.085938 135.234375 9.390625 135.277344 9.660156 135.277344 C 10.382812 135.277344 10.921875 135.027344 11.273438 134.53125 C 11.625 134.035156 11.800781 133.40625 11.800781 132.648438 C 11.800781 132.320312 11.71875 132 11.558594 131.683594 C 11.398438 131.363281 11.1875 131.089844 10.929688 130.851562 C 10.667969 130.613281 10.378906 130.425781 10.0625 130.285156 C 9.742188 130.144531 9.417969 130.070312 9.089844 130.070312 C 8.738281 130.070312 8.425781 130.164062 8.148438 130.351562 C 7.871094 130.535156 7.695312 130.789062 7.617188 131.117188 L 7.132812 132.949219 C 7.003906 133.441406 6.738281 133.835938 6.339844 134.128906 C 5.941406 134.421875 5.492188 134.566406 4.996094 134.566406 C 4.394531 134.566406 3.816406 134.390625 3.261719 134.03125 C 2.703125 133.675781 2.257812 133.210938 1.925781 132.636719 C 1.589844 132.066406 1.421875 131.480469 1.421875 130.882812 C 1.421875 130.425781 1.503906 130.003906 1.671875 129.621094 C 1.84375 129.238281 2.109375 128.941406 2.476562 128.738281 L 1.464844 127.878906 C 1.433594 127.824219 1.421875 127.789062 1.421875 127.777344 L 1.421875 127.683594 C 1.421875 127.644531 1.4375 127.613281 1.472656 127.589844 C 1.507812 127.566406 1.539062 127.550781 1.574219 127.550781 L 5.054688 128.421875 C 5.121094 128.4375 5.15625 128.476562 5.15625 128.539062 L 5.15625 128.722656 C 5.15625 128.8125 5.101562 128.855469 4.996094 128.855469 C 4.675781 128.808594 4.402344 128.78125 4.167969 128.78125 C 3.703125 128.78125 3.300781 128.863281 2.957031 129.023438 C 2.613281 129.179688 2.351562 129.417969 2.171875 129.738281 C 1.996094 130.058594 1.90625 130.453125 1.90625 130.925781 C 1.90625 131.328125 2.019531 131.726562 2.25 132.121094 C 2.476562 132.519531 2.78125 132.835938 3.164062 133.082031 C 3.546875 133.324219 3.941406 133.445312 4.351562 133.445312 C 4.671875 133.445312 4.960938 133.351562 5.207031 133.164062 C 5.457031 132.976562 5.625 132.726562 5.714844 132.414062 L 6.191406 130.582031 C 6.277344 130.25 6.433594 129.960938 6.652344 129.714844 C 6.875 129.46875 7.140625 129.28125 7.445312 129.15625 C 7.75 129.027344 8.082031 128.964844 8.445312 128.964844 C 8.917969 128.964844 9.386719 129.066406 9.847656 129.265625 C 10.308594 129.464844 10.730469 129.746094 11.113281 130.105469 C 11.492188 130.460938 11.789062 130.867188 12.003906 131.324219 C 12.21875 131.777344 12.328125 132.242188 12.328125 132.714844 C 12.328125 133.90625 11.980469 134.761719 11.28125 135.277344 L 12.285156 136.113281 C 12.3125 136.171875 12.328125 136.207031 12.328125 136.222656 Z M 12.328125 136.324219 "/>
<path fill-rule="nonzero" fill="rgb(0%, 0%, 0%)" fill-opacity="1" d="M 14.546875 127.527344 L 14.265625 127.527344 C 14.25 127.527344 14.230469 127.519531 14.210938 127.507812 L 12.40625 125.875 C 12.140625 125.628906 11.914062 125.429688 11.734375 125.277344 C 11.554688 125.121094 11.34375 124.96875 11.109375 124.820312 C 10.871094 124.667969 10.632812 124.550781 10.386719 124.464844 C 10.144531 124.375 9.886719 124.332031 9.613281 124.332031 C 9.324219 124.332031 9.050781 124.386719 8.789062 124.492188 C 8.527344 124.597656 8.316406 124.753906 8.160156 124.964844 C 8.003906 125.175781 7.921875 125.429688 7.921875 125.726562 C 7.921875 126.03125 8.015625 126.304688 8.199219 126.546875 C 8.382812 126.789062 8.617188 126.960938 8.90625 127.058594 C 8.902344 127.03125 8.898438 126.996094 8.898438 126.945312 C 8.898438 126.789062 8.953125 126.65625 9.058594 126.546875 C 9.164062 126.433594 9.300781 126.378906 9.46875 126.378906 C 9.628906 126.378906 9.765625 126.433594 9.875 126.546875 C 9.988281 126.65625 10.042969 126.789062 10.042969 126.945312 C 10.042969 127.109375 9.984375 127.25 9.871094 127.359375 C 9.757812 127.472656 9.621094 127.527344 9.46875 127.527344 C 9.203125 127.527344 8.957031 127.476562 8.726562 127.378906 C 8.496094 127.277344 8.292969 127.136719 8.113281 126.949219 C 7.933594 126.761719 7.792969 126.550781 7.699219 126.320312 C 7.601562 126.085938 7.554688 125.835938 7.554688 125.574219 C 7.554688 125.171875 7.640625 124.800781 7.808594 124.457031 C 7.976562 124.109375 8.21875 123.835938 8.527344 123.636719 C 8.835938 123.433594 9.199219 123.332031 9.613281 123.332031 C 9.914062 123.332031 10.203125 123.398438 10.476562 123.53125 C 10.75 123.667969 11 123.835938 11.226562 124.046875 C 11.449219 124.253906 11.703125 124.519531 11.984375 124.84375 C 12.269531 125.171875 12.457031 125.382812 12.554688 125.484375 L 13.695312 126.675781 L 13.695312 125.664062 C 13.695312 125.171875 13.691406 124.753906 13.6875 124.421875 C 13.675781 124.089844 13.664062 123.910156 13.644531 123.890625 C 13.558594 123.808594 13.234375 123.726562 12.675781 123.640625 L 12.675781 123.332031 L 14.546875 123.628906 Z M 14.546875 127.527344 "/>
<path fill-rule="nonzero" fill="rgb(0%, 0%, 0%)" fill-opacity="1" d="M 14.546875 121.824219 L 14.179688 121.824219 C 14.179688 120.949219 14.070312 120.511719 13.847656 120.511719 L 8.332031 120.511719 C 8.507812 120.875 8.597656 121.332031 8.597656 121.886719 L 8.226562 121.886719 C 8.226562 121.027344 8.003906 120.378906 7.554688 119.941406 L 7.554688 119.796875 C 7.554688 119.769531 7.5625 119.75 7.585938 119.726562 C 7.601562 119.703125 7.625 119.691406 7.648438 119.691406 L 13.847656 119.691406 C 14.070312 119.691406 14.179688 119.253906 14.179688 118.378906 L 14.546875 118.378906 Z M 14.546875 121.824219 "/>
<path fill-rule="nonzero" fill="rgb(0%, 0%, 0%)" fill-opacity="1" d="M 15.71875 111.941406 C 15.277344 112.5 14.773438 112.980469 14.207031 113.382812 C 13.636719 113.785156 13.03125 114.113281 12.382812 114.371094 C 11.742188 114.628906 11.066406 114.820312 10.363281 114.945312 C 9.660156 115.070312 8.957031 115.136719 8.246094 115.136719 C 7.53125 115.136719 6.820312 115.070312 6.117188 114.945312 C 5.414062 114.820312 4.738281 114.625 4.085938 114.363281 C 3.4375 114.101562 2.828125 113.769531 2.265625 113.363281 C 1.695312 112.957031 1.199219 112.484375 0.777344 111.941406 C 0.757812 111.941406 0.746094 111.917969 0.746094 111.867188 L 0.746094 111.730469 C 0.746094 111.699219 0.761719 111.671875 0.789062 111.648438 C 0.8125 111.625 0.84375 111.613281 0.878906 111.613281 C 0.921875 111.613281 0.953125 111.621094 0.976562 111.640625 C 1.453125 112.128906 1.964844 112.535156 2.511719 112.863281 C 3.058594 113.1875 3.640625 113.449219 4.261719 113.648438 C 4.878906 113.84375 5.519531 113.984375 6.179688 114.074219 C 6.839844 114.160156 7.53125 114.203125 8.246094 114.203125 C 11.425781 114.203125 13.839844 113.355469 15.492188 111.65625 C 15.519531 111.628906 15.5625 111.613281 15.617188 111.613281 C 15.640625 111.613281 15.667969 111.625 15.699219 111.652344 C 15.730469 111.679688 15.746094 111.703125 15.746094 111.730469 L 15.746094 111.867188 C 15.746094 111.917969 15.738281 111.941406 15.71875 111.941406 "/>
<path fill-rule="nonzero" fill="rgb(0%, 0%, 0%)" fill-opacity="1" d="M 11.996094 110.09375 C 11.996094 110.195312 11.933594 110.242188 11.800781 110.242188 C 11.582031 110.203125 11.46875 110.140625 11.46875 110.054688 C 11.46875 109.648438 11.390625 109.296875 11.230469 109 C 11.066406 108.707031 10.820312 108.449219 10.480469 108.238281 L 10.453125 108.207031 L 1.421875 102.851562 C 1.3125 102.773438 1.261719 102.679688 1.261719 102.566406 L 1.261719 102.371094 C 1.261719 102.339844 1.265625 102.3125 1.28125 102.28125 C 1.289062 102.25 1.308594 102.226562 1.339844 102.203125 C 1.363281 102.183594 1.390625 102.171875 1.421875 102.171875 L 11.113281 101.265625 C 11.15625 101.265625 11.222656 101.242188 11.308594 101.199219 C 11.417969 101.101562 11.46875 100.726562 11.46875 100.074219 C 11.46875 99.972656 11.535156 99.921875 11.667969 99.921875 C 11.800781 99.957031 11.886719 99.984375 11.933594 100.007812 C 11.976562 100.03125 11.996094 100.085938 11.996094 100.179688 L 11.996094 103.929688 C 11.996094 104.023438 11.933594 104.070312 11.800781 104.070312 C 11.582031 104.015625 11.46875 103.949219 11.46875 103.871094 C 11.46875 103.078125 11.335938 102.660156 11.066406 102.613281 L 8.59375 102.839844 L 8.59375 106.539062 L 10.605469 107.738281 C 10.714844 107.8125 10.839844 107.847656 10.980469 107.847656 C 11.15625 107.847656 11.28125 107.761719 11.359375 107.59375 C 11.433594 107.425781 11.46875 107.238281 11.46875 107.035156 C 11.46875 106.9375 11.535156 106.890625 11.667969 106.890625 C 11.808594 106.921875 11.898438 106.949219 11.9375 106.972656 C 11.976562 106.988281 11.996094 107.046875 11.996094 107.136719 Z M 8.066406 106.246094 L 8.066406 102.898438 L 3.207031 103.34375 Z M 8.066406 106.246094 "/>
<path fill-rule="nonzero" fill="rgb(0%, 0%, 0%)" fill-opacity="1" d="M 14.546875 98.546875 L 14.179688 98.546875 C 14.179688 97.671875 14.070312 97.234375 13.847656 97.234375 L 8.332031 97.234375 C 8.507812 97.59375 8.597656 98.054688 8.597656 98.609375 L 8.226562 98.609375 C 8.226562 97.75 8.003906 97.101562 7.554688 96.664062 L 7.554688 96.515625 C 7.554688 96.492188 7.5625 96.46875 7.585938 96.445312 C 7.601562 96.425781 7.625 96.414062 7.648438 96.414062 L 13.847656 96.414062 C 14.070312 96.414062 14.179688 95.976562 14.179688 95.101562 L 14.546875 95.101562 Z M 14.546875 98.546875 "/>
<path fill-rule="nonzero" fill="rgb(0%, 0%, 0%)" fill-opacity="1" d="M 15.746094 92.339844 C 15.746094 92.425781 15.703125 92.472656 15.617188 92.472656 C 15.574219 92.472656 15.539062 92.460938 15.519531 92.441406 C 13.851562 90.730469 11.425781 89.878906 8.246094 89.878906 C 5.070312 89.878906 2.65625 90.722656 1.003906 92.414062 C 0.980469 92.453125 0.9375 92.472656 0.878906 92.472656 C 0.84375 92.472656 0.8125 92.457031 0.789062 92.433594 C 0.761719 92.402344 0.746094 92.371094 0.746094 92.339844 L 0.746094 92.199219 C 0.746094 92.171875 0.757812 92.144531 0.777344 92.128906 C 1.34375 91.410156 2.03125 90.808594 2.84375 90.332031 C 3.652344 89.855469 4.515625 89.503906 5.433594 89.28125 C 6.351562 89.058594 7.289062 88.945312 8.246094 88.945312 C 8.957031 88.945312 9.652344 89.007812 10.339844 89.128906 C 11.023438 89.246094 11.699219 89.4375 12.367188 89.699219 C 13.03125 89.960938 13.648438 90.289062 14.210938 90.691406 C 14.777344 91.089844 15.277344 91.570312 15.71875 92.128906 C 15.738281 92.144531 15.746094 92.171875 15.746094 92.199219 Z M 15.746094 92.339844 "/>
<path fill-rule="nonzero" fill="rgb(0%, 0%, 0%)" fill-opacity="1" d="M 15.476562 85.703125 L 1.019531 85.703125 C 0.941406 85.703125 0.875 85.671875 0.824219 85.617188 C 0.773438 85.554688 0.746094 85.484375 0.746094 85.402344 C 0.746094 85.328125 0.773438 85.261719 0.824219 85.199219 C 0.875 85.132812 0.941406 85.101562 1.019531 85.101562 L 15.476562 85.101562 C 15.554688 85.101562 15.617188 85.132812 15.671875 85.199219 C 15.722656 85.261719 15.746094 85.328125 15.746094 85.402344 C 15.746094 85.484375 15.722656 85.554688 15.671875 85.617188 C 15.617188 85.671875 15.554688 85.703125 15.476562 85.703125 "/>
</svg>
