<?xml version="1.0" encoding="UTF-8"?>
<svg xmlns="http://www.w3.org/2000/svg" xmlns:xlink="http://www.w3.org/1999/xlink" width="518.704651pt" height="390.418579pt" viewBox="0 0 518.704651 390.418579">
<defs>
<clipPath id="clip-0">
<path clip-rule="nonzero" d="M 68.375 6.992188 L 514.773438 6.992188 L 514.773438 351.152344 L 68.375 351.152344 Z M 68.375 6.992188 "/>
</clipPath>
<clipPath id="clip-1">
<path clip-rule="nonzero" d="M 0.375 20 L 446.773438 20 L 446.773438 298 L 0.375 298 Z M 0.375 20 "/>
</clipPath>
<clipPath id="clip-2">
<rect x="0" y="0" width="447" height="346"/>
</clipPath>
<g id="source-5" clip-path="url(#clip-2)">
<g clip-path="url(#clip-1)">
<path fill="none" stroke-width="1" stroke-linecap="square" stroke-linejoin="round" stroke="rgb(0%, 0%, 100%)" stroke-opacity="1" stroke-miterlimit="100000" d="M 68.375 302.398438 L 77.484375 280.378906 L 86.59375 259.28125 L 95.703125 239.097656 L 104.816406 219.832031 L 113.925781 201.484375 L 123.035156 184.054688 L 132.144531 167.542969 L 141.253906 151.949219 L 150.367188 137.269531 L 159.476562 123.507813 L 168.585938 110.664063 L 177.695312 98.738281 L 186.808594 87.730469 L 195.917969 77.640625 L 205.027344 68.464844 L 214.136719 60.210938 L 223.246094 52.871094 L 232.359375 46.449219 L 241.46875 40.945313 L 250.578125 36.359375 L 259.6875 32.6875 L 268.796875 29.9375 L 277.910156 28.101563 L 287.019531 27.183594 L 296.128906 27.183594 L 305.238281 28.101563 L 314.351562 29.9375 L 323.460938 32.6875 L 332.570312 36.359375 L 341.679688 40.945313 L 350.789062 46.449219 L 359.902344 52.871094 L 369.011719 60.210938 L 378.121094 68.464844 L 387.230469 77.640625 L 396.339844 87.730469 L 405.453125 98.738281 L 414.5625 110.664063 L 423.671875 123.507813 L 432.78125 137.269531 L 441.890625 151.949219 L 451.003906 167.542969 L 460.113281 184.054688 L 469.222656 201.484375 L 478.332031 219.832031 L 487.445312 239.097656 L 496.554688 259.28125 L 505.664062 280.378906 L 514.773438 302.398438 " transform="matrix(1, 0, 0, 1, -68, -6)"/>
</g>
</g>
<clipPath id="clip-3">
<path clip-rule="nonzero" d="M 510 355 L 518.703125 355 L 518.703125 367 L 510 367 Z M 510 355 "/>
</clipPath>
<clipPath id="clip-4">
<path clip-rule="nonzero" d="M 318 375 L 323 375 L 323 390.417969 L 318 390.417969 Z M 318 375 "/>
</clipPath>
<clipPath id="clip-5">
<path clip-rule="nonzero" d="M 329 375 L 333 375 L 333 390.417969 L 329 390.417969 Z M 329 375 "/>
</clipPath>
</defs>
<path fill-rule="nonzero" fill="rgb(100%, 100%, 100%)" fill-opacity="1" d="M 68.375 6.992188 L 514.773438 6.992188 L 514.773438 351.152344 L 68.375 351.152344 Z M 68.375 6.992188 "/>
<g clip-path="url(#clip-0)">
<use xlink:href="#source-5" transform="matrix(1, 0, 0, 1, 68, 6)"/>
</g>
<path fill="none" stroke-width="1" stroke-linecap="square" stroke-linejoin="miter" stroke="rgb(0%, 0%, 0%)" stroke-opacity="1" stroke-miterlimit="100000" d="M 68.375 6.992188 L 514.773438 6.992188 "/>
<path fill="none" stroke-width="1" stroke-linecap="square" stroke-linejoin="miter" stroke="rgb(0%, 0%, 0%)" stroke-opacity="1" stroke-miterlimit="100000" d="M 514.773438 351.152344 L 514.773438 6.992188 "/>
<path fill="none" stroke-width="1" stroke-linecap="square" stroke-linejoin="miter" stroke="rgb(0%, 0%, 0%)" stroke-opacity="1" stroke-miterlimit="100000" d="M 68.375 351.152344 L 68.375 6.992188 "/>
<path fill="none" stroke-width="1" stroke-linecap="square" stroke-linejoin="miter" stroke="rgb(0%, 0%, 0%)" stroke-opacity="1" stroke-miterlimit="100000" d="M 68.375 351.152344 L 514.773438 351.152344 "/>
<path fill="none" stroke-width="0.5" stroke-linecap="butt" stroke-linejoin="round" stroke="rgb(0%, 0%, 0%)" stroke-opacity="1" stroke-miterlimit="100000" d="M 68.375 351.152344 L 68.375 347.152344 "/>
<path fill="none" stroke-width="0.5" stroke-linecap="butt" stroke-linejoin="round" stroke="rgb(0%, 0%, 0%)" stroke-opacity="1" stroke-miterlimit="100000" d="M 68.375 6.992188 L 68.375 10.992188 "/>
<path fill-rule="nonzero" fill="rgb(0%, 0%, 0%)" fill-opacity="1" d="M 58.90625 361.226562 L 68.296875 361.226562 L 68.296875 362.472656 L 58.90625 362.472656 Z M 58.90625 361.226562 "/>
<path fill-rule="nonzero" fill="rgb(0%, 0%, 0%)" fill-opacity="1" d="M 75.554688 356.90625 L 71.820312 362.742188 L 75.554688 362.742188 Z M 75.167969 355.617188 L 77.027344 355.617188 L 77.027344 362.742188 L 78.589844 362.742188 L 78.589844 363.972656 L 77.027344 363.972656 L 77.027344 366.550781 L 75.554688 366.550781 L 75.554688 363.972656 L 70.621094 363.972656 L 70.621094 362.546875 Z M 75.167969 355.617188 "/>
<path fill="none" stroke-width="0.5" stroke-linecap="butt" stroke-linejoin="round" stroke="rgb(0%, 0%, 0%)" stroke-opacity="1" stroke-miterlimit="100000" d="M 124.175781 351.152344 L 124.175781 347.152344 "/>
<path fill="none" stroke-width="0.5" stroke-linecap="butt" stroke-linejoin="round" stroke="rgb(0%, 0%, 0%)" stroke-opacity="1" stroke-miterlimit="100000" d="M 124.175781 6.992188 L 124.175781 10.992188 "/>
<path fill-rule="nonzero" fill="rgb(0%, 0%, 0%)" fill-opacity="1" d="M 114.707031 361.226562 L 124.09375 361.226562 L 124.09375 362.472656 L 114.707031 362.472656 Z M 114.707031 361.226562 "/>
<path fill-rule="nonzero" fill="rgb(0%, 0%, 0%)" fill-opacity="1" d="M 131.773438 360.65625 C 132.480469 360.804688 133.03125 361.121094 133.429688 361.601562 C 133.828125 362.078125 134.027344 362.671875 134.027344 363.375 C 134.027344 364.453125 133.65625 365.285156 132.914062 365.878906 C 132.171875 366.46875 131.117188 366.765625 129.75 366.765625 C 129.292969 366.765625 128.820312 366.71875 128.335938 366.628906 C 127.847656 366.539062 127.347656 366.402344 126.828125 366.222656 L 126.828125 364.792969 C 127.238281 365.03125 127.6875 365.214844 128.175781 365.335938 C 128.664062 365.457031 129.175781 365.519531 129.707031 365.519531 C 130.632812 365.519531 131.339844 365.335938 131.828125 364.96875 C 132.3125 364.605469 132.554688 364.070312 132.554688 363.375 C 132.554688 362.726562 132.328125 362.222656 131.878906 361.863281 C 131.425781 361.496094 130.796875 361.316406 129.992188 361.316406 L 128.71875 361.316406 L 128.71875 360.097656 L 130.050781 360.097656 C 130.777344 360.097656 131.335938 359.953125 131.722656 359.664062 C 132.105469 359.371094 132.300781 358.953125 132.300781 358.40625 C 132.300781 357.847656 132.101562 357.414062 131.703125 357.117188 C 131.304688 356.8125 130.734375 356.664062 129.992188 356.664062 C 129.585938 356.664062 129.152344 356.707031 128.6875 356.796875 C 128.222656 356.882812 127.714844 357.019531 127.15625 357.203125 L 127.15625 355.886719 C 127.71875 355.730469 128.246094 355.613281 128.738281 355.535156 C 129.226562 355.457031 129.691406 355.417969 130.125 355.417969 C 131.25 355.417969 132.136719 355.675781 132.789062 356.183594 C 133.445312 356.695312 133.773438 357.382812 133.773438 358.253906 C 133.773438 358.859375 133.597656 359.371094 133.25 359.789062 C 132.90625 360.203125 132.410156 360.492188 131.773438 360.65625 "/>
<path fill="none" stroke-width="0.5" stroke-linecap="butt" stroke-linejoin="round" stroke="rgb(0%, 0%, 0%)" stroke-opacity="1" stroke-miterlimit="100000" d="M 179.972656 351.152344 L 179.972656 347.152344 "/>
<path fill="none" stroke-width="0.5" stroke-linecap="butt" stroke-linejoin="round" stroke="rgb(0%, 0%, 0%)" stroke-opacity="1" stroke-miterlimit="100000" d="M 179.972656 6.992188 L 179.972656 10.992188 "/>
<path fill-rule="nonzero" fill="rgb(0%, 0%, 0%)" fill-opacity="1" d="M 170.507812 361.226562 L 179.894531 361.226562 L 179.894531 362.472656 L 170.507812 362.472656 Z M 170.507812 361.226562 "/>
<path fill-rule="nonzero" fill="rgb(0%, 0%, 0%)" fill-opacity="1" d="M 184.363281 365.308594 L 189.527344 365.308594 L 189.527344 366.550781 L 182.585938 366.550781 L 182.585938 365.308594 C 183.144531 364.726562 183.910156 363.945312 184.878906 362.96875 C 185.851562 361.988281 186.460938 361.355469 186.707031 361.070312 C 187.179688 360.539062 187.511719 360.089844 187.699219 359.722656 C 187.886719 359.351562 187.984375 358.992188 187.984375 358.632812 C 187.984375 358.054688 187.777344 357.578125 187.371094 357.214844 C 186.964844 356.847656 186.433594 356.664062 185.777344 356.664062 C 185.3125 356.664062 184.824219 356.742188 184.308594 356.90625 C 183.792969 357.066406 183.242188 357.308594 182.65625 357.636719 L 182.65625 356.144531 C 183.253906 355.902344 183.808594 355.722656 184.328125 355.601562 C 184.84375 355.480469 185.320312 355.417969 185.75 355.417969 C 186.882812 355.417969 187.785156 355.703125 188.457031 356.269531 C 189.132812 356.835938 189.46875 357.589844 189.46875 358.539062 C 189.46875 358.988281 189.382812 359.414062 189.214844 359.816406 C 189.046875 360.21875 188.742188 360.695312 188.296875 361.242188 C 188.175781 361.382812 187.785156 361.792969 187.132812 362.46875 C 186.480469 363.144531 185.554688 364.089844 184.363281 365.308594 "/>
<path fill="none" stroke-width="0.5" stroke-linecap="butt" stroke-linejoin="round" stroke="rgb(0%, 0%, 0%)" stroke-opacity="1" stroke-miterlimit="100000" d="M 235.773438 351.152344 L 235.773438 347.152344 "/>
<path fill="none" stroke-width="0.5" stroke-linecap="butt" stroke-linejoin="round" stroke="rgb(0%, 0%, 0%)" stroke-opacity="1" stroke-miterlimit="100000" d="M 235.773438 6.992188 L 235.773438 10.992188 "/>
<path fill-rule="nonzero" fill="rgb(0%, 0%, 0%)" fill-opacity="1" d="M 226.304688 361.226562 L 235.695312 361.226562 L 235.695312 362.472656 L 226.304688 362.472656 Z M 226.304688 361.226562 "/>
<path fill-rule="nonzero" fill="rgb(0%, 0%, 0%)" fill-opacity="1" d="M 239.148438 365.308594 L 241.5625 365.308594 L 241.5625 356.964844 L 238.933594 357.492188 L 238.933594 356.144531 L 241.550781 355.617188 L 243.027344 355.617188 L 243.027344 365.308594 L 245.445312 365.308594 L 245.445312 366.550781 L 239.148438 366.550781 Z M 239.148438 365.308594 "/>
<path fill="none" stroke-width="0.5" stroke-linecap="butt" stroke-linejoin="round" stroke="rgb(0%, 0%, 0%)" stroke-opacity="1" stroke-miterlimit="100000" d="M 291.574219 351.152344 L 291.574219 347.152344 "/>
<path fill="none" stroke-width="0.5" stroke-linecap="butt" stroke-linejoin="round" stroke="rgb(0%, 0%, 0%)" stroke-opacity="1" stroke-miterlimit="100000" d="M 291.574219 6.992188 L 291.574219 10.992188 "/>
<path fill-rule="nonzero" fill="rgb(0%, 0%, 0%)" fill-opacity="1" d="M 291.570312 356.589844 C 290.808594 356.589844 290.234375 356.964844 289.851562 357.714844 C 289.46875 358.464844 289.277344 359.589844 289.277344 361.09375 C 289.277344 362.59375 289.46875 363.71875 289.851562 364.46875 C 290.234375 365.21875 290.808594 365.59375 291.570312 365.59375 C 292.335938 365.59375 292.910156 365.21875 293.292969 364.46875 C 293.679688 363.71875 293.871094 362.59375 293.871094 361.09375 C 293.871094 359.589844 293.679688 358.464844 293.292969 357.714844 C 292.910156 356.964844 292.335938 356.589844 291.570312 356.589844 M 291.570312 355.417969 C 292.796875 355.417969 293.734375 355.902344 294.378906 356.875 C 295.027344 357.84375 295.351562 359.25 295.351562 361.09375 C 295.351562 362.9375 295.027344 364.339844 294.378906 365.3125 C 293.734375 366.28125 292.796875 366.765625 291.570312 366.765625 C 290.34375 366.765625 289.410156 366.28125 288.761719 365.3125 C 288.113281 364.339844 287.792969 362.9375 287.792969 361.09375 C 287.792969 359.25 288.113281 357.84375 288.761719 356.875 C 289.410156 355.902344 290.34375 355.417969 291.570312 355.417969 "/>
<path fill="none" stroke-width="0.5" stroke-linecap="butt" stroke-linejoin="round" stroke="rgb(0%, 0%, 0%)" stroke-opacity="1" stroke-miterlimit="100000" d="M 347.375 351.152344 L 347.375 347.152344 "/>
<path fill="none" stroke-width="0.5" stroke-linecap="butt" stroke-linejoin="round" stroke="rgb(0%, 0%, 0%)" stroke-opacity="1" stroke-miterlimit="100000" d="M 347.375 6.992188 L 347.375 10.992188 "/>
<path fill-rule="nonzero" fill="rgb(0%, 0%, 0%)" fill-opacity="1" d="M 344.464844 365.308594 L 346.878906 365.308594 L 346.878906 356.964844 L 344.25 357.492188 L 344.25 356.144531 L 346.867188 355.617188 L 348.34375 355.617188 L 348.34375 365.308594 L 350.761719 365.308594 L 350.761719 366.550781 L 344.464844 366.550781 Z M 344.464844 365.308594 "/>
<path fill="none" stroke-width="0.5" stroke-linecap="butt" stroke-linejoin="round" stroke="rgb(0%, 0%, 0%)" stroke-opacity="1" stroke-miterlimit="100000" d="M 403.175781 351.152344 L 403.175781 347.152344 "/>
<path fill="none" stroke-width="0.5" stroke-linecap="butt" stroke-linejoin="round" stroke="rgb(0%, 0%, 0%)" stroke-opacity="1" stroke-miterlimit="100000" d="M 403.175781 6.992188 L 403.175781 10.992188 "/>
<path fill-rule="nonzero" fill="rgb(0%, 0%, 0%)" fill-opacity="1" d="M 401.28125 365.308594 L 406.445312 365.308594 L 406.445312 366.550781 L 399.5 366.550781 L 399.5 365.308594 C 400.0625 364.726562 400.828125 363.945312 401.796875 362.96875 C 402.765625 361.988281 403.375 361.355469 403.625 361.070312 C 404.097656 360.539062 404.429688 360.089844 404.617188 359.722656 C 404.804688 359.351562 404.898438 358.992188 404.898438 358.632812 C 404.898438 358.054688 404.695312 357.578125 404.289062 357.214844 C 403.878906 356.847656 403.347656 356.664062 402.695312 356.664062 C 402.230469 356.664062 401.738281 356.742188 401.222656 356.90625 C 400.710938 357.066406 400.160156 357.308594 399.574219 357.636719 L 399.574219 356.144531 C 400.167969 355.902344 400.726562 355.722656 401.242188 355.601562 C 401.761719 355.480469 402.234375 355.417969 402.664062 355.417969 C 403.796875 355.417969 404.703125 355.703125 405.375 356.269531 C 406.046875 356.835938 406.386719 357.589844 406.386719 358.539062 C 406.386719 358.988281 406.300781 359.414062 406.132812 359.816406 C 405.964844 360.21875 405.660156 360.695312 405.214844 361.242188 C 405.089844 361.382812 404.703125 361.792969 404.046875 362.46875 C 403.394531 363.144531 402.472656 364.089844 401.28125 365.308594 "/>
<path fill="none" stroke-width="0.5" stroke-linecap="butt" stroke-linejoin="round" stroke="rgb(0%, 0%, 0%)" stroke-opacity="1" stroke-miterlimit="100000" d="M 458.972656 351.152344 L 458.972656 347.152344 "/>
<path fill="none" stroke-width="0.5" stroke-linecap="butt" stroke-linejoin="round" stroke="rgb(0%, 0%, 0%)" stroke-opacity="1" stroke-miterlimit="100000" d="M 458.972656 6.992188 L 458.972656 10.992188 "/>
<path fill-rule="nonzero" fill="rgb(0%, 0%, 0%)" fill-opacity="1" d="M 460.289062 360.65625 C 460.996094 360.804688 461.550781 361.121094 461.945312 361.601562 C 462.34375 362.078125 462.542969 362.671875 462.542969 363.375 C 462.542969 364.453125 462.171875 365.285156 461.429688 365.878906 C 460.6875 366.46875 459.632812 366.765625 458.265625 366.765625 C 457.808594 366.765625 457.335938 366.71875 456.851562 366.628906 C 456.363281 366.539062 455.863281 366.402344 455.347656 366.222656 L 455.347656 364.792969 C 455.753906 365.03125 456.203125 365.214844 456.691406 365.335938 C 457.179688 365.457031 457.691406 365.519531 458.222656 365.519531 C 459.152344 365.519531 459.855469 365.335938 460.34375 364.96875 C 460.828125 364.605469 461.070312 364.070312 461.070312 363.375 C 461.070312 362.726562 460.847656 362.222656 460.394531 361.863281 C 459.941406 361.496094 459.316406 361.316406 458.511719 361.316406 L 457.234375 361.316406 L 457.234375 360.097656 L 458.570312 360.097656 C 459.296875 360.097656 459.851562 359.953125 460.238281 359.664062 C 460.625 359.371094 460.816406 358.953125 460.816406 358.40625 C 460.816406 357.847656 460.617188 357.414062 460.21875 357.117188 C 459.820312 356.8125 459.253906 356.664062 458.511719 356.664062 C 458.105469 356.664062 457.667969 356.707031 457.203125 356.796875 C 456.742188 356.882812 456.230469 357.019531 455.675781 357.203125 L 455.675781 355.886719 C 456.238281 355.730469 456.761719 355.613281 457.253906 355.535156 C 457.746094 355.457031 458.207031 355.417969 458.640625 355.417969 C 459.765625 355.417969 460.652344 355.675781 461.304688 356.183594 C 461.960938 356.695312 462.289062 357.382812 462.289062 358.253906 C 462.289062 358.859375 462.113281 359.371094 461.769531 359.789062 C 461.421875 360.203125 460.929688 360.492188 460.289062 360.65625 "/>
<path fill="none" stroke-width="0.5" stroke-linecap="butt" stroke-linejoin="round" stroke="rgb(0%, 0%, 0%)" stroke-opacity="1" stroke-miterlimit="100000" d="M 514.773438 351.152344 L 514.773438 347.152344 "/>
<path fill="none" stroke-width="0.5" stroke-linecap="butt" stroke-linejoin="round" stroke="rgb(0%, 0%, 0%)" stroke-opacity="1" stroke-miterlimit="100000" d="M 514.773438 6.992188 L 514.773438 10.992188 "/>
<g clip-path="url(#clip-3)">
<path fill-rule="nonzero" fill="rgb(0%, 0%, 0%)" fill-opacity="1" d="M 515.671875 356.90625 L 511.9375 362.742188 L 515.671875 362.742188 Z M 515.28125 355.617188 L 517.144531 355.617188 L 517.144531 362.742188 L 518.703125 362.742188 L 518.703125 363.972656 L 517.144531 363.972656 L 517.144531 366.550781 L 515.671875 366.550781 L 515.671875 363.972656 L 510.734375 363.972656 L 510.734375 362.546875 Z M 515.28125 355.617188 "/>
</g>
<path fill-rule="nonzero" fill="rgb(0%, 0%, 0%)" fill-opacity="1" d="M 250.296875 375.734375 L 257.210938 375.734375 L 257.210938 376.980469 L 251.773438 376.980469 L 251.773438 380.214844 L 256.984375 380.214844 L 256.984375 381.460938 L 251.773438 381.460938 L 251.773438 385.425781 L 257.339844 385.425781 L 257.339844 386.667969 L 250.296875 386.667969 Z M 250.296875 375.734375 "/>
<path fill-rule="nonzero" fill="rgb(0%, 0%, 0%)" fill-opacity="1" d="M 266.535156 381.714844 L 266.535156 386.667969 L 265.1875 386.667969 L 265.1875 381.761719 C 265.1875 380.984375 265.035156 380.402344 264.734375 380.019531 C 264.429688 379.632812 263.976562 379.441406 263.371094 379.441406 C 262.644531 379.441406 262.070312 379.671875 261.648438 380.136719 C 261.226562 380.597656 261.019531 381.230469 261.019531 382.03125 L 261.019531 386.667969 L 259.664062 386.667969 L 259.664062 378.464844 L 261.019531 378.464844 L 261.019531 379.742188 C 261.339844 379.246094 261.722656 378.878906 262.15625 378.632812 C 262.59375 378.390625 263.097656 378.269531 263.671875 378.269531 C 264.613281 378.269531 265.324219 378.558594 265.808594 379.144531 C 266.292969 379.726562 266.535156 380.582031 266.535156 381.714844 "/>
<path fill-rule="nonzero" fill="rgb(0%, 0%, 0%)" fill-opacity="1" d="M 270.554688 376.136719 L 270.554688 378.464844 L 273.332031 378.464844 L 273.332031 379.511719 L 270.554688 379.511719 L 270.554688 383.964844 C 270.554688 384.636719 270.648438 385.066406 270.828125 385.253906 C 271.011719 385.445312 271.386719 385.542969 271.949219 385.542969 L 273.332031 385.542969 L 273.332031 386.667969 L 271.949219 386.667969 C 270.90625 386.667969 270.1875 386.476562 269.792969 386.085938 C 269.398438 385.699219 269.199219 384.992188 269.199219 383.964844 L 269.199219 379.511719 L 268.210938 379.511719 L 268.210938 378.464844 L 269.199219 378.464844 L 269.199219 376.136719 Z M 270.554688 376.136719 "/>
<path fill-rule="nonzero" fill="rgb(0%, 0%, 0%)" fill-opacity="1" d="M 279.855469 379.722656 C 279.703125 379.636719 279.539062 379.574219 279.363281 379.53125 C 279.183594 379.488281 278.988281 379.46875 278.773438 379.46875 C 278.011719 379.46875 277.425781 379.714844 277.019531 380.210938 C 276.609375 380.707031 276.40625 381.417969 276.40625 382.347656 L 276.40625 386.667969 L 275.050781 386.667969 L 275.050781 378.464844 L 276.40625 378.464844 L 276.40625 379.742188 C 276.691406 379.242188 277.058594 378.871094 277.511719 378.632812 C 277.96875 378.390625 278.519531 378.269531 279.167969 378.269531 C 279.261719 378.269531 279.363281 378.273438 279.476562 378.289062 C 279.589844 378.296875 279.714844 378.316406 279.847656 378.339844 Z M 279.855469 379.722656 "/>
<path fill-rule="nonzero" fill="rgb(0%, 0%, 0%)" fill-opacity="1" d="M 288.289062 382.230469 L 288.289062 382.886719 L 282.089844 382.886719 C 282.148438 383.816406 282.429688 384.523438 282.929688 385.007812 C 283.429688 385.496094 284.125 385.738281 285.019531 385.738281 C 285.539062 385.738281 286.039062 385.675781 286.523438 385.546875 C 287.011719 385.421875 287.492188 385.230469 287.972656 384.976562 L 287.972656 386.25 C 287.488281 386.457031 286.992188 386.613281 286.484375 386.71875 C 285.976562 386.828125 285.460938 386.882812 284.941406 386.882812 C 283.632812 386.882812 282.59375 386.5 281.832031 385.742188 C 281.066406 384.976562 280.683594 383.945312 280.683594 382.648438 C 280.683594 381.304688 281.046875 380.238281 281.773438 379.453125 C 282.496094 378.664062 283.476562 378.269531 284.707031 378.269531 C 285.808594 378.269531 286.683594 378.625 287.324219 379.335938 C 287.964844 380.042969 288.289062 381.007812 288.289062 382.230469 M 286.941406 381.832031 C 286.929688 381.097656 286.722656 380.511719 286.320312 380.070312 C 285.917969 379.628906 285.382812 379.410156 284.71875 379.410156 C 283.96875 379.410156 283.367188 379.621094 282.914062 380.046875 C 282.464844 380.472656 282.203125 381.070312 282.136719 381.84375 Z M 285.636719 374.671875 L 287.09375 374.671875 L 284.707031 377.425781 L 283.585938 377.425781 Z M 285.636719 374.671875 "/>
<path fill-rule="nonzero" fill="rgb(0%, 0%, 0%)" fill-opacity="1" d="M 297.515625 382.230469 L 297.515625 382.886719 L 291.320312 382.886719 C 291.378906 383.816406 291.65625 384.523438 292.15625 385.007812 C 292.65625 385.496094 293.355469 385.738281 294.25 385.738281 C 294.765625 385.738281 295.265625 385.675781 295.753906 385.546875 C 296.238281 385.421875 296.722656 385.230469 297.203125 384.976562 L 297.203125 386.25 C 296.71875 386.457031 296.222656 386.613281 295.714844 386.71875 C 295.207031 386.828125 294.691406 386.882812 294.167969 386.882812 C 292.859375 386.882812 291.824219 386.5 291.058594 385.742188 C 290.292969 384.976562 289.914062 383.945312 289.914062 382.648438 C 289.914062 381.304688 290.273438 380.238281 291 379.453125 C 291.726562 378.664062 292.703125 378.269531 293.933594 378.269531 C 295.039062 378.269531 295.910156 378.625 296.550781 379.335938 C 297.195312 380.042969 297.515625 381.007812 297.515625 382.230469 M 296.167969 381.832031 C 296.160156 381.097656 295.953125 380.511719 295.550781 380.070312 C 295.144531 379.628906 294.613281 379.410156 293.949219 379.410156 C 293.195312 379.410156 292.59375 379.621094 292.144531 380.046875 C 291.691406 380.472656 291.433594 381.070312 291.363281 381.84375 Z M 296.167969 381.832031 "/>
<path fill-rule="nonzero" fill="rgb(0%, 0%, 0%)" fill-opacity="1" d="M 305.691406 386.835938 C 305.058594 386.835938 304.5625 386.597656 304.199219 386.121094 C 303.835938 385.644531 303.652344 385.082031 303.652344 384.433594 C 303.652344 383.792969 303.820312 383.128906 304.152344 382.441406 C 304.484375 381.753906 304.933594 381.179688 305.496094 380.726562 C 306.058594 380.269531 306.667969 380.039062 307.316406 380.039062 C 307.613281 380.039062 307.878906 380.121094 308.113281 380.28125 C 308.347656 380.441406 308.53125 380.664062 308.664062 380.941406 C 308.773438 380.539062 308.996094 380.339844 309.324219 380.339844 C 309.449219 380.339844 309.554688 380.378906 309.640625 380.457031 C 309.726562 380.53125 309.769531 380.632812 309.769531 380.757812 C 309.769531 380.789062 309.765625 380.808594 309.765625 380.824219 C 309.761719 380.839844 309.757812 380.855469 309.753906 380.875 L 308.707031 385.066406 C 308.636719 385.363281 308.605469 385.605469 308.605469 385.796875 C 308.605469 386.226562 308.75 386.441406 309.039062 386.441406 C 309.351562 386.441406 309.585938 386.242188 309.75 385.847656 C 309.914062 385.449219 310.050781 384.988281 310.164062 384.464844 C 310.183594 384.40625 310.222656 384.375 310.28125 384.375 L 310.464844 384.375 C 310.503906 384.375 310.535156 384.394531 310.558594 384.429688 C 310.582031 384.460938 310.597656 384.492188 310.597656 384.523438 C 310.421875 385.21875 310.230469 385.78125 310.023438 386.203125 C 309.8125 386.625 309.476562 386.835938 309.007812 386.835938 C 308.671875 386.835938 308.375 386.738281 308.113281 386.542969 C 307.855469 386.34375 307.695312 386.082031 307.632812 385.753906 C 306.984375 386.476562 306.339844 386.835938 305.691406 386.835938 M 305.703125 386.441406 C 306.066406 386.441406 306.414062 386.304688 306.753906 386.035156 C 307.09375 385.765625 307.386719 385.445312 307.632812 385.078125 C 307.640625 385.070312 307.644531 385.054688 307.644531 385.035156 L 308.453125 381.773438 L 308.464844 381.734375 C 308.40625 381.375 308.277344 381.070312 308.078125 380.8125 C 307.882812 380.554688 307.617188 380.425781 307.28125 380.425781 C 306.941406 380.425781 306.628906 380.566406 306.335938 380.84375 C 306.046875 381.117188 305.800781 381.445312 305.601562 381.820312 C 305.40625 382.21875 305.21875 382.769531 305.042969 383.46875 C 304.863281 384.164062 304.773438 384.707031 304.773438 385.09375 C 304.773438 385.441406 304.847656 385.753906 304.996094 386.027344 C 305.148438 386.304688 305.382812 386.441406 305.703125 386.441406 "/>
<path fill-rule="nonzero" fill="rgb(0%, 0%, 0%)" fill-opacity="1" d="M 311.972656 389.21875 L 311.972656 388.851562 C 312.847656 388.851562 313.285156 388.738281 313.285156 388.515625 L 313.285156 383.003906 C 312.925781 383.179688 312.464844 383.265625 311.910156 383.265625 L 311.910156 382.898438 C 312.769531 382.898438 313.417969 382.675781 313.855469 382.226562 L 314.003906 382.226562 C 314.027344 382.226562 314.050781 382.234375 314.074219 382.253906 C 314.09375 382.273438 314.105469 382.296875 314.105469 382.320312 L 314.105469 388.515625 C 314.105469 388.738281 314.542969 388.851562 315.417969 388.851562 L 315.417969 389.21875 Z M 311.972656 389.21875 "/>
<g clip-path="url(#clip-4)">
<path fill-rule="nonzero" fill="rgb(0%, 0%, 0%)" fill-opacity="1" d="M 321.855469 390.390625 C 321.300781 389.949219 320.820312 389.445312 320.417969 388.875 C 320.015625 388.308594 319.6875 387.699219 319.429688 387.054688 C 319.171875 386.410156 318.980469 385.738281 318.855469 385.035156 C 318.726562 384.332031 318.664062 383.625 318.664062 382.917969 C 318.664062 382.203125 318.726562 381.492188 318.855469 380.789062 C 318.980469 380.085938 319.175781 379.410156 319.433594 378.757812 C 319.699219 378.109375 320.03125 377.5 320.4375 376.933594 C 320.84375 376.367188 321.316406 375.871094 321.855469 375.445312 C 321.855469 375.429688 321.882812 375.417969 321.929688 375.417969 L 322.070312 375.417969 C 322.097656 375.417969 322.125 375.433594 322.148438 375.457031 C 322.175781 375.484375 322.1875 375.515625 322.1875 375.550781 C 322.1875 375.59375 322.175781 375.625 322.160156 375.644531 C 321.667969 376.125 321.261719 376.636719 320.9375 377.183594 C 320.613281 377.730469 320.351562 378.3125 320.152344 378.933594 C 319.957031 379.550781 319.8125 380.1875 319.726562 380.851562 C 319.636719 381.511719 319.59375 382.203125 319.59375 382.917969 C 319.59375 386.097656 320.445312 388.511719 322.140625 390.164062 C 322.171875 390.191406 322.1875 390.234375 322.1875 390.289062 C 322.1875 390.3125 322.171875 390.339844 322.148438 390.371094 C 322.121094 390.402344 322.09375 390.417969 322.070312 390.417969 L 321.929688 390.417969 C 321.882812 390.417969 321.855469 390.410156 321.855469 390.390625 "/>
</g>
<path fill-rule="nonzero" fill="rgb(0%, 0%, 0%)" fill-opacity="1" d="M 323.960938 385.453125 C 323.960938 385.304688 323.972656 385.167969 324.003906 385.035156 L 325.085938 380.730469 L 323.511719 380.730469 C 323.410156 380.730469 323.359375 380.664062 323.359375 380.53125 C 323.398438 380.3125 323.464844 380.203125 323.554688 380.203125 L 325.21875 380.203125 L 325.820312 377.753906 C 325.859375 377.621094 325.9375 377.511719 326.054688 377.417969 C 326.171875 377.324219 326.304688 377.28125 326.449219 377.28125 C 326.578125 377.28125 326.683594 377.316406 326.765625 377.394531 C 326.851562 377.46875 326.894531 377.570312 326.894531 377.695312 C 326.894531 377.726562 326.894531 377.75 326.890625 377.765625 C 326.890625 377.78125 326.886719 377.800781 326.882812 377.820312 L 326.28125 380.203125 L 327.828125 380.203125 C 327.929688 380.203125 327.980469 380.269531 327.980469 380.398438 C 327.976562 380.425781 327.964844 380.464844 327.949219 380.527344 C 327.9375 380.582031 327.917969 380.632812 327.890625 380.671875 C 327.867188 380.710938 327.832031 380.730469 327.78125 380.730469 L 326.148438 380.730469 L 325.074219 385.066406 C 325 385.347656 324.960938 385.59375 324.960938 385.796875 C 324.960938 386.226562 325.109375 386.441406 325.402344 386.441406 C 325.84375 386.441406 326.230469 386.234375 326.570312 385.824219 C 326.910156 385.410156 327.167969 384.957031 327.351562 384.464844 C 327.390625 384.40625 327.429688 384.375 327.46875 384.375 L 327.652344 384.375 C 327.691406 384.375 327.722656 384.390625 327.746094 384.417969 C 327.769531 384.441406 327.78125 384.472656 327.78125 384.507812 C 327.78125 384.527344 327.777344 384.542969 327.769531 384.550781 C 327.546875 385.15625 327.226562 385.6875 326.808594 386.148438 C 326.386719 386.609375 325.90625 386.835938 325.367188 386.835938 C 324.96875 386.835938 324.636719 386.707031 324.363281 386.449219 C 324.09375 386.191406 323.960938 385.859375 323.960938 385.453125 "/>
<g clip-path="url(#clip-5)">
<path fill-rule="nonzero" fill="rgb(0%, 0%, 0%)" fill-opacity="1" d="M 329.417969 390.417969 C 329.328125 390.417969 329.28125 390.375 329.28125 390.289062 C 329.28125 390.242188 329.292969 390.210938 329.3125 390.191406 C 331.023438 388.519531 331.878906 386.097656 331.878906 382.917969 C 331.878906 379.742188 331.03125 377.324219 329.339844 375.675781 C 329.300781 375.652344 329.28125 375.609375 329.28125 375.550781 C 329.28125 375.515625 329.296875 375.484375 329.324219 375.457031 C 329.351562 375.433594 329.382812 375.417969 329.417969 375.417969 L 329.554688 375.417969 C 329.585938 375.417969 329.609375 375.429688 329.628906 375.445312 C 330.347656 376.015625 330.945312 376.703125 331.421875 377.515625 C 331.902344 378.324219 332.25 379.1875 332.472656 380.105469 C 332.695312 381.023438 332.808594 381.960938 332.808594 382.917969 C 332.808594 383.625 332.746094 384.324219 332.628906 385.007812 C 332.507812 385.695312 332.316406 386.371094 332.054688 387.035156 C 331.792969 387.703125 331.464844 388.320312 331.0625 388.882812 C 330.664062 389.449219 330.183594 389.949219 329.628906 390.390625 C 329.609375 390.410156 329.585938 390.417969 329.554688 390.417969 Z M 329.417969 390.417969 "/>
</g>
<path fill="none" stroke-width="0.5" stroke-linecap="butt" stroke-linejoin="round" stroke="rgb(0%, 0%, 0%)" stroke-opacity="1" stroke-miterlimit="100000" d="M 68.375 351.152344 L 72.375 351.152344 "/>
<path fill="none" stroke-width="0.5" stroke-linecap="butt" stroke-linejoin="round" stroke="rgb(0%, 0%, 0%)" stroke-opacity="1" stroke-miterlimit="100000" d="M 514.773438 351.152344 L 510.773438 351.152344 "/>
<path fill-rule="nonzero" fill="rgb(0%, 0%, 0%)" fill-opacity="1" d="M 29.539062 349.96875 L 38.929688 349.96875 L 38.929688 351.210938 L 29.539062 351.210938 Z M 29.539062 349.96875 "/>
<path fill-rule="nonzero" fill="rgb(0%, 0%, 0%)" fill-opacity="1" d="M 45.285156 345.332031 C 44.523438 345.332031 43.953125 345.707031 43.566406 346.457031 C 43.183594 347.207031 42.992188 348.332031 42.992188 349.835938 C 42.992188 351.335938 43.183594 352.460938 43.566406 353.210938 C 43.953125 353.960938 44.523438 354.335938 45.285156 354.335938 C 46.050781 354.335938 46.628906 353.960938 47.011719 353.210938 C 47.394531 352.460938 47.585938 351.335938 47.585938 349.835938 C 47.585938 348.332031 47.394531 347.207031 47.011719 346.457031 C 46.628906 345.707031 46.050781 345.332031 45.285156 345.332031 M 45.285156 344.160156 C 46.511719 344.160156 47.449219 344.644531 48.09375 345.617188 C 48.742188 346.585938 49.066406 347.992188 49.066406 349.835938 C 49.066406 351.675781 48.742188 353.082031 48.09375 354.054688 C 47.449219 355.023438 46.511719 355.507812 45.285156 355.507812 C 44.058594 355.507812 43.125 355.023438 42.476562 354.054688 C 41.832031 353.082031 41.507812 351.675781 41.507812 349.835938 C 41.507812 347.992188 41.832031 346.585938 42.476562 345.617188 C 43.125 344.644531 44.058594 344.160156 45.285156 344.160156 "/>
<path fill-rule="nonzero" fill="rgb(0%, 0%, 0%)" fill-opacity="1" d="M 51.664062 353.433594 L 53.210938 353.433594 L 53.210938 355.292969 L 51.664062 355.292969 Z M 51.664062 353.433594 "/>
<path fill-rule="nonzero" fill="rgb(0%, 0%, 0%)" fill-opacity="1" d="M 60.5 345.644531 L 56.761719 351.484375 L 60.5 351.484375 Z M 60.109375 344.355469 L 61.972656 344.355469 L 61.972656 351.484375 L 63.53125 351.484375 L 63.53125 352.714844 L 61.972656 352.714844 L 61.972656 355.292969 L 60.5 355.292969 L 60.5 352.714844 L 55.5625 352.714844 L 55.5625 351.289062 Z M 60.109375 344.355469 "/>
<path fill="none" stroke-width="0.5" stroke-linecap="butt" stroke-linejoin="round" stroke="rgb(0%, 0%, 0%)" stroke-opacity="1" stroke-miterlimit="100000" d="M 68.375 293.792969 L 72.375 293.792969 "/>
<path fill="none" stroke-width="0.5" stroke-linecap="butt" stroke-linejoin="round" stroke="rgb(0%, 0%, 0%)" stroke-opacity="1" stroke-miterlimit="100000" d="M 514.773438 293.792969 L 510.773438 293.792969 "/>
<path fill-rule="nonzero" fill="rgb(0%, 0%, 0%)" fill-opacity="1" d="M 29.539062 292.609375 L 38.929688 292.609375 L 38.929688 293.851562 L 29.539062 293.851562 Z M 29.539062 292.609375 "/>
<path fill-rule="nonzero" fill="rgb(0%, 0%, 0%)" fill-opacity="1" d="M 45.285156 287.972656 C 44.523438 287.972656 43.953125 288.347656 43.566406 289.097656 C 43.183594 289.84375 42.992188 290.972656 42.992188 292.476562 C 42.992188 293.976562 43.183594 295.097656 43.566406 295.847656 C 43.953125 296.597656 44.523438 296.972656 45.285156 296.972656 C 46.050781 296.972656 46.628906 296.597656 47.011719 295.847656 C 47.394531 295.097656 47.585938 293.976562 47.585938 292.476562 C 47.585938 290.972656 47.394531 289.84375 47.011719 289.097656 C 46.628906 288.347656 46.050781 287.972656 45.285156 287.972656 M 45.285156 286.800781 C 46.511719 286.800781 47.449219 287.285156 48.09375 288.253906 C 48.742188 289.222656 49.066406 290.632812 49.066406 292.476562 C 49.066406 294.316406 48.742188 295.722656 48.09375 296.691406 C 47.449219 297.660156 46.511719 298.144531 45.285156 298.144531 C 44.058594 298.144531 43.125 297.660156 42.476562 296.691406 C 41.832031 295.722656 41.507812 294.316406 41.507812 292.476562 C 41.507812 290.632812 41.832031 289.222656 42.476562 288.253906 C 43.125 287.285156 44.058594 286.800781 45.285156 286.800781 "/>
<path fill-rule="nonzero" fill="rgb(0%, 0%, 0%)" fill-opacity="1" d="M 51.664062 296.070312 L 53.210938 296.070312 L 53.210938 297.933594 L 51.664062 297.933594 Z M 51.664062 296.070312 "/>
<path fill-rule="nonzero" fill="rgb(0%, 0%, 0%)" fill-opacity="1" d="M 57.707031 296.6875 L 62.871094 296.6875 L 62.871094 297.933594 L 55.929688 297.933594 L 55.929688 296.6875 C 56.488281 296.105469 57.253906 295.328125 58.222656 294.347656 C 59.195312 293.371094 59.804688 292.738281 60.050781 292.453125 C 60.523438 291.921875 60.855469 291.472656 61.042969 291.101562 C 61.230469 290.734375 61.328125 290.371094 61.328125 290.015625 C 61.328125 289.433594 61.121094 288.960938 60.714844 288.59375 C 60.308594 288.226562 59.777344 288.042969 59.121094 288.042969 C 58.65625 288.042969 58.167969 288.125 57.652344 288.285156 C 57.136719 288.445312 56.585938 288.691406 56 289.019531 L 56 287.523438 C 56.597656 287.285156 57.152344 287.105469 57.671875 286.984375 C 58.1875 286.859375 58.664062 286.800781 59.09375 286.800781 C 60.226562 286.800781 61.128906 287.082031 61.800781 287.652344 C 62.476562 288.214844 62.8125 288.972656 62.8125 289.917969 C 62.8125 290.371094 62.726562 290.796875 62.558594 291.199219 C 62.390625 291.601562 62.085938 292.074219 61.640625 292.621094 C 61.519531 292.765625 61.128906 293.171875 60.476562 293.851562 C 59.824219 294.527344 58.898438 295.472656 57.707031 296.6875 "/>
<path fill="none" stroke-width="0.5" stroke-linecap="butt" stroke-linejoin="round" stroke="rgb(0%, 0%, 0%)" stroke-opacity="1" stroke-miterlimit="100000" d="M 68.375 236.433594 L 72.375 236.433594 "/>
<path fill="none" stroke-width="0.5" stroke-linecap="butt" stroke-linejoin="round" stroke="rgb(0%, 0%, 0%)" stroke-opacity="1" stroke-miterlimit="100000" d="M 514.773438 236.433594 L 510.773438 236.433594 "/>
<path fill-rule="nonzero" fill="rgb(0%, 0%, 0%)" fill-opacity="1" d="M 45.285156 230.613281 C 44.527344 230.613281 43.953125 230.988281 43.570312 231.738281 C 43.1875 232.484375 42.996094 233.613281 42.996094 235.117188 C 42.996094 236.613281 43.1875 237.738281 43.570312 238.488281 C 43.953125 239.238281 44.527344 239.613281 45.285156 239.613281 C 46.054688 239.613281 46.628906 239.238281 47.011719 238.488281 C 47.394531 237.738281 47.589844 236.613281 47.589844 235.117188 C 47.589844 233.613281 47.394531 232.484375 47.011719 231.738281 C 46.628906 230.988281 46.054688 230.613281 45.285156 230.613281 M 45.285156 229.441406 C 46.511719 229.441406 47.449219 229.925781 48.097656 230.894531 C 48.742188 231.863281 49.066406 233.269531 49.066406 235.117188 C 49.066406 236.957031 48.742188 238.363281 48.097656 239.332031 C 47.449219 240.300781 46.511719 240.785156 45.285156 240.785156 C 44.0625 240.785156 43.125 240.300781 42.480469 239.332031 C 41.832031 238.363281 41.507812 236.957031 41.507812 235.117188 C 41.507812 233.269531 41.832031 231.863281 42.480469 230.894531 C 43.125 229.925781 44.0625 229.441406 45.285156 229.441406 "/>
<path fill-rule="nonzero" fill="rgb(0%, 0%, 0%)" fill-opacity="1" d="M 51.667969 238.710938 L 53.214844 238.710938 L 53.214844 240.574219 L 51.667969 240.574219 Z M 51.667969 238.710938 "/>
<path fill-rule="nonzero" fill="rgb(0%, 0%, 0%)" fill-opacity="1" d="M 59.597656 230.613281 C 58.835938 230.613281 58.265625 230.988281 57.878906 231.738281 C 57.496094 232.484375 57.304688 233.613281 57.304688 235.117188 C 57.304688 236.613281 57.496094 237.738281 57.878906 238.488281 C 58.265625 239.238281 58.835938 239.613281 59.597656 239.613281 C 60.367188 239.613281 60.941406 239.238281 61.324219 238.488281 C 61.707031 237.738281 61.898438 236.613281 61.898438 235.117188 C 61.898438 233.613281 61.707031 232.484375 61.324219 231.738281 C 60.941406 230.988281 60.367188 230.613281 59.597656 230.613281 M 59.597656 229.441406 C 60.824219 229.441406 61.761719 229.925781 62.410156 230.894531 C 63.054688 231.863281 63.378906 233.269531 63.378906 235.117188 C 63.378906 236.957031 63.054688 238.363281 62.410156 239.332031 C 61.761719 240.300781 60.824219 240.785156 59.597656 240.785156 C 58.375 240.785156 57.4375 240.300781 56.789062 239.332031 C 56.144531 238.363281 55.820312 236.957031 55.820312 235.117188 C 55.820312 233.269531 56.144531 231.863281 56.789062 230.894531 C 57.4375 229.925781 58.375 229.441406 59.597656 229.441406 "/>
<path fill="none" stroke-width="0.5" stroke-linecap="butt" stroke-linejoin="round" stroke="rgb(0%, 0%, 0%)" stroke-opacity="1" stroke-miterlimit="100000" d="M 68.375 179.074219 L 72.375 179.074219 "/>
<path fill="none" stroke-width="0.5" stroke-linecap="butt" stroke-linejoin="round" stroke="rgb(0%, 0%, 0%)" stroke-opacity="1" stroke-miterlimit="100000" d="M 514.773438 179.074219 L 510.773438 179.074219 "/>
<path fill-rule="nonzero" fill="rgb(0%, 0%, 0%)" fill-opacity="1" d="M 45.285156 173.25 C 44.527344 173.25 43.953125 173.625 43.570312 174.375 C 43.1875 175.125 42.996094 176.25 42.996094 177.757812 C 42.996094 179.253906 43.1875 180.378906 43.570312 181.128906 C 43.953125 181.878906 44.527344 182.253906 45.285156 182.253906 C 46.054688 182.253906 46.628906 181.878906 47.011719 181.128906 C 47.394531 180.378906 47.589844 179.253906 47.589844 177.757812 C 47.589844 176.25 47.394531 175.125 47.011719 174.375 C 46.628906 173.625 46.054688 173.25 45.285156 173.25 M 45.285156 172.078125 C 46.511719 172.078125 47.449219 172.566406 48.097656 173.535156 C 48.742188 174.503906 49.066406 175.910156 49.066406 177.757812 C 49.066406 179.597656 48.742188 181.003906 48.097656 181.972656 C 47.449219 182.941406 46.511719 183.425781 45.285156 183.425781 C 44.0625 183.425781 43.125 182.941406 42.480469 181.972656 C 41.832031 181.003906 41.507812 179.597656 41.507812 177.757812 C 41.507812 175.910156 41.832031 174.503906 42.480469 173.535156 C 43.125 172.566406 44.0625 172.078125 45.285156 172.078125 "/>
<path fill-rule="nonzero" fill="rgb(0%, 0%, 0%)" fill-opacity="1" d="M 51.667969 181.351562 L 53.214844 181.351562 L 53.214844 183.210938 L 51.667969 183.210938 Z M 51.667969 181.351562 "/>
<path fill-rule="nonzero" fill="rgb(0%, 0%, 0%)" fill-opacity="1" d="M 57.710938 181.96875 L 62.871094 181.96875 L 62.871094 183.210938 L 55.929688 183.210938 L 55.929688 181.96875 C 56.492188 181.386719 57.257812 180.605469 58.226562 179.628906 C 59.195312 178.648438 59.804688 178.015625 60.054688 177.734375 C 60.527344 177.203125 60.855469 176.75 61.042969 176.382812 C 61.234375 176.015625 61.328125 175.652344 61.328125 175.296875 C 61.328125 174.714844 61.125 174.242188 60.714844 173.875 C 60.308594 173.507812 59.777344 173.324219 59.121094 173.324219 C 58.660156 173.324219 58.167969 173.40625 57.652344 173.566406 C 57.140625 173.726562 56.589844 173.972656 56.003906 174.300781 L 56.003906 172.804688 C 56.597656 172.566406 57.15625 172.382812 57.671875 172.261719 C 58.191406 172.140625 58.664062 172.078125 59.09375 172.078125 C 60.226562 172.078125 61.128906 172.363281 61.804688 172.929688 C 62.476562 173.496094 62.8125 174.253906 62.8125 175.199219 C 62.8125 175.648438 62.730469 176.074219 62.5625 176.480469 C 62.394531 176.878906 62.085938 177.355469 61.640625 177.902344 C 61.519531 178.042969 61.132812 178.453125 60.476562 179.128906 C 59.824219 179.804688 58.902344 180.753906 57.710938 181.96875 "/>
<path fill="none" stroke-width="0.5" stroke-linecap="butt" stroke-linejoin="round" stroke="rgb(0%, 0%, 0%)" stroke-opacity="1" stroke-miterlimit="100000" d="M 68.375 121.714844 L 72.375 121.714844 "/>
<path fill="none" stroke-width="0.5" stroke-linecap="butt" stroke-linejoin="round" stroke="rgb(0%, 0%, 0%)" stroke-opacity="1" stroke-miterlimit="100000" d="M 514.773438 121.714844 L 510.773438 121.714844 "/>
<path fill-rule="nonzero" fill="rgb(0%, 0%, 0%)" fill-opacity="1" d="M 45.285156 115.890625 C 44.527344 115.890625 43.953125 116.265625 43.570312 117.015625 C 43.1875 117.765625 42.996094 118.890625 42.996094 120.398438 C 42.996094 121.894531 43.1875 123.019531 43.570312 123.769531 C 43.953125 124.519531 44.527344 124.894531 45.285156 124.894531 C 46.054688 124.894531 46.628906 124.519531 47.011719 123.769531 C 47.394531 123.019531 47.589844 121.894531 47.589844 120.398438 C 47.589844 118.890625 47.394531 117.765625 47.011719 117.015625 C 46.628906 116.265625 46.054688 115.890625 45.285156 115.890625 M 45.285156 114.71875 C 46.511719 114.71875 47.449219 115.207031 48.097656 116.175781 C 48.742188 117.144531 49.066406 118.550781 49.066406 120.398438 C 49.066406 122.238281 48.742188 123.644531 48.097656 124.613281 C 47.449219 125.582031 46.511719 126.066406 45.285156 126.066406 C 44.0625 126.066406 43.125 125.582031 42.480469 124.613281 C 41.832031 123.644531 41.507812 122.238281 41.507812 120.398438 C 41.507812 118.550781 41.832031 117.144531 42.480469 116.175781 C 43.125 115.207031 44.0625 114.71875 45.285156 114.71875 "/>
<path fill-rule="nonzero" fill="rgb(0%, 0%, 0%)" fill-opacity="1" d="M 51.667969 123.992188 L 53.214844 123.992188 L 53.214844 125.851562 L 51.667969 125.851562 Z M 51.667969 123.992188 "/>
<path fill-rule="nonzero" fill="rgb(0%, 0%, 0%)" fill-opacity="1" d="M 60.5 116.207031 L 56.765625 122.042969 L 60.5 122.042969 Z M 60.113281 114.917969 L 61.972656 114.917969 L 61.972656 122.042969 L 63.535156 122.042969 L 63.535156 123.273438 L 61.972656 123.273438 L 61.972656 125.851562 L 60.5 125.851562 L 60.5 123.273438 L 55.566406 123.273438 L 55.566406 121.847656 Z M 60.113281 114.917969 "/>
<path fill="none" stroke-width="0.5" stroke-linecap="butt" stroke-linejoin="round" stroke="rgb(0%, 0%, 0%)" stroke-opacity="1" stroke-miterlimit="100000" d="M 68.375 64.355469 L 72.375 64.355469 "/>
<path fill="none" stroke-width="0.5" stroke-linecap="butt" stroke-linejoin="round" stroke="rgb(0%, 0%, 0%)" stroke-opacity="1" stroke-miterlimit="100000" d="M 514.773438 64.355469 L 510.773438 64.355469 "/>
<path fill-rule="nonzero" fill="rgb(0%, 0%, 0%)" fill-opacity="1" d="M 45.285156 58.53125 C 44.527344 58.53125 43.953125 58.90625 43.570312 59.65625 C 43.1875 60.40625 42.996094 61.53125 42.996094 63.035156 C 42.996094 64.535156 43.1875 65.660156 43.570312 66.410156 C 43.953125 67.160156 44.527344 67.535156 45.285156 67.535156 C 46.054688 67.535156 46.628906 67.160156 47.011719 66.410156 C 47.394531 65.660156 47.589844 64.535156 47.589844 63.035156 C 47.589844 61.53125 47.394531 60.40625 47.011719 59.65625 C 46.628906 58.90625 46.054688 58.53125 45.285156 58.53125 M 45.285156 57.359375 C 46.511719 57.359375 47.449219 57.84375 48.097656 58.816406 C 48.742188 59.785156 49.066406 61.191406 49.066406 63.035156 C 49.066406 64.878906 48.742188 66.28125 48.097656 67.253906 C 47.449219 68.222656 46.511719 68.707031 45.285156 68.707031 C 44.0625 68.707031 43.125 68.222656 42.480469 67.253906 C 41.832031 66.28125 41.507812 64.878906 41.507812 63.035156 C 41.507812 61.191406 41.832031 59.785156 42.480469 58.816406 C 43.125 57.84375 44.0625 57.359375 45.285156 57.359375 "/>
<path fill-rule="nonzero" fill="rgb(0%, 0%, 0%)" fill-opacity="1" d="M 51.667969 66.632812 L 53.214844 66.632812 L 53.214844 68.492188 L 51.667969 68.492188 Z M 51.667969 66.632812 "/>
<path fill-rule="nonzero" fill="rgb(0%, 0%, 0%)" fill-opacity="1" d="M 59.785156 62.4375 C 59.121094 62.4375 58.59375 62.664062 58.203125 63.117188 C 57.816406 63.570312 57.621094 64.195312 57.621094 64.984375 C 57.621094 65.769531 57.816406 66.390625 58.203125 66.851562 C 58.59375 67.304688 59.121094 67.535156 59.785156 67.535156 C 60.449219 67.535156 60.972656 67.304688 61.359375 66.851562 C 61.75 66.390625 61.941406 65.769531 61.941406 64.984375 C 61.941406 64.195312 61.75 63.570312 61.359375 63.117188 C 60.972656 62.664062 60.449219 62.4375 59.785156 62.4375 M 62.71875 57.796875 L 62.71875 59.144531 C 62.347656 58.972656 61.972656 58.835938 61.59375 58.746094 C 61.21875 58.652344 60.84375 58.605469 60.46875 58.605469 C 59.492188 58.605469 58.746094 58.933594 58.230469 59.59375 C 57.71875 60.253906 57.425781 61.25 57.351562 62.582031 C 57.636719 62.15625 58 61.832031 58.433594 61.605469 C 58.871094 61.378906 59.347656 61.265625 59.871094 61.265625 C 60.96875 61.265625 61.835938 61.597656 62.472656 62.265625 C 63.113281 62.929688 63.429688 63.835938 63.429688 64.984375 C 63.429688 66.109375 63.097656 67.007812 62.433594 67.6875 C 61.769531 68.367188 60.886719 68.707031 59.785156 68.707031 C 58.519531 68.707031 57.550781 68.222656 56.882812 67.253906 C 56.214844 66.28125 55.878906 64.878906 55.878906 63.035156 C 55.878906 61.308594 56.289062 59.929688 57.109375 58.902344 C 57.929688 57.875 59.03125 57.359375 60.410156 57.359375 C 60.785156 57.359375 61.160156 57.398438 61.535156 57.46875 C 61.914062 57.542969 62.308594 57.652344 62.71875 57.796875 "/>
<path fill="none" stroke-width="0.5" stroke-linecap="butt" stroke-linejoin="round" stroke="rgb(0%, 0%, 0%)" stroke-opacity="1" stroke-miterlimit="100000" d="M 68.375 6.992188 L 72.375 6.992188 "/>
<path fill="none" stroke-width="0.5" stroke-linecap="butt" stroke-linejoin="round" stroke="rgb(0%, 0%, 0%)" stroke-opacity="1" stroke-miterlimit="100000" d="M 514.773438 6.992188 L 510.773438 6.992188 "/>
<path fill-rule="nonzero" fill="rgb(0%, 0%, 0%)" fill-opacity="1" d="M 45.285156 1.171875 C 44.527344 1.171875 43.953125 1.546875 43.570312 2.296875 C 43.1875 3.046875 42.996094 4.171875 42.996094 5.675781 C 42.996094 7.175781 43.1875 8.300781 43.570312 9.050781 C 43.953125 9.800781 44.527344 10.175781 45.285156 10.175781 C 46.054688 10.175781 46.628906 9.800781 47.011719 9.050781 C 47.394531 8.300781 47.589844 7.175781 47.589844 5.675781 C 47.589844 4.171875 47.394531 3.046875 47.011719 2.296875 C 46.628906 1.546875 46.054688 1.171875 45.285156 1.171875 M 45.285156 0 C 46.511719 0 47.449219 0.484375 48.097656 1.457031 C 48.742188 2.425781 49.066406 3.832031 49.066406 5.675781 C 49.066406 7.515625 48.742188 8.921875 48.097656 9.894531 C 47.449219 10.863281 46.511719 11.347656 45.285156 11.347656 C 44.0625 11.347656 43.125 10.863281 42.480469 9.894531 C 41.832031 8.921875 41.507812 7.515625 41.507812 5.675781 C 41.507812 3.832031 41.832031 2.425781 42.480469 1.457031 C 43.125 0.484375 44.0625 0 45.285156 0 "/>
<path fill-rule="nonzero" fill="rgb(0%, 0%, 0%)" fill-opacity="1" d="M 51.667969 9.273438 L 53.214844 9.273438 L 53.214844 11.132812 L 51.667969 11.132812 Z M 51.667969 9.273438 "/>
<path fill-rule="nonzero" fill="rgb(0%, 0%, 0%)" fill-opacity="1" d="M 59.597656 5.9375 C 58.894531 5.9375 58.34375 6.128906 57.9375 6.503906 C 57.539062 6.878906 57.335938 7.398438 57.335938 8.054688 C 57.335938 8.714844 57.539062 9.234375 57.9375 9.609375 C 58.34375 9.984375 58.894531 10.175781 59.597656 10.175781 C 60.300781 10.175781 60.855469 9.984375 61.261719 9.605469 C 61.667969 9.226562 61.871094 8.710938 61.871094 8.054688 C 61.871094 7.398438 61.667969 6.878906 61.265625 6.503906 C 60.863281 6.128906 60.308594 5.9375 59.597656 5.9375 M 58.121094 5.3125 C 57.484375 5.15625 56.992188 4.859375 56.636719 4.425781 C 56.28125 3.988281 56.105469 3.457031 56.105469 2.832031 C 56.105469 1.960938 56.417969 1.269531 57.039062 0.761719 C 57.664062 0.253906 58.515625 0 59.597656 0 C 60.6875 0 61.542969 0.253906 62.164062 0.761719 C 62.78125 1.269531 63.09375 1.960938 63.09375 2.832031 C 63.09375 3.457031 62.914062 3.988281 62.5625 4.425781 C 62.207031 4.859375 61.714844 5.15625 61.085938 5.3125 C 61.800781 5.476562 62.355469 5.800781 62.75 6.285156 C 63.148438 6.769531 63.347656 7.359375 63.347656 8.054688 C 63.347656 9.117188 63.023438 9.929688 62.378906 10.496094 C 61.730469 11.0625 60.804688 11.347656 59.597656 11.347656 C 58.394531 11.347656 57.46875 11.0625 56.820312 10.496094 C 56.171875 9.929688 55.847656 9.117188 55.847656 8.054688 C 55.847656 7.359375 56.046875 6.769531 56.449219 6.285156 C 56.851562 5.800781 57.40625 5.476562 58.121094 5.3125 M 57.578125 2.972656 C 57.578125 3.539062 57.753906 3.980469 58.109375 4.296875 C 58.460938 4.617188 58.960938 4.773438 59.597656 4.773438 C 60.234375 4.773438 60.730469 4.617188 61.089844 4.296875 C 61.449219 3.980469 61.628906 3.539062 61.628906 2.972656 C 61.628906 2.40625 61.449219 1.964844 61.089844 1.648438 C 60.730469 1.332031 60.234375 1.171875 59.597656 1.171875 C 58.960938 1.171875 58.460938 1.332031 58.109375 1.648438 C 57.753906 1.964844 57.578125 2.40625 57.578125 2.972656 "/>
<path fill-rule="nonzero" fill="rgb(0%, 0%, 0%)" fill-opacity="1" d="M 4.605469 310.113281 L 6.164062 310.113281 C 5.699219 310.609375 5.351562 311.140625 5.125 311.707031 C 4.894531 312.269531 4.78125 312.871094 4.78125 313.503906 C 4.78125 314.753906 5.164062 315.710938 5.925781 316.375 C 6.691406 317.039062 7.796875 317.371094 9.242188 317.371094 C 10.679688 317.371094 11.785156 317.039062 12.546875 316.375 C 13.3125 315.710938 13.695312 314.753906 13.695312 313.503906 C 13.695312 312.871094 13.578125 312.269531 13.347656 311.707031 C 13.121094 311.140625 12.773438 310.609375 12.308594 310.113281 L 13.855469 310.113281 C 14.207031 310.628906 14.472656 311.179688 14.648438 311.757812 C 14.824219 312.335938 14.910156 312.945312 14.910156 313.589844 C 14.910156 315.246094 14.402344 316.550781 13.390625 317.503906 C 12.378906 318.457031 10.992188 318.933594 9.242188 318.933594 C 7.484375 318.933594 6.097656 318.457031 5.085938 317.503906 C 4.070312 316.550781 3.5625 315.246094 3.5625 313.589844 C 3.5625 312.9375 3.652344 312.320312 3.824219 311.742188 C 3.996094 311.164062 4.257812 310.621094 4.605469 310.113281 "/>
<path fill-rule="nonzero" fill="rgb(0%, 0%, 0%)" fill-opacity="1" d="M 7.4375 304.707031 C 7.4375 305.429688 7.71875 306 8.285156 306.421875 C 8.847656 306.84375 9.621094 307.050781 10.601562 307.050781 C 11.582031 307.050781 12.355469 306.84375 12.921875 306.425781 C 13.484375 306.007812 13.765625 305.433594 13.765625 304.707031 C 13.765625 303.988281 13.484375 303.421875 12.917969 303.003906 C 12.351562 302.582031 11.578125 302.371094 10.601562 302.371094 C 9.628906 302.371094 8.859375 302.582031 8.292969 303.003906 C 7.722656 303.421875 7.4375 303.988281 7.4375 304.707031 M 6.296875 304.707031 C 6.296875 303.535156 6.679688 302.617188 7.441406 301.949219 C 8.203125 301.277344 9.253906 300.941406 10.601562 300.941406 C 11.945312 300.941406 13 301.277344 13.765625 301.949219 C 14.527344 302.617188 14.910156 303.535156 14.910156 304.707031 C 14.910156 305.886719 14.527344 306.808594 13.765625 307.472656 C 13 308.140625 11.945312 308.472656 10.601562 308.472656 C 9.253906 308.472656 8.203125 308.140625 7.441406 307.472656 C 6.679688 306.808594 6.296875 305.886719 6.296875 304.707031 "/>
<path fill-rule="nonzero" fill="rgb(0%, 0%, 0%)" fill-opacity="1" d="M 10.257812 291.691406 L 10.917969 291.691406 L 10.917969 297.890625 C 11.84375 297.828125 12.550781 297.550781 13.039062 297.050781 C 13.523438 296.550781 13.765625 295.851562 13.765625 294.960938 C 13.765625 294.441406 13.703125 293.941406 13.578125 293.453125 C 13.449219 292.96875 13.257812 292.484375 13.003906 292.007812 L 14.28125 292.007812 C 14.484375 292.492188 14.640625 292.988281 14.75 293.496094 C 14.855469 294.003906 14.910156 294.515625 14.910156 295.039062 C 14.910156 296.347656 14.53125 297.386719 13.769531 298.148438 C 13.007812 298.914062 11.976562 299.296875 10.675781 299.296875 C 9.332031 299.296875 8.269531 298.933594 7.480469 298.207031 C 6.691406 297.484375 6.296875 296.503906 6.296875 295.273438 C 6.296875 294.171875 6.652344 293.296875 7.363281 292.65625 C 8.074219 292.011719 9.039062 291.691406 10.257812 291.691406 M 9.863281 293.039062 C 9.125 293.050781 8.539062 293.253906 8.097656 293.660156 C 7.660156 294.0625 7.4375 294.59375 7.4375 295.257812 C 7.4375 296.011719 7.652344 296.613281 8.074219 297.0625 C 8.5 297.515625 9.097656 297.777344 9.871094 297.84375 Z M 9.863281 293.039062 "/>
<path fill-rule="nonzero" fill="rgb(0%, 0%, 0%)" fill-opacity="1" d="M 3.300781 285.328125 L 4.421875 285.328125 L 4.421875 286.617188 C 4.421875 287.101562 4.519531 287.4375 4.714844 287.625 C 4.910156 287.8125 5.261719 287.90625 5.769531 287.90625 L 6.492188 287.90625 L 6.492188 285.6875 L 7.542969 285.6875 L 7.542969 287.90625 L 14.695312 287.90625 L 14.695312 289.261719 L 7.542969 289.261719 L 7.542969 290.550781 L 6.492188 290.550781 L 6.492188 289.261719 L 5.921875 289.261719 C 5.007812 289.261719 4.34375 289.046875 3.925781 288.625 C 3.507812 288.199219 3.300781 287.523438 3.300781 286.601562 Z M 3.300781 285.328125 "/>
<path fill-rule="nonzero" fill="rgb(0%, 0%, 0%)" fill-opacity="1" d="M 3.300781 280.046875 L 4.421875 280.046875 L 4.421875 281.335938 C 4.421875 281.820312 4.519531 282.15625 4.714844 282.34375 C 4.910156 282.53125 5.261719 282.625 5.769531 282.625 L 6.492188 282.625 L 6.492188 280.40625 L 7.542969 280.40625 L 7.542969 282.625 L 14.695312 282.625 L 14.695312 283.980469 L 7.542969 283.980469 L 7.542969 285.269531 L 6.492188 285.269531 L 6.492188 283.980469 L 5.921875 283.980469 C 5.007812 283.980469 4.34375 283.765625 3.925781 283.34375 C 3.507812 282.917969 3.300781 282.242188 3.300781 281.320312 Z M 3.300781 280.046875 "/>
<path fill-rule="nonzero" fill="rgb(0%, 0%, 0%)" fill-opacity="1" d="M 6.492188 278.917969 L 6.492188 277.570312 L 14.695312 277.570312 L 14.695312 278.917969 Z M 3.300781 278.917969 L 3.300781 277.570312 L 5.007812 277.570312 L 5.007812 278.917969 Z M 3.300781 278.917969 "/>
<path fill-rule="nonzero" fill="rgb(0%, 0%, 0%)" fill-opacity="1" d="M 6.808594 268.847656 L 8.070312 268.847656 C 7.859375 269.230469 7.699219 269.613281 7.59375 269.996094 C 7.492188 270.378906 7.4375 270.765625 7.4375 271.15625 C 7.4375 272.03125 7.714844 272.710938 8.269531 273.195312 C 8.824219 273.675781 9.601562 273.917969 10.601562 273.917969 C 11.605469 273.917969 12.382812 273.675781 12.9375 273.195312 C 13.488281 272.710938 13.765625 272.03125 13.765625 271.15625 C 13.765625 270.765625 13.714844 270.378906 13.609375 269.996094 C 13.503906 269.613281 13.347656 269.230469 13.136719 268.847656 L 14.382812 268.847656 C 14.558594 269.226562 14.6875 269.613281 14.777344 270.019531 C 14.867188 270.417969 14.910156 270.847656 14.910156 271.300781 C 14.910156 272.539062 14.523438 273.519531 13.746094 274.25 C 12.96875 274.976562 11.921875 275.339844 10.601562 275.339844 C 9.265625 275.339844 8.214844 274.972656 7.449219 274.238281 C 6.679688 273.5 6.296875 272.492188 6.296875 271.214844 C 6.296875 270.800781 6.339844 270.394531 6.425781 270 C 6.511719 269.605469 6.636719 269.21875 6.808594 268.847656 "/>
<path fill-rule="nonzero" fill="rgb(0%, 0%, 0%)" fill-opacity="1" d="M 6.492188 266.503906 L 6.492188 265.15625 L 14.695312 265.15625 L 14.695312 266.503906 Z M 3.300781 266.503906 L 3.300781 265.15625 L 5.007812 265.15625 L 5.007812 266.503906 Z M 3.300781 266.503906 "/>
<path fill-rule="nonzero" fill="rgb(0%, 0%, 0%)" fill-opacity="1" d="M 10.257812 255.320312 L 10.917969 255.320312 L 10.917969 261.515625 C 11.84375 261.457031 12.550781 261.179688 13.039062 260.679688 C 13.523438 260.179688 13.765625 259.480469 13.765625 258.585938 C 13.765625 258.070312 13.703125 257.570312 13.578125 257.082031 C 13.449219 256.597656 13.257812 256.113281 13.003906 255.632812 L 14.28125 255.632812 C 14.484375 256.117188 14.640625 256.613281 14.75 257.121094 C 14.855469 257.628906 14.910156 258.144531 14.910156 258.667969 C 14.910156 259.976562 14.53125 261.011719 13.769531 261.777344 C 13.007812 262.542969 11.976562 262.921875 10.675781 262.921875 C 9.332031 262.921875 8.269531 262.5625 7.480469 261.835938 C 6.691406 261.109375 6.296875 260.132812 6.296875 258.902344 C 6.296875 257.796875 6.652344 256.925781 7.363281 256.285156 C 8.074219 255.640625 9.039062 255.320312 10.257812 255.320312 M 9.863281 256.667969 C 9.125 256.675781 8.539062 256.882812 8.097656 257.285156 C 7.660156 257.691406 7.4375 258.222656 7.4375 258.886719 C 7.4375 259.640625 7.652344 260.242188 8.074219 260.691406 C 8.5 261.144531 9.097656 261.402344 9.871094 261.472656 Z M 9.863281 256.667969 "/>
<path fill-rule="nonzero" fill="rgb(0%, 0%, 0%)" fill-opacity="1" d="M 9.746094 246.289062 L 14.695312 246.289062 L 14.695312 247.636719 L 9.789062 247.636719 C 9.011719 247.636719 8.433594 247.789062 8.046875 248.089844 C 7.660156 248.394531 7.46875 248.847656 7.46875 249.453125 C 7.46875 250.179688 7.699219 250.753906 8.164062 251.175781 C 8.628906 251.597656 9.257812 251.804688 10.0625 251.804688 L 14.695312 251.804688 L 14.695312 253.160156 L 6.492188 253.160156 L 6.492188 251.804688 L 7.769531 251.804688 C 7.273438 251.484375 6.90625 251.101562 6.664062 250.667969 C 6.417969 250.230469 6.296875 249.726562 6.296875 249.152344 C 6.296875 248.210938 6.589844 247.5 7.171875 247.015625 C 7.753906 246.53125 8.613281 246.289062 9.746094 246.289062 "/>
<path fill-rule="nonzero" fill="rgb(0%, 0%, 0%)" fill-opacity="1" d="M 4.164062 242.269531 L 6.492188 242.269531 L 6.492188 239.492188 L 7.542969 239.492188 L 7.542969 242.269531 L 11.996094 242.269531 C 12.664062 242.269531 13.09375 242.175781 13.285156 241.996094 C 13.472656 241.8125 13.570312 241.4375 13.570312 240.875 L 13.570312 239.492188 L 14.695312 239.492188 L 14.695312 240.875 C 14.695312 241.917969 14.503906 242.636719 14.117188 243.03125 C 13.726562 243.425781 13.019531 243.625 11.996094 243.625 L 7.542969 243.625 L 7.542969 244.613281 L 6.492188 244.613281 L 6.492188 243.625 L 4.164062 243.625 Z M 4.164062 242.269531 "/>
<path fill-rule="nonzero" fill="rgb(0%, 0%, 0%)" fill-opacity="1" d="M 7.738281 227.554688 L 3.300781 227.554688 L 3.300781 226.207031 L 14.695312 226.207031 L 14.695312 227.554688 L 13.464844 227.554688 C 13.953125 227.839844 14.316406 228.195312 14.554688 228.628906 C 14.792969 229.058594 14.910156 229.578125 14.910156 230.183594 C 14.910156 231.175781 14.515625 231.984375 13.722656 232.605469 C 12.933594 233.226562 11.890625 233.539062 10.601562 233.539062 C 9.3125 233.539062 8.273438 233.226562 7.484375 232.605469 C 6.691406 231.984375 6.296875 231.175781 6.296875 230.183594 C 6.296875 229.578125 6.414062 229.058594 6.652344 228.628906 C 6.890625 228.195312 7.25 227.839844 7.738281 227.554688 M 10.601562 232.148438 C 11.59375 232.148438 12.371094 231.941406 12.933594 231.535156 C 13.5 231.128906 13.78125 230.566406 13.78125 229.855469 C 13.78125 229.140625 13.5 228.582031 12.933594 228.171875 C 12.371094 227.761719 11.59375 227.554688 10.601562 227.554688 C 9.613281 227.554688 8.835938 227.761719 8.269531 228.171875 C 7.707031 228.582031 7.425781 229.140625 7.425781 229.855469 C 7.425781 230.566406 7.707031 231.128906 8.269531 231.535156 C 8.835938 231.941406 9.613281 232.148438 10.601562 232.148438 "/>
<path fill-rule="nonzero" fill="rgb(0%, 0%, 0%)" fill-opacity="1" d="M 10.257812 216.414062 L 10.917969 216.414062 L 10.917969 222.609375 C 11.84375 222.550781 12.550781 222.273438 13.039062 221.773438 C 13.523438 221.273438 13.765625 220.574219 13.765625 219.679688 C 13.765625 219.164062 13.703125 218.664062 13.578125 218.175781 C 13.449219 217.691406 13.257812 217.207031 13.003906 216.726562 L 14.28125 216.726562 C 14.484375 217.210938 14.640625 217.707031 14.75 218.214844 C 14.855469 218.722656 14.910156 219.238281 14.910156 219.761719 C 14.910156 221.070312 14.53125 222.105469 13.769531 222.871094 C 13.007812 223.636719 11.976562 224.015625 10.675781 224.015625 C 9.332031 224.015625 8.269531 223.65625 7.480469 222.929688 C 6.691406 222.203125 6.296875 221.226562 6.296875 219.996094 C 6.296875 218.890625 6.652344 218.019531 7.363281 217.378906 C 8.074219 216.734375 9.039062 216.414062 10.257812 216.414062 M 9.863281 217.761719 C 9.125 217.769531 8.539062 217.976562 8.097656 218.378906 C 7.660156 218.785156 7.4375 219.316406 7.4375 219.980469 C 7.4375 220.734375 7.652344 221.335938 8.074219 221.785156 C 8.5 222.238281 9.097656 222.496094 9.871094 222.566406 Z M 9.863281 217.761719 "/>
<path fill-rule="nonzero" fill="rgb(0%, 0%, 0%)" fill-opacity="1" d="M 7.753906 204.679688 C 7.664062 204.832031 7.601562 204.996094 7.558594 205.175781 C 7.519531 205.355469 7.496094 205.550781 7.496094 205.765625 C 7.496094 206.527344 7.746094 207.113281 8.238281 207.519531 C 8.734375 207.925781 9.445312 208.132812 10.375 208.132812 L 14.695312 208.132812 L 14.695312 209.484375 L 6.492188 209.484375 L 6.492188 208.132812 L 7.769531 208.132812 C 7.269531 207.847656 6.902344 207.476562 6.660156 207.023438 C 6.417969 206.570312 6.296875 206.019531 6.296875 205.367188 C 6.296875 205.277344 6.304688 205.171875 6.316406 205.0625 C 6.328125 204.949219 6.34375 204.824219 6.371094 204.6875 Z M 7.753906 204.679688 "/>
<path fill-rule="nonzero" fill="rgb(0%, 0%, 0%)" fill-opacity="1" d="M 10.257812 196.25 L 10.917969 196.25 L 10.917969 202.449219 C 11.84375 202.386719 12.550781 202.109375 13.039062 201.609375 C 13.523438 201.109375 13.765625 200.410156 13.765625 199.519531 C 13.765625 199 13.703125 198.5 13.578125 198.011719 C 13.449219 197.527344 13.257812 197.042969 13.003906 196.566406 L 14.28125 196.566406 C 14.484375 197.050781 14.640625 197.546875 14.75 198.054688 C 14.855469 198.5625 14.910156 199.074219 14.910156 199.597656 C 14.910156 200.90625 14.53125 201.945312 13.769531 202.707031 C 13.007812 203.472656 11.976562 203.855469 10.675781 203.855469 C 9.332031 203.855469 8.269531 203.492188 7.480469 202.765625 C 6.691406 202.042969 6.296875 201.0625 6.296875 199.832031 C 6.296875 198.730469 6.652344 197.855469 7.363281 197.214844 C 8.074219 196.570312 9.039062 196.25 10.257812 196.25 M 9.863281 197.597656 C 9.125 197.609375 8.539062 197.8125 8.097656 198.21875 C 7.660156 198.621094 7.4375 199.152344 7.4375 199.816406 C 7.4375 200.570312 7.652344 201.171875 8.074219 201.621094 C 8.5 202.074219 9.097656 202.335938 9.871094 202.402344 Z M 2.699219 198.902344 L 2.699219 197.445312 L 5.453125 199.828125 L 5.453125 200.953125 Z M 2.699219 198.902344 "/>
<path fill-rule="nonzero" fill="rgb(0%, 0%, 0%)" fill-opacity="1" d="M 3.300781 189.886719 L 4.421875 189.886719 L 4.421875 191.175781 C 4.421875 191.65625 4.519531 191.992188 4.714844 192.183594 C 4.910156 192.371094 5.261719 192.464844 5.769531 192.464844 L 6.492188 192.464844 L 6.492188 190.246094 L 7.542969 190.246094 L 7.542969 192.464844 L 14.695312 192.464844 L 14.695312 193.820312 L 7.542969 193.820312 L 7.542969 195.109375 L 6.492188 195.109375 L 6.492188 193.820312 L 5.921875 193.820312 C 5.007812 193.820312 4.34375 193.605469 3.925781 193.179688 C 3.507812 192.757812 3.300781 192.082031 3.300781 191.160156 Z M 3.300781 189.886719 "/>
<path fill-rule="nonzero" fill="rgb(0%, 0%, 0%)" fill-opacity="1" d="M 3.300781 188.757812 L 3.300781 187.410156 L 14.695312 187.410156 L 14.695312 188.757812 Z M 3.300781 188.757812 "/>
<path fill-rule="nonzero" fill="rgb(0%, 0%, 0%)" fill-opacity="1" d="M 10.257812 177.574219 L 10.917969 177.574219 L 10.917969 183.769531 C 11.84375 183.710938 12.550781 183.429688 13.039062 182.929688 C 13.523438 182.429688 13.765625 181.734375 13.765625 180.839844 C 13.765625 180.324219 13.703125 179.820312 13.578125 179.335938 C 13.449219 178.851562 13.257812 178.367188 13.003906 177.886719 L 14.28125 177.886719 C 14.484375 178.371094 14.640625 178.867188 14.75 179.375 C 14.855469 179.882812 14.910156 180.398438 14.910156 180.921875 C 14.910156 182.230469 14.53125 183.265625 13.769531 184.03125 C 13.007812 184.792969 11.976562 185.175781 10.675781 185.175781 C 9.332031 185.175781 8.269531 184.8125 7.480469 184.089844 C 6.691406 183.363281 6.296875 182.386719 6.296875 181.15625 C 6.296875 180.050781 6.652344 179.179688 7.363281 178.535156 C 8.074219 177.894531 9.039062 177.574219 10.257812 177.574219 M 9.863281 178.921875 C 9.125 178.929688 8.539062 179.136719 8.097656 179.539062 C 7.660156 179.941406 7.4375 180.476562 7.4375 181.140625 C 7.4375 181.890625 7.652344 182.492188 8.074219 182.945312 C 8.5 183.398438 9.097656 183.65625 9.871094 183.726562 Z M 9.863281 178.921875 "/>
<path fill-rule="nonzero" fill="rgb(0%, 0%, 0%)" fill-opacity="1" d="M 6.492188 168.542969 L 10.484375 171.507812 L 14.695312 168.390625 L 14.695312 169.980469 L 11.472656 172.367188 L 14.695312 174.753906 L 14.695312 176.34375 L 10.40625 173.15625 L 6.492188 176.074219 L 6.492188 174.484375 L 9.417969 172.308594 L 6.492188 170.132812 Z M 6.492188 168.542969 "/>
<path fill-rule="nonzero" fill="rgb(0%, 0%, 0%)" fill-opacity="1" d="M 6.492188 166.484375 L 6.492188 165.136719 L 14.695312 165.136719 L 14.695312 166.484375 Z M 3.300781 166.484375 L 3.300781 165.136719 L 5.007812 165.136719 L 5.007812 166.484375 Z M 3.300781 166.484375 "/>
<path fill-rule="nonzero" fill="rgb(0%, 0%, 0%)" fill-opacity="1" d="M 7.4375 159.140625 C 7.4375 159.863281 7.71875 160.433594 8.285156 160.851562 C 8.847656 161.273438 9.621094 161.484375 10.601562 161.484375 C 11.582031 161.484375 12.355469 161.273438 12.921875 160.859375 C 13.484375 160.4375 13.765625 159.867188 13.765625 159.140625 C 13.765625 158.421875 13.484375 157.851562 12.917969 157.433594 C 12.351562 157.011719 11.578125 156.804688 10.601562 156.804688 C 9.628906 156.804688 8.859375 157.011719 8.292969 157.433594 C 7.722656 157.851562 7.4375 158.421875 7.4375 159.140625 M 6.296875 159.140625 C 6.296875 157.96875 6.679688 157.046875 7.441406 156.378906 C 8.203125 155.707031 9.253906 155.375 10.601562 155.375 C 11.945312 155.375 13 155.707031 13.765625 156.378906 C 14.527344 157.046875 14.910156 157.96875 14.910156 159.140625 C 14.910156 160.316406 14.527344 161.238281 13.765625 161.90625 C 13 162.570312 11.945312 162.902344 10.601562 162.902344 C 9.253906 162.902344 8.203125 162.570312 7.441406 161.90625 C 6.679688 161.238281 6.296875 160.316406 6.296875 159.140625 "/>
<path fill-rule="nonzero" fill="rgb(0%, 0%, 0%)" fill-opacity="1" d="M 9.746094 146.320312 L 14.695312 146.320312 L 14.695312 147.667969 L 9.789062 147.667969 C 9.011719 147.667969 8.433594 147.820312 8.046875 148.121094 C 7.660156 148.425781 7.46875 148.878906 7.46875 149.484375 C 7.46875 150.210938 7.699219 150.785156 8.164062 151.207031 C 8.628906 151.628906 9.257812 151.835938 10.0625 151.835938 L 14.695312 151.835938 L 14.695312 153.191406 L 6.492188 153.191406 L 6.492188 151.835938 L 7.769531 151.835938 C 7.273438 151.515625 6.90625 151.132812 6.664062 150.699219 C 6.417969 150.261719 6.296875 149.757812 6.296875 149.183594 C 6.296875 148.242188 6.589844 147.53125 7.171875 147.046875 C 7.753906 146.5625 8.613281 146.320312 9.746094 146.320312 "/>
<path fill-rule="nonzero" fill="rgb(0%, 0%, 0%)" fill-opacity="1" d="M 6.492188 138.867188 L 6.492188 137.519531 L 14.695312 137.519531 L 14.695312 138.867188 Z M 3.300781 138.867188 L 3.300781 137.519531 L 5.007812 137.519531 L 5.007812 138.867188 Z M 3.300781 138.867188 "/>
<path fill-rule="nonzero" fill="rgb(0%, 0%, 0%)" fill-opacity="1" d="M 9.746094 127.878906 L 14.695312 127.878906 L 14.695312 129.226562 L 9.789062 129.226562 C 9.011719 129.226562 8.433594 129.378906 8.046875 129.679688 C 7.660156 129.984375 7.46875 130.4375 7.46875 131.042969 C 7.46875 131.769531 7.699219 132.34375 8.164062 132.765625 C 8.628906 133.183594 9.257812 133.394531 10.0625 133.394531 L 14.695312 133.394531 L 14.695312 134.75 L 6.492188 134.75 L 6.492188 133.394531 L 7.769531 133.394531 C 7.273438 133.070312 6.90625 132.691406 6.664062 132.257812 C 6.417969 131.820312 6.296875 131.3125 6.296875 130.742188 C 6.296875 129.800781 6.589844 129.085938 7.171875 128.605469 C 7.753906 128.121094 8.613281 127.878906 9.746094 127.878906 "/>
<path fill-rule="nonzero" fill="rgb(0%, 0%, 0%)" fill-opacity="1" d="M 6.734375 119.960938 L 8.011719 119.960938 C 7.816406 120.34375 7.667969 120.738281 7.570312 121.148438 C 7.472656 121.558594 7.425781 121.984375 7.425781 122.421875 C 7.425781 123.09375 7.527344 123.59375 7.730469 123.929688 C 7.9375 124.261719 8.242188 124.429688 8.65625 124.429688 C 8.96875 124.429688 9.210938 124.308594 9.390625 124.070312 C 9.570312 123.832031 9.738281 123.351562 9.898438 122.628906 L 10.003906 122.164062 C 10.207031 121.210938 10.496094 120.53125 10.871094 120.125 C 11.242188 119.722656 11.765625 119.523438 12.433594 119.523438 C 13.195312 119.523438 13.800781 119.824219 14.246094 120.425781 C 14.6875 121.03125 14.910156 121.859375 14.910156 122.914062 C 14.910156 123.351562 14.867188 123.808594 14.78125 124.285156 C 14.695312 124.761719 14.566406 125.265625 14.398438 125.792969 L 13.003906 125.792969 C 13.265625 125.292969 13.457031 124.800781 13.589844 124.320312 C 13.714844 123.835938 13.78125 123.359375 13.78125 122.882812 C 13.78125 122.25 13.671875 121.761719 13.453125 121.421875 C 13.238281 121.078125 12.929688 120.90625 12.535156 120.90625 C 12.171875 120.90625 11.890625 121.03125 11.695312 121.277344 C 11.5 121.523438 11.3125 122.0625 11.128906 122.898438 L 11.019531 123.367188 C 10.84375 124.203125 10.574219 124.804688 10.210938 125.175781 C 9.847656 125.546875 9.347656 125.734375 8.714844 125.734375 C 7.941406 125.734375 7.347656 125.460938 6.925781 124.914062 C 6.507812 124.367188 6.296875 123.589844 6.296875 122.582031 C 6.296875 122.085938 6.332031 121.617188 6.40625 121.179688 C 6.480469 120.738281 6.589844 120.332031 6.734375 119.960938 "/>
<path fill-rule="nonzero" fill="rgb(0%, 0%, 0%)" fill-opacity="1" d="M 4.164062 116.042969 L 6.492188 116.042969 L 6.492188 113.269531 L 7.542969 113.269531 L 7.542969 116.042969 L 11.996094 116.042969 C 12.664062 116.042969 13.09375 115.953125 13.285156 115.769531 C 13.472656 115.585938 13.570312 115.214844 13.570312 114.652344 L 13.570312 113.269531 L 14.695312 113.269531 L 14.695312 114.652344 C 14.695312 115.691406 14.503906 116.410156 14.117188 116.804688 C 13.726562 117.199219 13.019531 117.398438 11.996094 117.398438 L 7.542969 117.398438 L 7.542969 118.386719 L 6.492188 118.386719 L 6.492188 117.398438 L 4.164062 117.398438 Z M 4.164062 116.042969 "/>
<path fill-rule="nonzero" fill="rgb(0%, 0%, 0%)" fill-opacity="1" d="M 10.574219 107.765625 C 10.574219 108.855469 10.699219 109.609375 10.945312 110.03125 C 11.195312 110.449219 11.621094 110.660156 12.222656 110.660156 C 12.699219 110.660156 13.078125 110.503906 13.359375 110.1875 C 13.640625 109.871094 13.78125 109.445312 13.78125 108.902344 C 13.78125 108.15625 13.515625 107.554688 12.984375 107.101562 C 12.457031 106.652344 11.753906 106.425781 10.875 106.425781 L 10.574219 106.425781 Z M 10.015625 105.078125 L 14.695312 105.078125 L 14.695312 106.425781 L 13.453125 106.425781 C 13.949219 106.734375 14.316406 107.117188 14.554688 107.578125 C 14.792969 108.035156 14.910156 108.597656 14.910156 109.261719 C 14.910156 110.101562 14.675781 110.769531 14.203125 111.265625 C 13.730469 111.761719 13.097656 112.007812 12.308594 112.007812 C 11.386719 112.007812 10.691406 111.699219 10.222656 111.082031 C 9.753906 110.464844 9.519531 109.542969 9.519531 108.316406 L 9.519531 106.425781 L 9.386719 106.425781 C 8.765625 106.425781 8.285156 106.628906 7.945312 107.039062 C 7.609375 107.445312 7.4375 108.019531 7.4375 108.753906 C 7.4375 109.222656 7.496094 109.679688 7.605469 110.125 C 7.71875 110.570312 7.886719 110.996094 8.113281 111.40625 L 6.867188 111.40625 C 6.675781 110.914062 6.535156 110.4375 6.441406 109.972656 C 6.34375 109.507812 6.296875 109.054688 6.296875 108.617188 C 6.296875 107.429688 6.605469 106.542969 7.21875 105.957031 C 7.835938 105.371094 8.765625 105.078125 10.015625 105.078125 "/>
<path fill-rule="nonzero" fill="rgb(0%, 0%, 0%)" fill-opacity="1" d="M 9.746094 95.484375 L 14.695312 95.484375 L 14.695312 96.832031 L 9.789062 96.832031 C 9.011719 96.832031 8.433594 96.980469 8.046875 97.285156 C 7.660156 97.589844 7.46875 98.042969 7.46875 98.648438 C 7.46875 99.375 7.699219 99.949219 8.164062 100.371094 C 8.628906 100.789062 9.257812 101 10.0625 101 L 14.695312 101 L 14.695312 102.355469 L 6.492188 102.355469 L 6.492188 101 L 7.769531 101 C 7.273438 100.675781 6.90625 100.296875 6.664062 99.859375 C 6.417969 99.421875 6.296875 98.917969 6.296875 98.347656 C 6.296875 97.40625 6.589844 96.691406 7.171875 96.210938 C 7.753906 95.726562 8.613281 95.484375 9.746094 95.484375 "/>
<path fill-rule="nonzero" fill="rgb(0%, 0%, 0%)" fill-opacity="1" d="M 4.164062 91.464844 L 6.492188 91.464844 L 6.492188 88.6875 L 7.542969 88.6875 L 7.542969 91.464844 L 11.996094 91.464844 C 12.664062 91.464844 13.09375 91.371094 13.285156 91.1875 C 13.472656 91.007812 13.570312 90.632812 13.570312 90.070312 L 13.570312 88.6875 L 14.695312 88.6875 L 14.695312 90.070312 C 14.695312 91.113281 14.503906 91.828125 14.117188 92.226562 C 13.726562 92.621094 13.019531 92.816406 11.996094 92.816406 L 7.542969 92.816406 L 7.542969 93.808594 L 6.492188 93.808594 L 6.492188 92.816406 L 4.164062 92.816406 Z M 4.164062 91.464844 "/>
<path fill-rule="nonzero" fill="rgb(0%, 0%, 0%)" fill-opacity="1" d="M 10.574219 83.1875 C 10.574219 84.273438 10.699219 85.03125 10.945312 85.449219 C 11.195312 85.871094 11.621094 86.082031 12.222656 86.082031 C 12.699219 86.082031 13.078125 85.921875 13.359375 85.605469 C 13.640625 85.292969 13.78125 84.863281 13.78125 84.324219 C 13.78125 83.574219 13.515625 82.972656 12.984375 82.523438 C 12.457031 82.070312 11.753906 81.84375 10.875 81.84375 L 10.574219 81.84375 Z M 10.015625 80.496094 L 14.695312 80.496094 L 14.695312 81.84375 L 13.453125 81.84375 C 13.949219 82.152344 14.316406 82.535156 14.554688 82.996094 C 14.792969 83.457031 14.910156 84.015625 14.910156 84.679688 C 14.910156 85.519531 14.675781 86.1875 14.203125 86.683594 C 13.730469 87.179688 13.097656 87.429688 12.308594 87.429688 C 11.386719 87.429688 10.691406 87.121094 10.222656 86.503906 C 9.753906 85.882812 9.519531 84.960938 9.519531 83.738281 L 9.519531 81.84375 L 9.386719 81.84375 C 8.765625 81.84375 8.285156 82.050781 7.945312 82.457031 C 7.609375 82.863281 7.4375 83.4375 7.4375 84.175781 C 7.4375 84.644531 7.496094 85.101562 7.605469 85.546875 C 7.71875 85.988281 7.886719 86.417969 8.113281 86.824219 L 6.867188 86.824219 C 6.675781 86.332031 6.535156 85.855469 6.441406 85.390625 C 6.34375 84.925781 6.296875 84.476562 6.296875 84.035156 C 6.296875 82.847656 6.605469 81.960938 7.21875 81.375 C 7.835938 80.789062 8.765625 80.496094 10.015625 80.496094 "/>
<path fill-rule="nonzero" fill="rgb(0%, 0%, 0%)" fill-opacity="1" d="M 9.746094 70.902344 L 14.695312 70.902344 L 14.695312 72.25 L 9.789062 72.25 C 9.011719 72.25 8.433594 72.402344 8.046875 72.707031 C 7.660156 73.007812 7.46875 73.460938 7.46875 74.066406 C 7.46875 74.796875 7.699219 75.371094 8.164062 75.789062 C 8.628906 76.210938 9.257812 76.421875 10.0625 76.421875 L 14.695312 76.421875 L 14.695312 77.773438 L 6.492188 77.773438 L 6.492188 76.421875 L 7.769531 76.421875 C 7.273438 76.097656 6.90625 75.71875 6.664062 75.28125 C 6.417969 74.84375 6.296875 74.339844 6.296875 73.765625 C 6.296875 72.824219 6.589844 72.113281 7.171875 71.628906 C 7.753906 71.144531 8.613281 70.902344 9.746094 70.902344 "/>
<path fill-rule="nonzero" fill="rgb(0%, 0%, 0%)" fill-opacity="1" d="M 10.257812 61.199219 L 10.917969 61.199219 L 10.917969 67.394531 C 11.84375 67.335938 12.550781 67.058594 13.039062 66.558594 C 13.523438 66.058594 13.765625 65.359375 13.765625 64.464844 C 13.765625 63.949219 13.703125 63.449219 13.578125 62.960938 C 13.449219 62.476562 13.257812 61.992188 13.003906 61.511719 L 14.28125 61.511719 C 14.484375 61.996094 14.640625 62.492188 14.75 63 C 14.855469 63.507812 14.910156 64.023438 14.910156 64.546875 C 14.910156 65.855469 14.53125 66.890625 13.769531 67.65625 C 13.007812 68.421875 11.976562 68.800781 10.675781 68.800781 C 9.332031 68.800781 8.269531 68.441406 7.480469 67.714844 C 6.691406 66.988281 6.296875 66.011719 6.296875 64.78125 C 6.296875 63.675781 6.652344 62.804688 7.363281 62.164062 C 8.074219 61.519531 9.039062 61.199219 10.257812 61.199219 M 9.863281 62.546875 C 9.125 62.554688 8.539062 62.761719 8.097656 63.164062 C 7.660156 63.570312 7.4375 64.101562 7.4375 64.765625 C 7.4375 65.519531 7.652344 66.121094 8.074219 66.570312 C 8.5 67.023438 9.097656 67.28125 9.871094 67.351562 Z M 2.699219 63.851562 L 2.699219 62.390625 L 5.453125 64.777344 L 5.453125 65.902344 Z M 2.699219 63.851562 "/>
<path fill-rule="nonzero" fill="rgb(0%, 0%, 0%)" fill-opacity="1" d="M 7.402344 53.355469 C 7.402344 53.800781 7.238281 54.148438 6.902344 54.402344 C 6.570312 54.65625 6.175781 54.78125 5.722656 54.78125 C 5.273438 54.78125 4.808594 54.667969 4.328125 54.433594 C 3.84375 54.203125 3.445312 53.886719 3.125 53.492188 C 2.804688 53.097656 2.644531 52.675781 2.644531 52.21875 C 2.644531 52.015625 2.703125 51.828125 2.820312 51.664062 C 2.933594 51.496094 3.085938 51.367188 3.277344 51.277344 L 0.933594 50.6875 C 0.8125 50.660156 0.71875 50.640625 0.652344 50.636719 C 0.539062 50.636719 0.480469 50.863281 0.480469 51.316406 C 0.480469 51.390625 0.4375 51.425781 0.34375 51.425781 C 0.328125 51.421875 0.296875 51.414062 0.253906 51.402344 C 0.207031 51.390625 0.171875 51.375 0.148438 51.355469 C 0.125 51.335938 0.113281 51.3125 0.113281 51.277344 L 0 49.859375 C 0 49.777344 0.0429688 49.734375 0.132812 49.734375 L 6.171875 51.246094 C 6.289062 51.292969 6.457031 51.316406 6.675781 51.316406 C 6.976562 51.316406 7.125 51.214844 7.125 51.015625 C 7.125 50.796875 6.988281 50.628906 6.710938 50.515625 C 6.429688 50.402344 6.109375 50.304688 5.742188 50.226562 C 5.703125 50.210938 5.679688 50.183594 5.679688 50.144531 L 5.679688 50.015625 C 5.679688 49.988281 5.695312 49.964844 5.71875 49.949219 C 5.742188 49.933594 5.761719 49.921875 5.78125 49.921875 C 6.273438 50.046875 6.664062 50.179688 6.960938 50.324219 C 7.257812 50.46875 7.402344 50.707031 7.402344 51.035156 C 7.402344 51.269531 7.335938 51.480469 7.199219 51.660156 C 7.058594 51.84375 6.875 51.953125 6.644531 52 C 7.152344 52.449219 7.402344 52.902344 7.402344 53.355469 M 7.125 53.347656 C 7.125 53.09375 7.03125 52.851562 6.84375 52.613281 C 6.652344 52.375 6.429688 52.171875 6.171875 52 C 6.167969 51.992188 6.152344 51.988281 6.132812 51.988281 L 3.820312 51.414062 C 3.574219 51.457031 3.363281 51.546875 3.183594 51.6875 C 3.007812 51.828125 2.917969 52.011719 2.917969 52.246094 C 2.917969 52.480469 3.015625 52.699219 3.207031 52.90625 C 3.402344 53.109375 3.628906 53.28125 3.890625 53.417969 C 4.171875 53.554688 4.554688 53.6875 5.046875 53.8125 C 5.535156 53.9375 5.914062 54 6.183594 54 C 6.425781 54 6.644531 53.945312 6.839844 53.84375 C 7.03125 53.738281 7.125 53.574219 7.125 53.347656 "/>
<path fill-rule="nonzero" fill="rgb(0%, 0%, 0%)" fill-opacity="1" d="M 7.402344 47.910156 C 7.402344 48.332031 7.238281 48.660156 6.90625 48.898438 C 6.574219 49.132812 6.1875 49.25 5.742188 49.25 C 5.675781 49.25 5.550781 49.234375 5.363281 49.203125 C 5.171875 49.171875 5.054688 49.152344 5.007812 49.152344 L 0.933594 48.136719 C 0.8125 48.109375 0.71875 48.09375 0.652344 48.085938 C 0.539062 48.085938 0.480469 48.316406 0.480469 48.769531 C 0.480469 48.835938 0.4375 48.871094 0.34375 48.871094 C 0.328125 48.867188 0.296875 48.859375 0.253906 48.847656 C 0.207031 48.835938 0.171875 48.820312 0.148438 48.800781 C 0.125 48.785156 0.113281 48.757812 0.113281 48.722656 L 0 47.308594 C 0 47.222656 0.0429688 47.179688 0.132812 47.179688 L 3.230469 47.960938 C 2.839844 47.5625 2.644531 47.164062 2.644531 46.761719 C 2.644531 46.460938 2.726562 46.207031 2.882812 45.992188 C 3.039062 45.78125 3.246094 45.621094 3.503906 45.511719 C 3.757812 45.40625 4.03125 45.355469 4.324219 45.355469 C 4.660156 45.355469 5.011719 45.421875 5.371094 45.550781 C 5.730469 45.683594 6.066406 45.867188 6.375 46.097656 C 6.683594 46.332031 6.933594 46.601562 7.121094 46.914062 C 7.308594 47.226562 7.402344 47.554688 7.402344 47.910156 M 7.125 47.886719 C 7.125 47.648438 7.027344 47.425781 6.828125 47.214844 C 6.625 47.007812 6.402344 46.835938 6.152344 46.707031 C 5.871094 46.566406 5.492188 46.4375 5.011719 46.316406 C 4.53125 46.195312 4.148438 46.132812 3.859375 46.132812 C 3.609375 46.132812 3.390625 46.1875 3.203125 46.289062 C 3.011719 46.394531 2.917969 46.558594 2.917969 46.785156 C 2.917969 47.039062 3.011719 47.28125 3.199219 47.511719 C 3.382812 47.742188 3.605469 47.945312 3.859375 48.117188 L 5.050781 48.410156 C 5.492188 48.523438 5.84375 48.582031 6.109375 48.589844 C 6.375 48.589844 6.609375 48.53125 6.816406 48.417969 C 7.023438 48.304688 7.125 48.125 7.125 47.886719 "/>
<path fill-rule="nonzero" fill="rgb(0%, 0%, 0%)" fill-opacity="1" d="M 9.070312 44.851562 L 8.875 44.851562 C 8.863281 44.851562 8.847656 44.84375 8.835938 44.835938 L 7.570312 43.695312 C 7.386719 43.523438 7.226562 43.382812 7.101562 43.277344 C 6.976562 43.167969 6.828125 43.0625 6.664062 42.957031 C 6.496094 42.851562 6.328125 42.765625 6.160156 42.707031 C 5.988281 42.644531 5.808594 42.613281 5.617188 42.613281 C 5.414062 42.613281 5.222656 42.652344 5.039062 42.726562 C 4.855469 42.800781 4.710938 42.910156 4.601562 43.058594 C 4.488281 43.203125 4.433594 43.382812 4.433594 43.589844 C 4.433594 43.804688 4.5 43.996094 4.628906 44.164062 C 4.753906 44.335938 4.921875 44.453125 5.125 44.523438 C 5.117188 44.503906 5.117188 44.476562 5.117188 44.445312 C 5.117188 44.335938 5.152344 44.242188 5.226562 44.164062 C 5.300781 44.085938 5.398438 44.046875 5.515625 44.046875 C 5.628906 44.046875 5.722656 44.085938 5.800781 44.164062 C 5.878906 44.242188 5.917969 44.335938 5.917969 44.445312 C 5.917969 44.558594 5.878906 44.65625 5.796875 44.734375 C 5.71875 44.8125 5.621094 44.851562 5.515625 44.851562 C 5.332031 44.851562 5.15625 44.816406 4.996094 44.746094 C 4.835938 44.675781 4.691406 44.578125 4.566406 44.445312 C 4.441406 44.316406 4.34375 44.167969 4.277344 44.003906 C 4.210938 43.839844 4.175781 43.667969 4.175781 43.484375 C 4.175781 43.203125 4.234375 42.941406 4.355469 42.703125 C 4.472656 42.460938 4.640625 42.269531 4.855469 42.128906 C 5.074219 41.984375 5.324219 41.914062 5.617188 41.914062 C 5.828125 41.914062 6.03125 41.960938 6.222656 42.054688 C 6.414062 42.148438 6.589844 42.269531 6.746094 42.414062 C 6.902344 42.558594 7.078125 42.746094 7.277344 42.972656 C 7.476562 43.199219 7.609375 43.351562 7.675781 43.421875 L 8.476562 44.253906 L 8.476562 43.546875 C 8.476562 43.199219 8.472656 42.910156 8.46875 42.675781 C 8.460938 42.445312 8.453125 42.320312 8.441406 42.304688 C 8.378906 42.25 8.152344 42.191406 7.761719 42.128906 L 7.761719 41.914062 L 9.070312 42.121094 Z M 9.070312 44.851562 "/>
<path fill-rule="nonzero" fill="rgb(0%, 0%, 0%)" fill-opacity="1" d="M 21.164062 53.808594 C 21.164062 54.25 20.996094 54.597656 20.664062 54.851562 C 20.328125 55.105469 19.9375 55.234375 19.480469 55.234375 C 19.035156 55.234375 18.570312 55.117188 18.085938 54.886719 C 17.605469 54.652344 17.203125 54.339844 16.882812 53.941406 C 16.566406 53.546875 16.40625 53.125 16.40625 52.671875 C 16.40625 52.464844 16.464844 52.277344 16.578125 52.113281 C 16.691406 51.949219 16.84375 51.820312 17.035156 51.726562 L 14.691406 51.136719 C 14.574219 51.109375 14.480469 51.09375 14.410156 51.085938 C 14.296875 51.085938 14.242188 51.3125 14.242188 51.769531 C 14.242188 51.839844 14.195312 51.875 14.105469 51.875 C 14.085938 51.871094 14.054688 51.863281 14.011719 51.851562 C 13.96875 51.839844 13.933594 51.824219 13.910156 51.804688 C 13.882812 51.785156 13.871094 51.761719 13.871094 51.726562 L 13.757812 50.3125 C 13.757812 50.226562 13.804688 50.183594 13.894531 50.183594 L 19.933594 51.695312 C 20.046875 51.742188 20.214844 51.769531 20.433594 51.769531 C 20.734375 51.769531 20.886719 51.667969 20.886719 51.464844 C 20.886719 51.246094 20.746094 51.078125 20.46875 50.964844 C 20.191406 50.851562 19.867188 50.753906 19.5 50.675781 C 19.460938 50.660156 19.441406 50.632812 19.441406 50.59375 L 19.441406 50.464844 C 19.441406 50.4375 19.453125 50.414062 19.476562 50.398438 C 19.5 50.382812 19.523438 50.375 19.542969 50.375 C 20.03125 50.496094 20.425781 50.628906 20.71875 50.773438 C 21.015625 50.921875 21.164062 51.15625 21.164062 51.484375 C 21.164062 51.722656 21.09375 51.929688 20.957031 52.109375 C 20.816406 52.292969 20.632812 52.40625 20.402344 52.449219 C 20.910156 52.898438 21.164062 53.351562 21.164062 53.808594 M 20.886719 53.796875 C 20.886719 53.542969 20.792969 53.300781 20.601562 53.0625 C 20.410156 52.824219 20.1875 52.621094 19.933594 52.449219 C 19.925781 52.441406 19.914062 52.4375 19.890625 52.4375 L 17.578125 51.863281 C 17.332031 51.90625 17.121094 51.996094 16.945312 52.136719 C 16.765625 52.277344 16.675781 52.460938 16.675781 52.695312 C 16.675781 52.929688 16.773438 53.152344 16.964844 53.355469 C 17.160156 53.558594 17.386719 53.730469 17.652344 53.871094 C 17.929688 54.007812 18.316406 54.136719 18.804688 54.261719 C 19.292969 54.386719 19.671875 54.449219 19.941406 54.449219 C 20.183594 54.449219 20.402344 54.398438 20.597656 54.292969 C 20.789062 54.1875 20.886719 54.023438 20.886719 53.796875 "/>
<path fill-rule="nonzero" fill="rgb(0%, 0%, 0%)" fill-opacity="1" d="M 21.164062 48.347656 C 21.164062 48.789062 20.996094 49.136719 20.664062 49.390625 C 20.328125 49.644531 19.9375 49.773438 19.480469 49.773438 C 19.035156 49.773438 18.570312 49.65625 18.085938 49.425781 C 17.605469 49.191406 17.203125 48.878906 16.882812 48.484375 C 16.566406 48.089844 16.40625 47.664062 16.40625 47.210938 C 16.40625 47 16.460938 46.816406 16.574219 46.652344 C 16.6875 46.488281 16.839844 46.359375 17.035156 46.265625 C 16.753906 46.1875 16.617188 46.035156 16.617188 45.804688 C 16.617188 45.714844 16.640625 45.640625 16.695312 45.582031 C 16.75 45.523438 16.820312 45.492188 16.90625 45.492188 C 16.929688 45.492188 16.945312 45.492188 16.957031 45.496094 C 16.964844 45.496094 16.976562 45.5 16.988281 45.503906 L 19.921875 46.234375 C 20.128906 46.285156 20.300781 46.308594 20.433594 46.308594 C 20.734375 46.308594 20.886719 46.207031 20.886719 46.003906 C 20.886719 45.785156 20.746094 45.617188 20.46875 45.503906 C 20.191406 45.390625 19.867188 45.292969 19.5 45.214844 C 19.460938 45.203125 19.441406 45.175781 19.441406 45.132812 L 19.441406 45.003906 C 19.441406 44.976562 19.453125 44.957031 19.476562 44.9375 C 19.5 44.921875 19.523438 44.914062 19.542969 44.914062 C 20.03125 45.035156 20.425781 45.167969 20.71875 45.316406 C 21.015625 45.460938 21.164062 45.699219 21.164062 46.027344 C 21.164062 46.261719 21.09375 46.46875 20.957031 46.652344 C 20.816406 46.832031 20.632812 46.945312 20.402344 46.988281 C 20.910156 47.441406 21.164062 47.894531 21.164062 48.347656 M 20.886719 48.335938 C 20.886719 48.085938 20.792969 47.839844 20.601562 47.601562 C 20.410156 47.363281 20.1875 47.160156 19.933594 46.988281 C 19.925781 46.980469 19.914062 46.980469 19.902344 46.980469 L 17.621094 46.414062 L 17.589844 46.40625 C 17.339844 46.445312 17.125 46.535156 16.945312 46.675781 C 16.765625 46.8125 16.675781 47 16.675781 47.234375 C 16.675781 47.472656 16.773438 47.691406 16.964844 47.894531 C 17.160156 48.097656 17.386719 48.269531 17.652344 48.410156 C 17.929688 48.546875 18.316406 48.675781 18.804688 48.800781 C 19.292969 48.925781 19.671875 48.988281 19.941406 48.988281 C 20.183594 48.988281 20.402344 48.9375 20.597656 48.832031 C 20.789062 48.726562 20.886719 48.5625 20.886719 48.335938 "/>
<path fill-rule="nonzero" fill="rgb(0%, 0%, 0%)" fill-opacity="1" d="M 22.832031 44.265625 L 22.632812 44.265625 C 22.621094 44.265625 22.609375 44.257812 22.59375 44.25 L 21.332031 43.109375 C 21.144531 42.9375 20.988281 42.796875 20.859375 42.691406 C 20.734375 42.582031 20.589844 42.476562 20.421875 42.371094 C 20.257812 42.265625 20.089844 42.179688 19.917969 42.121094 C 19.746094 42.058594 19.566406 42.027344 19.375 42.027344 C 19.175781 42.027344 18.980469 42.066406 18.796875 42.140625 C 18.617188 42.214844 18.46875 42.324219 18.359375 42.472656 C 18.25 42.617188 18.195312 42.796875 18.195312 43.003906 C 18.195312 43.21875 18.257812 43.410156 18.386719 43.578125 C 18.515625 43.75 18.679688 43.867188 18.882812 43.9375 C 18.878906 43.917969 18.875 43.894531 18.875 43.859375 C 18.875 43.75 18.914062 43.65625 18.988281 43.578125 C 19.0625 43.5 19.15625 43.460938 19.273438 43.460938 C 19.386719 43.460938 19.480469 43.5 19.558594 43.578125 C 19.636719 43.65625 19.675781 43.75 19.675781 43.859375 C 19.675781 43.972656 19.636719 44.070312 19.558594 44.148438 C 19.476562 44.226562 19.382812 44.265625 19.273438 44.265625 C 19.089844 44.265625 18.917969 44.230469 18.757812 44.160156 C 18.59375 44.089844 18.449219 43.992188 18.324219 43.859375 C 18.199219 43.730469 18.101562 43.582031 18.035156 43.417969 C 17.96875 43.253906 17.933594 43.082031 17.933594 42.898438 C 17.933594 42.617188 17.996094 42.355469 18.113281 42.117188 C 18.230469 41.875 18.398438 41.683594 18.617188 41.542969 C 18.832031 41.398438 19.085938 41.328125 19.375 41.328125 C 19.589844 41.328125 19.789062 41.375 19.980469 41.46875 C 20.171875 41.5625 20.347656 41.683594 20.503906 41.828125 C 20.660156 41.972656 20.839844 42.160156 21.035156 42.386719 C 21.234375 42.613281 21.367188 42.765625 21.433594 42.835938 L 22.234375 43.667969 L 22.234375 42.960938 C 22.234375 42.613281 22.230469 42.324219 22.226562 42.089844 C 22.21875 41.859375 22.210938 41.734375 22.199219 41.71875 C 22.136719 41.664062 21.910156 41.605469 21.519531 41.542969 L 21.519531 41.328125 L 22.832031 41.535156 Z M 22.832031 44.265625 "/>
<path fill-rule="nonzero" fill="rgb(0%, 0%, 0%)" fill-opacity="1" d="M 11.882812 40.285156 L 12.820312 40.285156 L 12.820312 55.632812 L 11.882812 55.632812 Z M 11.882812 40.285156 "/>
</svg>
