<?xml version="1.0" encoding="UTF-8"?>
<svg xmlns="http://www.w3.org/2000/svg" xmlns:xlink="http://www.w3.org/1999/xlink" width="489.537506pt" height="389.591248pt" viewBox="0 0 489.537506 389.591248">
<defs>
<clipPath id="clip-0">
<path clip-rule="nonzero" d="M 42 6 L 489.539062 6 L 489.539062 351 L 42 351 Z M 42 6 "/>
</clipPath>
<clipPath id="clip-1">
<path clip-rule="nonzero" d="M 42.636719 6.796875 L 489.039062 6.796875 L 489.039062 350.957031 L 42.636719 350.957031 Z M 42.636719 6.796875 "/>
</clipPath>
<clipPath id="clip-2">
<path clip-rule="nonzero" d="M 0.636719 41 L 447.039062 41 L 447.039062 344.957031 L 0.636719 344.957031 Z M 0.636719 41 "/>
</clipPath>
<clipPath id="clip-3">
<rect x="0" y="0" width="448" height="345"/>
</clipPath>
<g id="source-5" clip-path="url(#clip-3)">
<g clip-path="url(#clip-2)">
<path fill="none" stroke-width="1" stroke-linecap="square" stroke-linejoin="round" stroke="rgb(0%, 0%, 100%)" stroke-opacity="1" stroke-miterlimit="100000" d="M 42.636719 350.957031 L 51.746094 341.726563 L 60.859375 332.503906 L 69.96875 323.296875 L 79.078125 314.113281 L 88.1875 304.960938 L 97.296875 295.84375 L 106.410156 286.773438 L 115.519531 277.757813 L 124.628906 268.804688 L 133.738281 259.917969 L 142.851562 251.105469 L 151.960938 242.378906 L 161.070312 233.746094 L 170.179688 225.210938 L 179.289062 216.78125 L 188.402344 208.464844 L 197.511719 200.273438 L 206.621094 192.210938 L 215.730469 184.285156 L 224.839844 176.503906 L 233.953125 168.875 L 243.0625 161.40625 L 252.171875 154.105469 L 261.28125 146.984375 L 270.394531 140.039063 L 279.503906 133.289063 L 288.613281 126.738281 L 297.722656 120.390625 L 306.832031 114.257813 L 315.945312 108.34375 L 325.054688 102.660156 L 334.164062 97.214844 L 343.273438 92.011719 L 352.382812 87.058594 L 361.496094 82.367188 L 370.605469 77.945313 L 379.714844 73.792969 L 388.824219 69.925781 L 397.933594 66.347656 L 407.046875 63.066406 L 416.15625 60.089844 L 425.265625 57.425781 L 434.375 55.085938 L 443.488281 53.070313 L 452.597656 51.390625 L 461.707031 50.054688 L 470.816406 49.070313 L 479.925781 48.441406 L 489.039062 48.183594 " transform="matrix(1, 0, 0, 1, -42, -6)"/>
</g>
</g>
<clipPath id="clip-4">
<path clip-rule="nonzero" d="M 41 6 L 489.539062 6 L 489.539062 8 L 41 8 Z M 41 6 "/>
</clipPath>
<clipPath id="clip-5">
<path clip-rule="nonzero" d="M 41 350 L 489.539062 350 L 489.539062 352 L 41 352 Z M 41 350 "/>
</clipPath>
<clipPath id="clip-6">
<path clip-rule="nonzero" d="M 488 6 L 489.539062 6 L 489.539062 352 L 488 352 Z M 488 6 "/>
</clipPath>
<clipPath id="clip-7">
<path clip-rule="nonzero" d="M 208 378 L 217 378 L 217 389.589844 L 208 389.589844 Z M 208 378 "/>
</clipPath>
<clipPath id="clip-8">
<path clip-rule="nonzero" d="M 343 382 L 348 382 L 348 389.589844 L 343 389.589844 Z M 343 382 "/>
</clipPath>
<clipPath id="clip-9">
<path clip-rule="nonzero" d="M 484 350 L 489.539062 350 L 489.539062 352 L 484 352 Z M 484 350 "/>
</clipPath>
<clipPath id="clip-10">
<path clip-rule="nonzero" d="M 484 301 L 489.539062 301 L 489.539062 303 L 484 303 Z M 484 301 "/>
</clipPath>
<clipPath id="clip-11">
<path clip-rule="nonzero" d="M 484 252 L 489.539062 252 L 489.539062 253 L 484 253 Z M 484 252 "/>
</clipPath>
<clipPath id="clip-12">
<path clip-rule="nonzero" d="M 484 203 L 489.539062 203 L 489.539062 204 L 484 204 Z M 484 203 "/>
</clipPath>
<clipPath id="clip-13">
<path clip-rule="nonzero" d="M 484 154 L 489.539062 154 L 489.539062 155 L 484 155 Z M 484 154 "/>
</clipPath>
<clipPath id="clip-14">
<path clip-rule="nonzero" d="M 484 104 L 489.539062 104 L 489.539062 106 L 484 106 Z M 484 104 "/>
</clipPath>
<clipPath id="clip-15">
<path clip-rule="nonzero" d="M 484 55 L 489.539062 55 L 489.539062 57 L 484 57 Z M 484 55 "/>
</clipPath>
<clipPath id="clip-16">
<path clip-rule="nonzero" d="M 484 6 L 489.539062 6 L 489.539062 8 L 484 8 Z M 484 6 "/>
</clipPath>
</defs>
<g clip-path="url(#clip-0)">
<path fill-rule="nonzero" fill="rgb(100%, 100%, 100%)" fill-opacity="1" d="M 42.636719 6.796875 L 489.039062 6.796875 L 489.039062 350.957031 L 42.636719 350.957031 Z M 42.636719 6.796875 "/>
</g>
<g clip-path="url(#clip-1)">
<use xlink:href="#source-5" transform="matrix(1, 0, 0, 1, 42, 6)"/>
</g>
<g clip-path="url(#clip-4)">
<path fill="none" stroke-width="1" stroke-linecap="square" stroke-linejoin="miter" stroke="rgb(0%, 0%, 0%)" stroke-opacity="1" stroke-miterlimit="100000" d="M 42.636719 6.796875 L 489.039062 6.796875 "/>
</g>
<path fill="none" stroke-width="1" stroke-linecap="square" stroke-linejoin="miter" stroke="rgb(0%, 0%, 0%)" stroke-opacity="1" stroke-miterlimit="100000" d="M 42.636719 350.957031 L 42.636719 6.796875 "/>
<g clip-path="url(#clip-5)">
<path fill="none" stroke-width="1" stroke-linecap="square" stroke-linejoin="miter" stroke="rgb(0%, 0%, 0%)" stroke-opacity="1" stroke-miterlimit="100000" d="M 42.636719 350.957031 L 489.039062 350.957031 "/>
</g>
<g clip-path="url(#clip-6)">
<path fill="none" stroke-width="1" stroke-linecap="square" stroke-linejoin="miter" stroke="rgb(0%, 0%, 0%)" stroke-opacity="1" stroke-miterlimit="100000" d="M 489.039062 350.957031 L 489.039062 6.796875 "/>
</g>
<path fill="none" stroke-width="0.5" stroke-linecap="butt" stroke-linejoin="round" stroke="rgb(0%, 0%, 0%)" stroke-opacity="1" stroke-miterlimit="100000" d="M 42.636719 350.957031 L 42.636719 346.957031 "/>
<path fill="none" stroke-width="0.5" stroke-linecap="butt" stroke-linejoin="round" stroke="rgb(0%, 0%, 0%)" stroke-opacity="1" stroke-miterlimit="100000" d="M 42.636719 6.796875 L 42.636719 10.796875 "/>
<path fill-rule="nonzero" fill="rgb(0%, 0%, 0%)" fill-opacity="1" d="M 42.632812 356.394531 C 41.871094 356.394531 41.300781 356.769531 40.914062 357.519531 C 40.53125 358.265625 40.339844 359.394531 40.339844 360.898438 C 40.339844 362.398438 40.53125 363.519531 40.914062 364.269531 C 41.300781 365.019531 41.871094 365.394531 42.632812 365.394531 C 43.398438 365.394531 43.976562 365.019531 44.359375 364.269531 C 44.742188 363.519531 44.933594 362.398438 44.933594 360.898438 C 44.933594 359.394531 44.742188 358.265625 44.359375 357.519531 C 43.976562 356.769531 43.398438 356.394531 42.632812 356.394531 M 42.632812 355.222656 C 43.859375 355.222656 44.796875 355.707031 45.441406 356.675781 C 46.089844 357.644531 46.414062 359.054688 46.414062 360.898438 C 46.414062 362.738281 46.089844 364.144531 45.441406 365.113281 C 44.796875 366.082031 43.859375 366.566406 42.632812 366.566406 C 41.40625 366.566406 40.472656 366.082031 39.824219 365.113281 C 39.179688 364.144531 38.855469 362.738281 38.855469 360.898438 C 38.855469 359.054688 39.179688 357.644531 39.824219 356.675781 C 40.472656 355.707031 41.40625 355.222656 42.632812 355.222656 "/>
<path fill="none" stroke-width="0.5" stroke-linecap="butt" stroke-linejoin="round" stroke="rgb(0%, 0%, 0%)" stroke-opacity="1" stroke-miterlimit="100000" d="M 139.679688 350.957031 L 139.679688 346.957031 "/>
<path fill="none" stroke-width="0.5" stroke-linecap="butt" stroke-linejoin="round" stroke="rgb(0%, 0%, 0%)" stroke-opacity="1" stroke-miterlimit="100000" d="M 139.679688 6.796875 L 139.679688 10.796875 "/>
<path fill-rule="nonzero" fill="rgb(0%, 0%, 0%)" fill-opacity="1" d="M 136.769531 365.109375 L 139.1875 365.109375 L 139.1875 356.765625 L 136.558594 357.292969 L 136.558594 355.945312 L 139.171875 355.417969 L 140.652344 355.417969 L 140.652344 365.109375 L 143.066406 365.109375 L 143.066406 366.355469 L 136.769531 366.355469 Z M 136.769531 365.109375 "/>
<path fill="none" stroke-width="0.5" stroke-linecap="butt" stroke-linejoin="round" stroke="rgb(0%, 0%, 0%)" stroke-opacity="1" stroke-miterlimit="100000" d="M 236.722656 350.957031 L 236.722656 346.957031 "/>
<path fill="none" stroke-width="0.5" stroke-linecap="butt" stroke-linejoin="round" stroke="rgb(0%, 0%, 0%)" stroke-opacity="1" stroke-miterlimit="100000" d="M 236.722656 6.796875 L 236.722656 10.796875 "/>
<path fill-rule="nonzero" fill="rgb(0%, 0%, 0%)" fill-opacity="1" d="M 234.832031 365.109375 L 239.992188 365.109375 L 239.992188 366.355469 L 233.050781 366.355469 L 233.050781 365.109375 C 233.613281 364.527344 234.378906 363.75 235.347656 362.769531 C 236.316406 361.792969 236.925781 361.160156 237.175781 360.875 C 237.648438 360.34375 237.976562 359.894531 238.164062 359.523438 C 238.355469 359.15625 238.449219 358.792969 238.449219 358.4375 C 238.449219 357.855469 238.246094 357.382812 237.835938 357.015625 C 237.429688 356.648438 236.898438 356.464844 236.242188 356.464844 C 235.78125 356.464844 235.289062 356.546875 234.773438 356.707031 C 234.261719 356.867188 233.710938 357.113281 233.125 357.441406 L 233.125 355.945312 C 233.71875 355.707031 234.277344 355.527344 234.792969 355.40625 C 235.3125 355.28125 235.785156 355.222656 236.214844 355.222656 C 237.347656 355.222656 238.25 355.503906 238.925781 356.074219 C 239.597656 356.636719 239.933594 357.394531 239.933594 358.339844 C 239.933594 358.792969 239.851562 359.21875 239.683594 359.621094 C 239.515625 360.023438 239.207031 360.496094 238.761719 361.042969 C 238.640625 361.1875 238.253906 361.59375 237.597656 362.273438 C 236.945312 362.949219 236.023438 363.894531 234.832031 365.109375 "/>
<path fill="none" stroke-width="0.5" stroke-linecap="butt" stroke-linejoin="round" stroke="rgb(0%, 0%, 0%)" stroke-opacity="1" stroke-miterlimit="100000" d="M 333.769531 350.957031 L 333.769531 346.957031 "/>
<path fill="none" stroke-width="0.5" stroke-linecap="butt" stroke-linejoin="round" stroke="rgb(0%, 0%, 0%)" stroke-opacity="1" stroke-miterlimit="100000" d="M 333.769531 6.796875 L 333.769531 10.796875 "/>
<path fill-rule="nonzero" fill="rgb(0%, 0%, 0%)" fill-opacity="1" d="M 335.082031 360.457031 C 335.789062 360.609375 336.34375 360.925781 336.738281 361.40625 C 337.136719 361.882812 337.335938 362.472656 337.335938 363.175781 C 337.335938 364.253906 336.964844 365.089844 336.222656 365.683594 C 335.480469 366.273438 334.425781 366.566406 333.058594 366.566406 C 332.601562 366.566406 332.128906 366.523438 331.644531 366.433594 C 331.160156 366.339844 330.65625 366.207031 330.140625 366.023438 L 330.140625 364.597656 C 330.550781 364.835938 330.996094 365.015625 331.484375 365.136719 C 331.972656 365.261719 332.484375 365.320312 333.019531 365.320312 C 333.945312 365.320312 334.652344 365.136719 335.136719 364.773438 C 335.621094 364.40625 335.867188 363.875 335.867188 363.175781 C 335.867188 362.53125 335.640625 362.027344 335.1875 361.664062 C 334.738281 361.300781 334.109375 361.117188 333.304688 361.117188 L 332.027344 361.117188 L 332.027344 359.902344 L 333.363281 359.902344 C 334.089844 359.902344 334.644531 359.757812 335.03125 359.464844 C 335.417969 359.175781 335.609375 358.757812 335.609375 358.210938 C 335.609375 357.648438 335.410156 357.21875 335.011719 356.917969 C 334.617188 356.617188 334.046875 356.464844 333.304688 356.464844 C 332.898438 356.464844 332.460938 356.511719 332 356.601562 C 331.535156 356.6875 331.023438 356.824219 330.46875 357.007812 L 330.46875 355.691406 C 331.03125 355.535156 331.558594 355.417969 332.046875 355.339844 C 332.539062 355.261719 333 355.222656 333.433594 355.222656 C 334.558594 355.222656 335.445312 355.476562 336.101562 355.988281 C 336.753906 356.496094 337.082031 357.1875 337.082031 358.054688 C 337.082031 358.660156 336.910156 359.171875 336.5625 359.589844 C 336.214844 360.007812 335.722656 360.296875 335.082031 360.457031 "/>
<path fill="none" stroke-width="0.5" stroke-linecap="butt" stroke-linejoin="round" stroke="rgb(0%, 0%, 0%)" stroke-opacity="1" stroke-miterlimit="100000" d="M 430.8125 350.957031 L 430.8125 346.957031 "/>
<path fill="none" stroke-width="0.5" stroke-linecap="butt" stroke-linejoin="round" stroke="rgb(0%, 0%, 0%)" stroke-opacity="1" stroke-miterlimit="100000" d="M 430.8125 6.796875 L 430.8125 10.796875 "/>
<path fill-rule="nonzero" fill="rgb(0%, 0%, 0%)" fill-opacity="1" d="M 431.710938 356.707031 L 427.972656 362.546875 L 431.710938 362.546875 Z M 431.320312 355.417969 L 433.179688 355.417969 L 433.179688 362.546875 L 434.742188 362.546875 L 434.742188 363.777344 L 433.179688 363.777344 L 433.179688 366.355469 L 431.710938 366.355469 L 431.710938 363.777344 L 426.773438 363.777344 L 426.773438 362.347656 Z M 431.320312 355.417969 "/>
<path fill-rule="nonzero" fill="rgb(0%, 0%, 0%)" fill-opacity="1" d="M 187.566406 376.992188 L 185.558594 382.4375 L 189.578125 382.4375 Z M 186.730469 375.535156 L 188.40625 375.535156 L 192.574219 386.472656 L 191.035156 386.472656 L 190.039062 383.667969 L 185.113281 383.667969 L 184.117188 386.472656 L 182.554688 386.472656 Z M 186.730469 375.535156 "/>
<path fill-rule="nonzero" fill="rgb(0%, 0%, 0%)" fill-opacity="1" d="M 200.5 379.84375 C 200.835938 379.238281 201.238281 378.789062 201.707031 378.503906 C 202.175781 378.214844 202.726562 378.070312 203.363281 378.070312 C 204.21875 378.070312 204.875 378.371094 205.339844 378.96875 C 205.804688 379.566406 206.035156 380.417969 206.035156 381.519531 L 206.035156 386.472656 L 204.683594 386.472656 L 204.683594 381.5625 C 204.683594 380.777344 204.542969 380.195312 204.261719 379.816406 C 203.984375 379.433594 203.558594 379.242188 202.988281 379.242188 C 202.292969 379.242188 201.738281 379.476562 201.332031 379.941406 C 200.929688 380.402344 200.726562 381.035156 200.726562 381.835938 L 200.726562 386.472656 L 199.371094 386.472656 L 199.371094 381.5625 C 199.371094 380.773438 199.230469 380.1875 198.953125 379.8125 C 198.675781 379.433594 198.246094 379.242188 197.664062 379.242188 C 196.976562 379.242188 196.429688 379.476562 196.023438 379.941406 C 195.617188 380.40625 195.414062 381.039062 195.414062 381.835938 L 195.414062 386.472656 L 194.058594 386.472656 L 194.058594 378.269531 L 195.414062 378.269531 L 195.414062 379.542969 C 195.722656 379.039062 196.089844 378.667969 196.519531 378.429688 C 196.949219 378.191406 197.460938 378.070312 198.050781 378.070312 C 198.648438 378.070312 199.15625 378.222656 199.574219 378.527344 C 199.988281 378.828125 200.296875 379.265625 200.5 379.84375 "/>
<g clip-path="url(#clip-7)">
<path fill-rule="nonzero" fill="rgb(0%, 0%, 0%)" fill-opacity="1" d="M 210.027344 385.242188 L 210.027344 389.589844 L 208.671875 389.589844 L 208.671875 378.269531 L 210.027344 378.269531 L 210.027344 379.511719 C 210.3125 379.027344 210.667969 378.664062 211.101562 378.429688 C 211.53125 378.191406 212.050781 378.070312 212.648438 378.070312 C 213.644531 378.070312 214.457031 378.46875 215.078125 379.257812 C 215.699219 380.046875 216.011719 381.089844 216.011719 382.378906 C 216.011719 383.667969 215.699219 384.707031 215.078125 385.5 C 214.457031 386.289062 213.644531 386.683594 212.648438 386.683594 C 212.050781 386.683594 211.53125 386.566406 211.101562 386.328125 C 210.667969 386.089844 210.3125 385.730469 210.027344 385.242188 M 214.613281 382.378906 C 214.613281 381.386719 214.410156 380.609375 214 380.046875 C 213.59375 379.480469 213.035156 379.199219 212.320312 379.199219 C 211.605469 379.199219 211.046875 379.480469 210.636719 380.046875 C 210.230469 380.609375 210.027344 381.386719 210.027344 382.378906 C 210.027344 383.367188 210.230469 384.144531 210.636719 384.710938 C 211.046875 385.273438 211.605469 385.554688 212.320312 385.554688 C 213.035156 385.554688 213.59375 385.273438 214 384.710938 C 214.410156 384.144531 214.613281 383.367188 214.613281 382.378906 "/>
</g>
<path fill-rule="nonzero" fill="rgb(0%, 0%, 0%)" fill-opacity="1" d="M 218.246094 375.074219 L 219.59375 375.074219 L 219.59375 386.472656 L 218.246094 386.472656 Z M 218.246094 375.074219 "/>
<path fill-rule="nonzero" fill="rgb(0%, 0%, 0%)" fill-opacity="1" d="M 222.414062 378.269531 L 223.761719 378.269531 L 223.761719 386.472656 L 222.414062 386.472656 Z M 222.414062 375.074219 L 223.761719 375.074219 L 223.761719 376.78125 L 222.414062 376.78125 Z M 222.414062 375.074219 "/>
<path fill-rule="nonzero" fill="rgb(0%, 0%, 0%)" fill-opacity="1" d="M 227.914062 375.9375 L 227.914062 378.269531 L 230.6875 378.269531 L 230.6875 379.316406 L 227.914062 379.316406 L 227.914062 383.769531 C 227.914062 384.4375 228.003906 384.867188 228.1875 385.058594 C 228.371094 385.25 228.742188 385.34375 229.304688 385.34375 L 230.6875 385.34375 L 230.6875 386.472656 L 229.304688 386.472656 C 228.265625 386.472656 227.546875 386.277344 227.152344 385.890625 C 226.757812 385.5 226.558594 384.792969 226.558594 383.769531 L 226.558594 379.316406 L 225.570312 379.316406 L 225.570312 378.269531 L 226.558594 378.269531 L 226.558594 375.9375 Z M 227.914062 375.9375 "/>
<path fill-rule="nonzero" fill="rgb(0%, 0%, 0%)" fill-opacity="1" d="M 232.324219 383.234375 L 232.324219 378.269531 L 233.671875 378.269531 L 233.671875 383.183594 C 233.671875 383.960938 233.820312 384.542969 234.125 384.933594 C 234.425781 385.320312 234.882812 385.511719 235.488281 385.511719 C 236.214844 385.511719 236.789062 385.28125 237.210938 384.816406 C 237.632812 384.351562 237.84375 383.71875 237.84375 382.917969 L 237.84375 378.269531 L 239.191406 378.269531 L 239.191406 386.472656 L 237.84375 386.472656 L 237.84375 385.210938 C 237.519531 385.710938 237.140625 386.078125 236.707031 386.320312 C 236.273438 386.5625 235.773438 386.683594 235.203125 386.683594 C 234.257812 386.683594 233.542969 386.390625 233.054688 385.804688 C 232.566406 385.21875 232.324219 384.363281 232.324219 383.234375 "/>
<path fill-rule="nonzero" fill="rgb(0%, 0%, 0%)" fill-opacity="1" d="M 247.367188 379.511719 L 247.367188 375.074219 L 248.714844 375.074219 L 248.714844 386.472656 L 247.367188 386.472656 L 247.367188 385.242188 C 247.082031 385.730469 246.726562 386.089844 246.292969 386.328125 C 245.863281 386.566406 245.34375 386.683594 244.738281 386.683594 C 243.746094 386.683594 242.9375 386.289062 242.316406 385.5 C 241.695312 384.707031 241.382812 383.667969 241.382812 382.378906 C 241.382812 381.089844 241.695312 380.046875 242.316406 379.257812 C 242.9375 378.46875 243.746094 378.070312 244.738281 378.070312 C 245.34375 378.070312 245.863281 378.191406 246.292969 378.429688 C 246.726562 378.664062 247.082031 379.027344 247.367188 379.511719 M 242.773438 382.378906 C 242.773438 383.367188 242.980469 384.144531 243.386719 384.710938 C 243.792969 385.273438 244.355469 385.554688 245.066406 385.554688 C 245.78125 385.554688 246.339844 385.273438 246.75 384.710938 C 247.160156 384.144531 247.367188 383.367188 247.367188 382.378906 C 247.367188 381.386719 247.160156 380.609375 246.75 380.046875 C 246.339844 379.480469 245.78125 379.199219 245.066406 379.199219 C 244.355469 379.199219 243.792969 379.480469 243.386719 380.046875 C 242.980469 380.609375 242.773438 381.386719 242.773438 382.378906 "/>
<path fill-rule="nonzero" fill="rgb(0%, 0%, 0%)" fill-opacity="1" d="M 258.507812 382.03125 L 258.507812 382.691406 L 252.308594 382.691406 C 252.371094 383.621094 252.648438 384.328125 253.148438 384.8125 C 253.648438 385.296875 254.347656 385.542969 255.238281 385.542969 C 255.757812 385.542969 256.257812 385.476562 256.746094 385.351562 C 257.230469 385.226562 257.714844 385.035156 258.191406 384.78125 L 258.191406 386.054688 C 257.707031 386.257812 257.210938 386.414062 256.703125 386.523438 C 256.195312 386.632812 255.683594 386.683594 255.160156 386.683594 C 253.851562 386.683594 252.8125 386.304688 252.050781 385.542969 C 251.285156 384.78125 250.902344 383.75 250.902344 382.449219 C 250.902344 381.109375 251.265625 380.042969 251.992188 379.253906 C 252.714844 378.464844 253.695312 378.070312 254.925781 378.070312 C 256.027344 378.070312 256.902344 378.425781 257.542969 379.136719 C 258.1875 379.847656 258.507812 380.8125 258.507812 382.03125 M 257.160156 381.636719 C 257.148438 380.902344 256.945312 380.3125 256.539062 379.875 C 256.136719 379.433594 255.605469 379.214844 254.941406 379.214844 C 254.1875 379.214844 253.585938 379.425781 253.136719 379.851562 C 252.683594 380.277344 252.421875 380.875 252.355469 381.644531 Z M 257.160156 381.636719 "/>
<path fill-rule="nonzero" fill="rgb(0%, 0%, 0%)" fill-opacity="1" d="M 270.882812 379.511719 L 270.882812 375.074219 L 272.230469 375.074219 L 272.230469 386.472656 L 270.882812 386.472656 L 270.882812 385.242188 C 270.601562 385.730469 270.242188 386.089844 269.8125 386.328125 C 269.378906 386.566406 268.859375 386.683594 268.253906 386.683594 C 267.265625 386.683594 266.457031 386.289062 265.832031 385.5 C 265.210938 384.707031 264.902344 383.667969 264.902344 382.378906 C 264.902344 381.089844 265.210938 380.046875 265.832031 379.257812 C 266.457031 378.46875 267.265625 378.070312 268.253906 378.070312 C 268.859375 378.070312 269.378906 378.191406 269.8125 378.429688 C 270.242188 378.664062 270.601562 379.027344 270.882812 379.511719 M 266.292969 382.378906 C 266.292969 383.367188 266.496094 384.144531 266.90625 384.710938 C 267.3125 385.273438 267.871094 385.554688 268.585938 385.554688 C 269.296875 385.554688 269.859375 385.273438 270.269531 384.710938 C 270.679688 384.144531 270.882812 383.367188 270.882812 382.378906 C 270.882812 381.386719 270.679688 380.609375 270.269531 380.046875 C 269.859375 379.480469 269.296875 379.199219 268.585938 379.199219 C 267.871094 379.199219 267.3125 379.480469 266.90625 380.046875 C 266.496094 380.609375 266.292969 381.386719 266.292969 382.378906 "/>
<path fill-rule="nonzero" fill="rgb(0%, 0%, 0%)" fill-opacity="1" d="M 276.28125 375.535156 L 276.28125 379.601562 L 275.039062 379.601562 L 275.039062 375.535156 Z M 276.28125 375.535156 "/>
<path fill-rule="nonzero" fill="rgb(0%, 0%, 0%)" fill-opacity="1" d="M 286.148438 382.03125 L 286.148438 382.691406 L 279.953125 382.691406 C 280.011719 383.621094 280.289062 384.328125 280.789062 384.8125 C 281.289062 385.296875 281.988281 385.542969 282.882812 385.542969 C 283.398438 385.542969 283.898438 385.476562 284.386719 385.351562 C 284.871094 385.226562 285.355469 385.035156 285.835938 384.78125 L 285.835938 386.054688 C 285.351562 386.257812 284.855469 386.414062 284.347656 386.523438 C 283.839844 386.632812 283.324219 386.683594 282.800781 386.683594 C 281.492188 386.683594 280.457031 386.304688 279.691406 385.542969 C 278.925781 384.78125 278.546875 383.75 278.546875 382.449219 C 278.546875 381.109375 278.90625 380.042969 279.632812 379.253906 C 280.359375 378.464844 281.335938 378.070312 282.566406 378.070312 C 283.671875 378.070312 284.542969 378.425781 285.183594 379.136719 C 285.828125 379.847656 286.148438 380.8125 286.148438 382.03125 M 284.800781 381.636719 C 284.792969 380.902344 284.585938 380.3125 284.183594 379.875 C 283.777344 379.433594 283.246094 379.214844 282.582031 379.214844 C 281.828125 379.214844 281.226562 379.425781 280.777344 379.851562 C 280.324219 380.277344 280.066406 380.875 279.996094 381.644531 Z M 284.800781 381.636719 "/>
<path fill-rule="nonzero" fill="rgb(0%, 0%, 0%)" fill-opacity="1" d="M 295.179688 381.519531 L 295.179688 386.472656 L 293.832031 386.472656 L 293.832031 381.5625 C 293.832031 380.789062 293.679688 380.207031 293.378906 379.824219 C 293.074219 379.4375 292.621094 379.242188 292.015625 379.242188 C 291.289062 379.242188 290.714844 379.476562 290.292969 379.941406 C 289.875 380.402344 289.664062 381.035156 289.664062 381.835938 L 289.664062 386.472656 L 288.308594 386.472656 L 288.308594 378.269531 L 289.664062 378.269531 L 289.664062 379.542969 C 289.988281 379.050781 290.367188 378.679688 290.800781 378.4375 C 291.238281 378.195312 291.746094 378.070312 292.316406 378.070312 C 293.257812 378.070312 293.972656 378.363281 294.453125 378.945312 C 294.9375 379.527344 295.179688 380.386719 295.179688 381.519531 "/>
<path fill-rule="nonzero" fill="rgb(0%, 0%, 0%)" fill-opacity="1" d="M 299.199219 375.9375 L 299.199219 378.269531 L 301.976562 378.269531 L 301.976562 379.316406 L 299.199219 379.316406 L 299.199219 383.769531 C 299.199219 384.4375 299.292969 384.867188 299.476562 385.058594 C 299.65625 385.25 300.03125 385.34375 300.59375 385.34375 L 301.976562 385.34375 L 301.976562 386.472656 L 300.59375 386.472656 C 299.550781 386.472656 298.835938 386.277344 298.4375 385.890625 C 298.042969 385.5 297.847656 384.792969 297.847656 383.769531 L 297.847656 379.316406 L 296.855469 379.316406 L 296.855469 378.269531 L 297.847656 378.269531 L 297.847656 375.9375 Z M 299.199219 375.9375 "/>
<path fill-rule="nonzero" fill="rgb(0%, 0%, 0%)" fill-opacity="1" d="M 308.5 379.527344 C 308.351562 379.441406 308.183594 379.375 308.007812 379.335938 C 307.828125 379.292969 307.632812 379.273438 307.417969 379.273438 C 306.65625 379.273438 306.070312 379.519531 305.664062 380.015625 C 305.253906 380.511719 305.050781 381.222656 305.050781 382.148438 L 305.050781 386.472656 L 303.695312 386.472656 L 303.695312 378.269531 L 305.050781 378.269531 L 305.050781 379.542969 C 305.335938 379.046875 305.703125 378.675781 306.15625 378.433594 C 306.613281 378.191406 307.164062 378.070312 307.816406 378.070312 C 307.90625 378.070312 308.007812 378.078125 308.121094 378.089844 C 308.234375 378.101562 308.359375 378.121094 308.496094 378.144531 Z M 308.5 379.527344 "/>
<path fill-rule="nonzero" fill="rgb(0%, 0%, 0%)" fill-opacity="1" d="M 316.933594 382.03125 L 316.933594 382.691406 L 310.734375 382.691406 C 310.792969 383.621094 311.074219 384.328125 311.574219 384.8125 C 312.074219 385.296875 312.769531 385.542969 313.664062 385.542969 C 314.183594 385.542969 314.683594 385.476562 315.167969 385.351562 C 315.65625 385.226562 316.136719 385.035156 316.617188 384.78125 L 316.617188 386.054688 C 316.132812 386.257812 315.636719 386.414062 315.128906 386.523438 C 314.621094 386.632812 314.105469 386.683594 313.585938 386.683594 C 312.277344 386.683594 311.238281 386.304688 310.476562 385.542969 C 309.710938 384.78125 309.328125 383.75 309.328125 382.449219 C 309.328125 381.109375 309.691406 380.042969 310.417969 379.253906 C 311.140625 378.464844 312.121094 378.070312 313.351562 378.070312 C 314.453125 378.070312 315.328125 378.425781 315.96875 379.136719 C 316.609375 379.847656 316.933594 380.8125 316.933594 382.03125 M 315.585938 381.636719 C 315.574219 380.902344 315.367188 380.3125 314.964844 379.875 C 314.5625 379.433594 314.027344 379.214844 313.363281 379.214844 C 312.613281 379.214844 312.011719 379.425781 311.558594 379.851562 C 311.109375 380.277344 310.847656 380.875 310.78125 381.644531 Z M 314.28125 374.472656 L 315.738281 374.472656 L 313.351562 377.226562 L 312.230469 377.226562 Z M 314.28125 374.472656 "/>
<path fill-rule="nonzero" fill="rgb(0%, 0%, 0%)" fill-opacity="1" d="M 326.160156 382.03125 L 326.160156 382.691406 L 319.964844 382.691406 C 320.023438 383.621094 320.304688 384.328125 320.804688 384.8125 C 321.304688 385.296875 322 385.542969 322.894531 385.542969 C 323.410156 385.542969 323.914062 385.476562 324.398438 385.351562 C 324.882812 385.226562 325.367188 385.035156 325.847656 384.78125 L 325.847656 386.054688 C 325.363281 386.257812 324.867188 386.414062 324.359375 386.523438 C 323.851562 386.632812 323.335938 386.683594 322.8125 386.683594 C 321.503906 386.683594 320.46875 386.304688 319.703125 385.542969 C 318.941406 384.78125 318.558594 383.75 318.558594 382.449219 C 318.558594 381.109375 318.921875 380.042969 319.644531 379.253906 C 320.371094 378.464844 321.347656 378.070312 322.578125 378.070312 C 323.683594 378.070312 324.554688 378.425781 325.199219 379.136719 C 325.839844 379.847656 326.160156 380.8125 326.160156 382.03125 M 324.8125 381.636719 C 324.804688 380.902344 324.597656 380.3125 324.195312 379.875 C 323.792969 379.433594 323.257812 379.214844 322.59375 379.214844 C 321.84375 379.214844 321.242188 379.425781 320.789062 379.851562 C 320.335938 380.277344 320.078125 380.875 320.007812 381.644531 Z M 324.8125 381.636719 "/>
<path fill-rule="nonzero" fill="rgb(0%, 0%, 0%)" fill-opacity="1" d="M 332.402344 386.472656 C 332.304688 386.472656 332.253906 386.40625 332.253906 386.273438 C 332.292969 386.054688 332.355469 385.945312 332.445312 385.945312 C 332.851562 385.945312 333.203125 385.863281 333.496094 385.703125 C 333.792969 385.542969 334.046875 385.292969 334.261719 384.957031 L 334.292969 384.925781 L 339.644531 375.894531 C 339.722656 375.789062 339.816406 375.734375 339.929688 375.734375 L 340.128906 375.734375 C 340.15625 375.734375 340.1875 375.742188 340.214844 375.753906 C 340.246094 375.765625 340.273438 375.785156 340.292969 375.8125 C 340.316406 375.839844 340.328125 375.867188 340.328125 375.894531 L 341.234375 385.585938 C 341.234375 385.628906 341.253906 385.695312 341.300781 385.78125 C 341.398438 385.890625 341.773438 385.945312 342.421875 385.945312 C 342.523438 385.945312 342.574219 386.011719 342.574219 386.140625 C 342.539062 386.273438 342.511719 386.363281 342.488281 386.40625 C 342.46875 386.449219 342.410156 386.472656 342.320312 386.472656 L 338.570312 386.472656 C 338.476562 386.472656 338.429688 386.40625 338.429688 386.273438 C 338.484375 386.054688 338.550781 385.945312 338.628906 385.945312 C 339.417969 385.945312 339.835938 385.808594 339.886719 385.542969 L 339.660156 383.066406 L 335.960938 383.066406 L 334.761719 385.078125 C 334.6875 385.1875 334.648438 385.3125 334.648438 385.453125 C 334.648438 385.628906 334.734375 385.753906 334.902344 385.832031 C 335.070312 385.90625 335.257812 385.945312 335.464844 385.945312 C 335.558594 385.945312 335.609375 386.011719 335.609375 386.140625 C 335.574219 386.285156 335.546875 386.375 335.527344 386.414062 C 335.507812 386.453125 335.453125 386.472656 335.359375 386.472656 Z M 336.253906 382.539062 L 339.601562 382.539062 L 339.15625 377.683594 Z M 336.253906 382.539062 "/>
<g clip-path="url(#clip-8)">
<path fill-rule="nonzero" fill="rgb(0%, 0%, 0%)" fill-opacity="1" d="M 343.953125 389.023438 L 343.953125 388.652344 C 344.828125 388.652344 345.265625 388.542969 345.265625 388.320312 L 345.265625 382.808594 C 344.902344 382.984375 344.445312 383.070312 343.890625 383.070312 L 343.890625 382.703125 C 344.746094 382.703125 345.394531 382.476562 345.832031 382.027344 L 345.980469 382.027344 C 346.003906 382.027344 346.027344 382.039062 346.050781 382.058594 C 346.074219 382.078125 346.085938 382.097656 346.085938 382.121094 L 346.085938 388.320312 C 346.085938 388.542969 346.523438 388.652344 347.398438 388.652344 L 347.398438 389.023438 Z M 343.953125 389.023438 "/>
</g>
<path fill="none" stroke-width="0.5" stroke-linecap="butt" stroke-linejoin="round" stroke="rgb(0%, 0%, 0%)" stroke-opacity="1" stroke-miterlimit="100000" d="M 42.636719 350.957031 L 46.636719 350.957031 "/>
<g clip-path="url(#clip-9)">
<path fill="none" stroke-width="0.5" stroke-linecap="butt" stroke-linejoin="round" stroke="rgb(0%, 0%, 0%)" stroke-opacity="1" stroke-miterlimit="100000" d="M 489.039062 350.957031 L 485.039062 350.957031 "/>
</g>
<path fill-rule="nonzero" fill="rgb(0%, 0%, 0%)" fill-opacity="1" d="M 33.859375 345.136719 C 33.101562 345.136719 32.527344 345.511719 32.144531 346.261719 C 31.761719 347.007812 31.570312 348.136719 31.570312 349.640625 C 31.570312 351.136719 31.761719 352.261719 32.144531 353.011719 C 32.527344 353.761719 33.101562 354.136719 33.859375 354.136719 C 34.628906 354.136719 35.203125 353.761719 35.585938 353.011719 C 35.96875 352.261719 36.164062 351.136719 36.164062 349.640625 C 36.164062 348.136719 35.96875 347.007812 35.585938 346.261719 C 35.203125 345.511719 34.628906 345.136719 33.859375 345.136719 M 33.859375 343.964844 C 35.085938 343.964844 36.023438 344.449219 36.671875 345.417969 C 37.316406 346.386719 37.640625 347.792969 37.640625 349.640625 C 37.640625 351.480469 37.316406 352.886719 36.671875 353.855469 C 36.023438 354.824219 35.085938 355.308594 33.859375 355.308594 C 32.636719 355.308594 31.699219 354.824219 31.054688 353.855469 C 30.40625 352.886719 30.082031 351.480469 30.082031 349.640625 C 30.082031 347.792969 30.40625 346.386719 31.054688 345.417969 C 31.699219 344.449219 32.636719 343.964844 33.859375 343.964844 "/>
<path fill="none" stroke-width="0.5" stroke-linecap="butt" stroke-linejoin="round" stroke="rgb(0%, 0%, 0%)" stroke-opacity="1" stroke-miterlimit="100000" d="M 42.636719 301.792969 L 46.636719 301.792969 "/>
<g clip-path="url(#clip-10)">
<path fill="none" stroke-width="0.5" stroke-linecap="butt" stroke-linejoin="round" stroke="rgb(0%, 0%, 0%)" stroke-opacity="1" stroke-miterlimit="100000" d="M 489.039062 301.792969 L 485.039062 301.792969 "/>
</g>
<path fill-rule="nonzero" fill="rgb(0%, 0%, 0%)" fill-opacity="1" d="M 31.972656 304.6875 L 37.136719 304.6875 L 37.136719 305.929688 L 30.191406 305.929688 L 30.191406 304.6875 C 30.753906 304.105469 31.519531 303.324219 32.488281 302.347656 C 33.457031 301.367188 34.066406 300.734375 34.316406 300.449219 C 34.789062 299.917969 35.121094 299.46875 35.308594 299.101562 C 35.496094 298.730469 35.589844 298.371094 35.589844 298.011719 C 35.589844 297.433594 35.386719 296.957031 34.980469 296.59375 C 34.570312 296.226562 34.039062 296.042969 33.386719 296.042969 C 32.921875 296.042969 32.429688 296.121094 31.914062 296.285156 C 31.402344 296.445312 30.851562 296.6875 30.265625 297.015625 L 30.265625 295.523438 C 30.859375 295.28125 31.417969 295.101562 31.933594 294.980469 C 32.453125 294.859375 32.925781 294.796875 33.355469 294.796875 C 34.488281 294.796875 35.394531 295.082031 36.066406 295.648438 C 36.738281 296.214844 37.078125 296.96875 37.078125 297.917969 C 37.078125 298.367188 36.992188 298.792969 36.824219 299.195312 C 36.65625 299.597656 36.351562 300.074219 35.90625 300.621094 C 35.78125 300.761719 35.394531 301.171875 34.738281 301.847656 C 34.085938 302.523438 33.164062 303.46875 31.972656 304.6875 "/>
<path fill="none" stroke-width="0.5" stroke-linecap="butt" stroke-linejoin="round" stroke="rgb(0%, 0%, 0%)" stroke-opacity="1" stroke-miterlimit="100000" d="M 42.636719 252.625 L 46.636719 252.625 "/>
<g clip-path="url(#clip-11)">
<path fill="none" stroke-width="0.5" stroke-linecap="butt" stroke-linejoin="round" stroke="rgb(0%, 0%, 0%)" stroke-opacity="1" stroke-miterlimit="100000" d="M 489.039062 252.625 L 485.039062 252.625 "/>
</g>
<path fill-rule="nonzero" fill="rgb(0%, 0%, 0%)" fill-opacity="1" d="M 34.761719 247.117188 L 31.027344 252.957031 L 34.761719 252.957031 Z M 34.375 245.828125 L 36.234375 245.828125 L 36.234375 252.957031 L 37.796875 252.957031 L 37.796875 254.1875 L 36.234375 254.1875 L 36.234375 256.765625 L 34.761719 256.765625 L 34.761719 254.1875 L 29.828125 254.1875 L 29.828125 252.757812 Z M 34.375 245.828125 "/>
<path fill="none" stroke-width="0.5" stroke-linecap="butt" stroke-linejoin="round" stroke="rgb(0%, 0%, 0%)" stroke-opacity="1" stroke-miterlimit="100000" d="M 42.636719 203.460938 L 46.636719 203.460938 "/>
<g clip-path="url(#clip-12)">
<path fill="none" stroke-width="0.5" stroke-linecap="butt" stroke-linejoin="round" stroke="rgb(0%, 0%, 0%)" stroke-opacity="1" stroke-miterlimit="100000" d="M 489.039062 203.460938 L 485.039062 203.460938 "/>
</g>
<path fill-rule="nonzero" fill="rgb(0%, 0%, 0%)" fill-opacity="1" d="M 34.046875 201.542969 C 33.382812 201.542969 32.855469 201.769531 32.464844 202.222656 C 32.078125 202.675781 31.886719 203.300781 31.886719 204.089844 C 31.886719 204.875 32.078125 205.496094 32.464844 205.957031 C 32.855469 206.410156 33.382812 206.640625 34.046875 206.640625 C 34.710938 206.640625 35.234375 206.410156 35.625 205.957031 C 36.011719 205.496094 36.203125 204.875 36.203125 204.089844 C 36.203125 203.300781 36.011719 202.675781 35.625 202.222656 C 35.234375 201.769531 34.710938 201.542969 34.046875 201.542969 M 36.984375 196.902344 L 36.984375 198.25 C 36.609375 198.078125 36.234375 197.941406 35.859375 197.851562 C 35.480469 197.757812 35.105469 197.710938 34.734375 197.710938 C 33.757812 197.710938 33.011719 198.039062 32.496094 198.699219 C 31.980469 199.359375 31.6875 200.355469 31.613281 201.6875 C 31.902344 201.261719 32.261719 200.9375 32.695312 200.710938 C 33.132812 200.484375 33.609375 200.371094 34.132812 200.371094 C 35.230469 200.371094 36.097656 200.703125 36.738281 201.371094 C 37.375 202.035156 37.691406 202.941406 37.691406 204.089844 C 37.691406 205.214844 37.359375 206.113281 36.695312 206.792969 C 36.03125 207.472656 35.148438 207.8125 34.046875 207.8125 C 32.78125 207.8125 31.8125 207.328125 31.144531 206.359375 C 30.476562 205.386719 30.140625 203.984375 30.140625 202.140625 C 30.140625 200.414062 30.550781 199.035156 31.371094 198.007812 C 32.191406 196.980469 33.292969 196.464844 34.675781 196.464844 C 35.046875 196.464844 35.421875 196.503906 35.800781 196.574219 C 36.175781 196.648438 36.570312 196.757812 36.984375 196.902344 "/>
<path fill="none" stroke-width="0.5" stroke-linecap="butt" stroke-linejoin="round" stroke="rgb(0%, 0%, 0%)" stroke-opacity="1" stroke-miterlimit="100000" d="M 42.636719 154.292969 L 46.636719 154.292969 "/>
<g clip-path="url(#clip-13)">
<path fill="none" stroke-width="0.5" stroke-linecap="butt" stroke-linejoin="round" stroke="rgb(0%, 0%, 0%)" stroke-opacity="1" stroke-miterlimit="100000" d="M 489.039062 154.292969 L 485.039062 154.292969 "/>
</g>
<path fill-rule="nonzero" fill="rgb(0%, 0%, 0%)" fill-opacity="1" d="M 33.859375 153.238281 C 33.15625 153.238281 32.605469 153.425781 32.203125 153.804688 C 31.800781 154.179688 31.597656 154.699219 31.597656 155.355469 C 31.597656 156.015625 31.800781 156.53125 32.203125 156.910156 C 32.605469 157.285156 33.15625 157.472656 33.859375 157.472656 C 34.5625 157.472656 35.117188 157.285156 35.523438 156.90625 C 35.929688 156.527344 36.132812 156.011719 36.132812 155.355469 C 36.132812 154.699219 35.929688 154.179688 35.527344 153.804688 C 35.125 153.425781 34.570312 153.238281 33.859375 153.238281 M 32.382812 152.609375 C 31.746094 152.453125 31.253906 152.160156 30.898438 151.726562 C 30.546875 151.289062 30.367188 150.757812 30.367188 150.132812 C 30.367188 149.261719 30.679688 148.570312 31.300781 148.0625 C 31.925781 147.554688 32.777344 147.300781 33.859375 147.300781 C 34.949219 147.300781 35.804688 147.554688 36.425781 148.0625 C 37.046875 148.570312 37.355469 149.261719 37.355469 150.132812 C 37.355469 150.757812 37.179688 151.289062 36.824219 151.726562 C 36.46875 152.160156 35.980469 152.453125 35.347656 152.609375 C 36.0625 152.777344 36.617188 153.101562 37.011719 153.585938 C 37.410156 154.070312 37.609375 154.660156 37.609375 155.355469 C 37.609375 156.417969 37.289062 157.230469 36.640625 157.796875 C 35.992188 158.363281 35.066406 158.644531 33.859375 158.644531 C 32.65625 158.644531 31.730469 158.363281 31.082031 157.796875 C 30.433594 157.230469 30.109375 156.417969 30.109375 155.355469 C 30.109375 154.660156 30.3125 154.070312 30.710938 153.585938 C 31.113281 153.101562 31.667969 152.777344 32.382812 152.609375 M 31.839844 150.273438 C 31.839844 150.839844 32.015625 151.28125 32.371094 151.597656 C 32.726562 151.914062 33.222656 152.074219 33.859375 152.074219 C 34.496094 152.074219 34.992188 151.914062 35.351562 151.597656 C 35.710938 151.28125 35.890625 150.839844 35.890625 150.273438 C 35.890625 149.707031 35.710938 149.265625 35.351562 148.949219 C 34.992188 148.628906 34.496094 148.472656 33.859375 148.472656 C 33.222656 148.472656 32.726562 148.628906 32.371094 148.949219 C 32.015625 149.265625 31.839844 149.707031 31.839844 150.273438 "/>
<path fill="none" stroke-width="0.5" stroke-linecap="butt" stroke-linejoin="round" stroke="rgb(0%, 0%, 0%)" stroke-opacity="1" stroke-miterlimit="100000" d="M 42.636719 105.128906 L 46.636719 105.128906 "/>
<g clip-path="url(#clip-14)">
<path fill="none" stroke-width="0.5" stroke-linecap="butt" stroke-linejoin="round" stroke="rgb(0%, 0%, 0%)" stroke-opacity="1" stroke-miterlimit="100000" d="M 489.039062 105.128906 L 485.039062 105.128906 "/>
</g>
<path fill-rule="nonzero" fill="rgb(0%, 0%, 0%)" fill-opacity="1" d="M 21.410156 108.023438 L 23.828125 108.023438 L 23.828125 99.679688 L 21.199219 100.207031 L 21.199219 98.859375 L 23.8125 98.332031 L 25.292969 98.332031 L 25.292969 108.023438 L 27.707031 108.023438 L 27.707031 109.265625 L 21.410156 109.265625 Z M 21.410156 108.023438 "/>
<path fill-rule="nonzero" fill="rgb(0%, 0%, 0%)" fill-opacity="1" d="M 33.859375 99.304688 C 33.101562 99.304688 32.527344 99.679688 32.144531 100.429688 C 31.761719 101.179688 31.570312 102.304688 31.570312 103.8125 C 31.570312 105.308594 31.761719 106.433594 32.144531 107.183594 C 32.527344 107.933594 33.101562 108.308594 33.859375 108.308594 C 34.628906 108.308594 35.203125 107.933594 35.585938 107.183594 C 35.96875 106.433594 36.164062 105.308594 36.164062 103.8125 C 36.164062 102.304688 35.96875 101.179688 35.585938 100.429688 C 35.203125 99.679688 34.628906 99.304688 33.859375 99.304688 M 33.859375 98.132812 C 35.085938 98.132812 36.023438 98.621094 36.671875 99.589844 C 37.316406 100.558594 37.640625 101.964844 37.640625 103.8125 C 37.640625 105.652344 37.316406 107.058594 36.671875 108.027344 C 36.023438 108.996094 35.085938 109.480469 33.859375 109.480469 C 32.636719 109.480469 31.699219 108.996094 31.054688 108.027344 C 30.40625 107.058594 30.082031 105.652344 30.082031 103.8125 C 30.082031 101.964844 30.40625 100.558594 31.054688 99.589844 C 31.699219 98.621094 32.636719 98.132812 33.859375 98.132812 "/>
<path fill="none" stroke-width="0.5" stroke-linecap="butt" stroke-linejoin="round" stroke="rgb(0%, 0%, 0%)" stroke-opacity="1" stroke-miterlimit="100000" d="M 42.636719 55.960938 L 46.636719 55.960938 "/>
<g clip-path="url(#clip-15)">
<path fill="none" stroke-width="0.5" stroke-linecap="butt" stroke-linejoin="round" stroke="rgb(0%, 0%, 0%)" stroke-opacity="1" stroke-miterlimit="100000" d="M 489.039062 55.960938 L 485.039062 55.960938 "/>
</g>
<path fill-rule="nonzero" fill="rgb(0%, 0%, 0%)" fill-opacity="1" d="M 21.410156 58.855469 L 23.828125 58.855469 L 23.828125 50.511719 L 21.199219 51.039062 L 21.199219 49.691406 L 23.8125 49.164062 L 25.292969 49.164062 L 25.292969 58.855469 L 27.707031 58.855469 L 27.707031 60.101562 L 21.410156 60.101562 Z M 21.410156 58.855469 "/>
<path fill-rule="nonzero" fill="rgb(0%, 0%, 0%)" fill-opacity="1" d="M 31.972656 58.855469 L 37.136719 58.855469 L 37.136719 60.101562 L 30.191406 60.101562 L 30.191406 58.855469 C 30.753906 58.277344 31.519531 57.496094 32.488281 56.519531 C 33.457031 55.539062 34.066406 54.90625 34.316406 54.621094 C 34.789062 54.089844 35.121094 53.640625 35.308594 53.273438 C 35.496094 52.902344 35.589844 52.539062 35.589844 52.183594 C 35.589844 51.601562 35.386719 51.128906 34.980469 50.765625 C 34.570312 50.398438 34.039062 50.214844 33.386719 50.214844 C 32.921875 50.214844 32.429688 50.292969 31.914062 50.453125 C 31.402344 50.617188 30.851562 50.859375 30.265625 51.1875 L 30.265625 49.691406 C 30.859375 49.453125 31.417969 49.273438 31.933594 49.152344 C 32.453125 49.03125 32.925781 48.96875 33.355469 48.96875 C 34.488281 48.96875 35.394531 49.253906 36.066406 49.820312 C 36.738281 50.386719 37.078125 51.140625 37.078125 52.089844 C 37.078125 52.539062 36.992188 52.964844 36.824219 53.367188 C 36.65625 53.769531 36.351562 54.242188 35.90625 54.789062 C 35.78125 54.933594 35.394531 55.34375 34.738281 56.019531 C 34.085938 56.695312 33.164062 57.640625 31.972656 58.855469 "/>
<path fill="none" stroke-width="0.5" stroke-linecap="butt" stroke-linejoin="round" stroke="rgb(0%, 0%, 0%)" stroke-opacity="1" stroke-miterlimit="100000" d="M 42.636719 6.796875 L 46.636719 6.796875 "/>
<g clip-path="url(#clip-16)">
<path fill="none" stroke-width="0.5" stroke-linecap="butt" stroke-linejoin="round" stroke="rgb(0%, 0%, 0%)" stroke-opacity="1" stroke-miterlimit="100000" d="M 489.039062 6.796875 L 485.039062 6.796875 "/>
</g>
<path fill-rule="nonzero" fill="rgb(0%, 0%, 0%)" fill-opacity="1" d="M 21.410156 9.691406 L 23.828125 9.691406 L 23.828125 1.347656 L 21.199219 1.875 L 21.199219 0.527344 L 23.8125 0 L 25.292969 0 L 25.292969 9.691406 L 27.707031 9.691406 L 27.707031 10.9375 L 21.410156 10.9375 Z M 21.410156 9.691406 "/>
<path fill-rule="nonzero" fill="rgb(0%, 0%, 0%)" fill-opacity="1" d="M 34.761719 1.289062 L 31.027344 7.128906 L 34.761719 7.128906 Z M 34.375 0 L 36.234375 0 L 36.234375 7.128906 L 37.796875 7.128906 L 37.796875 8.359375 L 36.234375 8.359375 L 36.234375 10.9375 L 34.761719 10.9375 L 34.761719 8.359375 L 29.828125 8.359375 L 29.828125 6.929688 Z M 34.375 0 "/>
<path fill-rule="nonzero" fill="rgb(0%, 0%, 0%)" fill-opacity="1" d="M 1.917969 301.625 L 7.363281 303.632812 L 7.363281 299.609375 Z M 0.460938 302.460938 L 0.460938 300.78125 L 11.398438 296.613281 L 11.398438 298.152344 L 8.59375 299.148438 L 8.59375 304.078125 L 11.398438 305.074219 L 11.398438 306.632812 Z M 0.460938 302.460938 "/>
<path fill-rule="nonzero" fill="rgb(0%, 0%, 0%)" fill-opacity="1" d="M 4.769531 288.691406 C 4.164062 288.351562 3.714844 287.949219 3.429688 287.480469 C 3.140625 287.011719 2.996094 286.460938 2.996094 285.828125 C 2.996094 284.972656 3.296875 284.3125 3.894531 283.847656 C 4.492188 283.382812 5.34375 283.152344 6.445312 283.152344 L 11.398438 283.152344 L 11.398438 284.507812 L 6.488281 284.507812 C 5.703125 284.507812 5.121094 284.648438 4.742188 284.925781 C 4.359375 285.203125 4.167969 285.628906 4.167969 286.199219 C 4.167969 286.898438 4.402344 287.449219 4.867188 287.855469 C 5.328125 288.261719 5.960938 288.464844 6.761719 288.464844 L 11.398438 288.464844 L 11.398438 289.816406 L 6.488281 289.816406 C 5.699219 289.816406 5.113281 289.957031 4.738281 290.234375 C 4.359375 290.511719 4.167969 290.941406 4.167969 291.523438 C 4.167969 292.214844 4.402344 292.761719 4.867188 293.167969 C 5.332031 293.570312 5.964844 293.773438 6.761719 293.773438 L 11.398438 293.773438 L 11.398438 295.128906 L 3.195312 295.128906 L 3.195312 293.773438 L 4.46875 293.773438 C 3.964844 293.464844 3.59375 293.097656 3.355469 292.667969 C 3.117188 292.238281 2.996094 291.726562 2.996094 291.136719 C 2.996094 290.539062 3.148438 290.035156 3.453125 289.617188 C 3.753906 289.199219 4.191406 288.890625 4.769531 288.691406 "/>
<path fill-rule="nonzero" fill="rgb(0%, 0%, 0%)" fill-opacity="1" d="M 10.167969 279.164062 L 14.515625 279.164062 L 14.515625 280.515625 L 3.195312 280.515625 L 3.195312 279.164062 L 4.4375 279.164062 C 3.953125 278.878906 3.589844 278.519531 3.355469 278.089844 C 3.117188 277.65625 2.996094 277.140625 2.996094 276.539062 C 2.996094 275.542969 3.394531 274.734375 4.183594 274.113281 C 4.972656 273.488281 6.015625 273.175781 7.304688 273.175781 C 8.59375 273.175781 9.632812 273.488281 10.425781 274.113281 C 11.214844 274.734375 11.609375 275.542969 11.609375 276.539062 C 11.609375 277.140625 11.492188 277.65625 11.253906 278.089844 C 11.015625 278.519531 10.65625 278.878906 10.167969 279.164062 M 7.304688 274.574219 C 6.3125 274.574219 5.535156 274.78125 4.972656 275.1875 C 4.40625 275.59375 4.125 276.15625 4.125 276.867188 C 4.125 277.582031 4.40625 278.144531 4.972656 278.550781 C 5.535156 278.957031 6.3125 279.164062 7.304688 279.164062 C 8.292969 279.164062 9.070312 278.957031 9.636719 278.550781 C 10.199219 278.144531 10.480469 277.582031 10.480469 276.867188 C 10.480469 276.15625 10.199219 275.59375 9.636719 275.1875 C 9.070312 274.78125 8.292969 274.574219 7.304688 274.574219 "/>
<path fill-rule="nonzero" fill="rgb(0%, 0%, 0%)" fill-opacity="1" d="M 0 270.945312 L 0 269.597656 L 11.398438 269.597656 L 11.398438 270.945312 Z M 0 270.945312 "/>
<path fill-rule="nonzero" fill="rgb(0%, 0%, 0%)" fill-opacity="1" d="M 3.195312 266.777344 L 3.195312 265.429688 L 11.398438 265.429688 L 11.398438 266.777344 Z M 0 266.777344 L 0 265.429688 L 1.707031 265.429688 L 1.707031 266.777344 Z M 0 266.777344 "/>
<path fill-rule="nonzero" fill="rgb(0%, 0%, 0%)" fill-opacity="1" d="M 0.863281 261.277344 L 3.195312 261.277344 L 3.195312 258.5 L 4.242188 258.5 L 4.242188 261.277344 L 8.695312 261.277344 C 9.363281 261.277344 9.792969 261.183594 9.984375 261 C 10.175781 260.820312 10.269531 260.445312 10.269531 259.882812 L 10.269531 258.5 L 11.398438 258.5 L 11.398438 259.882812 C 11.398438 260.925781 11.203125 261.640625 10.816406 262.039062 C 10.425781 262.433594 9.71875 262.628906 8.695312 262.628906 L 4.242188 262.628906 L 4.242188 263.621094 L 3.195312 263.621094 L 3.195312 262.628906 L 0.863281 262.628906 Z M 0.863281 261.277344 "/>
<path fill-rule="nonzero" fill="rgb(0%, 0%, 0%)" fill-opacity="1" d="M 8.160156 256.867188 L 3.195312 256.867188 L 3.195312 255.519531 L 8.109375 255.519531 C 8.886719 255.519531 9.46875 255.367188 9.859375 255.066406 C 10.246094 254.761719 10.4375 254.308594 10.4375 253.703125 C 10.4375 252.976562 10.207031 252.402344 9.742188 251.980469 C 9.277344 251.554688 8.644531 251.34375 7.84375 251.34375 L 3.195312 251.34375 L 3.195312 249.996094 L 11.398438 249.996094 L 11.398438 251.34375 L 10.136719 251.34375 C 10.636719 251.671875 11.003906 252.050781 11.246094 252.484375 C 11.488281 252.914062 11.609375 253.417969 11.609375 253.988281 C 11.609375 254.929688 11.316406 255.644531 10.730469 256.136719 C 10.144531 256.621094 9.289062 256.867188 8.160156 256.867188 "/>
<path fill-rule="nonzero" fill="rgb(0%, 0%, 0%)" fill-opacity="1" d="M 4.4375 241.824219 L 0 241.824219 L 0 240.476562 L 11.398438 240.476562 L 11.398438 241.824219 L 10.167969 241.824219 C 10.65625 242.105469 11.015625 242.464844 11.253906 242.898438 C 11.492188 243.328125 11.609375 243.847656 11.609375 244.453125 C 11.609375 245.445312 11.214844 246.25 10.425781 246.875 C 9.632812 247.496094 8.59375 247.808594 7.304688 247.808594 C 6.015625 247.808594 4.972656 247.496094 4.183594 246.875 C 3.394531 246.25 2.996094 245.445312 2.996094 244.453125 C 2.996094 243.847656 3.117188 243.328125 3.355469 242.898438 C 3.589844 242.464844 3.953125 242.105469 4.4375 241.824219 M 7.304688 246.414062 C 8.292969 246.414062 9.070312 246.210938 9.636719 245.804688 C 10.199219 245.394531 10.480469 244.835938 10.480469 244.121094 C 10.480469 243.410156 10.199219 242.847656 9.636719 242.441406 C 9.070312 242.027344 8.292969 241.824219 7.304688 241.824219 C 6.3125 241.824219 5.535156 242.027344 4.972656 242.441406 C 4.40625 242.847656 4.125 243.410156 4.125 244.121094 C 4.125 244.835938 4.40625 245.394531 4.972656 245.804688 C 5.535156 246.210938 6.3125 246.414062 7.304688 246.414062 "/>
<path fill-rule="nonzero" fill="rgb(0%, 0%, 0%)" fill-opacity="1" d="M 6.957031 230.683594 L 7.617188 230.683594 L 7.617188 236.878906 C 8.546875 236.820312 9.253906 236.539062 9.738281 236.039062 C 10.222656 235.539062 10.46875 234.84375 10.46875 233.949219 C 10.46875 233.433594 10.402344 232.929688 10.277344 232.445312 C 10.152344 231.957031 9.960938 231.476562 9.707031 230.996094 L 10.980469 230.996094 C 11.183594 231.480469 11.339844 231.976562 11.449219 232.484375 C 11.558594 232.992188 11.609375 233.507812 11.609375 234.027344 C 11.609375 235.339844 11.230469 236.375 10.46875 237.140625 C 9.707031 237.902344 8.675781 238.285156 7.375 238.285156 C 6.035156 238.285156 4.96875 237.921875 4.179688 237.199219 C 3.390625 236.472656 2.996094 235.496094 2.996094 234.261719 C 2.996094 233.160156 3.351562 232.289062 4.0625 231.644531 C 4.773438 231.003906 5.738281 230.683594 6.957031 230.683594 M 6.5625 232.03125 C 5.828125 232.039062 5.238281 232.246094 4.800781 232.648438 C 4.359375 233.050781 4.140625 233.585938 4.140625 234.25 C 4.140625 235 4.351562 235.601562 4.777344 236.054688 C 5.203125 236.503906 5.800781 236.765625 6.570312 236.835938 Z M 6.5625 232.03125 "/>
<path fill-rule="nonzero" fill="rgb(0%, 0%, 0%)" fill-opacity="1" d="M 4.4375 218.304688 L 0 218.304688 L 0 216.957031 L 11.398438 216.957031 L 11.398438 218.304688 L 10.167969 218.304688 C 10.65625 218.589844 11.015625 218.945312 11.253906 219.378906 C 11.492188 219.808594 11.609375 220.328125 11.609375 220.933594 C 11.609375 221.925781 11.214844 222.734375 10.425781 223.355469 C 9.632812 223.976562 8.59375 224.289062 7.304688 224.289062 C 6.015625 224.289062 4.972656 223.976562 4.183594 223.355469 C 3.394531 222.734375 2.996094 221.925781 2.996094 220.933594 C 2.996094 220.328125 3.117188 219.808594 3.355469 219.378906 C 3.589844 218.945312 3.953125 218.589844 4.4375 218.304688 M 7.304688 222.898438 C 8.292969 222.898438 9.070312 222.691406 9.636719 222.285156 C 10.199219 221.878906 10.480469 221.316406 10.480469 220.605469 C 10.480469 219.890625 10.199219 219.332031 9.636719 218.921875 C 9.070312 218.511719 8.292969 218.304688 7.304688 218.304688 C 6.3125 218.304688 5.535156 218.511719 4.972656 218.921875 C 4.40625 219.332031 4.125 219.890625 4.125 220.605469 C 4.125 221.316406 4.40625 221.878906 4.972656 222.285156 C 5.535156 222.691406 6.3125 222.898438 7.304688 222.898438 "/>
<path fill-rule="nonzero" fill="rgb(0%, 0%, 0%)" fill-opacity="1" d="M 6.957031 207.164062 L 7.617188 207.164062 L 7.617188 213.359375 C 8.546875 213.300781 9.253906 213.023438 9.738281 212.523438 C 10.222656 212.023438 10.46875 211.324219 10.46875 210.429688 C 10.46875 209.914062 10.402344 209.414062 10.277344 208.925781 C 10.152344 208.441406 9.960938 207.957031 9.707031 207.476562 L 10.980469 207.476562 C 11.183594 207.960938 11.339844 208.457031 11.449219 208.964844 C 11.558594 209.472656 11.609375 209.988281 11.609375 210.511719 C 11.609375 211.820312 11.230469 212.855469 10.46875 213.621094 C 9.707031 214.386719 8.675781 214.765625 7.375 214.765625 C 6.035156 214.765625 4.96875 214.40625 4.179688 213.679688 C 3.390625 212.953125 2.996094 211.976562 2.996094 210.746094 C 2.996094 209.640625 3.351562 208.769531 4.0625 208.128906 C 4.773438 207.484375 5.738281 207.164062 6.957031 207.164062 M 6.5625 208.511719 C 5.828125 208.519531 5.238281 208.726562 4.800781 209.128906 C 4.359375 209.535156 4.140625 210.066406 4.140625 210.730469 C 4.140625 211.484375 4.351562 212.085938 4.777344 212.535156 C 5.203125 212.988281 5.800781 213.246094 6.570312 213.316406 Z M 6.5625 208.511719 "/>
<path fill-rule="nonzero" fill="rgb(0%, 0%, 0%)" fill-opacity="1" d="M 3.4375 194.957031 L 4.710938 194.957031 C 4.515625 195.335938 4.371094 195.730469 4.273438 196.140625 C 4.175781 196.550781 4.125 196.976562 4.125 197.417969 C 4.125 198.085938 4.226562 198.585938 4.433594 198.921875 C 4.636719 199.257812 4.945312 199.421875 5.355469 199.421875 C 5.667969 199.421875 5.914062 199.304688 6.089844 199.066406 C 6.269531 198.824219 6.4375 198.34375 6.601562 197.621094 L 6.703125 197.160156 C 6.90625 196.203125 7.195312 195.523438 7.570312 195.121094 C 7.945312 194.71875 8.464844 194.515625 9.132812 194.515625 C 9.894531 194.515625 10.5 194.816406 10.945312 195.421875 C 11.390625 196.023438 11.609375 196.851562 11.609375 197.90625 C 11.609375 198.347656 11.566406 198.804688 11.480469 199.28125 C 11.394531 199.757812 11.269531 200.257812 11.097656 200.785156 L 9.707031 200.785156 C 9.964844 200.285156 10.160156 199.796875 10.289062 199.3125 C 10.417969 198.832031 10.480469 198.351562 10.480469 197.875 C 10.480469 197.242188 10.371094 196.753906 10.15625 196.414062 C 9.9375 196.070312 9.632812 195.902344 9.238281 195.902344 C 8.871094 195.902344 8.589844 196.023438 8.394531 196.269531 C 8.199219 196.515625 8.011719 197.058594 7.832031 197.894531 L 7.71875 198.363281 C 7.546875 199.195312 7.277344 199.800781 6.910156 200.171875 C 6.546875 200.542969 6.046875 200.726562 5.414062 200.726562 C 4.640625 200.726562 4.046875 200.453125 3.628906 199.90625 C 3.207031 199.359375 2.996094 198.582031 2.996094 197.578125 C 2.996094 197.078125 3.035156 196.613281 3.109375 196.171875 C 3.179688 195.730469 3.289062 195.328125 3.4375 194.957031 "/>
<path fill-rule="nonzero" fill="rgb(0%, 0%, 0%)" fill-opacity="1" d="M 4.140625 189.191406 C 4.140625 189.914062 4.421875 190.484375 4.984375 190.90625 C 5.550781 191.324219 6.320312 191.535156 7.304688 191.535156 C 8.285156 191.535156 9.058594 191.328125 9.621094 190.910156 C 10.183594 190.492188 10.46875 189.917969 10.46875 189.191406 C 10.46875 188.472656 10.183594 187.902344 9.617188 187.484375 C 9.050781 187.066406 8.28125 186.855469 7.304688 186.855469 C 6.332031 186.855469 5.5625 187.066406 4.992188 187.484375 C 4.421875 187.902344 4.140625 188.472656 4.140625 189.191406 M 2.996094 189.191406 C 2.996094 188.019531 3.378906 187.097656 4.140625 186.429688 C 4.902344 185.761719 5.957031 185.425781 7.304688 185.425781 C 8.644531 185.425781 9.699219 185.761719 10.464844 186.429688 C 11.230469 187.097656 11.609375 188.019531 11.609375 189.191406 C 11.609375 190.367188 11.230469 191.289062 10.464844 191.957031 C 9.699219 192.621094 8.644531 192.957031 7.304688 192.957031 C 5.957031 192.957031 4.902344 192.621094 4.140625 191.957031 C 3.378906 191.289062 2.996094 190.367188 2.996094 189.191406 "/>
<path fill-rule="nonzero" fill="rgb(0%, 0%, 0%)" fill-opacity="1" d="M 4.453125 178.441406 C 4.367188 178.589844 4.300781 178.757812 4.261719 178.933594 C 4.21875 179.113281 4.199219 179.308594 4.199219 179.523438 C 4.199219 180.285156 4.445312 180.871094 4.941406 181.277344 C 5.4375 181.6875 6.148438 181.890625 7.074219 181.890625 L 11.398438 181.890625 L 11.398438 183.246094 L 3.195312 183.246094 L 3.195312 181.890625 L 4.46875 181.890625 C 3.972656 181.605469 3.601562 181.238281 3.359375 180.785156 C 3.117188 180.328125 2.996094 179.777344 2.996094 179.125 C 2.996094 179.035156 3.003906 178.933594 3.015625 178.820312 C 3.027344 178.707031 3.046875 178.582031 3.070312 178.445312 Z M 4.453125 178.441406 "/>
<path fill-rule="nonzero" fill="rgb(0%, 0%, 0%)" fill-opacity="1" d="M 0.863281 175.691406 L 3.195312 175.691406 L 3.195312 172.917969 L 4.242188 172.917969 L 4.242188 175.691406 L 8.695312 175.691406 C 9.363281 175.691406 9.792969 175.601562 9.984375 175.417969 C 10.175781 175.234375 10.269531 174.863281 10.269531 174.300781 L 10.269531 172.917969 L 11.398438 172.917969 L 11.398438 174.300781 C 11.398438 175.339844 11.203125 176.058594 10.816406 176.453125 C 10.425781 176.847656 9.71875 177.046875 8.695312 177.046875 L 4.242188 177.046875 L 4.242188 178.035156 L 3.195312 178.035156 L 3.195312 177.046875 L 0.863281 177.046875 Z M 0.863281 175.691406 "/>
<path fill-rule="nonzero" fill="rgb(0%, 0%, 0%)" fill-opacity="1" d="M 3.195312 171.144531 L 3.195312 169.796875 L 11.398438 169.796875 L 11.398438 171.144531 Z M 0 171.144531 L 0 169.796875 L 1.707031 169.796875 L 1.707031 171.144531 Z M 0 171.144531 "/>
<path fill-rule="nonzero" fill="rgb(0%, 0%, 0%)" fill-opacity="1" d="M 6.957031 159.960938 L 7.617188 159.960938 L 7.617188 166.15625 C 8.546875 166.097656 9.253906 165.816406 9.738281 165.316406 C 10.222656 164.816406 10.46875 164.121094 10.46875 163.226562 C 10.46875 162.710938 10.402344 162.207031 10.277344 161.722656 C 10.152344 161.234375 9.960938 160.753906 9.707031 160.273438 L 10.980469 160.273438 C 11.183594 160.757812 11.339844 161.253906 11.449219 161.761719 C 11.558594 162.269531 11.609375 162.785156 11.609375 163.304688 C 11.609375 164.617188 11.230469 165.652344 10.46875 166.417969 C 9.707031 167.179688 8.675781 167.5625 7.375 167.5625 C 6.035156 167.5625 4.96875 167.199219 4.179688 166.476562 C 3.390625 165.75 2.996094 164.773438 2.996094 163.539062 C 2.996094 162.4375 3.351562 161.566406 4.0625 160.921875 C 4.773438 160.28125 5.738281 159.960938 6.957031 159.960938 M 6.5625 161.308594 C 5.828125 161.316406 5.238281 161.523438 4.800781 161.925781 C 4.359375 162.328125 4.140625 162.863281 4.140625 163.527344 C 4.140625 164.277344 4.351562 164.878906 4.777344 165.332031 C 5.203125 165.78125 5.800781 166.042969 6.570312 166.113281 Z M 6.5625 161.308594 "/>
<path fill-rule="nonzero" fill="rgb(0%, 0%, 0%)" fill-opacity="1" d="M 11.398438 153.644531 C 11.398438 153.746094 11.332031 153.792969 11.199219 153.792969 C 11.175781 153.789062 11.132812 153.78125 11.078125 153.765625 C 11.015625 153.75 10.96875 153.730469 10.929688 153.707031 C 10.890625 153.683594 10.871094 153.644531 10.871094 153.59375 C 10.871094 153.3125 10.863281 153.066406 10.847656 152.855469 C 10.832031 152.644531 10.804688 152.46875 10.765625 152.320312 C 10.722656 152.203125 10.589844 152.109375 10.363281 152.035156 L 2.125 149.984375 C 2.027344 149.964844 1.957031 149.953125 1.917969 149.953125 C 1.8125 149.953125 1.75 150.011719 1.738281 150.128906 C 1.699219 150.320312 1.679688 150.683594 1.679688 151.214844 C 1.679688 151.3125 1.613281 151.359375 1.480469 151.359375 C 1.457031 151.355469 1.414062 151.347656 1.351562 151.332031 C 1.292969 151.316406 1.242188 151.296875 1.207031 151.269531 C 1.167969 151.242188 1.152344 151.210938 1.152344 151.171875 L 1.152344 145.792969 C 1.152344 145.46875 1.191406 145.144531 1.273438 144.824219 C 1.351562 144.503906 1.480469 144.207031 1.65625 143.9375 C 1.832031 143.667969 2.050781 143.453125 2.3125 143.292969 C 2.574219 143.132812 2.878906 143.054688 3.222656 143.054688 C 3.597656 143.054688 3.949219 143.152344 4.273438 143.34375 C 4.59375 143.539062 4.875 143.785156 5.113281 144.09375 C 5.351562 144.398438 5.550781 144.726562 5.703125 145.082031 C 5.859375 145.433594 5.972656 145.804688 6.042969 146.191406 C 6.042969 145.917969 6.097656 145.640625 6.207031 145.359375 C 6.3125 145.078125 6.457031 144.828125 6.644531 144.609375 C 6.832031 144.386719 7.054688 144.210938 7.3125 144.078125 C 7.570312 143.941406 7.847656 143.875 8.144531 143.875 C 8.746094 143.875 9.296875 144.085938 9.792969 144.503906 C 10.292969 144.925781 10.683594 145.453125 10.96875 146.09375 C 11.253906 146.730469 11.398438 147.347656 11.398438 147.941406 Z M 10.753906 150.886719 C 10.832031 150.886719 10.871094 150.714844 10.871094 150.371094 L 10.871094 148.226562 C 10.871094 147.738281 10.734375 147.269531 10.464844 146.820312 C 10.191406 146.371094 9.832031 146.011719 9.382812 145.742188 C 8.933594 145.46875 8.464844 145.332031 7.976562 145.332031 C 7.679688 145.332031 7.398438 145.394531 7.132812 145.519531 C 6.863281 145.644531 6.65625 145.824219 6.5 146.058594 C 6.347656 146.292969 6.269531 146.5625 6.269531 146.863281 L 6.269531 149.785156 L 10.421875 150.828125 C 10.558594 150.867188 10.671875 150.886719 10.753906 150.886719 M 5.875 149.683594 L 5.875 147.40625 C 5.875 146.925781 5.753906 146.460938 5.511719 146.011719 C 5.265625 145.558594 4.933594 145.191406 4.515625 144.90625 C 4.09375 144.621094 3.648438 144.476562 3.179688 144.476562 C 2.746094 144.476562 2.386719 144.613281 2.105469 144.886719 C 1.820312 145.15625 1.679688 145.503906 1.679688 145.933594 L 1.679688 147.992188 C 1.679688 148.261719 1.703125 148.441406 1.753906 148.535156 C 1.800781 148.625 1.949219 148.703125 2.191406 148.769531 Z M 5.875 149.683594 "/>
<path fill-rule="nonzero" fill="rgb(0%, 0%, 0%)" fill-opacity="1" d="M 13.949219 142.503906 L 13.667969 142.503906 C 13.648438 142.503906 13.628906 142.496094 13.609375 142.484375 L 11.804688 140.851562 C 11.539062 140.605469 11.316406 140.40625 11.136719 140.253906 C 10.953125 140.097656 10.746094 139.949219 10.507812 139.796875 C 10.273438 139.648438 10.03125 139.527344 9.789062 139.441406 C 9.542969 139.351562 9.285156 139.308594 9.011719 139.308594 C 8.722656 139.308594 8.449219 139.363281 8.1875 139.46875 C 7.925781 139.574219 7.71875 139.730469 7.558594 139.941406 C 7.402344 140.152344 7.324219 140.40625 7.324219 140.703125 C 7.324219 141.007812 7.414062 141.28125 7.597656 141.523438 C 7.78125 141.765625 8.019531 141.9375 8.308594 142.035156 C 8.300781 142.007812 8.296875 141.972656 8.296875 141.921875 C 8.296875 141.765625 8.351562 141.632812 8.457031 141.523438 C 8.5625 141.410156 8.699219 141.355469 8.867188 141.355469 C 9.027344 141.355469 9.164062 141.410156 9.277344 141.523438 C 9.386719 141.632812 9.441406 141.765625 9.441406 141.921875 C 9.441406 142.085938 9.386719 142.226562 9.269531 142.335938 C 9.15625 142.449219 9.023438 142.503906 8.867188 142.503906 C 8.605469 142.503906 8.355469 142.453125 8.128906 142.355469 C 7.898438 142.253906 7.691406 142.113281 7.511719 141.925781 C 7.332031 141.738281 7.195312 141.53125 7.097656 141.296875 C 7.003906 141.0625 6.953125 140.8125 6.953125 140.550781 C 6.953125 140.148438 7.039062 139.777344 7.207031 139.433594 C 7.378906 139.085938 7.617188 138.8125 7.925781 138.613281 C 8.234375 138.410156 8.597656 138.308594 9.011719 138.308594 C 9.316406 138.308594 9.605469 138.375 9.878906 138.507812 C 10.152344 138.644531 10.402344 138.8125 10.625 139.023438 C 10.847656 139.230469 11.101562 139.496094 11.386719 139.820312 C 11.667969 140.148438 11.859375 140.359375 11.953125 140.460938 L 13.097656 141.652344 L 13.097656 140.640625 C 13.097656 140.148438 13.09375 139.734375 13.085938 139.398438 C 13.078125 139.066406 13.0625 138.886719 13.046875 138.867188 C 12.957031 138.785156 12.632812 138.703125 12.078125 138.617188 L 12.078125 138.308594 L 13.949219 138.605469 Z M 13.949219 142.503906 "/>
<path fill-rule="nonzero" fill="rgb(0%, 0%, 0%)" fill-opacity="1" d="M 10.167969 129.335938 L 14.515625 129.335938 L 14.515625 130.691406 L 3.195312 130.691406 L 3.195312 129.335938 L 4.4375 129.335938 C 3.953125 129.050781 3.589844 128.691406 3.355469 128.261719 C 3.117188 127.828125 2.996094 127.3125 2.996094 126.710938 C 2.996094 125.714844 3.394531 124.90625 4.183594 124.285156 C 4.972656 123.660156 6.015625 123.347656 7.304688 123.347656 C 8.59375 123.347656 9.632812 123.660156 10.425781 124.285156 C 11.214844 124.90625 11.609375 125.714844 11.609375 126.710938 C 11.609375 127.3125 11.492188 127.828125 11.253906 128.261719 C 11.015625 128.691406 10.65625 129.050781 10.167969 129.335938 M 7.304688 124.75 C 6.3125 124.75 5.535156 124.953125 4.972656 125.359375 C 4.40625 125.769531 4.125 126.328125 4.125 127.039062 C 4.125 127.753906 4.40625 128.316406 4.972656 128.722656 C 5.535156 129.132812 6.3125 129.335938 7.304688 129.335938 C 8.292969 129.335938 9.070312 129.132812 9.636719 128.722656 C 10.199219 128.316406 10.480469 127.753906 10.480469 127.039062 C 10.480469 126.328125 10.199219 125.769531 9.636719 125.359375 C 9.070312 124.953125 8.292969 124.75 7.304688 124.75 "/>
<path fill-rule="nonzero" fill="rgb(0%, 0%, 0%)" fill-opacity="1" d="M 4.140625 117.9375 C 4.140625 118.660156 4.421875 119.230469 4.984375 119.652344 C 5.550781 120.074219 6.320312 120.28125 7.304688 120.28125 C 8.285156 120.28125 9.058594 120.074219 9.621094 119.65625 C 10.183594 119.238281 10.46875 118.664062 10.46875 117.9375 C 10.46875 117.21875 10.183594 116.652344 9.617188 116.234375 C 9.050781 115.8125 8.28125 115.601562 7.304688 115.601562 C 6.332031 115.601562 5.5625 115.8125 4.992188 116.234375 C 4.421875 116.652344 4.140625 117.21875 4.140625 117.9375 M 2.996094 117.9375 C 2.996094 116.765625 3.378906 115.847656 4.140625 115.179688 C 4.902344 114.507812 5.957031 114.171875 7.304688 114.171875 C 8.644531 114.171875 9.699219 114.507812 10.464844 115.179688 C 11.230469 115.847656 11.609375 116.765625 11.609375 117.9375 C 11.609375 119.117188 11.230469 120.039062 10.464844 120.703125 C 9.699219 121.371094 8.644531 121.703125 7.304688 121.703125 C 5.957031 121.703125 4.902344 121.371094 4.140625 120.703125 C 3.378906 120.039062 2.996094 119.117188 2.996094 117.9375 "/>
<path fill-rule="nonzero" fill="rgb(0%, 0%, 0%)" fill-opacity="1" d="M 8.160156 112.078125 L 3.195312 112.078125 L 3.195312 110.730469 L 8.109375 110.730469 C 8.886719 110.730469 9.46875 110.578125 9.859375 110.277344 C 10.246094 109.976562 10.4375 109.519531 10.4375 108.914062 C 10.4375 108.1875 10.207031 107.613281 9.742188 107.191406 C 9.277344 106.769531 8.644531 106.554688 7.84375 106.554688 L 3.195312 106.554688 L 3.195312 105.207031 L 11.398438 105.207031 L 11.398438 106.554688 L 10.136719 106.554688 C 10.636719 106.882812 11.003906 107.261719 11.246094 107.695312 C 11.488281 108.125 11.609375 108.628906 11.609375 109.199219 C 11.609375 110.140625 11.316406 110.859375 10.730469 111.347656 C 10.144531 111.835938 9.289062 112.078125 8.160156 112.078125 "/>
<path fill-rule="nonzero" fill="rgb(0%, 0%, 0%)" fill-opacity="1" d="M 4.453125 97.679688 C 4.367188 97.832031 4.300781 97.996094 4.261719 98.175781 C 4.21875 98.351562 4.199219 98.546875 4.199219 98.761719 C 4.199219 99.523438 4.445312 100.109375 4.941406 100.519531 C 5.4375 100.925781 6.148438 101.128906 7.074219 101.128906 L 11.398438 101.128906 L 11.398438 102.484375 L 3.195312 102.484375 L 3.195312 101.128906 L 4.46875 101.128906 C 3.972656 100.84375 3.601562 100.476562 3.359375 100.023438 C 3.117188 99.570312 2.996094 99.015625 2.996094 98.367188 C 2.996094 98.273438 3.003906 98.171875 3.015625 98.058594 C 3.027344 97.945312 3.046875 97.824219 3.070312 97.6875 Z M 4.453125 97.679688 "/>
<path fill-rule="nonzero" fill="rgb(0%, 0%, 0%)" fill-opacity="1" d="M 11.398438 92.234375 C 11.398438 92.335938 11.332031 92.382812 11.199219 92.382812 C 10.980469 92.34375 10.871094 92.28125 10.871094 92.195312 C 10.871094 91.789062 10.789062 91.4375 10.628906 91.140625 C 10.46875 90.847656 10.21875 90.589844 9.882812 90.378906 L 9.851562 90.347656 L 0.820312 84.992188 C 0.714844 84.914062 0.660156 84.820312 0.660156 84.707031 L 0.660156 84.511719 C 0.660156 84.480469 0.667969 84.453125 0.679688 84.421875 C 0.691406 84.390625 0.710938 84.367188 0.738281 84.34375 C 0.765625 84.324219 0.792969 84.3125 0.820312 84.3125 L 10.511719 83.40625 C 10.554688 83.40625 10.621094 83.382812 10.707031 83.339844 C 10.816406 83.242188 10.871094 82.867188 10.871094 82.214844 C 10.871094 82.113281 10.9375 82.0625 11.066406 82.0625 C 11.199219 82.097656 11.289062 82.125 11.332031 82.148438 C 11.375 82.171875 11.398438 82.226562 11.398438 82.320312 L 11.398438 86.070312 C 11.398438 86.164062 11.332031 86.210938 11.199219 86.210938 C 10.980469 86.15625 10.871094 86.089844 10.871094 86.011719 C 10.871094 85.21875 10.734375 84.800781 10.46875 84.753906 L 7.992188 84.980469 L 7.992188 88.679688 L 10.003906 89.878906 C 10.113281 89.953125 10.238281 89.988281 10.378906 89.988281 C 10.554688 89.988281 10.679688 89.902344 10.757812 89.734375 C 10.832031 89.566406 10.871094 89.378906 10.871094 89.175781 C 10.871094 89.078125 10.9375 89.03125 11.066406 89.03125 C 11.210938 89.0625 11.300781 89.089844 11.339844 89.113281 C 11.378906 89.128906 11.398438 89.1875 11.398438 89.277344 Z M 7.464844 88.386719 L 7.464844 85.039062 L 2.609375 85.484375 Z M 7.464844 88.386719 "/>
<path fill-rule="nonzero" fill="rgb(0%, 0%, 0%)" fill-opacity="1" d="M 13.949219 81.136719 L 13.667969 81.136719 C 13.648438 81.136719 13.628906 81.132812 13.609375 81.117188 L 11.804688 79.488281 C 11.539062 79.242188 11.316406 79.042969 11.136719 78.886719 C 10.953125 78.734375 10.746094 78.582031 10.507812 78.433594 C 10.273438 78.28125 10.03125 78.160156 9.789062 78.074219 C 9.542969 77.988281 9.285156 77.941406 9.011719 77.941406 C 8.722656 77.941406 8.449219 77.996094 8.1875 78.101562 C 7.925781 78.207031 7.71875 78.367188 7.558594 78.578125 C 7.402344 78.785156 7.324219 79.039062 7.324219 79.335938 C 7.324219 79.640625 7.414062 79.914062 7.597656 80.15625 C 7.78125 80.402344 8.019531 80.570312 8.308594 80.671875 C 8.300781 80.644531 8.296875 80.605469 8.296875 80.558594 C 8.296875 80.402344 8.351562 80.265625 8.457031 80.15625 C 8.5625 80.046875 8.699219 79.988281 8.867188 79.988281 C 9.027344 79.988281 9.164062 80.046875 9.277344 80.15625 C 9.386719 80.265625 9.441406 80.402344 9.441406 80.558594 C 9.441406 80.722656 9.386719 80.859375 9.269531 80.972656 C 9.15625 81.082031 9.023438 81.136719 8.867188 81.136719 C 8.605469 81.136719 8.355469 81.089844 8.128906 80.988281 C 7.898438 80.890625 7.691406 80.746094 7.511719 80.5625 C 7.332031 80.375 7.195312 80.164062 7.097656 79.929688 C 7.003906 79.695312 6.953125 79.449219 6.953125 79.183594 C 6.953125 78.785156 7.039062 78.414062 7.207031 78.066406 C 7.378906 77.722656 7.617188 77.449219 7.925781 77.246094 C 8.234375 77.046875 8.597656 76.945312 9.011719 76.945312 C 9.316406 76.945312 9.605469 77.011719 9.878906 77.144531 C 10.152344 77.277344 10.402344 77.449219 10.625 77.65625 C 10.847656 77.867188 11.101562 78.132812 11.386719 78.457031 C 11.667969 78.78125 11.859375 78.996094 11.953125 79.097656 L 13.097656 80.285156 L 13.097656 79.277344 C 13.097656 78.78125 13.09375 78.367188 13.085938 78.035156 C 13.078125 77.699219 13.0625 77.523438 13.046875 77.503906 C 12.957031 77.421875 12.632812 77.335938 12.078125 77.25 L 12.078125 76.945312 L 13.949219 77.242188 Z M 13.949219 81.136719 "/>
<path fill-rule="nonzero" fill="rgb(0%, 0%, 0%)" fill-opacity="1" d="M 9.40625 71.691406 C 9.40625 71.777344 9.375 71.84375 9.3125 71.898438 C 9.246094 71.953125 9.179688 71.980469 9.105469 71.980469 C 9.023438 71.980469 8.953125 71.953125 8.894531 71.898438 C 8.835938 71.84375 8.804688 71.777344 8.804688 71.691406 L 8.804688 62.273438 C 8.804688 62.199219 8.835938 62.136719 8.894531 62.082031 C 8.953125 62.027344 9.023438 62 9.105469 62 C 9.179688 62 9.246094 62.027344 9.3125 62.082031 C 9.375 62.136719 9.40625 62.199219 9.40625 62.273438 Z M 6.488281 71.691406 C 6.488281 71.777344 6.460938 71.84375 6.402344 71.898438 C 6.34375 71.953125 6.273438 71.980469 6.191406 71.980469 C 6.117188 71.980469 6.046875 71.953125 5.984375 71.898438 C 5.921875 71.84375 5.890625 71.777344 5.890625 71.691406 L 5.890625 62.273438 C 5.890625 62.199219 5.921875 62.136719 5.984375 62.082031 C 6.046875 62.027344 6.117188 62 6.191406 62 C 6.273438 62 6.34375 62.027344 6.402344 62.082031 C 6.460938 62.136719 6.488281 62.199219 6.488281 62.273438 Z M 6.488281 71.691406 "/>
<path fill-rule="nonzero" fill="rgb(0%, 0%, 0%)" fill-opacity="1" d="M 11.726562 54.785156 C 11.726562 56.007812 11.222656 56.84375 10.214844 57.285156 C 9.207031 57.726562 8.007812 57.949219 6.613281 57.949219 C 5.746094 57.949219 4.929688 57.871094 4.164062 57.710938 C 3.394531 57.550781 2.746094 57.238281 2.210938 56.765625 C 1.675781 56.296875 1.40625 55.632812 1.40625 54.785156 C 1.40625 54.125 1.566406 53.585938 1.890625 53.167969 C 2.214844 52.746094 2.628906 52.425781 3.140625 52.207031 C 3.648438 51.984375 4.195312 51.835938 4.78125 51.757812 C 5.363281 51.675781 5.976562 51.632812 6.613281 51.632812 C 7.472656 51.632812 8.277344 51.714844 9.027344 51.875 C 9.777344 52.03125 10.414062 52.34375 10.941406 52.804688 C 11.464844 53.269531 11.726562 53.929688 11.726562 54.785156 M 11.339844 54.785156 C 11.339844 54.226562 11.054688 53.8125 10.484375 53.539062 C 9.910156 53.265625 9.277344 53.097656 8.585938 53.035156 C 7.890625 52.96875 7.152344 52.9375 6.371094 52.9375 C 5.621094 52.9375 4.929688 52.96875 4.292969 53.035156 C 3.65625 53.097656 3.082031 53.265625 2.570312 53.539062 C 2.054688 53.808594 1.796875 54.222656 1.796875 54.785156 C 1.796875 55.351562 2.054688 55.769531 2.574219 56.042969 C 3.089844 56.316406 3.664062 56.484375 4.296875 56.550781 C 4.929688 56.613281 5.621094 56.644531 6.371094 56.644531 C 6.929688 56.644531 7.453125 56.632812 7.949219 56.605469 C 8.441406 56.578125 8.949219 56.503906 9.476562 56.386719 C 10 56.269531 10.441406 56.082031 10.800781 55.820312 C 11.160156 55.558594 11.339844 55.214844 11.339844 54.785156 "/>
</svg>
