<?xml version="1.0" encoding="UTF-8"?>
<svg xmlns="http://www.w3.org/2000/svg" xmlns:xlink="http://www.w3.org/1999/xlink" width="515.526245pt" height="389.670929pt" viewBox="0 0 515.526245 389.670929">
<defs>
<clipPath id="clip-0">
<path clip-rule="nonzero" d="M 60.425781 6.992188 L 506.824219 6.992188 L 506.824219 351.152344 L 60.425781 351.152344 Z M 60.425781 6.992188 "/>
</clipPath>
<clipPath id="clip-1">
<rect x="0" y="0" width="447" height="346"/>
</clipPath>
<g id="source-5" clip-path="url(#clip-1)">
<path fill="none" stroke-width="1" stroke-linecap="square" stroke-linejoin="round" stroke="rgb(0%, 0%, 100%)" stroke-opacity="1" stroke-miterlimit="100000" d="M 111.910156 179.074219 L 111.730469 163.011719 L 111.199219 147.210938 L 110.320312 131.933594 L 109.113281 117.429688 L 107.59375 103.941406 L 105.789062 91.683594 L 103.730469 80.863281 L 101.445312 71.652344 L 98.976562 64.207031 L 96.367188 58.648438 L 93.652344 55.066406 L 90.878906 53.519531 L 88.097656 54.035156 L 85.351562 56.605469 L 82.679688 61.183594 L 80.136719 67.699219 L 77.753906 76.046875 L 75.578125 86.082031 L 73.640625 97.644531 L 71.976562 110.542969 L 70.609375 124.570312 L 69.566406 139.492188 L 68.859375 155.0625 L 68.503906 171.023438 L 68.503906 187.121094 L 68.859375 203.085938 L 69.566406 218.65625 L 70.609375 233.578125 L 71.976562 247.601562 L 73.640625 260.503906 L 75.578125 272.066406 L 77.753906 282.101562 L 80.136719 290.445312 L 82.679688 296.960938 L 85.351562 301.542969 L 88.097656 304.113281 L 90.878906 304.628906 L 93.652344 303.082031 L 96.367188 299.5 L 98.976562 293.941406 L 101.445312 286.496094 L 103.730469 277.285156 L 105.789062 266.464844 L 107.59375 254.207031 L 109.113281 240.71875 L 110.320312 226.214844 L 111.199219 210.9375 L 111.730469 195.136719 L 111.910156 179.074219 " transform="matrix(1, 0, 0, 1, -60, -6)"/>
</g>
<clipPath id="clip-2">
<rect x="0" y="0" width="447" height="346"/>
</clipPath>
<g id="source-8" clip-path="url(#clip-2)">
<path fill="none" stroke-width="1" stroke-linecap="square" stroke-linejoin="round" stroke="rgb(0%, 50.195312%, 0%)" stroke-opacity="1" stroke-miterlimit="100000" d="M 227.75 179.074219 L 227.582031 163.339844 L 227.082031 147.863281 L 226.261719 132.902344 L 225.125 118.695312 L 223.703125 105.484375 L 222.007812 93.480469 L 220.074219 82.878906 L 217.933594 73.859375 L 215.617188 66.566406 L 213.164062 61.121094 L 210.617188 57.613281 L 208.019531 56.101562 L 205.40625 56.605469 L 202.828125 59.121094 L 200.324219 63.605469 L 197.933594 69.988281 L 195.703125 78.160156 L 193.660156 87.992188 L 191.839844 99.316406 L 190.277344 111.953125 L 188.996094 125.691406 L 188.015625 140.304688 L 187.355469 155.554688 L 187.019531 171.191406 L 187.019531 186.957031 L 187.355469 202.59375 L 188.015625 217.84375 L 188.996094 232.457031 L 190.277344 246.195312 L 191.839844 258.828125 L 193.660156 270.15625 L 195.703125 279.984375 L 197.933594 288.160156 L 200.324219 294.539062 L 202.828125 299.027344 L 205.40625 301.542969 L 208.019531 302.046875 L 210.617188 300.535156 L 213.164062 297.027344 L 215.617188 291.582031 L 217.933594 284.289062 L 220.074219 275.269531 L 222.007812 264.667969 L 223.703125 252.664062 L 225.125 239.449219 L 226.261719 225.246094 L 227.082031 210.28125 L 227.582031 194.808594 L 227.75 179.074219 " transform="matrix(1, 0, 0, 1, -60, -6)"/>
</g>
<clipPath id="clip-3">
<rect x="0" y="0" width="447" height="346"/>
</clipPath>
<g id="source-11" clip-path="url(#clip-3)">
<path fill="none" stroke-width="1" stroke-linecap="square" stroke-linejoin="round" stroke="rgb(100%, 0%, 0%)" stroke-opacity="1" stroke-miterlimit="100000" d="M 329.753906 179.074219 L 329.617188 164.332031 L 329.21875 149.828125 L 328.554688 135.808594 L 327.644531 122.496094 L 326.5 110.117188 L 325.140625 98.867188 L 323.589844 88.933594 L 321.871094 80.480469 L 320.007812 73.648438 L 318.042969 68.546875 L 315.996094 65.257812 L 313.910156 63.839844 L 311.8125 64.3125 L 309.742188 66.671875 L 307.730469 70.875 L 305.8125 76.855469 L 304.019531 84.511719 L 302.378906 93.722656 L 300.921875 104.335938 L 299.667969 116.175781 L 298.636719 129.050781 L 297.851562 142.742188 L 297.316406 157.035156 L 297.050781 171.6875 L 297.050781 186.460938 L 297.316406 201.113281 L 297.851562 215.402344 L 298.636719 229.097656 L 299.667969 241.96875 L 300.921875 253.808594 L 302.378906 264.421875 L 304.019531 273.632812 L 305.8125 281.292969 L 307.730469 287.273438 L 309.742188 291.476562 L 311.8125 293.835938 L 313.910156 294.308594 L 315.996094 292.890625 L 318.042969 289.601562 L 320.007812 284.5 L 321.871094 277.667969 L 323.589844 269.214844 L 325.140625 259.28125 L 326.5 248.03125 L 327.644531 235.648438 L 328.554688 222.339844 L 329.21875 208.320312 L 329.617188 193.816406 L 329.753906 179.074219 " transform="matrix(1, 0, 0, 1, -60, -6)"/>
</g>
<clipPath id="clip-4">
<rect x="0" y="0" width="447" height="346"/>
</clipPath>
<g id="source-14" clip-path="url(#clip-4)">
<path fill="none" stroke-width="1" stroke-linecap="square" stroke-linejoin="round" stroke="rgb(0%, 74.900818%, 74.900818%)" stroke-opacity="1" stroke-miterlimit="100000" d="M 406.757812 179.074219 L 406.675781 165.980469 L 406.441406 153.101562 L 406.050781 140.652344 L 405.511719 128.832031 L 404.835938 117.835938 L 404.03125 107.84375 L 403.113281 99.023438 L 402.097656 91.519531 L 401 85.449219 L 399.835938 80.917969 L 398.628906 78 L 397.394531 76.738281 L 396.15625 77.160156 L 394.933594 79.253906 L 393.742188 82.984375 L 392.609375 88.296875 L 391.550781 95.097656 L 390.582031 103.277344 L 389.71875 112.703125 L 388.976562 123.21875 L 388.371094 134.648438 L 387.90625 146.8125 L 387.589844 159.5 L 387.433594 172.515625 L 387.433594 185.632812 L 387.589844 198.644531 L 387.90625 211.335938 L 388.371094 223.5 L 388.976562 234.929688 L 389.71875 245.445312 L 390.582031 254.867188 L 391.550781 263.050781 L 392.609375 269.851562 L 393.742188 275.160156 L 394.933594 278.894531 L 396.15625 280.988281 L 397.394531 281.410156 L 398.628906 280.148438 L 399.835938 277.230469 L 401 272.699219 L 402.097656 266.628906 L 403.113281 259.125 L 404.03125 250.304688 L 404.835938 240.3125 L 405.511719 229.316406 L 406.050781 217.496094 L 406.441406 205.042969 L 406.675781 192.167969 L 406.757812 179.074219 " transform="matrix(1, 0, 0, 1, -60, -6)"/>
</g>
<clipPath id="clip-5">
<rect x="0" y="0" width="447" height="346"/>
</clipPath>
<g id="source-17" clip-path="url(#clip-5)">
<path fill="none" stroke-width="1" stroke-linecap="square" stroke-linejoin="round" stroke="rgb(74.900818%, 0%, 74.900818%)" stroke-opacity="1" stroke-miterlimit="100000" d="M 447.601562 179.074219 L 447.601562 168.292969 L 447.59375 157.6875 L 447.582031 147.429688 L 447.5625 137.695312 L 447.542969 128.640625 L 447.519531 120.414062 L 447.492188 113.148438 L 447.460938 106.96875 L 447.425781 101.972656 L 447.390625 98.238281 L 447.351562 95.835938 L 447.316406 94.796875 L 447.277344 95.144531 L 447.238281 96.867188 L 447.203125 99.941406 L 447.167969 104.316406 L 447.132812 109.917969 L 447.105469 116.652344 L 447.078125 124.414062 L 447.054688 133.074219 L 447.035156 142.488281 L 447.023438 152.503906 L 447.011719 162.957031 L 447.007812 173.671875 L 447.007812 184.476562 L 447.011719 195.191406 L 447.023438 205.644531 L 447.035156 215.660156 L 447.054688 225.074219 L 447.078125 233.730469 L 447.105469 241.492188 L 447.132812 248.230469 L 447.167969 253.832031 L 447.203125 258.203125 L 447.238281 261.277344 L 447.277344 263.003906 L 447.316406 263.351562 L 447.351562 262.3125 L 447.390625 259.90625 L 447.425781 256.175781 L 447.460938 251.179688 L 447.492188 244.996094 L 447.519531 237.734375 L 447.542969 229.507812 L 447.5625 220.449219 L 447.582031 210.714844 L 447.59375 200.460938 L 447.601562 189.855469 L 447.601562 179.074219 " transform="matrix(1, 0, 0, 1, -60, -6)"/>
</g>
<clipPath id="clip-6">
<path clip-rule="nonzero" d="M 507 355 L 515.527344 355 L 515.527344 367 L 507 367 Z M 507 355 "/>
</clipPath>
<clipPath id="clip-7">
<path clip-rule="nonzero" d="M 279 374 L 284 374 L 284 389.671875 L 279 389.671875 Z M 279 374 "/>
</clipPath>
<clipPath id="clip-8">
<path clip-rule="nonzero" d="M 302 374 L 306 374 L 306 389.671875 L 302 389.671875 Z M 302 374 "/>
</clipPath>
</defs>
<path fill-rule="nonzero" fill="rgb(100%, 100%, 100%)" fill-opacity="1" d="M 60.425781 6.992188 L 506.824219 6.992188 L 506.824219 351.152344 L 60.425781 351.152344 Z M 60.425781 6.992188 "/>
<g clip-path="url(#clip-0)">
<use xlink:href="#source-5" transform="matrix(1, 0, 0, 1, 60, 6)"/>
<use xlink:href="#source-8" transform="matrix(1, 0, 0, 1, 60, 6)"/>
<use xlink:href="#source-11" transform="matrix(1, 0, 0, 1, 60, 6)"/>
<use xlink:href="#source-14" transform="matrix(1, 0, 0, 1, 60, 6)"/>
<use xlink:href="#source-17" transform="matrix(1, 0, 0, 1, 60, 6)"/>
</g>
<path fill="none" stroke-width="1" stroke-linecap="square" stroke-linejoin="miter" stroke="rgb(0%, 0%, 0%)" stroke-opacity="1" stroke-miterlimit="100000" d="M 60.425781 6.992188 L 506.824219 6.992188 "/>
<path fill="none" stroke-width="1" stroke-linecap="square" stroke-linejoin="miter" stroke="rgb(0%, 0%, 0%)" stroke-opacity="1" stroke-miterlimit="100000" d="M 60.425781 351.152344 L 60.425781 6.992188 "/>
<path fill="none" stroke-width="1" stroke-linecap="square" stroke-linejoin="miter" stroke="rgb(0%, 0%, 0%)" stroke-opacity="1" stroke-miterlimit="100000" d="M 60.425781 351.152344 L 506.824219 351.152344 "/>
<path fill="none" stroke-width="1" stroke-linecap="square" stroke-linejoin="miter" stroke="rgb(0%, 0%, 0%)" stroke-opacity="1" stroke-miterlimit="100000" d="M 506.824219 351.152344 L 506.824219 6.992188 "/>
<path fill="none" stroke-width="0.5" stroke-linecap="butt" stroke-linejoin="round" stroke="rgb(0%, 0%, 0%)" stroke-opacity="1" stroke-miterlimit="100000" d="M 90.183594 351.152344 L 90.183594 347.152344 "/>
<path fill="none" stroke-width="0.5" stroke-linecap="butt" stroke-linejoin="round" stroke="rgb(0%, 0%, 0%)" stroke-opacity="1" stroke-miterlimit="100000" d="M 90.183594 6.992188 L 90.183594 10.992188 "/>
<path fill-rule="nonzero" fill="rgb(0%, 0%, 0%)" fill-opacity="1" d="M 90.179688 356.589844 C 89.417969 356.589844 88.847656 356.964844 88.460938 357.714844 C 88.078125 358.464844 87.886719 359.589844 87.886719 361.09375 C 87.886719 362.59375 88.078125 363.71875 88.460938 364.46875 C 88.847656 365.21875 89.417969 365.59375 90.179688 365.59375 C 90.945312 365.59375 91.523438 365.21875 91.90625 364.46875 C 92.289062 363.71875 92.480469 362.59375 92.480469 361.09375 C 92.480469 359.589844 92.289062 358.464844 91.90625 357.714844 C 91.523438 356.964844 90.945312 356.589844 90.179688 356.589844 M 90.179688 355.417969 C 91.40625 355.417969 92.34375 355.902344 92.988281 356.875 C 93.636719 357.84375 93.960938 359.25 93.960938 361.09375 C 93.960938 362.9375 93.636719 364.339844 92.988281 365.3125 C 92.34375 366.28125 91.40625 366.765625 90.179688 366.765625 C 88.953125 366.765625 88.019531 366.28125 87.371094 365.3125 C 86.726562 364.339844 86.402344 362.9375 86.402344 361.09375 C 86.402344 359.25 86.726562 357.84375 87.371094 356.875 C 88.019531 355.902344 88.953125 355.417969 90.179688 355.417969 "/>
<path fill="none" stroke-width="0.5" stroke-linecap="butt" stroke-linejoin="round" stroke="rgb(0%, 0%, 0%)" stroke-opacity="1" stroke-miterlimit="100000" d="M 149.703125 351.152344 L 149.703125 347.152344 "/>
<path fill="none" stroke-width="0.5" stroke-linecap="butt" stroke-linejoin="round" stroke="rgb(0%, 0%, 0%)" stroke-opacity="1" stroke-miterlimit="100000" d="M 149.703125 6.992188 L 149.703125 10.992188 "/>
<path fill-rule="nonzero" fill="rgb(0%, 0%, 0%)" fill-opacity="1" d="M 147.808594 365.308594 L 152.972656 365.308594 L 152.972656 366.550781 L 146.03125 366.550781 L 146.03125 365.308594 C 146.59375 364.726562 147.355469 363.945312 148.324219 362.96875 C 149.296875 361.988281 149.90625 361.355469 150.152344 361.070312 C 150.628906 360.539062 150.957031 360.089844 151.144531 359.722656 C 151.335938 359.351562 151.429688 358.992188 151.429688 358.632812 C 151.429688 358.054688 151.226562 357.578125 150.816406 357.214844 C 150.410156 356.847656 149.878906 356.664062 149.222656 356.664062 C 148.757812 356.664062 148.269531 356.742188 147.753906 356.90625 C 147.238281 357.066406 146.691406 357.308594 146.105469 357.636719 L 146.105469 356.144531 C 146.699219 355.902344 147.253906 355.722656 147.773438 355.601562 C 148.292969 355.480469 148.765625 355.417969 149.195312 355.417969 C 150.328125 355.417969 151.230469 355.703125 151.90625 356.269531 C 152.578125 356.835938 152.914062 357.589844 152.914062 358.539062 C 152.914062 358.988281 152.832031 359.414062 152.660156 359.816406 C 152.496094 360.21875 152.1875 360.695312 151.742188 361.242188 C 151.621094 361.382812 151.234375 361.792969 150.578125 362.46875 C 149.925781 363.144531 149.003906 364.089844 147.808594 365.308594 "/>
<path fill="none" stroke-width="0.5" stroke-linecap="butt" stroke-linejoin="round" stroke="rgb(0%, 0%, 0%)" stroke-opacity="1" stroke-miterlimit="100000" d="M 209.222656 351.152344 L 209.222656 347.152344 "/>
<path fill="none" stroke-width="0.5" stroke-linecap="butt" stroke-linejoin="round" stroke="rgb(0%, 0%, 0%)" stroke-opacity="1" stroke-miterlimit="100000" d="M 209.222656 6.992188 L 209.222656 10.992188 "/>
<path fill-rule="nonzero" fill="rgb(0%, 0%, 0%)" fill-opacity="1" d="M 210.121094 356.90625 L 206.386719 362.742188 L 210.121094 362.742188 Z M 209.734375 355.617188 L 211.59375 355.617188 L 211.59375 362.742188 L 213.15625 362.742188 L 213.15625 363.972656 L 211.59375 363.972656 L 211.59375 366.550781 L 210.121094 366.550781 L 210.121094 363.972656 L 205.1875 363.972656 L 205.1875 362.546875 Z M 209.734375 355.617188 "/>
<path fill="none" stroke-width="0.5" stroke-linecap="butt" stroke-linejoin="round" stroke="rgb(0%, 0%, 0%)" stroke-opacity="1" stroke-miterlimit="100000" d="M 268.746094 351.152344 L 268.746094 347.152344 "/>
<path fill="none" stroke-width="0.5" stroke-linecap="butt" stroke-linejoin="round" stroke="rgb(0%, 0%, 0%)" stroke-opacity="1" stroke-miterlimit="100000" d="M 268.746094 6.992188 L 268.746094 10.992188 "/>
<path fill-rule="nonzero" fill="rgb(0%, 0%, 0%)" fill-opacity="1" d="M 268.925781 360.496094 C 268.261719 360.496094 267.734375 360.722656 267.34375 361.175781 C 266.957031 361.628906 266.765625 362.253906 266.765625 363.042969 C 266.765625 363.828125 266.957031 364.449219 267.34375 364.910156 C 267.734375 365.363281 268.261719 365.59375 268.925781 365.59375 C 269.589844 365.59375 270.113281 365.363281 270.503906 364.910156 C 270.890625 364.449219 271.082031 363.828125 271.082031 363.042969 C 271.082031 362.253906 270.890625 361.628906 270.503906 361.175781 C 270.113281 360.722656 269.589844 360.496094 268.925781 360.496094 M 271.863281 355.855469 L 271.863281 357.203125 C 271.488281 357.03125 271.113281 356.894531 270.738281 356.804688 C 270.359375 356.710938 269.984375 356.664062 269.613281 356.664062 C 268.636719 356.664062 267.890625 356.992188 267.375 357.652344 C 266.859375 358.3125 266.566406 359.308594 266.492188 360.640625 C 266.78125 360.214844 267.140625 359.890625 267.574219 359.664062 C 268.011719 359.4375 268.488281 359.324219 269.011719 359.324219 C 270.109375 359.324219 270.976562 359.65625 271.617188 360.324219 C 272.253906 360.988281 272.570312 361.894531 272.570312 363.042969 C 272.570312 364.167969 272.238281 365.066406 271.574219 365.746094 C 270.910156 366.425781 270.027344 366.765625 268.925781 366.765625 C 267.660156 366.765625 266.691406 366.28125 266.023438 365.3125 C 265.355469 364.339844 265.019531 362.9375 265.019531 361.09375 C 265.019531 359.367188 265.429688 357.988281 266.25 356.960938 C 267.070312 355.933594 268.171875 355.417969 269.554688 355.417969 C 269.925781 355.417969 270.300781 355.457031 270.679688 355.527344 C 271.054688 355.601562 271.449219 355.710938 271.863281 355.855469 "/>
<path fill="none" stroke-width="0.5" stroke-linecap="butt" stroke-linejoin="round" stroke="rgb(0%, 0%, 0%)" stroke-opacity="1" stroke-miterlimit="100000" d="M 328.265625 351.152344 L 328.265625 347.152344 "/>
<path fill="none" stroke-width="0.5" stroke-linecap="butt" stroke-linejoin="round" stroke="rgb(0%, 0%, 0%)" stroke-opacity="1" stroke-miterlimit="100000" d="M 328.265625 6.992188 L 328.265625 10.992188 "/>
<path fill-rule="nonzero" fill="rgb(0%, 0%, 0%)" fill-opacity="1" d="M 328.257812 361.359375 C 327.554688 361.359375 327.003906 361.546875 326.601562 361.921875 C 326.199219 362.300781 325.996094 362.816406 325.996094 363.472656 C 325.996094 364.132812 326.199219 364.652344 326.601562 365.027344 C 327.003906 365.40625 327.554688 365.59375 328.257812 365.59375 C 328.960938 365.59375 329.515625 365.402344 329.921875 365.027344 C 330.328125 364.644531 330.53125 364.128906 330.53125 363.472656 C 330.53125 362.816406 330.328125 362.300781 329.925781 361.921875 C 329.523438 361.546875 328.96875 361.359375 328.257812 361.359375 M 326.78125 360.730469 C 326.144531 360.574219 325.652344 360.277344 325.296875 359.84375 C 324.945312 359.40625 324.765625 358.878906 324.765625 358.253906 C 324.765625 357.378906 325.078125 356.6875 325.699219 356.179688 C 326.324219 355.671875 327.175781 355.417969 328.257812 355.417969 C 329.347656 355.417969 330.203125 355.671875 330.824219 356.179688 C 331.445312 356.6875 331.753906 357.378906 331.753906 358.253906 C 331.753906 358.878906 331.578125 359.40625 331.222656 359.84375 C 330.867188 360.277344 330.378906 360.574219 329.746094 360.730469 C 330.460938 360.894531 331.015625 361.21875 331.410156 361.703125 C 331.808594 362.1875 332.007812 362.777344 332.007812 363.472656 C 332.007812 364.535156 331.6875 365.347656 331.039062 365.917969 C 330.390625 366.480469 329.464844 366.765625 328.257812 366.765625 C 327.054688 366.765625 326.128906 366.480469 325.480469 365.917969 C 324.832031 365.347656 324.507812 364.535156 324.507812 363.472656 C 324.507812 362.777344 324.710938 362.1875 325.109375 361.703125 C 325.511719 361.21875 326.066406 360.894531 326.78125 360.730469 M 326.238281 358.394531 C 326.238281 358.957031 326.414062 359.398438 326.769531 359.71875 C 327.125 360.035156 327.621094 360.191406 328.257812 360.191406 C 328.894531 360.191406 329.390625 360.035156 329.75 359.71875 C 330.109375 359.398438 330.289062 358.957031 330.289062 358.394531 C 330.289062 357.824219 330.109375 357.382812 329.75 357.066406 C 329.390625 356.75 328.894531 356.589844 328.257812 356.589844 C 327.621094 356.589844 327.125 356.75 326.769531 357.066406 C 326.414062 357.382812 326.238281 357.824219 326.238281 358.394531 "/>
<path fill="none" stroke-width="0.5" stroke-linecap="butt" stroke-linejoin="round" stroke="rgb(0%, 0%, 0%)" stroke-opacity="1" stroke-miterlimit="100000" d="M 387.785156 351.152344 L 387.785156 347.152344 "/>
<path fill="none" stroke-width="0.5" stroke-linecap="butt" stroke-linejoin="round" stroke="rgb(0%, 0%, 0%)" stroke-opacity="1" stroke-miterlimit="100000" d="M 387.785156 6.992188 L 387.785156 10.992188 "/>
<path fill-rule="nonzero" fill="rgb(0%, 0%, 0%)" fill-opacity="1" d="M 380.101562 365.308594 L 382.519531 365.308594 L 382.519531 356.964844 L 379.886719 357.492188 L 379.886719 356.144531 L 382.503906 355.617188 L 383.984375 355.617188 L 383.984375 365.308594 L 386.398438 365.308594 L 386.398438 366.550781 L 380.101562 366.550781 Z M 380.101562 365.308594 "/>
<path fill-rule="nonzero" fill="rgb(0%, 0%, 0%)" fill-opacity="1" d="M 392.550781 356.589844 C 391.789062 356.589844 391.21875 356.964844 390.832031 357.714844 C 390.449219 358.464844 390.257812 359.589844 390.257812 361.09375 C 390.257812 362.59375 390.449219 363.71875 390.832031 364.46875 C 391.21875 365.21875 391.789062 365.59375 392.550781 365.59375 C 393.316406 365.59375 393.894531 365.21875 394.277344 364.46875 C 394.660156 363.71875 394.851562 362.59375 394.851562 361.09375 C 394.851562 359.589844 394.660156 358.464844 394.277344 357.714844 C 393.894531 356.964844 393.316406 356.589844 392.550781 356.589844 M 392.550781 355.417969 C 393.777344 355.417969 394.714844 355.902344 395.359375 356.875 C 396.007812 357.84375 396.332031 359.25 396.332031 361.09375 C 396.332031 362.9375 396.007812 364.339844 395.359375 365.3125 C 394.714844 366.28125 393.777344 366.765625 392.550781 366.765625 C 391.324219 366.765625 390.390625 366.28125 389.742188 365.3125 C 389.097656 364.339844 388.773438 362.9375 388.773438 361.09375 C 388.773438 359.25 389.097656 357.84375 389.742188 356.875 C 390.390625 355.902344 391.324219 355.417969 392.550781 355.417969 "/>
<path fill="none" stroke-width="0.5" stroke-linecap="butt" stroke-linejoin="round" stroke="rgb(0%, 0%, 0%)" stroke-opacity="1" stroke-miterlimit="100000" d="M 447.304688 351.152344 L 447.304688 347.152344 "/>
<path fill="none" stroke-width="0.5" stroke-linecap="butt" stroke-linejoin="round" stroke="rgb(0%, 0%, 0%)" stroke-opacity="1" stroke-miterlimit="100000" d="M 447.304688 6.992188 L 447.304688 10.992188 "/>
<path fill-rule="nonzero" fill="rgb(0%, 0%, 0%)" fill-opacity="1" d="M 439.621094 365.308594 L 442.039062 365.308594 L 442.039062 356.964844 L 439.40625 357.492188 L 439.40625 356.144531 L 442.023438 355.617188 L 443.503906 355.617188 L 443.503906 365.308594 L 445.917969 365.308594 L 445.917969 366.550781 L 439.621094 366.550781 Z M 439.621094 365.308594 "/>
<path fill-rule="nonzero" fill="rgb(0%, 0%, 0%)" fill-opacity="1" d="M 450.183594 365.308594 L 455.34375 365.308594 L 455.34375 366.550781 L 448.402344 366.550781 L 448.402344 365.308594 C 448.964844 364.726562 449.730469 363.945312 450.699219 362.96875 C 451.667969 361.988281 452.277344 361.355469 452.527344 361.070312 C 453 360.539062 453.328125 360.089844 453.515625 359.722656 C 453.707031 359.351562 453.800781 358.992188 453.800781 358.632812 C 453.800781 358.054688 453.597656 357.578125 453.1875 357.214844 C 452.78125 356.847656 452.25 356.664062 451.59375 356.664062 C 451.132812 356.664062 450.640625 356.742188 450.125 356.90625 C 449.613281 357.066406 449.0625 357.308594 448.476562 357.636719 L 448.476562 356.144531 C 449.070312 355.902344 449.628906 355.722656 450.144531 355.601562 C 450.664062 355.480469 451.136719 355.417969 451.566406 355.417969 C 452.699219 355.417969 453.601562 355.703125 454.277344 356.269531 C 454.949219 356.835938 455.285156 357.589844 455.285156 358.539062 C 455.285156 358.988281 455.203125 359.414062 455.035156 359.816406 C 454.867188 360.21875 454.558594 360.695312 454.113281 361.242188 C 453.992188 361.382812 453.605469 361.792969 452.949219 362.46875 C 452.296875 363.144531 451.375 364.089844 450.183594 365.308594 "/>
<path fill="none" stroke-width="0.5" stroke-linecap="butt" stroke-linejoin="round" stroke="rgb(0%, 0%, 0%)" stroke-opacity="1" stroke-miterlimit="100000" d="M 506.824219 351.152344 L 506.824219 347.152344 "/>
<path fill="none" stroke-width="0.5" stroke-linecap="butt" stroke-linejoin="round" stroke="rgb(0%, 0%, 0%)" stroke-opacity="1" stroke-miterlimit="100000" d="M 506.824219 6.992188 L 506.824219 10.992188 "/>
<path fill-rule="nonzero" fill="rgb(0%, 0%, 0%)" fill-opacity="1" d="M 499.140625 365.308594 L 501.558594 365.308594 L 501.558594 356.964844 L 498.929688 357.492188 L 498.929688 356.144531 L 501.542969 355.617188 L 503.023438 355.617188 L 503.023438 365.308594 L 505.4375 365.308594 L 505.4375 366.550781 L 499.140625 366.550781 Z M 499.140625 365.308594 "/>
<g clip-path="url(#clip-6)">
<path fill-rule="nonzero" fill="rgb(0%, 0%, 0%)" fill-opacity="1" d="M 512.492188 356.90625 L 508.757812 362.742188 L 512.492188 362.742188 Z M 512.105469 355.617188 L 513.964844 355.617188 L 513.964844 362.742188 L 515.527344 362.742188 L 515.527344 363.972656 L 513.964844 363.972656 L 513.964844 366.550781 L 512.492188 366.550781 L 512.492188 363.972656 L 507.558594 363.972656 L 507.558594 362.546875 Z M 512.105469 355.617188 "/>
</g>
<path fill-rule="nonzero" fill="rgb(0%, 0%, 0%)" fill-opacity="1" d="M 260.507812 385.921875 C 260.410156 385.921875 260.359375 385.855469 260.359375 385.722656 C 260.363281 385.699219 260.375 385.65625 260.386719 385.59375 C 260.402344 385.535156 260.425781 385.484375 260.453125 385.449219 C 260.476562 385.414062 260.511719 385.394531 260.550781 385.394531 C 261.160156 385.394531 261.589844 385.359375 261.832031 385.289062 C 261.957031 385.246094 262.050781 385.113281 262.109375 384.886719 L 264.167969 376.648438 C 264.1875 376.550781 264.199219 376.480469 264.199219 376.441406 C 264.199219 376.335938 264.140625 376.273438 264.023438 376.261719 C 263.832031 376.222656 263.472656 376.203125 262.9375 376.203125 C 262.839844 376.203125 262.792969 376.136719 262.792969 376.003906 C 262.796875 375.980469 262.808594 375.9375 262.820312 375.875 C 262.835938 375.816406 262.855469 375.765625 262.882812 375.730469 C 262.910156 375.691406 262.945312 375.675781 262.984375 375.675781 L 267.53125 375.675781 C 267.890625 375.675781 268.269531 375.714844 268.660156 375.796875 C 269.050781 375.882812 269.410156 376.011719 269.734375 376.191406 C 270.0625 376.367188 270.328125 376.605469 270.539062 376.902344 C 270.75 377.199219 270.855469 377.542969 270.855469 377.9375 C 270.855469 378.441406 270.6875 378.890625 270.355469 379.285156 C 270.023438 379.679688 269.605469 380.011719 269.097656 380.277344 C 268.589844 380.542969 268.097656 380.730469 267.617188 380.835938 C 268.007812 380.980469 268.328125 381.207031 268.578125 381.515625 C 268.828125 381.828125 268.953125 382.183594 268.953125 382.589844 C 268.953125 382.640625 268.949219 382.683594 268.949219 382.710938 C 268.945312 382.738281 268.941406 382.765625 268.9375 382.800781 L 268.820312 384.132812 C 268.808594 384.328125 268.800781 384.496094 268.789062 384.632812 C 268.78125 384.769531 268.777344 384.878906 268.777344 384.960938 C 268.777344 385.234375 268.816406 385.453125 268.894531 385.617188 C 268.976562 385.78125 269.136719 385.863281 269.375 385.863281 C 269.6875 385.863281 269.964844 385.71875 270.199219 385.425781 C 270.4375 385.136719 270.59375 384.820312 270.664062 384.476562 C 270.710938 384.390625 270.757812 384.347656 270.8125 384.347656 L 270.953125 384.347656 C 271.046875 384.347656 271.097656 384.410156 271.097656 384.542969 C 271.023438 384.832031 270.90625 385.105469 270.746094 385.367188 C 270.589844 385.625 270.390625 385.835938 270.148438 386 C 269.90625 386.167969 269.644531 386.25 269.363281 386.25 C 268.777344 386.25 268.277344 386.121094 267.863281 385.859375 C 267.453125 385.597656 267.246094 385.1875 267.246094 384.632812 C 267.246094 384.421875 267.265625 384.238281 267.304688 384.074219 L 267.632812 382.742188 C 267.671875 382.621094 267.691406 382.480469 267.691406 382.316406 C 267.691406 381.902344 267.550781 381.578125 267.269531 381.339844 C 266.988281 381.105469 266.636719 380.984375 266.210938 380.984375 L 264.367188 380.984375 L 263.378906 384.945312 C 263.355469 385.027344 263.339844 385.101562 263.339844 385.160156 C 263.339844 385.261719 263.402344 385.320312 263.523438 385.335938 C 263.714844 385.375 264.074219 385.394531 264.601562 385.394531 C 264.703125 385.394531 264.753906 385.460938 264.753906 385.589844 C 264.71875 385.734375 264.691406 385.824219 264.671875 385.863281 C 264.652344 385.902344 264.597656 385.921875 264.5 385.921875 Z M 264.453125 380.597656 L 266.117188 380.597656 C 267.207031 380.597656 268.027344 380.320312 268.578125 379.769531 C 268.832031 379.515625 269.035156 379.191406 269.183594 378.796875 C 269.332031 378.40625 269.40625 378.011719 269.40625 377.621094 C 269.40625 377.25 269.296875 376.960938 269.078125 376.753906 C 268.863281 376.542969 268.59375 376.398438 268.273438 376.320312 C 267.953125 376.242188 267.601562 376.203125 267.214844 376.203125 L 266.210938 376.203125 C 265.9375 376.203125 265.757812 376.226562 265.667969 376.273438 C 265.582031 376.316406 265.5 376.464844 265.429688 376.714844 Z M 264.453125 380.597656 "/>
<path fill-rule="nonzero" fill="rgb(0%, 0%, 0%)" fill-opacity="1" d="M 274.175781 386.089844 C 273.695312 386.089844 273.277344 385.964844 272.917969 385.71875 C 272.558594 385.46875 272.285156 385.132812 272.097656 384.710938 C 271.910156 384.285156 271.816406 383.839844 271.816406 383.371094 C 271.816406 382.660156 271.996094 381.988281 272.355469 381.363281 C 272.714844 380.734375 273.199219 380.234375 273.8125 379.859375 C 274.429688 379.480469 275.089844 379.292969 275.792969 379.292969 C 276.222656 379.292969 276.597656 379.402344 276.917969 379.625 C 277.238281 379.847656 277.398438 380.167969 277.398438 380.582031 C 277.398438 381.160156 277.167969 381.585938 276.707031 381.867188 C 276.25 382.148438 275.730469 382.320312 275.15625 382.386719 C 274.578125 382.453125 273.941406 382.484375 273.246094 382.484375 L 273.199219 382.484375 C 273.039062 383.082031 272.957031 383.59375 272.957031 384.015625 C 272.957031 384.460938 273.0625 384.851562 273.265625 385.191406 C 273.46875 385.527344 273.78125 385.695312 274.203125 385.695312 C 274.796875 385.695312 275.371094 385.558594 275.917969 385.285156 C 276.46875 385.011719 276.917969 384.632812 277.265625 384.148438 C 277.292969 384.121094 277.332031 384.105469 277.382812 384.105469 C 277.429688 384.105469 277.480469 384.132812 277.53125 384.1875 C 277.582031 384.246094 277.609375 384.296875 277.609375 384.347656 C 277.609375 384.386719 277.597656 384.414062 277.582031 384.433594 C 277.214844 384.949219 276.71875 385.351562 276.097656 385.648438 C 275.480469 385.941406 274.839844 386.089844 274.175781 386.089844 M 273.285156 382.097656 C 273.867188 382.097656 274.40625 382.070312 274.898438 382.019531 C 275.394531 381.964844 275.839844 381.828125 276.238281 381.609375 C 276.640625 381.394531 276.839844 381.054688 276.839844 380.597656 C 276.839844 380.410156 276.789062 380.246094 276.683594 380.109375 C 276.582031 379.96875 276.449219 379.863281 276.285156 379.789062 C 276.121094 379.714844 275.953125 379.679688 275.777344 379.679688 C 275.351562 379.679688 274.972656 379.792969 274.632812 380.023438 C 274.292969 380.253906 274.011719 380.554688 273.792969 380.921875 C 273.574219 381.289062 273.402344 381.683594 273.285156 382.097656 "/>
<g clip-path="url(#clip-7)">
<path fill-rule="nonzero" fill="rgb(0%, 0%, 0%)" fill-opacity="1" d="M 282.777344 389.644531 C 282.222656 389.203125 281.742188 388.699219 281.339844 388.128906 C 280.9375 387.558594 280.609375 386.953125 280.351562 386.308594 C 280.09375 385.664062 279.902344 384.992188 279.777344 384.289062 C 279.648438 383.585938 279.585938 382.878906 279.585938 382.171875 C 279.585938 381.453125 279.648438 380.742188 279.777344 380.039062 C 279.902344 379.335938 280.097656 378.660156 280.359375 378.011719 C 280.621094 377.359375 280.953125 376.753906 281.359375 376.1875 C 281.765625 375.621094 282.238281 375.125 282.777344 374.699219 C 282.777344 374.679688 282.804688 374.671875 282.855469 374.671875 L 282.992188 374.671875 C 283.023438 374.671875 283.046875 374.683594 283.070312 374.710938 C 283.097656 374.738281 283.109375 374.769531 283.109375 374.800781 C 283.109375 374.847656 283.101562 374.878906 283.082031 374.898438 C 282.59375 375.375 282.183594 375.890625 281.859375 376.4375 C 281.535156 376.984375 281.273438 377.566406 281.074219 378.183594 C 280.878906 378.800781 280.734375 379.441406 280.648438 380.105469 C 280.5625 380.765625 280.515625 381.453125 280.515625 382.171875 C 280.515625 385.347656 281.367188 387.765625 283.066406 389.414062 C 283.09375 389.445312 283.109375 389.484375 283.109375 389.539062 C 283.109375 389.5625 283.097656 389.589844 283.070312 389.621094 C 283.042969 389.65625 283.015625 389.671875 282.992188 389.671875 L 282.855469 389.671875 C 282.804688 389.671875 282.777344 389.660156 282.777344 389.644531 "/>
</g>
<path fill-rule="nonzero" fill="rgb(0%, 0%, 0%)" fill-opacity="1" d="M 284.699219 385.921875 C 284.601562 385.921875 284.550781 385.855469 284.550781 385.722656 C 284.554688 385.699219 284.566406 385.65625 284.578125 385.601562 C 284.59375 385.539062 284.613281 385.492188 284.636719 385.453125 C 284.664062 385.414062 284.699219 385.394531 284.75 385.394531 C 285.035156 385.394531 285.28125 385.386719 285.488281 385.371094 C 285.699219 385.355469 285.878906 385.328125 286.023438 385.289062 C 286.140625 385.246094 286.234375 385.113281 286.308594 384.886719 L 288.359375 376.648438 C 288.378906 376.550781 288.390625 376.480469 288.390625 376.441406 C 288.390625 376.335938 288.332031 376.273438 288.214844 376.261719 C 288.023438 376.222656 287.664062 376.203125 287.128906 376.203125 C 287.03125 376.203125 286.984375 376.136719 286.984375 376.003906 C 286.988281 375.980469 287 375.9375 287.011719 375.875 C 287.027344 375.816406 287.050781 375.765625 287.074219 375.730469 C 287.101562 375.691406 287.136719 375.675781 287.175781 375.675781 L 292.550781 375.675781 C 292.878906 375.675781 293.199219 375.714844 293.519531 375.796875 C 293.839844 375.875 294.136719 376.003906 294.40625 376.179688 C 294.675781 376.355469 294.890625 376.574219 295.050781 376.835938 C 295.210938 377.097656 295.289062 377.402344 295.289062 377.746094 C 295.289062 378.121094 295.195312 378.472656 295 378.796875 C 294.808594 379.117188 294.558594 379.398438 294.253906 379.636719 C 293.949219 379.875 293.617188 380.074219 293.261719 380.226562 C 292.910156 380.382812 292.539062 380.496094 292.15625 380.566406 C 292.429688 380.566406 292.703125 380.621094 292.984375 380.730469 C 293.265625 380.835938 293.515625 380.980469 293.738281 381.167969 C 293.957031 381.355469 294.132812 381.578125 294.269531 381.835938 C 294.402344 382.09375 294.46875 382.371094 294.46875 382.667969 C 294.46875 383.269531 294.261719 383.820312 293.839844 384.316406 C 293.417969 384.816406 292.890625 385.207031 292.253906 385.492188 C 291.617188 385.777344 291 385.921875 290.402344 385.921875 Z M 287.460938 385.277344 C 287.460938 385.355469 287.632812 385.394531 287.972656 385.394531 L 290.117188 385.394531 C 290.605469 385.394531 291.074219 385.257812 291.523438 384.988281 C 291.972656 384.714844 292.335938 384.355469 292.605469 383.90625 C 292.875 383.457031 293.011719 382.988281 293.011719 382.5 C 293.011719 382.203125 292.949219 381.921875 292.824219 381.65625 C 292.699219 381.386719 292.519531 381.179688 292.285156 381.023438 C 292.050781 380.871094 291.785156 380.792969 291.480469 380.792969 L 288.558594 380.792969 L 287.519531 384.945312 C 287.480469 385.082031 287.460938 385.195312 287.460938 385.277344 M 288.660156 380.398438 L 290.9375 380.398438 C 291.417969 380.398438 291.882812 380.277344 292.335938 380.035156 C 292.785156 379.789062 293.15625 379.457031 293.4375 379.039062 C 293.726562 378.617188 293.867188 378.171875 293.867188 377.703125 C 293.867188 377.269531 293.730469 376.910156 293.460938 376.628906 C 293.191406 376.34375 292.839844 376.203125 292.410156 376.203125 L 290.351562 376.203125 C 290.082031 376.203125 289.902344 376.226562 289.8125 376.277344 C 289.71875 376.324219 289.640625 376.472656 289.578125 376.714844 Z M 288.660156 380.398438 "/>
<path fill-rule="nonzero" fill="rgb(0%, 0%, 0%)" fill-opacity="1" d="M 295.84375 388.472656 L 295.84375 388.191406 C 295.84375 388.171875 295.847656 388.152344 295.863281 388.132812 L 297.492188 386.328125 C 297.738281 386.0625 297.9375 385.839844 298.089844 385.65625 C 298.246094 385.476562 298.398438 385.269531 298.546875 385.03125 C 298.699219 384.796875 298.816406 384.554688 298.90625 384.3125 C 298.992188 384.066406 299.035156 383.808594 299.035156 383.535156 C 299.035156 383.246094 298.984375 382.972656 298.878906 382.710938 C 298.769531 382.449219 298.613281 382.242188 298.402344 382.082031 C 298.191406 381.925781 297.9375 381.847656 297.640625 381.847656 C 297.335938 381.847656 297.0625 381.9375 296.820312 382.121094 C 296.578125 382.304688 296.40625 382.542969 296.308594 382.832031 C 296.335938 382.824219 296.371094 382.820312 296.421875 382.820312 C 296.578125 382.820312 296.710938 382.875 296.824219 382.980469 C 296.933594 383.085938 296.992188 383.222656 296.992188 383.390625 C 296.992188 383.550781 296.933594 383.6875 296.824219 383.800781 C 296.710938 383.910156 296.578125 383.964844 296.421875 383.964844 C 296.257812 383.964844 296.121094 383.90625 296.007812 383.792969 C 295.898438 383.679688 295.84375 383.546875 295.84375 383.390625 C 295.84375 383.128906 295.890625 382.878906 295.988281 382.652344 C 296.089844 382.421875 296.230469 382.214844 296.417969 382.035156 C 296.605469 381.855469 296.816406 381.71875 297.050781 381.621094 C 297.285156 381.527344 297.53125 381.476562 297.792969 381.476562 C 298.195312 381.476562 298.566406 381.5625 298.910156 381.730469 C 299.257812 381.902344 299.53125 382.140625 299.730469 382.449219 C 299.933594 382.757812 300.035156 383.121094 300.035156 383.535156 C 300.035156 383.839844 299.96875 384.128906 299.835938 384.402344 C 299.703125 384.675781 299.53125 384.921875 299.320312 385.148438 C 299.113281 385.371094 298.847656 385.625 298.523438 385.910156 C 298.199219 386.191406 297.984375 386.382812 297.882812 386.476562 L 296.695312 387.621094 L 297.703125 387.621094 C 298.199219 387.621094 298.613281 387.617188 298.945312 387.609375 C 299.28125 387.601562 299.457031 387.585938 299.476562 387.570312 C 299.558594 387.480469 299.640625 387.15625 299.730469 386.601562 L 300.035156 386.601562 L 299.738281 388.472656 Z M 295.84375 388.472656 "/>
<g clip-path="url(#clip-8)">
<path fill-rule="nonzero" fill="rgb(0%, 0%, 0%)" fill-opacity="1" d="M 302.5 389.671875 C 302.410156 389.671875 302.367188 389.628906 302.367188 389.539062 C 302.367188 389.496094 302.375 389.464844 302.398438 389.445312 C 304.105469 387.773438 304.960938 385.347656 304.960938 382.171875 C 304.960938 378.992188 304.117188 376.578125 302.425781 374.925781 C 302.386719 374.902344 302.367188 374.863281 302.367188 374.800781 C 302.367188 374.769531 302.378906 374.738281 302.40625 374.710938 C 302.433594 374.683594 302.464844 374.671875 302.5 374.671875 L 302.636719 374.671875 C 302.667969 374.671875 302.691406 374.679688 302.710938 374.699219 C 303.429688 375.265625 304.027344 375.957031 304.507812 376.765625 C 304.984375 377.574219 305.335938 378.441406 305.554688 379.359375 C 305.78125 380.277344 305.890625 381.214844 305.890625 382.171875 C 305.890625 382.878906 305.832031 383.574219 305.710938 384.261719 C 305.589844 384.949219 305.398438 385.625 305.140625 386.289062 C 304.878906 386.957031 304.546875 387.570312 304.148438 388.136719 C 303.746094 388.699219 303.269531 389.203125 302.710938 389.644531 C 302.691406 389.660156 302.667969 389.671875 302.636719 389.671875 Z M 302.5 389.671875 "/>
</g>
<path fill="none" stroke-width="0.5" stroke-linecap="butt" stroke-linejoin="round" stroke="rgb(0%, 0%, 0%)" stroke-opacity="1" stroke-miterlimit="100000" d="M 60.425781 351.152344 L 64.425781 351.152344 "/>
<path fill="none" stroke-width="0.5" stroke-linecap="butt" stroke-linejoin="round" stroke="rgb(0%, 0%, 0%)" stroke-opacity="1" stroke-miterlimit="100000" d="M 506.824219 351.152344 L 502.824219 351.152344 "/>
<path fill-rule="nonzero" fill="rgb(0%, 0%, 0%)" fill-opacity="1" d="M 21.589844 349.96875 L 30.976562 349.96875 L 30.976562 351.210938 L 21.589844 351.210938 Z M 21.589844 349.96875 "/>
<path fill-rule="nonzero" fill="rgb(0%, 0%, 0%)" fill-opacity="1" d="M 34.429688 354.046875 L 36.84375 354.046875 L 36.84375 345.703125 L 34.214844 346.230469 L 34.214844 344.882812 L 36.832031 344.355469 L 38.308594 344.355469 L 38.308594 354.046875 L 40.726562 354.046875 L 40.726562 355.292969 L 34.429688 355.292969 Z M 34.429688 354.046875 "/>
<path fill-rule="nonzero" fill="rgb(0%, 0%, 0%)" fill-opacity="1" d="M 43.714844 353.433594 L 45.261719 353.433594 L 45.261719 355.292969 L 43.714844 355.292969 Z M 43.714844 353.433594 "/>
<path fill-rule="nonzero" fill="rgb(0%, 0%, 0%)" fill-opacity="1" d="M 51.648438 345.332031 C 50.886719 345.332031 50.3125 345.707031 49.929688 346.457031 C 49.546875 347.207031 49.355469 348.332031 49.355469 349.835938 C 49.355469 351.335938 49.546875 352.460938 49.929688 353.210938 C 50.3125 353.960938 50.886719 354.335938 51.648438 354.335938 C 52.414062 354.335938 52.988281 353.960938 53.371094 353.210938 C 53.757812 352.460938 53.949219 351.335938 53.949219 349.835938 C 53.949219 348.332031 53.757812 347.207031 53.371094 346.457031 C 52.988281 345.707031 52.414062 345.332031 51.648438 345.332031 M 51.648438 344.160156 C 52.875 344.160156 53.808594 344.644531 54.457031 345.617188 C 55.105469 346.585938 55.425781 347.992188 55.425781 349.835938 C 55.425781 351.675781 55.105469 353.082031 54.457031 354.054688 C 53.808594 355.023438 52.875 355.507812 51.648438 355.507812 C 50.421875 355.507812 49.484375 355.023438 48.839844 354.054688 C 48.191406 353.082031 47.867188 351.675781 47.867188 349.835938 C 47.867188 347.992188 48.191406 346.585938 48.839844 345.617188 C 49.484375 344.644531 50.421875 344.160156 51.648438 344.160156 "/>
<path fill="none" stroke-width="0.5" stroke-linecap="butt" stroke-linejoin="round" stroke="rgb(0%, 0%, 0%)" stroke-opacity="1" stroke-miterlimit="100000" d="M 60.425781 265.113281 L 64.425781 265.113281 "/>
<path fill="none" stroke-width="0.5" stroke-linecap="butt" stroke-linejoin="round" stroke="rgb(0%, 0%, 0%)" stroke-opacity="1" stroke-miterlimit="100000" d="M 506.824219 265.113281 L 502.824219 265.113281 "/>
<path fill-rule="nonzero" fill="rgb(0%, 0%, 0%)" fill-opacity="1" d="M 21.589844 263.929688 L 30.976562 263.929688 L 30.976562 265.171875 L 21.589844 265.171875 Z M 21.589844 263.929688 "/>
<path fill-rule="nonzero" fill="rgb(0%, 0%, 0%)" fill-opacity="1" d="M 37.335938 259.292969 C 36.574219 259.292969 36 259.667969 35.617188 260.417969 C 35.234375 261.164062 35.042969 262.292969 35.042969 263.796875 C 35.042969 265.296875 35.234375 266.417969 35.617188 267.167969 C 36 267.917969 36.574219 268.292969 37.335938 268.292969 C 38.101562 268.292969 38.675781 267.917969 39.058594 267.167969 C 39.445312 266.417969 39.636719 265.296875 39.636719 263.796875 C 39.636719 262.292969 39.445312 261.164062 39.058594 260.417969 C 38.675781 259.667969 38.101562 259.292969 37.335938 259.292969 M 37.335938 258.121094 C 38.5625 258.121094 39.5 258.605469 40.144531 259.574219 C 40.792969 260.542969 41.117188 261.953125 41.117188 263.796875 C 41.117188 265.636719 40.792969 267.042969 40.144531 268.011719 C 39.5 268.980469 38.5625 269.464844 37.335938 269.464844 C 36.109375 269.464844 35.175781 268.980469 34.527344 268.011719 C 33.878906 267.042969 33.558594 265.636719 33.558594 263.796875 C 33.558594 261.953125 33.878906 260.542969 34.527344 259.574219 C 35.175781 258.605469 36.109375 258.121094 37.335938 258.121094 "/>
<path fill-rule="nonzero" fill="rgb(0%, 0%, 0%)" fill-opacity="1" d="M 43.714844 267.390625 L 45.261719 267.390625 L 45.261719 269.253906 L 43.714844 269.253906 Z M 43.714844 267.390625 "/>
<path fill-rule="nonzero" fill="rgb(0%, 0%, 0%)" fill-opacity="1" d="M 48.5 258.316406 L 54.308594 258.316406 L 54.308594 259.5625 L 49.855469 259.5625 L 49.855469 262.242188 C 50.066406 262.167969 50.28125 262.113281 50.496094 262.078125 C 50.710938 262.042969 50.925781 262.023438 51.144531 262.023438 C 52.363281 262.023438 53.328125 262.359375 54.042969 263.027344 C 54.757812 263.695312 55.113281 264.601562 55.113281 265.746094 C 55.113281 266.921875 54.746094 267.835938 54.015625 268.488281 C 53.28125 269.140625 52.25 269.464844 50.914062 269.464844 C 50.457031 269.464844 49.988281 269.425781 49.511719 269.347656 C 49.035156 269.269531 48.546875 269.152344 48.039062 268.996094 L 48.039062 267.507812 C 48.476562 267.75 48.929688 267.925781 49.398438 268.042969 C 49.867188 268.160156 50.363281 268.21875 50.886719 268.21875 C 51.730469 268.21875 52.398438 267.996094 52.890625 267.554688 C 53.386719 267.109375 53.632812 266.507812 53.632812 265.746094 C 53.632812 264.984375 53.386719 264.382812 52.890625 263.9375 C 52.398438 263.492188 51.730469 263.269531 50.886719 263.269531 C 50.488281 263.269531 50.09375 263.3125 49.703125 263.402344 C 49.308594 263.488281 48.910156 263.625 48.5 263.8125 Z M 48.5 258.316406 "/>
<path fill="none" stroke-width="0.5" stroke-linecap="butt" stroke-linejoin="round" stroke="rgb(0%, 0%, 0%)" stroke-opacity="1" stroke-miterlimit="100000" d="M 60.425781 179.074219 L 64.425781 179.074219 "/>
<path fill="none" stroke-width="0.5" stroke-linecap="butt" stroke-linejoin="round" stroke="rgb(0%, 0%, 0%)" stroke-opacity="1" stroke-miterlimit="100000" d="M 506.824219 179.074219 L 502.824219 179.074219 "/>
<path fill-rule="nonzero" fill="rgb(0%, 0%, 0%)" fill-opacity="1" d="M 37.335938 173.25 C 36.574219 173.25 36.003906 173.625 35.617188 174.375 C 35.234375 175.125 35.042969 176.25 35.042969 177.757812 C 35.042969 179.253906 35.234375 180.378906 35.617188 181.128906 C 36.003906 181.878906 36.574219 182.253906 37.335938 182.253906 C 38.105469 182.253906 38.679688 181.878906 39.0625 181.128906 C 39.445312 180.378906 39.636719 179.253906 39.636719 177.757812 C 39.636719 176.25 39.445312 175.125 39.0625 174.375 C 38.679688 173.625 38.105469 173.25 37.335938 173.25 M 37.335938 172.078125 C 38.5625 172.078125 39.5 172.566406 40.148438 173.535156 C 40.792969 174.503906 41.117188 175.910156 41.117188 177.757812 C 41.117188 179.597656 40.792969 181.003906 40.148438 181.972656 C 39.5 182.941406 38.5625 183.425781 37.335938 183.425781 C 36.113281 183.425781 35.175781 182.941406 34.527344 181.972656 C 33.882812 181.003906 33.558594 179.597656 33.558594 177.757812 C 33.558594 175.910156 33.882812 174.503906 34.527344 173.535156 C 35.175781 172.566406 36.113281 172.078125 37.335938 172.078125 "/>
<path fill-rule="nonzero" fill="rgb(0%, 0%, 0%)" fill-opacity="1" d="M 43.714844 181.351562 L 45.261719 181.351562 L 45.261719 183.210938 L 43.714844 183.210938 Z M 43.714844 181.351562 "/>
<path fill-rule="nonzero" fill="rgb(0%, 0%, 0%)" fill-opacity="1" d="M 51.648438 173.25 C 50.886719 173.25 50.316406 173.625 49.929688 174.375 C 49.546875 175.125 49.355469 176.25 49.355469 177.757812 C 49.355469 179.253906 49.546875 180.378906 49.929688 181.128906 C 50.316406 181.878906 50.886719 182.253906 51.648438 182.253906 C 52.414062 182.253906 52.992188 181.878906 53.375 181.128906 C 53.757812 180.378906 53.949219 179.253906 53.949219 177.757812 C 53.949219 176.25 53.757812 175.125 53.375 174.375 C 52.992188 173.625 52.414062 173.25 51.648438 173.25 M 51.648438 172.078125 C 52.875 172.078125 53.8125 172.566406 54.457031 173.535156 C 55.105469 174.503906 55.429688 175.910156 55.429688 177.757812 C 55.429688 179.597656 55.105469 181.003906 54.457031 181.972656 C 53.8125 182.941406 52.875 183.425781 51.648438 183.425781 C 50.421875 183.425781 49.488281 182.941406 48.839844 181.972656 C 48.195312 181.003906 47.871094 179.597656 47.871094 177.757812 C 47.871094 175.910156 48.195312 174.503906 48.839844 173.535156 C 49.488281 172.566406 50.421875 172.078125 51.648438 172.078125 "/>
<path fill="none" stroke-width="0.5" stroke-linecap="butt" stroke-linejoin="round" stroke="rgb(0%, 0%, 0%)" stroke-opacity="1" stroke-miterlimit="100000" d="M 60.425781 93.035156 L 64.425781 93.035156 "/>
<path fill="none" stroke-width="0.5" stroke-linecap="butt" stroke-linejoin="round" stroke="rgb(0%, 0%, 0%)" stroke-opacity="1" stroke-miterlimit="100000" d="M 506.824219 93.035156 L 502.824219 93.035156 "/>
<path fill-rule="nonzero" fill="rgb(0%, 0%, 0%)" fill-opacity="1" d="M 37.335938 87.210938 C 36.574219 87.210938 36.003906 87.585938 35.617188 88.335938 C 35.234375 89.085938 35.042969 90.210938 35.042969 91.714844 C 35.042969 93.214844 35.234375 94.339844 35.617188 95.089844 C 36.003906 95.839844 36.574219 96.214844 37.335938 96.214844 C 38.105469 96.214844 38.679688 95.839844 39.0625 95.089844 C 39.445312 94.339844 39.636719 93.214844 39.636719 91.714844 C 39.636719 90.210938 39.445312 89.085938 39.0625 88.335938 C 38.679688 87.585938 38.105469 87.210938 37.335938 87.210938 M 37.335938 86.039062 C 38.5625 86.039062 39.5 86.523438 40.148438 87.496094 C 40.792969 88.464844 41.117188 89.871094 41.117188 91.714844 C 41.117188 93.558594 40.792969 94.960938 40.148438 95.933594 C 39.5 96.902344 38.5625 97.386719 37.335938 97.386719 C 36.113281 97.386719 35.175781 96.902344 34.527344 95.933594 C 33.882812 94.960938 33.558594 93.558594 33.558594 91.714844 C 33.558594 89.871094 33.882812 88.464844 34.527344 87.496094 C 35.175781 86.523438 36.113281 86.039062 37.335938 86.039062 "/>
<path fill-rule="nonzero" fill="rgb(0%, 0%, 0%)" fill-opacity="1" d="M 43.714844 95.3125 L 45.261719 95.3125 L 45.261719 97.171875 L 43.714844 97.171875 Z M 43.714844 95.3125 "/>
<path fill-rule="nonzero" fill="rgb(0%, 0%, 0%)" fill-opacity="1" d="M 48.5 86.238281 L 54.308594 86.238281 L 54.308594 87.484375 L 49.855469 87.484375 L 49.855469 90.164062 C 50.070312 90.089844 50.285156 90.035156 50.496094 90 C 50.714844 89.960938 50.929688 89.945312 51.144531 89.945312 C 52.363281 89.945312 53.332031 90.277344 54.042969 90.949219 C 54.757812 91.617188 55.113281 92.523438 55.113281 93.664062 C 55.113281 94.839844 54.75 95.753906 54.015625 96.410156 C 53.28125 97.058594 52.25 97.386719 50.917969 97.386719 C 50.457031 97.386719 49.988281 97.347656 49.511719 97.269531 C 49.039062 97.191406 48.546875 97.074219 48.039062 96.917969 L 48.039062 95.429688 C 48.476562 95.667969 48.933594 95.847656 49.402344 95.964844 C 49.871094 96.082031 50.363281 96.140625 50.886719 96.140625 C 51.730469 96.140625 52.402344 95.917969 52.894531 95.472656 C 53.386719 95.03125 53.632812 94.425781 53.632812 93.664062 C 53.632812 92.902344 53.386719 92.300781 52.894531 91.855469 C 52.402344 91.410156 51.730469 91.1875 50.886719 91.1875 C 50.492188 91.1875 50.097656 91.234375 49.703125 91.320312 C 49.3125 91.40625 48.910156 91.542969 48.5 91.730469 Z M 48.5 86.238281 "/>
<path fill="none" stroke-width="0.5" stroke-linecap="butt" stroke-linejoin="round" stroke="rgb(0%, 0%, 0%)" stroke-opacity="1" stroke-miterlimit="100000" d="M 60.425781 6.992188 L 64.425781 6.992188 "/>
<path fill="none" stroke-width="0.5" stroke-linecap="butt" stroke-linejoin="round" stroke="rgb(0%, 0%, 0%)" stroke-opacity="1" stroke-miterlimit="100000" d="M 506.824219 6.992188 L 502.824219 6.992188 "/>
<path fill-rule="nonzero" fill="rgb(0%, 0%, 0%)" fill-opacity="1" d="M 34.429688 9.886719 L 36.847656 9.886719 L 36.847656 1.542969 L 34.21875 2.070312 L 34.21875 0.722656 L 36.832031 0.195312 L 38.3125 0.195312 L 38.3125 9.886719 L 40.726562 9.886719 L 40.726562 11.132812 L 34.429688 11.132812 Z M 34.429688 9.886719 "/>
<path fill-rule="nonzero" fill="rgb(0%, 0%, 0%)" fill-opacity="1" d="M 43.714844 9.273438 L 45.261719 9.273438 L 45.261719 11.132812 L 43.714844 11.132812 Z M 43.714844 9.273438 "/>
<path fill-rule="nonzero" fill="rgb(0%, 0%, 0%)" fill-opacity="1" d="M 51.648438 1.171875 C 50.886719 1.171875 50.316406 1.546875 49.929688 2.296875 C 49.546875 3.046875 49.355469 4.171875 49.355469 5.675781 C 49.355469 7.175781 49.546875 8.300781 49.929688 9.050781 C 50.316406 9.800781 50.886719 10.175781 51.648438 10.175781 C 52.414062 10.175781 52.992188 9.800781 53.375 9.050781 C 53.757812 8.300781 53.949219 7.175781 53.949219 5.675781 C 53.949219 4.171875 53.757812 3.046875 53.375 2.296875 C 52.992188 1.546875 52.414062 1.171875 51.648438 1.171875 M 51.648438 0 C 52.875 0 53.8125 0.484375 54.457031 1.457031 C 55.105469 2.425781 55.429688 3.832031 55.429688 5.675781 C 55.429688 7.515625 55.105469 8.921875 54.457031 9.894531 C 53.8125 10.863281 52.875 11.347656 51.648438 11.347656 C 50.421875 11.347656 49.488281 10.863281 48.839844 9.894531 C 48.195312 8.921875 47.871094 7.515625 47.871094 5.675781 C 47.871094 3.832031 48.195312 2.425781 48.839844 1.457031 C 49.488281 0.484375 50.421875 0 51.648438 0 "/>
<path fill-rule="nonzero" fill="rgb(0%, 0%, 0%)" fill-opacity="1" d="M 11.25 202.96875 C 11.25 203.066406 11.183594 203.117188 11.054688 203.117188 C 10.832031 203.078125 10.722656 203.011719 10.722656 202.921875 C 10.722656 202.332031 10.703125 201.933594 10.664062 201.722656 C 10.609375 201.492188 10.460938 201.351562 10.214844 201.292969 L 1.976562 199.230469 C 1.878906 199.214844 1.816406 199.203125 1.785156 199.203125 C 1.722656 199.203125 1.679688 199.21875 1.652344 199.253906 C 1.625 199.285156 1.601562 199.332031 1.589844 199.402344 C 1.550781 199.601562 1.53125 199.980469 1.53125 200.539062 C 1.53125 200.640625 1.464844 200.691406 1.332031 200.691406 C 1.207031 200.65625 1.117188 200.628906 1.074219 200.609375 C 1.027344 200.589844 1.003906 200.53125 1.003906 200.433594 L 1.003906 196.242188 C 1.003906 196.148438 1.070312 196.097656 1.199219 196.097656 C 1.226562 196.101562 1.265625 196.113281 1.328125 196.128906 C 1.382812 196.144531 1.433594 196.164062 1.472656 196.1875 C 1.511719 196.210938 1.53125 196.246094 1.53125 196.296875 C 1.53125 196.882812 1.550781 197.285156 1.589844 197.511719 C 1.640625 197.730469 1.792969 197.871094 2.042969 197.929688 L 10.273438 199.980469 C 10.398438 200.003906 10.464844 200.015625 10.472656 200.015625 C 10.496094 200.015625 10.519531 200.011719 10.542969 200.003906 C 10.5625 199.996094 10.582031 199.984375 10.601562 199.960938 C 10.617188 199.9375 10.628906 199.917969 10.636719 199.894531 C 10.644531 199.875 10.65625 199.847656 10.664062 199.816406 C 10.703125 199.628906 10.722656 199.25 10.722656 198.675781 C 10.722656 198.578125 10.789062 198.527344 10.917969 198.527344 C 11.0625 198.5625 11.152344 198.589844 11.191406 198.609375 C 11.230469 198.628906 11.25 198.6875 11.25 198.785156 Z M 11.25 202.96875 "/>
<path fill-rule="nonzero" fill="rgb(0%, 0%, 0%)" fill-opacity="1" d="M 10.996094 195.855469 C 10.933594 195.855469 10.890625 195.851562 10.859375 195.84375 L 6.386719 194.722656 C 6.109375 194.648438 5.863281 194.613281 5.652344 194.613281 C 5.222656 194.613281 5.007812 194.757812 5.007812 195.050781 C 5.007812 195.363281 5.195312 195.59375 5.570312 195.746094 C 5.945312 195.898438 6.417969 196.042969 6.988281 196.1875 C 7.015625 196.1875 7.039062 196.203125 7.058594 196.230469 C 7.074219 196.257812 7.082031 196.285156 7.082031 196.3125 L 7.082031 196.488281 C 7.082031 196.519531 7.066406 196.550781 7.027344 196.574219 C 6.992188 196.597656 6.957031 196.609375 6.929688 196.609375 C 6.492188 196.503906 6.125 196.398438 5.824219 196.300781 C 5.519531 196.199219 5.246094 196.042969 4.996094 195.832031 C 4.746094 195.617188 4.621094 195.351562 4.621094 195.035156 C 4.621094 194.660156 4.742188 194.328125 4.976562 194.042969 C 5.214844 193.753906 5.515625 193.609375 5.878906 193.609375 C 5.488281 193.308594 5.183594 192.960938 4.960938 192.5625 C 4.734375 192.160156 4.621094 191.734375 4.621094 191.285156 C 4.621094 190.8125 4.742188 190.402344 4.984375 190.058594 C 5.226562 189.714844 5.570312 189.542969 6.015625 189.542969 C 5.578125 189.234375 5.238281 188.875 4.992188 188.464844 C 4.746094 188.050781 4.621094 187.597656 4.621094 187.113281 C 4.621094 186.59375 4.761719 186.179688 5.042969 185.863281 C 5.324219 185.550781 5.722656 185.390625 6.238281 185.390625 C 6.648438 185.390625 7.144531 185.484375 7.726562 185.664062 C 8.308594 185.847656 8.957031 186.078125 9.675781 186.351562 C 10.023438 186.492188 10.320312 186.5625 10.574219 186.5625 C 10.875 186.5625 11.023438 186.445312 11.023438 186.210938 C 11.023438 185.820312 10.8125 185.496094 10.394531 185.238281 C 9.972656 184.976562 9.523438 184.792969 9.042969 184.6875 C 8.988281 184.660156 8.957031 184.617188 8.957031 184.5625 L 8.957031 184.386719 C 8.957031 184.347656 8.972656 184.3125 8.996094 184.289062 C 9.023438 184.261719 9.054688 184.246094 9.089844 184.246094 C 9.097656 184.246094 9.113281 184.253906 9.132812 184.261719 C 9.699219 184.398438 10.222656 184.636719 10.703125 184.976562 C 11.179688 185.316406 11.417969 185.738281 11.417969 186.246094 C 11.417969 186.597656 11.296875 186.898438 11.054688 187.148438 C 10.8125 187.398438 10.519531 187.523438 10.175781 187.523438 C 9.996094 187.523438 9.800781 187.480469 9.589844 187.398438 C 8.835938 187.113281 8.164062 186.878906 7.574219 186.691406 C 6.980469 186.503906 6.460938 186.410156 6.015625 186.410156 C 5.734375 186.410156 5.496094 186.464844 5.300781 186.578125 C 5.105469 186.691406 5.007812 186.878906 5.007812 187.140625 C 5.007812 187.6875 5.175781 188.160156 5.511719 188.5625 C 5.847656 188.960938 6.289062 189.308594 6.839844 189.601562 C 6.9375 189.621094 7.015625 189.636719 7.070312 189.644531 L 10.917969 190.613281 C 11.058594 190.648438 11.175781 190.726562 11.269531 190.84375 C 11.371094 190.964844 11.417969 191.097656 11.417969 191.242188 C 11.417969 191.359375 11.378906 191.460938 11.300781 191.554688 C 11.222656 191.644531 11.121094 191.6875 10.996094 191.6875 C 10.933594 191.6875 10.890625 191.683594 10.859375 191.675781 L 7.039062 190.714844 C 6.628906 190.613281 6.289062 190.5625 6.015625 190.5625 C 5.734375 190.5625 5.496094 190.621094 5.300781 190.734375 C 5.105469 190.847656 5.007812 191.042969 5.007812 191.316406 C 5.007812 191.683594 5.089844 192.019531 5.253906 192.328125 C 5.414062 192.632812 5.625 192.902344 5.890625 193.132812 C 6.15625 193.363281 6.472656 193.570312 6.839844 193.761719 L 10.917969 194.78125 C 11.058594 194.816406 11.175781 194.890625 11.269531 195.011719 C 11.371094 195.132812 11.417969 195.265625 11.417969 195.410156 C 11.417969 195.53125 11.378906 195.636719 11.300781 195.726562 C 11.222656 195.8125 11.121094 195.855469 10.996094 195.855469 "/>
<path fill-rule="nonzero" fill="rgb(0%, 0%, 0%)" fill-opacity="1" d="M 14.972656 179.195312 C 14.53125 179.75 14.027344 180.230469 13.457031 180.632812 C 12.890625 181.035156 12.28125 181.367188 11.636719 181.625 C 10.992188 181.878906 10.320312 182.070312 9.617188 182.199219 C 8.914062 182.324219 8.207031 182.386719 7.5 182.386719 C 6.78125 182.386719 6.074219 182.324219 5.371094 182.199219 C 4.667969 182.070312 3.988281 181.878906 3.339844 181.617188 C 2.691406 181.355469 2.082031 181.019531 1.515625 180.617188 C 0.949219 180.210938 0.453125 179.734375 0.0273438 179.195312 C 0.0078125 179.195312 0 179.171875 0 179.121094 L 0 178.980469 C 0 178.953125 0.0117188 178.925781 0.0390625 178.902344 C 0.0664062 178.878906 0.0976562 178.863281 0.132812 178.863281 C 0.175781 178.863281 0.207031 178.875 0.226562 178.894531 C 0.707031 179.382812 1.21875 179.789062 1.765625 180.113281 C 2.3125 180.4375 2.894531 180.699219 3.511719 180.898438 C 4.128906 181.097656 4.769531 181.238281 5.433594 181.324219 C 6.09375 181.414062 6.78125 181.457031 7.5 181.457031 C 10.679688 181.457031 13.09375 180.609375 14.746094 178.910156 C 14.773438 178.878906 14.8125 178.863281 14.867188 178.863281 C 14.890625 178.863281 14.917969 178.878906 14.949219 178.90625 C 14.984375 178.929688 15 178.957031 15 178.980469 L 15 179.121094 C 15 179.171875 14.992188 179.195312 14.972656 179.195312 "/>
<path fill-rule="nonzero" fill="rgb(0%, 0%, 0%)" fill-opacity="1" d="M 11.25 177.273438 C 11.25 177.375 11.183594 177.421875 11.054688 177.421875 C 11.027344 177.417969 10.988281 177.410156 10.929688 177.394531 C 10.871094 177.378906 10.820312 177.359375 10.78125 177.335938 C 10.742188 177.3125 10.722656 177.273438 10.722656 177.222656 C 10.722656 176.941406 10.714844 176.695312 10.703125 176.484375 C 10.6875 176.273438 10.660156 176.097656 10.621094 175.949219 C 10.574219 175.832031 10.441406 175.738281 10.214844 175.664062 L 1.976562 173.613281 C 1.878906 173.59375 1.8125 173.582031 1.773438 173.582031 C 1.664062 173.582031 1.601562 173.640625 1.589844 173.757812 C 1.550781 173.949219 1.53125 174.3125 1.53125 174.84375 C 1.53125 174.941406 1.464844 174.988281 1.332031 174.988281 C 1.308594 174.984375 1.265625 174.976562 1.203125 174.960938 C 1.144531 174.945312 1.09375 174.925781 1.058594 174.898438 C 1.023438 174.871094 1.003906 174.839844 1.003906 174.800781 L 1.003906 169.421875 C 1.003906 169.097656 1.042969 168.773438 1.125 168.453125 C 1.203125 168.132812 1.332031 167.835938 1.507812 167.566406 C 1.683594 167.296875 1.902344 167.082031 2.164062 166.921875 C 2.425781 166.761719 2.730469 166.683594 3.074219 166.683594 C 3.453125 166.683594 3.800781 166.78125 4.125 166.972656 C 4.445312 167.167969 4.726562 167.414062 4.964844 167.722656 C 5.207031 168.027344 5.402344 168.355469 5.558594 168.710938 C 5.710938 169.0625 5.824219 169.433594 5.898438 169.820312 C 5.898438 169.546875 5.949219 169.269531 6.058594 168.988281 C 6.164062 168.707031 6.3125 168.457031 6.496094 168.238281 C 6.683594 168.015625 6.90625 167.839844 7.164062 167.707031 C 7.421875 167.570312 7.699219 167.503906 7.996094 167.503906 C 8.597656 167.503906 9.148438 167.714844 9.648438 168.132812 C 10.144531 168.554688 10.535156 169.082031 10.820312 169.722656 C 11.105469 170.359375 11.25 170.976562 11.25 171.570312 Z M 10.605469 174.515625 C 10.683594 174.515625 10.722656 174.34375 10.722656 174 L 10.722656 171.855469 C 10.722656 171.367188 10.585938 170.898438 10.316406 170.449219 C 10.046875 170 9.683594 169.640625 9.238281 169.371094 C 8.785156 169.097656 8.316406 168.960938 7.832031 168.960938 C 7.53125 168.960938 7.25 169.023438 6.984375 169.148438 C 6.71875 169.273438 6.507812 169.453125 6.355469 169.6875 C 6.199219 169.921875 6.121094 170.191406 6.121094 170.492188 L 6.121094 173.414062 L 10.273438 174.457031 C 10.414062 174.496094 10.523438 174.515625 10.605469 174.515625 M 5.726562 173.3125 L 5.726562 171.035156 C 5.726562 170.554688 5.605469 170.089844 5.363281 169.640625 C 5.117188 169.1875 4.785156 168.820312 4.367188 168.535156 C 3.945312 168.25 3.5 168.105469 3.03125 168.105469 C 2.597656 168.105469 2.238281 168.242188 1.957031 168.515625 C 1.671875 168.785156 1.53125 169.132812 1.53125 169.5625 L 1.53125 171.621094 C 1.53125 171.890625 1.554688 172.070312 1.605469 172.164062 C 1.652344 172.253906 1.800781 172.332031 2.042969 172.398438 Z M 5.726562 173.3125 "/>
<path fill-rule="nonzero" fill="rgb(0%, 0%, 0%)" fill-opacity="1" d="M 13.800781 166.132812 L 13.519531 166.132812 C 13.5 166.132812 13.484375 166.125 13.464844 166.113281 L 11.660156 164.480469 C 11.390625 164.234375 11.167969 164.035156 10.988281 163.882812 C 10.804688 163.726562 10.597656 163.578125 10.359375 163.425781 C 10.125 163.277344 9.882812 163.15625 9.640625 163.070312 C 9.394531 162.980469 9.136719 162.9375 8.863281 162.9375 C 8.578125 162.9375 8.300781 162.992188 8.039062 163.097656 C 7.78125 163.203125 7.570312 163.359375 7.414062 163.570312 C 7.253906 163.78125 7.175781 164.035156 7.175781 164.332031 C 7.175781 164.636719 7.269531 164.910156 7.453125 165.152344 C 7.632812 165.394531 7.871094 165.566406 8.160156 165.667969 C 8.152344 165.640625 8.152344 165.601562 8.152344 165.554688 C 8.152344 165.394531 8.203125 165.261719 8.308594 165.152344 C 8.414062 165.039062 8.550781 164.984375 8.71875 164.984375 C 8.878906 164.984375 9.015625 165.039062 9.128906 165.152344 C 9.238281 165.261719 9.292969 165.394531 9.292969 165.554688 C 9.292969 165.71875 9.238281 165.855469 9.125 165.964844 C 9.007812 166.078125 8.875 166.132812 8.71875 166.132812 C 8.457031 166.132812 8.210938 166.082031 7.980469 165.984375 C 7.75 165.886719 7.542969 165.742188 7.363281 165.554688 C 7.183594 165.367188 7.046875 165.160156 6.953125 164.925781 C 6.855469 164.691406 6.808594 164.441406 6.808594 164.179688 C 6.808594 163.78125 6.890625 163.40625 7.0625 163.0625 C 7.230469 162.714844 7.46875 162.441406 7.78125 162.242188 C 8.089844 162.039062 8.449219 161.9375 8.863281 161.9375 C 9.167969 161.9375 9.457031 162.003906 9.730469 162.140625 C 10.003906 162.273438 10.253906 162.441406 10.476562 162.652344 C 10.699219 162.859375 10.953125 163.125 11.238281 163.453125 C 11.523438 163.777344 11.710938 163.988281 11.804688 164.089844 L 12.949219 165.28125 L 12.949219 164.273438 C 12.949219 163.777344 12.945312 163.363281 12.9375 163.027344 C 12.929688 162.695312 12.917969 162.519531 12.898438 162.496094 C 12.808594 162.414062 12.488281 162.332031 11.929688 162.246094 L 11.929688 161.9375 L 13.800781 162.234375 Z M 13.800781 166.132812 "/>
<path fill-rule="nonzero" fill="rgb(0%, 0%, 0%)" fill-opacity="1" d="M 15 159.472656 C 15 159.5625 14.957031 159.605469 14.867188 159.605469 C 14.824219 159.605469 14.792969 159.597656 14.773438 159.578125 C 13.101562 157.867188 10.679688 157.011719 7.5 157.011719 C 4.320312 157.011719 1.90625 157.859375 0.253906 159.546875 C 0.230469 159.585938 0.191406 159.605469 0.132812 159.605469 C 0.0976562 159.605469 0.0664062 159.59375 0.0390625 159.566406 C 0.0117188 159.539062 0 159.507812 0 159.472656 L 0 159.335938 C 0 159.304688 0.0078125 159.28125 0.0273438 159.261719 C 0.59375 158.542969 1.285156 157.945312 2.09375 157.46875 C 2.90625 156.988281 3.769531 156.640625 4.6875 156.417969 C 5.605469 156.195312 6.542969 156.082031 7.5 156.082031 C 8.207031 156.082031 8.90625 156.140625 9.589844 156.261719 C 10.277344 156.382812 10.953125 156.574219 11.617188 156.835938 C 12.285156 157.09375 12.902344 157.425781 13.464844 157.824219 C 14.027344 158.226562 14.53125 158.703125 14.972656 159.261719 C 14.992188 159.28125 15 159.304688 15 159.335938 Z M 15 159.472656 "/>
<path fill-rule="nonzero" fill="rgb(0%, 0%, 0%)" fill-opacity="1" d="M 76.277344 36.21875 C 76.199219 36.21875 76.160156 36.164062 76.160156 36.0625 C 76.191406 35.882812 76.242188 35.796875 76.3125 35.796875 C 76.636719 35.796875 76.917969 35.730469 77.15625 35.601562 C 77.390625 35.472656 77.59375 35.273438 77.765625 35.003906 L 77.789062 34.984375 L 82.074219 27.757812 C 82.136719 27.671875 82.210938 27.628906 82.300781 27.628906 L 82.457031 27.628906 C 82.484375 27.628906 82.507812 27.632812 82.53125 27.644531 C 82.554688 27.652344 82.574219 27.667969 82.59375 27.691406 C 82.609375 27.710938 82.617188 27.734375 82.617188 27.757812 L 83.34375 35.507812 C 83.34375 35.542969 83.359375 35.597656 83.394531 35.667969 C 83.476562 35.753906 83.773438 35.796875 84.292969 35.796875 C 84.375 35.796875 84.417969 35.847656 84.417969 35.953125 C 84.390625 36.058594 84.367188 36.128906 84.347656 36.164062 C 84.332031 36.199219 84.285156 36.21875 84.210938 36.21875 L 81.210938 36.21875 C 81.136719 36.21875 81.097656 36.164062 81.097656 36.0625 C 81.144531 35.882812 81.195312 35.796875 81.257812 35.796875 C 81.890625 35.796875 82.226562 35.6875 82.265625 35.472656 L 82.082031 33.492188 L 79.125 33.492188 L 78.164062 35.105469 C 78.105469 35.191406 78.078125 35.289062 78.078125 35.40625 C 78.078125 35.542969 78.144531 35.644531 78.28125 35.707031 C 78.414062 35.765625 78.5625 35.796875 78.726562 35.796875 C 78.804688 35.796875 78.84375 35.847656 78.84375 35.953125 C 78.816406 36.066406 78.792969 36.140625 78.777344 36.171875 C 78.761719 36.203125 78.71875 36.21875 78.644531 36.21875 Z M 79.359375 33.070312 L 82.035156 33.070312 L 81.679688 29.1875 Z M 79.359375 33.070312 "/>
<path fill-rule="nonzero" fill="rgb(0%, 0%, 0%)" fill-opacity="1" d="M 85.519531 38.257812 L 85.519531 37.964844 C 86.21875 37.964844 86.566406 37.875 86.566406 37.695312 L 86.566406 33.289062 C 86.277344 33.425781 85.910156 33.496094 85.46875 33.496094 L 85.46875 33.203125 C 86.15625 33.203125 86.671875 33.023438 87.023438 32.664062 L 87.140625 32.664062 C 87.160156 32.664062 87.179688 32.671875 87.195312 32.6875 C 87.214844 32.703125 87.222656 32.71875 87.222656 32.738281 L 87.222656 37.695312 C 87.222656 37.875 87.574219 37.964844 88.273438 37.964844 L 88.273438 38.257812 Z M 85.519531 38.257812 "/>
<path fill-rule="nonzero" fill="rgb(0%, 0%, 0%)" fill-opacity="1" d="M 94.789062 30.769531 L 102.300781 30.769531 L 102.300781 31.753906 L 94.789062 31.753906 Z M 94.789062 33.160156 L 102.300781 33.160156 L 102.300781 34.15625 L 94.789062 34.15625 Z M 94.789062 33.160156 "/>
<path fill-rule="nonzero" fill="rgb(0%, 0%, 0%)" fill-opacity="1" d="M 111.203125 28.25 C 110.59375 28.25 110.132812 28.550781 109.828125 29.148438 C 109.519531 29.75 109.367188 30.648438 109.367188 31.851562 C 109.367188 33.050781 109.519531 33.953125 109.828125 34.550781 C 110.132812 35.152344 110.59375 35.453125 111.203125 35.453125 C 111.816406 35.453125 112.273438 35.152344 112.582031 34.550781 C 112.890625 33.953125 113.042969 33.050781 113.042969 31.851562 C 113.042969 30.648438 112.890625 29.75 112.582031 29.148438 C 112.273438 28.550781 111.816406 28.25 111.203125 28.25 M 111.203125 27.3125 C 112.183594 27.3125 112.933594 27.699219 113.449219 28.476562 C 113.96875 29.25 114.226562 30.375 114.226562 31.851562 C 114.226562 33.324219 113.96875 34.449219 113.449219 35.226562 C 112.933594 36 112.183594 36.390625 111.203125 36.390625 C 110.222656 36.390625 109.472656 36 108.957031 35.226562 C 108.4375 34.449219 108.179688 33.324219 108.179688 31.851562 C 108.179688 30.375 108.4375 29.25 108.957031 28.476562 C 109.472656 27.699219 110.222656 27.3125 111.203125 27.3125 "/>
<path fill-rule="nonzero" fill="rgb(0%, 0%, 0%)" fill-opacity="1" d="M 116.304688 34.730469 L 117.542969 34.730469 L 117.542969 36.21875 L 116.304688 36.21875 Z M 116.304688 34.730469 "/>
<path fill-rule="nonzero" fill="rgb(0%, 0%, 0%)" fill-opacity="1" d="M 122.652344 28.25 C 122.042969 28.25 121.582031 28.550781 121.277344 29.148438 C 120.96875 29.75 120.816406 30.648438 120.816406 31.851562 C 120.816406 33.050781 120.96875 33.953125 121.277344 34.550781 C 121.582031 35.152344 122.042969 35.453125 122.652344 35.453125 C 123.265625 35.453125 123.722656 35.152344 124.03125 34.550781 C 124.339844 33.953125 124.492188 33.050781 124.492188 31.851562 C 124.492188 30.648438 124.339844 29.75 124.03125 29.148438 C 123.722656 28.550781 123.265625 28.25 122.652344 28.25 M 122.652344 27.3125 C 123.632812 27.3125 124.382812 27.699219 124.898438 28.476562 C 125.417969 29.25 125.675781 30.375 125.675781 31.851562 C 125.675781 33.324219 125.417969 34.449219 124.898438 35.226562 C 124.382812 36 123.632812 36.390625 122.652344 36.390625 C 121.671875 36.390625 120.921875 36 120.40625 35.226562 C 119.886719 34.449219 119.628906 33.324219 119.628906 31.851562 C 119.628906 30.375 119.886719 29.25 120.40625 28.476562 C 120.921875 27.699219 121.671875 27.3125 122.652344 27.3125 "/>
<path fill-rule="nonzero" fill="rgb(0%, 0%, 0%)" fill-opacity="1" d="M 193.433594 38.796875 C 193.351562 38.796875 193.3125 38.746094 193.3125 38.640625 C 193.34375 38.464844 193.394531 38.375 193.464844 38.375 C 193.789062 38.375 194.070312 38.3125 194.308594 38.183594 C 194.542969 38.054688 194.746094 37.855469 194.917969 37.585938 L 194.941406 37.5625 L 199.226562 30.335938 C 199.289062 30.25 199.363281 30.207031 199.453125 30.207031 L 199.613281 30.207031 C 199.636719 30.207031 199.660156 30.214844 199.683594 30.222656 C 199.707031 30.230469 199.726562 30.246094 199.746094 30.269531 C 199.761719 30.292969 199.769531 30.3125 199.769531 30.335938 L 200.496094 38.089844 C 200.496094 38.125 200.515625 38.175781 200.550781 38.246094 C 200.628906 38.332031 200.925781 38.375 201.449219 38.375 C 201.527344 38.375 201.570312 38.429688 201.570312 38.535156 C 201.542969 38.640625 201.519531 38.710938 201.5 38.746094 C 201.484375 38.78125 201.4375 38.796875 201.363281 38.796875 L 198.363281 38.796875 C 198.289062 38.796875 198.253906 38.746094 198.253906 38.640625 C 198.296875 38.464844 198.347656 38.375 198.410156 38.375 C 199.042969 38.375 199.378906 38.269531 199.417969 38.054688 L 199.238281 36.074219 L 196.277344 36.074219 L 195.316406 37.683594 C 195.257812 37.769531 195.230469 37.871094 195.230469 37.984375 C 195.230469 38.125 195.296875 38.226562 195.433594 38.285156 C 195.566406 38.347656 195.71875 38.375 195.878906 38.375 C 195.957031 38.375 195.996094 38.429688 195.996094 38.535156 C 195.96875 38.648438 195.949219 38.71875 195.929688 38.75 C 195.917969 38.78125 195.871094 38.796875 195.796875 38.796875 Z M 196.511719 35.652344 L 199.191406 35.652344 L 198.832031 31.765625 Z M 196.511719 35.652344 "/>
<path fill-rule="nonzero" fill="rgb(0%, 0%, 0%)" fill-opacity="1" d="M 202.671875 40.839844 L 202.671875 40.542969 C 203.371094 40.542969 203.722656 40.453125 203.722656 40.277344 L 203.722656 35.867188 C 203.433594 36.007812 203.066406 36.078125 202.621094 36.078125 L 202.621094 35.78125 C 203.308594 35.78125 203.828125 35.601562 204.175781 35.242188 L 204.296875 35.242188 C 204.3125 35.242188 204.332031 35.25 204.351562 35.265625 C 204.367188 35.28125 204.378906 35.300781 204.378906 35.320312 L 204.378906 40.277344 C 204.378906 40.453125 204.726562 40.542969 205.429688 40.542969 L 205.429688 40.839844 Z M 202.671875 40.839844 "/>
<path fill-rule="nonzero" fill="rgb(0%, 0%, 0%)" fill-opacity="1" d="M 211.941406 33.347656 L 219.453125 33.347656 L 219.453125 34.332031 L 211.941406 34.332031 Z M 211.941406 35.738281 L 219.453125 35.738281 L 219.453125 36.734375 L 211.941406 36.734375 Z M 211.941406 35.738281 "/>
<path fill-rule="nonzero" fill="rgb(0%, 0%, 0%)" fill-opacity="1" d="M 226.03125 37.800781 L 227.960938 37.800781 L 227.960938 31.128906 L 225.859375 31.550781 L 225.859375 30.472656 L 227.953125 30.050781 L 229.132812 30.050781 L 229.132812 37.800781 L 231.066406 37.800781 L 231.066406 38.796875 L 226.03125 38.796875 Z M 226.03125 37.800781 "/>
<path fill-rule="nonzero" fill="rgb(0%, 0%, 0%)" fill-opacity="1" d="M 233.457031 37.308594 L 234.695312 37.308594 L 234.695312 38.796875 L 233.457031 38.796875 Z M 233.457031 37.308594 "/>
<path fill-rule="nonzero" fill="rgb(0%, 0%, 0%)" fill-opacity="1" d="M 239.804688 30.828125 C 239.195312 30.828125 238.738281 31.128906 238.429688 31.730469 C 238.125 32.328125 237.96875 33.230469 237.96875 34.433594 C 237.96875 35.632812 238.125 36.53125 238.429688 37.132812 C 238.738281 37.730469 239.195312 38.03125 239.804688 38.03125 C 240.417969 38.03125 240.878906 37.730469 241.183594 37.132812 C 241.492188 36.53125 241.644531 35.632812 241.644531 34.433594 C 241.644531 33.230469 241.492188 32.328125 241.183594 31.730469 C 240.878906 31.128906 240.417969 30.828125 239.804688 30.828125 M 239.804688 29.890625 C 240.785156 29.890625 241.535156 30.28125 242.050781 31.054688 C 242.570312 31.832031 242.828125 32.957031 242.828125 34.433594 C 242.828125 35.90625 242.570312 37.03125 242.050781 37.804688 C 241.535156 38.582031 240.785156 38.96875 239.804688 38.96875 C 238.824219 38.96875 238.074219 38.582031 237.558594 37.804688 C 237.039062 37.03125 236.78125 35.90625 236.78125 34.433594 C 236.78125 32.957031 237.039062 31.832031 237.558594 31.054688 C 238.074219 30.28125 238.824219 29.890625 239.804688 29.890625 "/>
<path fill-rule="nonzero" fill="rgb(0%, 0%, 0%)" fill-opacity="1" d="M 299.371094 46.539062 C 299.292969 46.539062 299.253906 46.484375 299.253906 46.378906 C 299.285156 46.203125 299.335938 46.117188 299.40625 46.117188 C 299.730469 46.117188 300.011719 46.050781 300.246094 45.921875 C 300.484375 45.792969 300.6875 45.59375 300.859375 45.324219 L 300.882812 45.300781 L 305.164062 38.074219 C 305.226562 37.992188 305.304688 37.949219 305.394531 37.949219 L 305.550781 37.949219 C 305.574219 37.949219 305.597656 37.953125 305.621094 37.964844 C 305.648438 37.972656 305.667969 37.988281 305.683594 38.011719 C 305.703125 38.03125 305.710938 38.054688 305.710938 38.074219 L 306.4375 45.828125 C 306.4375 45.863281 306.453125 45.917969 306.488281 45.988281 C 306.566406 46.074219 306.867188 46.117188 307.386719 46.117188 C 307.46875 46.117188 307.507812 46.167969 307.507812 46.273438 C 307.480469 46.378906 307.460938 46.449219 307.441406 46.484375 C 307.425781 46.519531 307.378906 46.539062 307.304688 46.539062 L 304.304688 46.539062 C 304.230469 46.539062 304.191406 46.484375 304.191406 46.378906 C 304.234375 46.203125 304.289062 46.117188 304.351562 46.117188 C 304.984375 46.117188 305.320312 46.007812 305.359375 45.792969 L 305.175781 43.8125 L 302.21875 43.8125 L 301.257812 45.425781 C 301.199219 45.511719 301.167969 45.609375 301.167969 45.722656 C 301.167969 45.863281 301.238281 45.964844 301.371094 46.027344 C 301.507812 46.085938 301.65625 46.117188 301.820312 46.117188 C 301.898438 46.117188 301.9375 46.167969 301.9375 46.273438 C 301.910156 46.386719 301.886719 46.460938 301.871094 46.492188 C 301.855469 46.523438 301.8125 46.539062 301.738281 46.539062 Z M 302.453125 43.390625 L 305.128906 43.390625 L 304.773438 39.507812 Z M 302.453125 43.390625 "/>
<path fill-rule="nonzero" fill="rgb(0%, 0%, 0%)" fill-opacity="1" d="M 308.609375 48.578125 L 308.609375 48.28125 C 309.3125 48.28125 309.660156 48.195312 309.660156 48.015625 L 309.660156 43.605469 C 309.371094 43.746094 309.003906 43.816406 308.5625 43.816406 L 308.5625 43.519531 C 309.25 43.519531 309.765625 43.34375 310.117188 42.984375 L 310.234375 42.984375 C 310.253906 42.984375 310.273438 42.992188 310.289062 43.007812 C 310.308594 43.023438 310.316406 43.039062 310.316406 43.058594 L 310.316406 48.015625 C 310.316406 48.195312 310.667969 48.28125 311.367188 48.28125 L 311.367188 48.578125 Z M 308.609375 48.578125 "/>
<path fill-rule="nonzero" fill="rgb(0%, 0%, 0%)" fill-opacity="1" d="M 317.882812 41.089844 L 325.394531 41.089844 L 325.394531 42.074219 L 317.882812 42.074219 Z M 317.882812 43.480469 L 325.394531 43.480469 L 325.394531 44.476562 L 317.882812 44.476562 Z M 317.882812 43.480469 "/>
<path fill-rule="nonzero" fill="rgb(0%, 0%, 0%)" fill-opacity="1" d="M 332.78125 45.542969 L 336.914062 45.542969 L 336.914062 46.539062 L 331.359375 46.539062 L 331.359375 45.542969 C 331.808594 45.078125 332.421875 44.453125 333.195312 43.671875 C 333.972656 42.886719 334.460938 42.382812 334.65625 42.152344 C 335.035156 41.730469 335.300781 41.367188 335.449219 41.074219 C 335.601562 40.777344 335.679688 40.488281 335.679688 40.203125 C 335.679688 39.738281 335.515625 39.359375 335.1875 39.066406 C 334.863281 38.773438 334.4375 38.628906 333.914062 38.628906 C 333.542969 38.628906 333.152344 38.691406 332.738281 38.820312 C 332.328125 38.949219 331.886719 39.144531 331.417969 39.40625 L 331.417969 38.210938 C 331.894531 38.019531 332.339844 37.875 332.753906 37.777344 C 333.167969 37.679688 333.546875 37.632812 333.890625 37.632812 C 334.796875 37.632812 335.519531 37.859375 336.058594 38.3125 C 336.597656 38.765625 336.867188 39.371094 336.867188 40.128906 C 336.867188 40.488281 336.800781 40.828125 336.664062 41.152344 C 336.53125 41.472656 336.285156 41.851562 335.929688 42.289062 C 335.832031 42.402344 335.519531 42.730469 334.996094 43.269531 C 334.476562 43.8125 333.738281 44.570312 332.78125 45.542969 "/>
<path fill-rule="nonzero" fill="rgb(0%, 0%, 0%)" fill-opacity="1" d="M 339.398438 45.050781 L 340.636719 45.050781 L 340.636719 46.539062 L 339.398438 46.539062 Z M 339.398438 45.050781 "/>
<path fill-rule="nonzero" fill="rgb(0%, 0%, 0%)" fill-opacity="1" d="M 345.742188 38.570312 C 345.132812 38.570312 344.675781 38.867188 344.367188 39.46875 C 344.0625 40.066406 343.910156 40.96875 343.910156 42.171875 C 343.910156 43.371094 344.0625 44.269531 344.367188 44.871094 C 344.675781 45.472656 345.132812 45.769531 345.742188 45.769531 C 346.355469 45.769531 346.816406 45.472656 347.125 44.871094 C 347.429688 44.269531 347.585938 43.371094 347.585938 42.171875 C 347.585938 40.96875 347.429688 40.066406 347.125 39.46875 C 346.816406 38.867188 346.355469 38.570312 345.742188 38.570312 M 345.742188 37.632812 C 346.726562 37.632812 347.472656 38.019531 347.992188 38.796875 C 348.507812 39.570312 348.769531 40.695312 348.769531 42.171875 C 348.769531 43.644531 348.507812 44.769531 347.992188 45.546875 C 347.472656 46.320312 346.726562 46.707031 345.742188 46.707031 C 344.761719 46.707031 344.015625 46.320312 343.496094 45.546875 C 342.980469 44.769531 342.722656 43.644531 342.722656 42.171875 C 342.722656 40.695312 342.980469 39.570312 343.496094 38.796875 C 344.015625 38.019531 344.761719 37.632812 345.742188 37.632812 "/>
<path fill-rule="nonzero" fill="rgb(0%, 0%, 0%)" fill-opacity="1" d="M 382.9375 59.4375 C 382.859375 59.4375 382.820312 59.382812 382.820312 59.28125 C 382.851562 59.101562 382.902344 59.015625 382.972656 59.015625 C 383.296875 59.015625 383.578125 58.949219 383.8125 58.820312 C 384.050781 58.691406 384.253906 58.492188 384.425781 58.222656 L 384.449219 58.203125 L 388.730469 50.976562 C 388.792969 50.890625 388.871094 50.847656 388.960938 50.847656 L 389.117188 50.847656 C 389.140625 50.847656 389.164062 50.851562 389.1875 50.863281 C 389.210938 50.871094 389.234375 50.886719 389.25 50.910156 C 389.269531 50.929688 389.277344 50.953125 389.277344 50.976562 L 390.003906 58.726562 C 390.003906 58.761719 390.019531 58.816406 390.054688 58.886719 C 390.132812 58.972656 390.433594 59.015625 390.953125 59.015625 C 391.035156 59.015625 391.074219 59.066406 391.074219 59.171875 C 391.046875 59.277344 391.023438 59.347656 391.007812 59.382812 C 390.988281 59.417969 390.945312 59.4375 390.871094 59.4375 L 387.871094 59.4375 C 387.796875 59.4375 387.757812 59.382812 387.757812 59.28125 C 387.800781 59.101562 387.855469 59.015625 387.917969 59.015625 C 388.550781 59.015625 388.886719 58.90625 388.925781 58.691406 L 388.742188 56.710938 L 385.785156 56.710938 L 384.824219 58.324219 C 384.765625 58.410156 384.734375 58.507812 384.734375 58.625 C 384.734375 58.761719 384.804688 58.863281 384.9375 58.925781 C 385.074219 58.984375 385.222656 59.015625 385.386719 59.015625 C 385.464844 59.015625 385.503906 59.066406 385.503906 59.171875 C 385.476562 59.285156 385.453125 59.359375 385.4375 59.390625 C 385.421875 59.421875 385.378906 59.4375 385.304688 59.4375 Z M 386.019531 56.289062 L 388.695312 56.289062 L 388.339844 52.40625 Z M 386.019531 56.289062 "/>
<path fill-rule="nonzero" fill="rgb(0%, 0%, 0%)" fill-opacity="1" d="M 392.175781 61.476562 L 392.175781 61.183594 C 392.878906 61.183594 393.226562 61.09375 393.226562 60.914062 L 393.226562 56.507812 C 392.9375 56.644531 392.570312 56.714844 392.128906 56.714844 L 392.128906 56.421875 C 392.8125 56.421875 393.332031 56.242188 393.683594 55.882812 L 393.800781 55.882812 C 393.820312 55.882812 393.839844 55.890625 393.855469 55.90625 C 393.875 55.921875 393.882812 55.9375 393.882812 55.957031 L 393.882812 60.914062 C 393.882812 61.09375 394.234375 61.183594 394.933594 61.183594 L 394.933594 61.476562 Z M 392.175781 61.476562 "/>
<path fill-rule="nonzero" fill="rgb(0%, 0%, 0%)" fill-opacity="1" d="M 401.449219 53.988281 L 408.960938 53.988281 L 408.960938 54.972656 L 401.449219 54.972656 Z M 401.449219 56.378906 L 408.960938 56.378906 L 408.960938 57.375 L 401.449219 57.375 Z M 401.449219 56.378906 "/>
<path fill-rule="nonzero" fill="rgb(0%, 0%, 0%)" fill-opacity="1" d="M 418.914062 54.71875 C 419.480469 54.839844 419.925781 55.09375 420.242188 55.476562 C 420.558594 55.859375 420.71875 56.332031 420.71875 56.894531 C 420.71875 57.757812 420.421875 58.425781 419.828125 58.898438 C 419.234375 59.371094 418.390625 59.609375 417.296875 59.609375 C 416.929688 59.609375 416.554688 59.570312 416.164062 59.5 C 415.777344 59.425781 415.375 59.316406 414.960938 59.171875 L 414.960938 58.03125 C 415.289062 58.222656 415.648438 58.367188 416.039062 58.464844 C 416.429688 58.5625 416.835938 58.609375 417.265625 58.609375 C 418.003906 58.609375 418.570312 58.464844 418.960938 58.171875 C 419.347656 57.878906 419.542969 57.453125 419.542969 56.894531 C 419.542969 56.378906 419.363281 55.976562 419 55.683594 C 418.640625 55.394531 418.136719 55.25 417.492188 55.25 L 416.472656 55.25 L 416.472656 54.273438 L 417.539062 54.273438 C 418.121094 54.273438 418.566406 54.160156 418.875 53.925781 C 419.183594 53.695312 419.335938 53.359375 419.335938 52.921875 C 419.335938 52.472656 419.179688 52.128906 418.859375 51.886719 C 418.542969 51.648438 418.085938 51.527344 417.492188 51.527344 C 417.167969 51.527344 416.820312 51.5625 416.449219 51.632812 C 416.078125 51.703125 415.667969 51.8125 415.222656 51.960938 L 415.222656 50.90625 C 415.675781 50.78125 416.09375 50.6875 416.488281 50.625 C 416.878906 50.5625 417.25 50.53125 417.597656 50.53125 C 418.496094 50.53125 419.207031 50.734375 419.730469 51.144531 C 420.253906 51.550781 420.515625 52.101562 420.515625 52.796875 C 420.515625 53.28125 420.375 53.691406 420.097656 54.027344 C 419.820312 54.359375 419.425781 54.589844 418.914062 54.71875 "/>
<path fill-rule="nonzero" fill="rgb(0%, 0%, 0%)" fill-opacity="1" d="M 422.964844 57.949219 L 424.203125 57.949219 L 424.203125 59.4375 L 422.964844 59.4375 Z M 422.964844 57.949219 "/>
<path fill-rule="nonzero" fill="rgb(0%, 0%, 0%)" fill-opacity="1" d="M 429.308594 51.46875 C 428.699219 51.46875 428.242188 51.769531 427.933594 52.367188 C 427.628906 52.96875 427.476562 53.867188 427.476562 55.070312 C 427.476562 56.269531 427.628906 57.171875 427.933594 57.769531 C 428.242188 58.371094 428.699219 58.671875 429.308594 58.671875 C 429.921875 58.671875 430.382812 58.371094 430.691406 57.769531 C 430.996094 57.171875 431.152344 56.269531 431.152344 55.070312 C 431.152344 53.867188 430.996094 52.96875 430.691406 52.367188 C 430.382812 51.769531 429.921875 51.46875 429.308594 51.46875 M 429.308594 50.53125 C 430.289062 50.53125 431.039062 50.917969 431.558594 51.695312 C 432.074219 52.46875 432.332031 53.597656 432.332031 55.070312 C 432.332031 56.542969 432.074219 57.667969 431.558594 58.445312 C 431.039062 59.21875 430.289062 59.609375 429.308594 59.609375 C 428.328125 59.609375 427.582031 59.21875 427.0625 58.445312 C 426.546875 57.667969 426.285156 56.542969 426.285156 55.070312 C 426.285156 53.597656 426.546875 52.46875 427.0625 51.695312 C 427.582031 50.917969 428.328125 50.53125 429.308594 50.53125 "/>
<path fill-rule="nonzero" fill="rgb(0%, 0%, 0%)" fill-opacity="1" d="M 432.96875 77.496094 C 432.890625 77.496094 432.851562 77.445312 432.851562 77.339844 C 432.882812 77.164062 432.933594 77.074219 433.003906 77.074219 C 433.328125 77.074219 433.609375 77.011719 433.847656 76.882812 C 434.082031 76.753906 434.285156 76.554688 434.457031 76.28125 L 434.480469 76.261719 L 438.765625 69.035156 C 438.828125 68.949219 438.902344 68.90625 438.992188 68.90625 L 439.148438 68.90625 C 439.175781 68.90625 439.199219 68.910156 439.222656 68.921875 C 439.246094 68.929688 439.265625 68.945312 439.285156 68.96875 C 439.300781 68.988281 439.308594 69.011719 439.308594 69.035156 L 440.035156 76.789062 C 440.035156 76.824219 440.050781 76.875 440.085938 76.945312 C 440.167969 77.03125 440.464844 77.074219 440.984375 77.074219 C 441.066406 77.074219 441.109375 77.125 441.109375 77.230469 C 441.082031 77.339844 441.058594 77.410156 441.039062 77.445312 C 441.023438 77.480469 440.976562 77.496094 440.902344 77.496094 L 437.902344 77.496094 C 437.828125 77.496094 437.789062 77.445312 437.789062 77.339844 C 437.835938 77.164062 437.886719 77.074219 437.949219 77.074219 C 438.582031 77.074219 438.917969 76.964844 438.957031 76.75 L 438.773438 74.773438 L 435.816406 74.773438 L 434.855469 76.382812 C 434.796875 76.46875 434.769531 76.570312 434.769531 76.683594 C 434.769531 76.824219 434.835938 76.921875 434.972656 76.984375 C 435.105469 77.042969 435.253906 77.074219 435.417969 77.074219 C 435.496094 77.074219 435.535156 77.125 435.535156 77.230469 C 435.507812 77.34375 435.484375 77.417969 435.46875 77.449219 C 435.453125 77.480469 435.410156 77.496094 435.335938 77.496094 Z M 436.050781 74.351562 L 438.726562 74.351562 L 438.371094 70.464844 Z M 436.050781 74.351562 "/>
<path fill-rule="nonzero" fill="rgb(0%, 0%, 0%)" fill-opacity="1" d="M 442.210938 79.535156 L 442.210938 79.242188 C 442.910156 79.242188 443.261719 79.152344 443.261719 78.976562 L 443.261719 74.566406 C 442.96875 74.707031 442.605469 74.773438 442.160156 74.773438 L 442.160156 74.480469 C 442.847656 74.480469 443.363281 74.300781 443.714844 73.941406 L 443.832031 73.941406 C 443.851562 73.941406 443.871094 73.949219 443.886719 73.964844 C 443.90625 73.980469 443.917969 73.996094 443.917969 74.015625 L 443.917969 78.976562 C 443.917969 79.152344 444.265625 79.242188 444.964844 79.242188 L 444.964844 79.535156 Z M 442.210938 79.535156 "/>
<path fill-rule="nonzero" fill="rgb(0%, 0%, 0%)" fill-opacity="1" d="M 451.480469 72.046875 L 458.992188 72.046875 L 458.992188 73.03125 L 451.480469 73.03125 Z M 451.480469 74.4375 L 458.992188 74.4375 L 458.992188 75.433594 L 451.480469 75.433594 Z M 451.480469 74.4375 "/>
<path fill-rule="nonzero" fill="rgb(0%, 0%, 0%)" fill-opacity="1" d="M 468.613281 69.777344 L 465.625 74.449219 L 468.613281 74.449219 Z M 468.304688 68.746094 L 469.792969 68.746094 L 469.792969 74.449219 L 471.039062 74.449219 L 471.039062 75.433594 L 469.792969 75.433594 L 469.792969 77.496094 L 468.613281 77.496094 L 468.613281 75.433594 L 464.664062 75.433594 L 464.664062 74.292969 Z M 468.304688 68.746094 "/>
<path fill-rule="nonzero" fill="rgb(0%, 0%, 0%)" fill-opacity="1" d="M 472.996094 76.007812 L 474.234375 76.007812 L 474.234375 77.496094 L 472.996094 77.496094 Z M 472.996094 76.007812 "/>
<path fill-rule="nonzero" fill="rgb(0%, 0%, 0%)" fill-opacity="1" d="M 479.34375 69.527344 C 478.734375 69.527344 478.273438 69.828125 477.96875 70.425781 C 477.660156 71.027344 477.507812 71.925781 477.507812 73.132812 C 477.507812 74.328125 477.660156 75.230469 477.96875 75.828125 C 478.273438 76.429688 478.734375 76.730469 479.34375 76.730469 C 479.957031 76.730469 480.414062 76.429688 480.722656 75.828125 C 481.03125 75.230469 481.183594 74.328125 481.183594 73.132812 C 481.183594 71.925781 481.03125 71.027344 480.722656 70.425781 C 480.414062 69.828125 479.957031 69.527344 479.34375 69.527344 M 479.34375 68.589844 C 480.324219 68.589844 481.074219 68.976562 481.589844 69.753906 C 482.109375 70.527344 482.367188 71.65625 482.367188 73.132812 C 482.367188 74.605469 482.109375 75.726562 481.589844 76.503906 C 481.074219 77.277344 480.324219 77.667969 479.34375 77.667969 C 478.363281 77.667969 477.613281 77.277344 477.097656 76.503906 C 476.578125 75.726562 476.320312 74.605469 476.320312 73.132812 C 476.320312 71.65625 476.578125 70.527344 477.097656 69.753906 C 477.613281 68.976562 478.363281 68.589844 479.34375 68.589844 "/>
</svg>
