<?xml version="1.0" encoding="UTF-8"?>
<svg xmlns="http://www.w3.org/2000/svg" xmlns:xlink="http://www.w3.org/1999/xlink" width="505.033569pt" height="383.808746pt" viewBox="0 0 505.033569 383.808746">
<defs>
<clipPath id="clip-0">
<path clip-rule="nonzero" d="M 50.140625 5.59375 L 496.539062 5.59375 L 496.539062 351.195312 L 50.140625 351.195312 Z M 50.140625 5.59375 "/>
</clipPath>
<clipPath id="clip-1">
<rect x="0" y="0" width="447" height="347"/>
</clipPath>
<g id="source-5" clip-path="url(#clip-1)">
<path fill="none" stroke-width="1" stroke-linecap="square" stroke-linejoin="round" stroke="rgb(0%, 0%, 100%)" stroke-opacity="1" stroke-miterlimit="100000" d="M 359.046875 178.394531 L 357.976562 162.265625 L 354.785156 146.398438 L 349.523438 131.058594 L 342.273438 116.492188 L 333.164062 102.945312 L 322.335938 90.640625 L 309.96875 79.773438 L 296.269531 70.523438 L 281.460938 63.046875 L 265.789062 57.464844 L 249.503906 53.867188 L 232.878906 52.316406 L 216.183594 52.832031 L 199.695312 55.414062 L 183.679688 60.011719 L 168.40625 66.554688 L 154.125 74.933594 L 141.066406 85.011719 L 129.445312 96.625 L 119.457031 109.578125 L 111.257812 123.664062 L 104.992188 138.644531 L 100.753906 154.28125 L 98.617188 170.3125 L 98.617188 186.476562 L 100.753906 202.507812 L 104.992188 218.144531 L 111.257812 233.125 L 119.457031 247.210938 L 129.445312 260.164062 L 141.066406 271.777344 L 154.125 281.855469 L 168.40625 290.234375 L 183.679688 296.777344 L 199.695312 301.375 L 216.183594 303.957031 L 232.878906 304.472656 L 249.503906 302.921875 L 265.789062 299.324219 L 281.460938 293.742188 L 296.269531 286.265625 L 309.96875 277.019531 L 322.335938 266.152344 L 333.164062 253.84375 L 342.273438 240.296875 L 349.523438 225.734375 L 354.785156 210.390625 L 357.976562 194.527344 L 359.046875 178.394531 " transform="matrix(1, 0, 0, 1, -50, -5)"/>
</g>
<clipPath id="clip-2">
<rect x="0" y="0" width="447" height="347"/>
</clipPath>
<g id="source-8" clip-path="url(#clip-2)">
<path fill="none" stroke-width="1" stroke-linecap="square" stroke-linejoin="round" stroke="rgb(0%, 50.195312%, 0%)" stroke-opacity="1" stroke-miterlimit="100000" d="M 351.011719 178.394531 L 350.007812 162.59375 L 347.011719 147.054688 L 342.074219 132.03125 L 335.273438 117.765625 L 326.722656 104.496094 L 316.5625 92.441406 L 304.960938 81.796875 L 292.105469 72.742188 L 278.210938 65.417969 L 263.5 59.949219 L 248.21875 56.425781 L 232.621094 54.90625 L 216.953125 55.414062 L 201.480469 57.941406 L 186.457031 62.445312 L 172.125 68.855469 L 158.722656 77.0625 L 146.46875 86.933594 L 135.5625 98.304688 L 126.191406 110.992188 L 118.5 124.789062 L 112.617188 139.460938 L 108.640625 154.777344 L 106.636719 170.480469 L 106.636719 186.3125 L 108.640625 202.011719 L 112.617188 217.328125 L 118.5 232.003906 L 126.191406 245.796875 L 135.5625 258.484375 L 146.46875 269.859375 L 158.722656 279.730469 L 172.125 287.9375 L 186.457031 294.34375 L 201.480469 298.847656 L 216.953125 301.375 L 232.621094 301.882812 L 248.21875 300.363281 L 263.5 296.839844 L 278.210938 291.371094 L 292.105469 284.050781 L 304.960938 274.992188 L 316.5625 264.347656 L 326.722656 252.292969 L 335.273438 239.023438 L 342.074219 224.761719 L 347.011719 209.734375 L 350.007812 194.195312 L 351.011719 178.394531 " transform="matrix(1, 0, 0, 1, -50, -5)"/>
</g>
<clipPath id="clip-3">
<rect x="0" y="0" width="447" height="347"/>
</clipPath>
<g id="source-11" clip-path="url(#clip-3)">
<path fill="none" stroke-width="1" stroke-linecap="square" stroke-linejoin="round" stroke="rgb(100%, 0%, 0%)" stroke-opacity="1" stroke-miterlimit="100000" d="M 326.90625 178.394531 L 326.101562 163.589844 L 323.695312 149.027344 L 319.730469 134.949219 L 314.269531 121.582031 L 307.40625 109.148438 L 299.246094 97.851562 L 289.929688 87.878906 L 279.609375 79.390625 L 268.453125 72.527344 L 256.640625 67.402344 L 244.375 64.101562 L 231.847656 62.679688 L 219.269531 63.152344 L 206.847656 65.523438 L 194.78125 69.742188 L 183.273438 75.75 L 172.511719 83.4375 L 162.675781 92.6875 L 153.917969 103.347656 L 146.390625 115.234375 L 140.21875 128.160156 L 135.496094 141.914062 L 132.300781 156.261719 L 130.691406 170.976562 L 130.691406 185.8125 L 132.300781 200.527344 L 135.496094 214.878906 L 140.21875 228.628906 L 146.390625 241.554688 L 153.917969 253.445312 L 162.675781 264.101562 L 172.511719 273.351562 L 183.273438 281.042969 L 194.78125 287.046875 L 206.847656 291.269531 L 219.269531 293.636719 L 231.847656 294.113281 L 244.375 292.6875 L 256.640625 289.386719 L 268.453125 284.261719 L 279.609375 277.398438 L 289.929688 268.914062 L 299.246094 258.9375 L 307.40625 247.640625 L 314.269531 235.207031 L 319.730469 221.84375 L 323.695312 207.761719 L 326.101562 193.199219 L 326.90625 178.394531 " transform="matrix(1, 0, 0, 1, -50, -5)"/>
</g>
<clipPath id="clip-4">
<rect x="0" y="0" width="447" height="347"/>
</clipPath>
<g id="source-14" clip-path="url(#clip-4)">
<path fill="none" stroke-width="1" stroke-linecap="square" stroke-linejoin="round" stroke="rgb(0%, 74.900818%, 74.900818%)" stroke-opacity="1" stroke-miterlimit="100000" d="M 286.730469 178.394531 L 286.253906 165.246094 L 284.832031 152.316406 L 282.488281 139.8125 L 279.265625 127.941406 L 275.207031 116.898438 L 270.386719 106.867188 L 264.882812 98.011719 L 258.78125 90.472656 L 252.191406 84.378906 L 245.210938 79.828125 L 237.960938 76.898438 L 230.558594 75.632812 L 223.128906 76.054688 L 215.785156 78.15625 L 208.65625 81.90625 L 201.855469 87.238281 L 195.5 94.066406 L 189.683594 102.28125 L 184.511719 111.746094 L 180.0625 122.304688 L 176.414062 133.785156 L 173.625 145.996094 L 171.738281 158.742188 L 170.785156 171.808594 L 170.785156 184.984375 L 171.738281 198.050781 L 173.625 210.792969 L 176.414062 223.003906 L 180.0625 234.484375 L 184.511719 245.042969 L 189.683594 254.507812 L 195.5 262.722656 L 201.855469 269.550781 L 208.65625 274.882812 L 215.785156 278.632812 L 223.128906 280.734375 L 230.558594 281.15625 L 237.960938 279.894531 L 245.210938 276.960938 L 252.191406 272.410156 L 258.78125 266.316406 L 264.882812 258.78125 L 270.386719 249.921875 L 275.207031 239.890625 L 279.265625 228.847656 L 282.488281 216.976562 L 284.832031 204.476562 L 286.253906 191.542969 L 286.730469 178.394531 " transform="matrix(1, 0, 0, 1, -50, -5)"/>
</g>
<clipPath id="clip-5">
<rect x="0" y="0" width="447" height="347"/>
</clipPath>
<g id="source-17" clip-path="url(#clip-5)">
<path fill="none" stroke-width="1" stroke-linecap="square" stroke-linejoin="round" stroke="rgb(74.900818%, 0%, 74.900818%)" stroke-opacity="1" stroke-miterlimit="100000" d="M 230.484375 178.394531 L 230.46875 167.566406 L 230.425781 156.917969 L 230.355469 146.621094 L 230.253906 136.84375 L 230.128906 127.75 L 229.980469 119.488281 L 229.8125 112.195312 L 229.625 105.988281 L 229.421875 100.96875 L 229.207031 97.222656 L 228.984375 94.808594 L 228.757812 93.765625 L 228.527344 94.113281 L 228.300781 95.847656 L 228.082031 98.933594 L 227.875 103.324219 L 227.679688 108.949219 L 227.5 115.714844 L 227.339844 123.507812 L 227.203125 132.203125 L 227.089844 141.65625 L 227.003906 151.714844 L 226.945312 162.210938 L 226.917969 172.96875 L 226.917969 183.820312 L 226.945312 194.582031 L 227.003906 205.074219 L 227.089844 215.132812 L 227.203125 224.585938 L 227.339844 233.28125 L 227.5 241.074219 L 227.679688 247.839844 L 227.875 253.464844 L 228.082031 257.855469 L 228.300781 260.945312 L 228.527344 262.675781 L 228.757812 263.023438 L 228.984375 261.980469 L 229.207031 259.566406 L 229.421875 255.820312 L 229.625 250.800781 L 229.8125 244.59375 L 229.980469 237.300781 L 230.128906 229.039062 L 230.253906 219.945312 L 230.355469 210.167969 L 230.425781 199.871094 L 230.46875 189.222656 L 230.484375 178.394531 " transform="matrix(1, 0, 0, 1, -50, -5)"/>
</g>
<clipPath id="clip-6">
<path clip-rule="nonzero" d="M 499 355 L 505.035156 355 L 505.035156 365 L 499 365 Z M 499 355 "/>
</clipPath>
<clipPath id="clip-7">
<path clip-rule="nonzero" d="M 267 371 L 271 371 L 271 383.808594 L 267 383.808594 Z M 267 371 "/>
</clipPath>
<clipPath id="clip-8">
<path clip-rule="nonzero" d="M 291 371 L 294 371 L 294 383.808594 L 291 383.808594 Z M 291 371 "/>
</clipPath>
</defs>
<g clip-path="url(#clip-0)">
<use xlink:href="#source-5" transform="matrix(1, 0, 0, 1, 50, 5)"/>
<use xlink:href="#source-8" transform="matrix(1, 0, 0, 1, 50, 5)"/>
<use xlink:href="#source-11" transform="matrix(1, 0, 0, 1, 50, 5)"/>
<use xlink:href="#source-14" transform="matrix(1, 0, 0, 1, 50, 5)"/>
<use xlink:href="#source-17" transform="matrix(1, 0, 0, 1, 50, 5)"/>
</g>
<path fill="none" stroke-width="1" stroke-linecap="square" stroke-linejoin="miter" stroke="rgb(0%, 0%, 0%)" stroke-opacity="1" stroke-miterlimit="100000" d="M 496.539062 351.195312 L 496.539062 5.59375 "/>
<path fill="none" stroke-width="1" stroke-linecap="square" stroke-linejoin="miter" stroke="rgb(0%, 0%, 0%)" stroke-opacity="1" stroke-miterlimit="100000" d="M 50.140625 5.59375 L 496.539062 5.59375 "/>
<path fill="none" stroke-width="1" stroke-linecap="square" stroke-linejoin="miter" stroke="rgb(0%, 0%, 0%)" stroke-opacity="1" stroke-miterlimit="100000" d="M 50.140625 351.195312 L 496.539062 351.195312 "/>
<path fill="none" stroke-width="1" stroke-linecap="square" stroke-linejoin="miter" stroke="rgb(0%, 0%, 0%)" stroke-opacity="1" stroke-miterlimit="100000" d="M 50.140625 351.195312 L 50.140625 5.59375 "/>
<path fill="none" stroke-width="0.5" stroke-linecap="butt" stroke-linejoin="round" stroke="rgb(0%, 0%, 0%)" stroke-opacity="1" stroke-miterlimit="100000" d="M 50.140625 351.195312 L 50.140625 347.195312 "/>
<path fill="none" stroke-width="0.5" stroke-linecap="butt" stroke-linejoin="round" stroke="rgb(0%, 0%, 0%)" stroke-opacity="1" stroke-miterlimit="100000" d="M 50.140625 5.59375 L 50.140625 9.59375 "/>
<path fill-rule="nonzero" fill="rgb(0%, 0%, 0%)" fill-opacity="1" d="M 36.839844 360.054688 L 44.351562 360.054688 L 44.351562 361.046875 L 36.839844 361.046875 Z M 36.839844 360.054688 "/>
<path fill-rule="nonzero" fill="rgb(0%, 0%, 0%)" fill-opacity="1" d="M 47.113281 363.316406 L 49.046875 363.316406 L 49.046875 356.640625 L 46.941406 357.0625 L 46.941406 355.984375 L 49.035156 355.5625 L 50.21875 355.5625 L 50.21875 363.316406 L 52.152344 363.316406 L 52.152344 364.3125 L 47.113281 364.3125 Z M 47.113281 363.316406 "/>
<path fill-rule="nonzero" fill="rgb(0%, 0%, 0%)" fill-opacity="1" d="M 54.542969 362.824219 L 55.777344 362.824219 L 55.777344 364.3125 L 54.542969 364.3125 Z M 54.542969 362.824219 "/>
<path fill-rule="nonzero" fill="rgb(0%, 0%, 0%)" fill-opacity="1" d="M 60.886719 356.34375 C 60.277344 356.34375 59.820312 356.644531 59.511719 357.246094 C 59.207031 357.84375 59.054688 358.746094 59.054688 359.949219 C 59.054688 361.148438 59.207031 362.046875 59.511719 362.644531 C 59.820312 363.246094 60.277344 363.546875 60.886719 363.546875 C 61.5 363.546875 61.960938 363.246094 62.265625 362.644531 C 62.574219 362.046875 62.730469 361.148438 62.730469 359.949219 C 62.730469 358.746094 62.574219 357.84375 62.265625 357.246094 C 61.960938 356.644531 61.5 356.34375 60.886719 356.34375 M 60.886719 355.40625 C 61.867188 355.40625 62.617188 355.796875 63.136719 356.570312 C 63.652344 357.347656 63.910156 358.472656 63.910156 359.949219 C 63.910156 361.421875 63.652344 362.546875 63.136719 363.320312 C 62.617188 364.097656 61.867188 364.484375 60.886719 364.484375 C 59.90625 364.484375 59.160156 364.097656 58.640625 363.320312 C 58.125 362.546875 57.863281 361.421875 57.863281 359.949219 C 57.863281 358.472656 58.125 357.347656 58.640625 356.570312 C 59.160156 355.796875 59.90625 355.40625 60.886719 355.40625 "/>
<path fill="none" stroke-width="0.5" stroke-linecap="butt" stroke-linejoin="round" stroke="rgb(0%, 0%, 0%)" stroke-opacity="1" stroke-miterlimit="100000" d="M 139.417969 351.195312 L 139.417969 347.195312 "/>
<path fill="none" stroke-width="0.5" stroke-linecap="butt" stroke-linejoin="round" stroke="rgb(0%, 0%, 0%)" stroke-opacity="1" stroke-miterlimit="100000" d="M 139.417969 5.59375 L 139.417969 9.59375 "/>
<path fill-rule="nonzero" fill="rgb(0%, 0%, 0%)" fill-opacity="1" d="M 126.121094 360.054688 L 133.632812 360.054688 L 133.632812 361.046875 L 126.121094 361.046875 Z M 126.121094 360.054688 "/>
<path fill-rule="nonzero" fill="rgb(0%, 0%, 0%)" fill-opacity="1" d="M 138.71875 356.34375 C 138.109375 356.34375 137.652344 356.644531 137.34375 357.246094 C 137.039062 357.84375 136.882812 358.746094 136.882812 359.949219 C 136.882812 361.148438 137.039062 362.046875 137.34375 362.644531 C 137.652344 363.246094 138.109375 363.546875 138.71875 363.546875 C 139.332031 363.546875 139.792969 363.246094 140.097656 362.644531 C 140.40625 362.046875 140.558594 361.148438 140.558594 359.949219 C 140.558594 358.746094 140.40625 357.84375 140.097656 357.246094 C 139.792969 356.644531 139.332031 356.34375 138.71875 356.34375 M 138.71875 355.40625 C 139.699219 355.40625 140.449219 355.796875 140.964844 356.570312 C 141.484375 357.347656 141.742188 358.472656 141.742188 359.949219 C 141.742188 361.421875 141.484375 362.546875 140.964844 363.320312 C 140.449219 364.097656 139.699219 364.484375 138.71875 364.484375 C 137.738281 364.484375 136.988281 364.097656 136.472656 363.320312 C 135.953125 362.546875 135.695312 361.421875 135.695312 359.949219 C 135.695312 358.472656 135.953125 357.347656 136.472656 356.570312 C 136.988281 355.796875 137.738281 355.40625 138.71875 355.40625 "/>
<path fill-rule="nonzero" fill="rgb(0%, 0%, 0%)" fill-opacity="1" d="M 143.820312 362.824219 L 145.058594 362.824219 L 145.058594 364.3125 L 143.820312 364.3125 Z M 143.820312 362.824219 "/>
<path fill-rule="nonzero" fill="rgb(0%, 0%, 0%)" fill-opacity="1" d="M 147.648438 355.5625 L 152.296875 355.5625 L 152.296875 356.5625 L 148.734375 356.5625 L 148.734375 358.703125 C 148.902344 358.644531 149.074219 358.601562 149.246094 358.574219 C 149.417969 358.546875 149.589844 358.53125 149.765625 358.53125 C 150.742188 358.53125 151.511719 358.796875 152.082031 359.332031 C 152.65625 359.867188 152.941406 360.59375 152.941406 361.507812 C 152.941406 362.449219 152.648438 363.179688 152.0625 363.703125 C 151.476562 364.222656 150.648438 364.484375 149.582031 364.484375 C 149.214844 364.484375 148.839844 364.453125 148.460938 364.390625 C 148.078125 364.328125 147.6875 364.234375 147.28125 364.109375 L 147.28125 362.917969 C 147.632812 363.109375 147.996094 363.25 148.371094 363.34375 C 148.746094 363.4375 149.140625 363.484375 149.558594 363.484375 C 150.234375 363.484375 150.769531 363.308594 151.164062 362.953125 C 151.558594 362.597656 151.753906 362.117188 151.753906 361.507812 C 151.753906 360.898438 151.558594 360.414062 151.164062 360.0625 C 150.769531 359.703125 150.234375 359.527344 149.558594 359.527344 C 149.242188 359.527344 148.925781 359.5625 148.609375 359.632812 C 148.296875 359.703125 147.976562 359.8125 147.648438 359.960938 Z M 147.648438 355.5625 "/>
<path fill="none" stroke-width="0.5" stroke-linecap="butt" stroke-linejoin="round" stroke="rgb(0%, 0%, 0%)" stroke-opacity="1" stroke-miterlimit="100000" d="M 228.699219 351.195312 L 228.699219 347.195312 "/>
<path fill="none" stroke-width="0.5" stroke-linecap="butt" stroke-linejoin="round" stroke="rgb(0%, 0%, 0%)" stroke-opacity="1" stroke-miterlimit="100000" d="M 228.699219 5.59375 L 228.699219 9.59375 "/>
<path fill-rule="nonzero" fill="rgb(0%, 0%, 0%)" fill-opacity="1" d="M 222.972656 356.34375 C 222.363281 356.34375 221.90625 356.644531 221.597656 357.246094 C 221.289062 357.84375 221.136719 358.746094 221.136719 359.949219 C 221.136719 361.148438 221.289062 362.046875 221.597656 362.644531 C 221.90625 363.246094 222.363281 363.546875 222.972656 363.546875 C 223.585938 363.546875 224.046875 363.246094 224.351562 362.644531 C 224.660156 362.046875 224.8125 361.148438 224.8125 359.949219 C 224.8125 358.746094 224.660156 357.84375 224.351562 357.246094 C 224.046875 356.644531 223.585938 356.34375 222.972656 356.34375 M 222.972656 355.40625 C 223.953125 355.40625 224.703125 355.796875 225.21875 356.570312 C 225.738281 357.347656 225.996094 358.472656 225.996094 359.949219 C 225.996094 361.421875 225.738281 362.546875 225.21875 363.320312 C 224.703125 364.097656 223.953125 364.484375 222.972656 364.484375 C 221.992188 364.484375 221.242188 364.097656 220.726562 363.320312 C 220.207031 362.546875 219.949219 361.421875 219.949219 359.949219 C 219.949219 358.472656 220.207031 357.347656 220.726562 356.570312 C 221.242188 355.796875 221.992188 355.40625 222.972656 355.40625 "/>
<path fill-rule="nonzero" fill="rgb(0%, 0%, 0%)" fill-opacity="1" d="M 228.074219 362.824219 L 229.3125 362.824219 L 229.3125 364.3125 L 228.074219 364.3125 Z M 228.074219 362.824219 "/>
<path fill-rule="nonzero" fill="rgb(0%, 0%, 0%)" fill-opacity="1" d="M 234.421875 356.34375 C 233.8125 356.34375 233.355469 356.644531 233.046875 357.246094 C 232.738281 357.84375 232.585938 358.746094 232.585938 359.949219 C 232.585938 361.148438 232.738281 362.046875 233.046875 362.644531 C 233.355469 363.246094 233.8125 363.546875 234.421875 363.546875 C 235.035156 363.546875 235.496094 363.246094 235.800781 362.644531 C 236.109375 362.046875 236.261719 361.148438 236.261719 359.949219 C 236.261719 358.746094 236.109375 357.84375 235.800781 357.246094 C 235.496094 356.644531 235.035156 356.34375 234.421875 356.34375 M 234.421875 355.40625 C 235.402344 355.40625 236.152344 355.796875 236.667969 356.570312 C 237.1875 357.347656 237.445312 358.472656 237.445312 359.949219 C 237.445312 361.421875 237.1875 362.546875 236.667969 363.320312 C 236.152344 364.097656 235.402344 364.484375 234.421875 364.484375 C 233.441406 364.484375 232.691406 364.097656 232.175781 363.320312 C 231.65625 362.546875 231.398438 361.421875 231.398438 359.949219 C 231.398438 358.472656 231.65625 357.347656 232.175781 356.570312 C 232.691406 355.796875 233.441406 355.40625 234.421875 355.40625 "/>
<path fill="none" stroke-width="0.5" stroke-linecap="butt" stroke-linejoin="round" stroke="rgb(0%, 0%, 0%)" stroke-opacity="1" stroke-miterlimit="100000" d="M 317.980469 351.195312 L 317.980469 347.195312 "/>
<path fill="none" stroke-width="0.5" stroke-linecap="butt" stroke-linejoin="round" stroke="rgb(0%, 0%, 0%)" stroke-opacity="1" stroke-miterlimit="100000" d="M 317.980469 5.59375 L 317.980469 9.59375 "/>
<path fill-rule="nonzero" fill="rgb(0%, 0%, 0%)" fill-opacity="1" d="M 312.25 356.34375 C 311.640625 356.34375 311.183594 356.644531 310.875 357.246094 C 310.570312 357.84375 310.417969 358.746094 310.417969 359.949219 C 310.417969 361.148438 310.570312 362.046875 310.875 362.644531 C 311.183594 363.246094 311.640625 363.546875 312.25 363.546875 C 312.863281 363.546875 313.324219 363.246094 313.632812 362.644531 C 313.9375 362.046875 314.09375 361.148438 314.09375 359.949219 C 314.09375 358.746094 313.9375 357.84375 313.632812 357.246094 C 313.324219 356.644531 312.863281 356.34375 312.25 356.34375 M 312.25 355.40625 C 313.234375 355.40625 313.980469 355.796875 314.5 356.570312 C 315.015625 357.347656 315.277344 358.472656 315.277344 359.949219 C 315.277344 361.421875 315.015625 362.546875 314.5 363.320312 C 313.980469 364.097656 313.234375 364.484375 312.25 364.484375 C 311.269531 364.484375 310.523438 364.097656 310.003906 363.320312 C 309.488281 362.546875 309.230469 361.421875 309.230469 359.949219 C 309.230469 358.472656 309.488281 357.347656 310.003906 356.570312 C 310.523438 355.796875 311.269531 355.40625 312.25 355.40625 "/>
<path fill-rule="nonzero" fill="rgb(0%, 0%, 0%)" fill-opacity="1" d="M 317.355469 362.824219 L 318.59375 362.824219 L 318.59375 364.3125 L 317.355469 364.3125 Z M 317.355469 362.824219 "/>
<path fill-rule="nonzero" fill="rgb(0%, 0%, 0%)" fill-opacity="1" d="M 321.183594 355.5625 L 325.828125 355.5625 L 325.828125 356.5625 L 322.265625 356.5625 L 322.265625 358.703125 C 322.4375 358.644531 322.609375 358.601562 322.78125 358.574219 C 322.953125 358.546875 323.125 358.53125 323.296875 358.53125 C 324.273438 358.53125 325.046875 358.796875 325.617188 359.332031 C 326.1875 359.867188 326.472656 360.59375 326.472656 361.507812 C 326.472656 362.449219 326.179688 363.179688 325.59375 363.703125 C 325.007812 364.222656 324.183594 364.484375 323.117188 364.484375 C 322.746094 364.484375 322.375 364.453125 321.992188 364.390625 C 321.613281 364.328125 321.21875 364.234375 320.8125 364.109375 L 320.8125 362.917969 C 321.164062 363.109375 321.527344 363.25 321.902344 363.34375 C 322.277344 363.4375 322.671875 363.484375 323.089844 363.484375 C 323.765625 363.484375 324.300781 363.308594 324.695312 362.953125 C 325.089844 362.597656 325.289062 362.117188 325.289062 361.507812 C 325.289062 360.898438 325.089844 360.414062 324.695312 360.0625 C 324.300781 359.703125 323.765625 359.527344 323.089844 359.527344 C 322.773438 359.527344 322.460938 359.5625 322.144531 359.632812 C 321.832031 359.703125 321.511719 359.8125 321.183594 359.960938 Z M 321.183594 355.5625 "/>
<path fill="none" stroke-width="0.5" stroke-linecap="butt" stroke-linejoin="round" stroke="rgb(0%, 0%, 0%)" stroke-opacity="1" stroke-miterlimit="100000" d="M 407.257812 351.195312 L 407.257812 347.195312 "/>
<path fill="none" stroke-width="0.5" stroke-linecap="butt" stroke-linejoin="round" stroke="rgb(0%, 0%, 0%)" stroke-opacity="1" stroke-miterlimit="100000" d="M 407.257812 5.59375 L 407.257812 9.59375 "/>
<path fill-rule="nonzero" fill="rgb(0%, 0%, 0%)" fill-opacity="1" d="M 399.207031 363.316406 L 401.140625 363.316406 L 401.140625 356.640625 L 399.035156 357.0625 L 399.035156 355.984375 L 401.128906 355.5625 L 402.3125 355.5625 L 402.3125 363.316406 L 404.246094 363.316406 L 404.246094 364.3125 L 399.207031 364.3125 Z M 399.207031 363.316406 "/>
<path fill-rule="nonzero" fill="rgb(0%, 0%, 0%)" fill-opacity="1" d="M 406.632812 362.824219 L 407.871094 362.824219 L 407.871094 364.3125 L 406.632812 364.3125 Z M 406.632812 362.824219 "/>
<path fill-rule="nonzero" fill="rgb(0%, 0%, 0%)" fill-opacity="1" d="M 412.980469 356.34375 C 412.371094 356.34375 411.914062 356.644531 411.605469 357.246094 C 411.300781 357.84375 411.148438 358.746094 411.148438 359.949219 C 411.148438 361.148438 411.300781 362.046875 411.605469 362.644531 C 411.914062 363.246094 412.371094 363.546875 412.980469 363.546875 C 413.59375 363.546875 414.054688 363.246094 414.359375 362.644531 C 414.667969 362.046875 414.820312 361.148438 414.820312 359.949219 C 414.820312 358.746094 414.667969 357.84375 414.359375 357.246094 C 414.054688 356.644531 413.59375 356.34375 412.980469 356.34375 M 412.980469 355.40625 C 413.960938 355.40625 414.710938 355.796875 415.230469 356.570312 C 415.746094 357.347656 416.003906 358.472656 416.003906 359.949219 C 416.003906 361.421875 415.746094 362.546875 415.230469 363.320312 C 414.710938 364.097656 413.960938 364.484375 412.980469 364.484375 C 412 364.484375 411.25 364.097656 410.734375 363.320312 C 410.214844 362.546875 409.957031 361.421875 409.957031 359.949219 C 409.957031 358.472656 410.214844 357.347656 410.734375 356.570312 C 411.25 355.796875 412 355.40625 412.980469 355.40625 "/>
<path fill="none" stroke-width="0.5" stroke-linecap="butt" stroke-linejoin="round" stroke="rgb(0%, 0%, 0%)" stroke-opacity="1" stroke-miterlimit="100000" d="M 496.539062 351.195312 L 496.539062 347.195312 "/>
<path fill="none" stroke-width="0.5" stroke-linecap="butt" stroke-linejoin="round" stroke="rgb(0%, 0%, 0%)" stroke-opacity="1" stroke-miterlimit="100000" d="M 496.539062 5.59375 L 496.539062 9.59375 "/>
<path fill-rule="nonzero" fill="rgb(0%, 0%, 0%)" fill-opacity="1" d="M 488.484375 363.316406 L 490.417969 363.316406 L 490.417969 356.640625 L 488.316406 357.0625 L 488.316406 355.984375 L 490.40625 355.5625 L 491.589844 355.5625 L 491.589844 363.316406 L 493.523438 363.316406 L 493.523438 364.3125 L 488.484375 364.3125 Z M 488.484375 363.316406 "/>
<path fill-rule="nonzero" fill="rgb(0%, 0%, 0%)" fill-opacity="1" d="M 495.914062 362.824219 L 497.152344 362.824219 L 497.152344 364.3125 L 495.914062 364.3125 Z M 495.914062 362.824219 "/>
<g clip-path="url(#clip-6)">
<path fill-rule="nonzero" fill="rgb(0%, 0%, 0%)" fill-opacity="1" d="M 499.742188 355.5625 L 504.386719 355.5625 L 504.386719 356.5625 L 500.824219 356.5625 L 500.824219 358.703125 C 500.996094 358.644531 501.167969 358.601562 501.339844 358.574219 C 501.511719 358.546875 501.683594 358.53125 501.855469 358.53125 C 502.832031 358.53125 503.605469 358.796875 504.175781 359.332031 C 504.746094 359.867188 505.035156 360.59375 505.035156 361.507812 C 505.035156 362.449219 504.742188 363.179688 504.152344 363.703125 C 503.566406 364.222656 502.742188 364.484375 501.675781 364.484375 C 501.308594 364.484375 500.933594 364.453125 500.550781 364.390625 C 500.171875 364.328125 499.777344 364.234375 499.371094 364.109375 L 499.371094 362.917969 C 499.722656 363.109375 500.085938 363.25 500.460938 363.34375 C 500.835938 363.4375 501.234375 363.484375 501.652344 363.484375 C 502.328125 363.484375 502.863281 363.308594 503.257812 362.953125 C 503.652344 362.597656 503.847656 362.117188 503.847656 361.507812 C 503.847656 360.898438 503.652344 360.414062 503.257812 360.0625 C 502.863281 359.703125 502.328125 359.527344 501.652344 359.527344 C 501.335938 359.527344 501.019531 359.5625 500.703125 359.632812 C 500.390625 359.703125 500.070312 359.8125 499.742188 359.960938 Z M 499.742188 355.5625 "/>
</g>
<path fill-rule="nonzero" fill="rgb(0%, 0%, 0%)" fill-opacity="1" d="M 252.207031 380.808594 C 252.128906 380.808594 252.089844 380.757812 252.089844 380.652344 C 252.09375 380.632812 252.097656 380.597656 252.109375 380.546875 C 252.125 380.5 252.140625 380.460938 252.160156 380.433594 C 252.183594 380.402344 252.207031 380.386719 252.238281 380.386719 C 252.730469 380.386719 253.070312 380.359375 253.265625 380.304688 C 253.367188 380.269531 253.441406 380.160156 253.488281 379.980469 L 255.136719 373.390625 C 255.152344 373.3125 255.160156 373.257812 255.160156 373.226562 C 255.160156 373.140625 255.113281 373.089844 255.019531 373.078125 C 254.867188 373.046875 254.578125 373.03125 254.152344 373.03125 C 254.074219 373.03125 254.035156 372.980469 254.035156 372.875 C 254.039062 372.855469 254.046875 372.820312 254.058594 372.773438 C 254.066406 372.722656 254.085938 372.683594 254.105469 372.65625 C 254.128906 372.625 254.15625 372.609375 254.1875 372.609375 L 257.824219 372.609375 C 258.113281 372.609375 258.414062 372.644531 258.726562 372.710938 C 259.039062 372.777344 259.328125 372.882812 259.589844 373.023438 C 259.847656 373.167969 260.0625 373.355469 260.230469 373.59375 C 260.398438 373.828125 260.484375 374.105469 260.484375 374.421875 C 260.484375 374.824219 260.351562 375.183594 260.085938 375.5 C 259.820312 375.816406 259.484375 376.082031 259.078125 376.292969 C 258.671875 376.507812 258.277344 376.65625 257.894531 376.742188 C 258.207031 376.855469 258.464844 377.035156 258.660156 377.285156 C 258.863281 377.53125 258.960938 377.820312 258.960938 378.140625 C 258.960938 378.183594 258.960938 378.21875 258.957031 378.238281 C 258.957031 378.261719 258.953125 378.285156 258.949219 378.3125 L 258.855469 379.378906 C 258.847656 379.535156 258.839844 379.667969 258.832031 379.777344 C 258.824219 379.886719 258.820312 379.972656 258.820312 380.042969 C 258.820312 380.261719 258.851562 380.4375 258.917969 380.566406 C 258.980469 380.695312 259.109375 380.761719 259.300781 380.761719 C 259.550781 380.761719 259.769531 380.644531 259.960938 380.414062 C 260.148438 380.179688 260.273438 379.925781 260.332031 379.652344 C 260.367188 379.582031 260.40625 379.546875 260.449219 379.546875 L 260.5625 379.546875 C 260.640625 379.546875 260.675781 379.601562 260.675781 379.707031 C 260.617188 379.9375 260.527344 380.15625 260.398438 380.363281 C 260.273438 380.570312 260.113281 380.738281 259.917969 380.871094 C 259.726562 381.007812 259.515625 381.074219 259.289062 381.074219 C 258.820312 381.074219 258.421875 380.96875 258.09375 380.761719 C 257.761719 380.550781 257.597656 380.222656 257.597656 379.777344 C 257.597656 379.609375 257.613281 379.460938 257.644531 379.332031 L 257.90625 378.265625 C 257.9375 378.167969 257.953125 378.054688 257.953125 377.925781 C 257.953125 377.59375 257.839844 377.332031 257.617188 377.144531 C 257.390625 376.953125 257.109375 376.859375 256.769531 376.859375 L 255.292969 376.859375 L 254.503906 380.027344 C 254.484375 380.09375 254.472656 380.152344 254.472656 380.199219 C 254.472656 380.28125 254.523438 380.328125 254.621094 380.339844 C 254.773438 380.371094 255.058594 380.386719 255.480469 380.386719 C 255.5625 380.386719 255.605469 380.4375 255.605469 380.542969 C 255.578125 380.65625 255.554688 380.730469 255.539062 380.761719 C 255.523438 380.792969 255.476562 380.808594 255.398438 380.808594 Z M 255.363281 376.546875 L 256.691406 376.546875 C 257.5625 376.546875 258.21875 376.328125 258.660156 375.886719 C 258.867188 375.683594 259.027344 375.425781 259.144531 375.109375 C 259.265625 374.796875 259.324219 374.480469 259.324219 374.167969 C 259.324219 373.875 259.238281 373.640625 259.0625 373.472656 C 258.890625 373.304688 258.675781 373.1875 258.417969 373.125 C 258.164062 373.0625 257.882812 373.03125 257.574219 373.03125 L 256.769531 373.03125 C 256.550781 373.03125 256.40625 373.050781 256.335938 373.089844 C 256.265625 373.125 256.203125 373.242188 256.144531 373.445312 Z M 255.363281 376.546875 "/>
<path fill-rule="nonzero" fill="rgb(0%, 0%, 0%)" fill-opacity="1" d="M 263.140625 380.945312 C 262.757812 380.945312 262.421875 380.84375 262.132812 380.644531 C 261.847656 380.445312 261.628906 380.175781 261.476562 379.839844 C 261.328125 379.5 261.25 379.144531 261.25 378.769531 C 261.25 378.199219 261.394531 377.664062 261.683594 377.160156 C 261.96875 376.660156 262.359375 376.257812 262.851562 375.957031 C 263.34375 375.65625 263.871094 375.507812 264.433594 375.507812 C 264.777344 375.507812 265.078125 375.59375 265.332031 375.773438 C 265.589844 375.949219 265.71875 376.203125 265.71875 376.539062 C 265.71875 377 265.535156 377.34375 265.167969 377.566406 C 264.800781 377.789062 264.386719 377.929688 263.921875 377.980469 C 263.464844 378.035156 262.953125 378.058594 262.394531 378.058594 L 262.359375 378.058594 C 262.230469 378.539062 262.167969 378.945312 262.167969 379.285156 C 262.167969 379.640625 262.25 379.953125 262.414062 380.222656 C 262.574219 380.492188 262.824219 380.625 263.164062 380.625 C 263.636719 380.625 264.097656 380.515625 264.535156 380.296875 C 264.976562 380.078125 265.332031 379.777344 265.609375 379.390625 C 265.636719 379.367188 265.667969 379.355469 265.703125 379.355469 C 265.746094 379.355469 265.785156 379.378906 265.824219 379.421875 C 265.867188 379.46875 265.886719 379.511719 265.886719 379.546875 C 265.886719 379.578125 265.878906 379.605469 265.863281 379.621094 C 265.570312 380.03125 265.175781 380.351562 264.679688 380.589844 C 264.183594 380.824219 263.671875 380.945312 263.140625 380.945312 M 262.429688 377.75 C 262.894531 377.75 263.324219 377.730469 263.71875 377.6875 C 264.113281 377.644531 264.472656 377.535156 264.792969 377.359375 C 265.113281 377.1875 265.273438 376.917969 265.273438 376.546875 C 265.273438 376.398438 265.230469 376.269531 265.148438 376.160156 C 265.066406 376.046875 264.960938 375.960938 264.828125 375.902344 C 264.699219 375.84375 264.5625 375.816406 264.421875 375.816406 C 264.082031 375.816406 263.777344 375.90625 263.503906 376.089844 C 263.234375 376.273438 263.011719 376.515625 262.835938 376.808594 C 262.65625 377.105469 262.523438 377.417969 262.429688 377.75 "/>
<g clip-path="url(#clip-7)">
<path fill-rule="nonzero" fill="rgb(0%, 0%, 0%)" fill-opacity="1" d="M 270.023438 383.785156 C 269.578125 383.433594 269.195312 383.03125 268.871094 382.574219 C 268.550781 382.121094 268.285156 381.632812 268.082031 381.117188 C 267.875 380.601562 267.722656 380.0625 267.621094 379.5 C 267.519531 378.9375 267.46875 378.375 267.46875 377.808594 C 267.46875 377.234375 267.519531 376.667969 267.621094 376.105469 C 267.722656 375.542969 267.878906 375 268.085938 374.480469 C 268.296875 373.960938 268.5625 373.472656 268.886719 373.023438 C 269.210938 372.566406 269.589844 372.171875 270.023438 371.832031 C 270.023438 371.816406 270.042969 371.808594 270.082031 371.808594 L 270.195312 371.808594 C 270.21875 371.808594 270.238281 371.820312 270.257812 371.839844 C 270.277344 371.863281 270.289062 371.886719 270.289062 371.914062 C 270.289062 371.949219 270.28125 371.972656 270.265625 371.992188 C 269.875 372.375 269.546875 372.78125 269.289062 373.21875 C 269.027344 373.65625 268.820312 374.125 268.660156 374.621094 C 268.503906 375.113281 268.386719 375.625 268.320312 376.15625 C 268.25 376.683594 268.214844 377.234375 268.214844 377.808594 C 268.214844 380.351562 268.894531 382.28125 270.25 383.605469 C 270.277344 383.625 270.289062 383.660156 270.289062 383.703125 C 270.289062 383.722656 270.277344 383.746094 270.253906 383.769531 C 270.234375 383.796875 270.214844 383.808594 270.195312 383.808594 L 270.082031 383.808594 C 270.042969 383.808594 270.023438 383.800781 270.023438 383.785156 "/>
</g>
<path fill-rule="nonzero" fill="rgb(0%, 0%, 0%)" fill-opacity="1" d="M 273.363281 380.992188 C 273.085938 380.992188 272.828125 380.9375 272.589844 380.835938 C 272.351562 380.730469 272.144531 380.582031 271.964844 380.386719 C 271.789062 380.191406 271.65625 379.972656 271.570312 379.734375 C 271.484375 379.492188 271.441406 379.230469 271.441406 378.949219 C 271.441406 378.449219 271.558594 377.964844 271.796875 377.496094 C 272.03125 377.023438 272.355469 376.617188 272.761719 376.273438 C 273.171875 375.929688 273.617188 375.695312 274.097656 375.574219 C 273.859375 375.140625 273.683594 374.769531 273.558594 374.453125 C 273.4375 374.140625 273.375 373.816406 273.375 373.492188 C 273.375 373.25 273.433594 373.035156 273.542969 372.847656 C 273.660156 372.664062 273.816406 372.515625 274.011719 372.414062 C 274.214844 372.304688 274.4375 372.253906 274.679688 372.253906 C 274.917969 372.253906 275.394531 372.332031 276.101562 372.496094 C 276.285156 372.539062 276.375 372.644531 276.375 372.816406 C 276.375 372.949219 276.328125 373.070312 276.226562 373.179688 C 276.128906 373.289062 276.015625 373.34375 275.882812 373.34375 C 275.785156 373.34375 275.699219 373.320312 275.617188 373.277344 C 275.542969 373.230469 275.417969 373.152344 275.25 373.039062 C 275.082031 372.925781 274.933594 372.839844 274.800781 372.78125 C 274.667969 372.71875 274.527344 372.6875 274.382812 372.6875 C 274.21875 372.6875 274.070312 372.738281 273.941406 372.839844 C 273.808594 372.9375 273.742188 373.066406 273.742188 373.226562 C 273.742188 373.480469 273.855469 373.773438 274.082031 374.101562 C 274.304688 374.433594 274.625 374.855469 275.039062 375.371094 C 275.511719 375.972656 275.746094 376.636719 275.746094 377.363281 C 275.746094 377.722656 275.695312 378.113281 275.59375 378.53125 C 275.488281 378.949219 275.339844 379.34375 275.140625 379.714844 C 274.945312 380.082031 274.691406 380.390625 274.386719 380.628906 C 274.078125 380.871094 273.738281 380.992188 273.363281 380.992188 M 273.386719 380.664062 C 273.699219 380.664062 273.96875 380.5 274.191406 380.175781 C 274.417969 379.851562 274.585938 379.464844 274.703125 379.019531 C 274.816406 378.570312 274.875 378.195312 274.875 377.890625 C 274.875 377.292969 274.667969 376.621094 274.246094 375.875 C 273.828125 375.992188 273.464844 376.238281 273.160156 376.613281 C 272.855469 376.988281 272.621094 377.417969 272.464844 377.90625 C 272.308594 378.398438 272.230469 378.859375 272.230469 379.296875 C 272.230469 379.679688 272.332031 380.003906 272.53125 380.265625 C 272.730469 380.53125 273.015625 380.664062 273.386719 380.664062 "/>
<path fill-rule="nonzero" fill="rgb(0%, 0%, 0%)" fill-opacity="1" d="M 276.886719 380.808594 C 276.808594 380.808594 276.765625 380.757812 276.765625 380.652344 C 276.769531 380.632812 276.777344 380.597656 276.789062 380.550781 C 276.800781 380.503906 276.816406 380.464844 276.835938 380.433594 C 276.855469 380.402344 276.886719 380.386719 276.925781 380.386719 C 277.152344 380.386719 277.351562 380.382812 277.515625 380.371094 C 277.6875 380.359375 277.828125 380.335938 277.945312 380.304688 C 278.039062 380.269531 278.113281 380.160156 278.171875 379.980469 L 279.8125 373.390625 C 279.832031 373.3125 279.839844 373.257812 279.839844 373.226562 C 279.839844 373.140625 279.792969 373.089844 279.699219 373.078125 C 279.546875 373.046875 279.257812 373.03125 278.828125 373.03125 C 278.753906 373.03125 278.714844 372.980469 278.714844 372.875 C 278.71875 372.855469 278.726562 372.820312 278.734375 372.773438 C 278.75 372.722656 278.765625 372.683594 278.785156 372.65625 C 278.808594 372.625 278.835938 372.609375 278.867188 372.609375 L 283.167969 372.609375 C 283.429688 372.609375 283.6875 372.644531 283.941406 372.707031 C 284.199219 372.773438 284.433594 372.875 284.652344 373.015625 C 284.867188 373.15625 285.039062 373.332031 285.167969 373.542969 C 285.292969 373.75 285.359375 373.992188 285.359375 374.269531 C 285.359375 374.570312 285.28125 374.851562 285.125 375.109375 C 284.972656 375.367188 284.773438 375.589844 284.527344 375.78125 C 284.285156 375.972656 284.019531 376.128906 283.738281 376.253906 C 283.453125 376.375 283.160156 376.46875 282.851562 376.527344 C 283.070312 376.527344 283.289062 376.570312 283.511719 376.65625 C 283.738281 376.742188 283.9375 376.859375 284.117188 377.007812 C 284.292969 377.15625 284.433594 377.332031 284.542969 377.539062 C 284.648438 377.746094 284.703125 377.96875 284.703125 378.207031 C 284.703125 378.6875 284.535156 379.128906 284.199219 379.527344 C 283.863281 379.921875 283.4375 380.238281 282.929688 380.464844 C 282.417969 380.695312 281.925781 380.808594 281.449219 380.808594 Z M 279.09375 380.292969 C 279.09375 380.355469 279.230469 380.386719 279.503906 380.386719 L 281.21875 380.386719 C 281.613281 380.386719 281.988281 380.277344 282.34375 380.0625 C 282.707031 379.84375 282.992188 379.558594 283.210938 379.199219 C 283.425781 378.839844 283.535156 378.464844 283.535156 378.074219 C 283.535156 377.835938 283.484375 377.609375 283.386719 377.394531 C 283.285156 377.183594 283.140625 377.015625 282.953125 376.890625 C 282.765625 376.769531 282.554688 376.707031 282.3125 376.707031 L 279.972656 376.707031 L 279.140625 380.027344 C 279.109375 380.140625 279.09375 380.226562 279.09375 380.292969 M 280.054688 376.390625 L 281.875 376.390625 C 282.261719 376.390625 282.632812 376.292969 282.996094 376.097656 C 283.355469 375.902344 283.648438 375.636719 283.878906 375.300781 C 284.105469 374.964844 284.21875 374.609375 284.21875 374.234375 C 284.21875 373.886719 284.113281 373.601562 283.894531 373.375 C 283.679688 373.148438 283.398438 373.03125 283.054688 373.03125 L 281.40625 373.03125 C 281.191406 373.03125 281.046875 373.054688 280.976562 373.09375 C 280.902344 373.132812 280.839844 373.25 280.789062 373.445312 Z M 280.054688 376.390625 "/>
<path fill-rule="nonzero" fill="rgb(0%, 0%, 0%)" fill-opacity="1" d="M 285.800781 382.847656 L 285.800781 382.625 C 285.800781 382.609375 285.804688 382.59375 285.816406 382.578125 L 287.121094 381.136719 C 287.316406 380.921875 287.476562 380.742188 287.597656 380.597656 C 287.722656 380.453125 287.84375 380.285156 287.964844 380.097656 C 288.085938 379.90625 288.179688 379.714844 288.25 379.519531 C 288.320312 379.324219 288.355469 379.117188 288.355469 378.898438 C 288.355469 378.671875 288.3125 378.449219 288.226562 378.242188 C 288.144531 378.03125 288.015625 377.863281 287.847656 377.738281 C 287.679688 377.613281 287.476562 377.550781 287.238281 377.550781 C 286.996094 377.550781 286.777344 377.625 286.582031 377.769531 C 286.390625 377.917969 286.253906 378.105469 286.171875 378.335938 C 286.195312 378.332031 286.222656 378.328125 286.261719 378.328125 C 286.390625 378.328125 286.496094 378.371094 286.585938 378.457031 C 286.675781 378.542969 286.71875 378.652344 286.71875 378.785156 C 286.71875 378.914062 286.675781 379.023438 286.585938 379.113281 C 286.496094 379.199219 286.390625 379.242188 286.261719 379.242188 C 286.132812 379.242188 286.023438 379.199219 285.933594 379.109375 C 285.84375 379.015625 285.800781 378.90625 285.800781 378.785156 C 285.800781 378.574219 285.839844 378.375 285.917969 378.191406 C 285.996094 378.007812 286.113281 377.84375 286.261719 377.699219 C 286.410156 377.554688 286.578125 377.445312 286.765625 377.371094 C 286.953125 377.292969 287.152344 377.253906 287.363281 377.253906 C 287.683594 377.253906 287.980469 377.320312 288.253906 377.457031 C 288.53125 377.59375 288.75 377.785156 288.910156 378.03125 C 289.074219 378.28125 289.15625 378.570312 289.15625 378.898438 C 289.15625 379.144531 289.101562 379.375 288.996094 379.59375 C 288.886719 379.8125 288.75 380.011719 288.582031 380.191406 C 288.417969 380.367188 288.203125 380.570312 287.945312 380.800781 C 287.683594 381.027344 287.515625 381.175781 287.433594 381.253906 L 286.480469 382.167969 L 287.289062 382.167969 C 287.683594 382.167969 288.015625 382.164062 288.28125 382.160156 C 288.550781 382.152344 288.691406 382.140625 288.707031 382.128906 C 288.773438 382.058594 288.839844 381.796875 288.910156 381.351562 L 289.15625 381.351562 L 288.917969 382.847656 Z M 285.800781 382.847656 "/>
<g clip-path="url(#clip-8)">
<path fill-rule="nonzero" fill="rgb(0%, 0%, 0%)" fill-opacity="1" d="M 291.125 383.808594 C 291.054688 383.808594 291.019531 383.773438 291.019531 383.703125 C 291.019531 383.667969 291.027344 383.644531 291.042969 383.625 C 292.410156 382.289062 293.09375 380.351562 293.09375 377.808594 C 293.09375 375.265625 292.417969 373.335938 291.066406 372.011719 C 291.035156 371.996094 291.019531 371.960938 291.019531 371.914062 C 291.019531 371.886719 291.03125 371.863281 291.050781 371.839844 C 291.074219 371.820312 291.097656 371.808594 291.125 371.808594 L 291.238281 371.808594 C 291.261719 371.808594 291.28125 371.816406 291.296875 371.832031 C 291.871094 372.285156 292.347656 372.835938 292.730469 373.484375 C 293.113281 374.132812 293.394531 374.824219 293.570312 375.558594 C 293.75 376.292969 293.839844 377.042969 293.839844 377.808594 C 293.839844 378.375 293.792969 378.933594 293.695312 379.480469 C 293.597656 380.03125 293.445312 380.570312 293.238281 381.101562 C 293.027344 381.636719 292.765625 382.128906 292.445312 382.582031 C 292.125 383.03125 291.742188 383.433594 291.296875 383.785156 C 291.28125 383.800781 291.261719 383.808594 291.238281 383.808594 Z M 291.125 383.808594 "/>
</g>
<path fill="none" stroke-width="0.5" stroke-linecap="butt" stroke-linejoin="round" stroke="rgb(0%, 0%, 0%)" stroke-opacity="1" stroke-miterlimit="100000" d="M 50.140625 351.195312 L 54.140625 351.195312 "/>
<path fill="none" stroke-width="0.5" stroke-linecap="butt" stroke-linejoin="round" stroke="rgb(0%, 0%, 0%)" stroke-opacity="1" stroke-miterlimit="100000" d="M 496.539062 351.195312 L 492.539062 351.195312 "/>
<path fill-rule="nonzero" fill="rgb(0%, 0%, 0%)" fill-opacity="1" d="M 18.269531 350.246094 L 25.78125 350.246094 L 25.78125 351.242188 L 18.269531 351.242188 Z M 18.269531 350.246094 "/>
<path fill-rule="nonzero" fill="rgb(0%, 0%, 0%)" fill-opacity="1" d="M 28.542969 353.511719 L 30.476562 353.511719 L 30.476562 346.835938 L 28.371094 347.257812 L 28.371094 346.179688 L 30.464844 345.757812 L 31.648438 345.757812 L 31.648438 353.511719 L 33.582031 353.511719 L 33.582031 354.507812 L 28.542969 354.507812 Z M 28.542969 353.511719 "/>
<path fill-rule="nonzero" fill="rgb(0%, 0%, 0%)" fill-opacity="1" d="M 35.972656 353.015625 L 37.210938 353.015625 L 37.210938 354.507812 L 35.972656 354.507812 Z M 35.972656 353.015625 "/>
<path fill-rule="nonzero" fill="rgb(0%, 0%, 0%)" fill-opacity="1" d="M 42.316406 346.539062 C 41.707031 346.539062 41.25 346.835938 40.941406 347.4375 C 40.636719 348.035156 40.484375 348.9375 40.484375 350.140625 C 40.484375 351.339844 40.636719 352.238281 40.941406 352.839844 C 41.25 353.4375 41.707031 353.738281 42.316406 353.738281 C 42.929688 353.738281 43.390625 353.4375 43.699219 352.839844 C 44.003906 352.238281 44.160156 351.339844 44.160156 350.140625 C 44.160156 348.9375 44.003906 348.035156 43.699219 347.4375 C 43.390625 346.835938 42.929688 346.539062 42.316406 346.539062 M 42.316406 345.601562 C 43.300781 345.601562 44.046875 345.988281 44.566406 346.765625 C 45.082031 347.539062 45.34375 348.664062 45.34375 350.140625 C 45.34375 351.613281 45.082031 352.738281 44.566406 353.515625 C 44.046875 354.289062 43.300781 354.675781 42.316406 354.675781 C 41.335938 354.675781 40.589844 354.289062 40.070312 353.515625 C 39.554688 352.738281 39.296875 351.613281 39.296875 350.140625 C 39.296875 348.664062 39.554688 347.539062 40.070312 346.765625 C 40.589844 345.988281 41.335938 345.601562 42.316406 345.601562 "/>
<path fill="none" stroke-width="0.5" stroke-linecap="butt" stroke-linejoin="round" stroke="rgb(0%, 0%, 0%)" stroke-opacity="1" stroke-miterlimit="100000" d="M 50.140625 264.796875 L 54.140625 264.796875 "/>
<path fill="none" stroke-width="0.5" stroke-linecap="butt" stroke-linejoin="round" stroke="rgb(0%, 0%, 0%)" stroke-opacity="1" stroke-miterlimit="100000" d="M 496.539062 264.796875 L 492.539062 264.796875 "/>
<path fill-rule="nonzero" fill="rgb(0%, 0%, 0%)" fill-opacity="1" d="M 18.269531 263.847656 L 25.78125 263.847656 L 25.78125 264.84375 L 18.269531 264.84375 Z M 18.269531 263.847656 "/>
<path fill-rule="nonzero" fill="rgb(0%, 0%, 0%)" fill-opacity="1" d="M 30.867188 260.136719 C 30.257812 260.136719 29.800781 260.4375 29.492188 261.039062 C 29.1875 261.636719 29.035156 262.539062 29.035156 263.742188 C 29.035156 264.941406 29.1875 265.839844 29.492188 266.4375 C 29.800781 267.039062 30.257812 267.339844 30.867188 267.339844 C 31.480469 267.339844 31.941406 267.039062 32.25 266.4375 C 32.554688 265.839844 32.710938 264.941406 32.710938 263.742188 C 32.710938 262.539062 32.554688 261.636719 32.25 261.039062 C 31.941406 260.4375 31.480469 260.136719 30.867188 260.136719 M 30.867188 259.199219 C 31.851562 259.199219 32.597656 259.589844 33.117188 260.363281 C 33.632812 261.140625 33.894531 262.265625 33.894531 263.742188 C 33.894531 265.214844 33.632812 266.339844 33.117188 267.113281 C 32.597656 267.890625 31.851562 268.277344 30.867188 268.277344 C 29.886719 268.277344 29.140625 267.890625 28.621094 267.113281 C 28.105469 266.339844 27.847656 265.214844 27.847656 263.742188 C 27.847656 262.265625 28.105469 261.140625 28.621094 260.363281 C 29.140625 259.589844 29.886719 259.199219 30.867188 259.199219 "/>
<path fill-rule="nonzero" fill="rgb(0%, 0%, 0%)" fill-opacity="1" d="M 35.972656 266.617188 L 37.210938 266.617188 L 37.210938 268.105469 L 35.972656 268.105469 Z M 35.972656 266.617188 "/>
<path fill-rule="nonzero" fill="rgb(0%, 0%, 0%)" fill-opacity="1" d="M 39.800781 259.359375 L 44.445312 259.359375 L 44.445312 260.355469 L 40.882812 260.355469 L 40.882812 262.5 C 41.054688 262.4375 41.226562 262.394531 41.398438 262.367188 C 41.570312 262.339844 41.742188 262.324219 41.914062 262.324219 C 42.890625 262.324219 43.664062 262.589844 44.234375 263.125 C 44.804688 263.660156 45.089844 264.386719 45.089844 265.300781 C 45.089844 266.242188 44.796875 266.972656 44.210938 267.496094 C 43.625 268.015625 42.800781 268.277344 41.734375 268.277344 C 41.363281 268.277344 40.992188 268.246094 40.609375 268.183594 C 40.230469 268.121094 39.835938 268.027344 39.429688 267.902344 L 39.429688 266.710938 C 39.78125 266.902344 40.144531 267.046875 40.519531 267.140625 C 40.894531 267.234375 41.289062 267.28125 41.707031 267.28125 C 42.382812 267.28125 42.917969 267.101562 43.3125 266.746094 C 43.707031 266.390625 43.90625 265.910156 43.90625 265.300781 C 43.90625 264.691406 43.707031 264.207031 43.3125 263.855469 C 42.917969 263.496094 42.382812 263.320312 41.707031 263.320312 C 41.390625 263.320312 41.078125 263.355469 40.761719 263.425781 C 40.449219 263.496094 40.128906 263.605469 39.800781 263.753906 Z M 39.800781 259.359375 "/>
<path fill="none" stroke-width="0.5" stroke-linecap="butt" stroke-linejoin="round" stroke="rgb(0%, 0%, 0%)" stroke-opacity="1" stroke-miterlimit="100000" d="M 50.140625 178.394531 L 54.140625 178.394531 "/>
<path fill="none" stroke-width="0.5" stroke-linecap="butt" stroke-linejoin="round" stroke="rgb(0%, 0%, 0%)" stroke-opacity="1" stroke-miterlimit="100000" d="M 496.539062 178.394531 L 492.539062 178.394531 "/>
<path fill-rule="nonzero" fill="rgb(0%, 0%, 0%)" fill-opacity="1" d="M 30.871094 173.738281 C 30.261719 173.738281 29.800781 174.039062 29.496094 174.636719 C 29.1875 175.234375 29.035156 176.136719 29.035156 177.339844 C 29.035156 178.539062 29.1875 179.4375 29.496094 180.039062 C 29.800781 180.640625 30.261719 180.9375 30.871094 180.9375 C 31.484375 180.9375 31.941406 180.640625 32.25 180.039062 C 32.558594 179.4375 32.710938 178.539062 32.710938 177.339844 C 32.710938 176.136719 32.558594 175.234375 32.25 174.636719 C 31.941406 174.039062 31.484375 173.738281 30.871094 173.738281 M 30.871094 172.800781 C 31.851562 172.800781 32.601562 173.1875 33.117188 173.964844 C 33.636719 174.738281 33.894531 175.863281 33.894531 177.339844 C 33.894531 178.8125 33.636719 179.9375 33.117188 180.714844 C 32.601562 181.488281 31.851562 181.875 30.871094 181.875 C 29.890625 181.875 29.140625 181.488281 28.625 180.714844 C 28.105469 179.9375 27.847656 178.8125 27.847656 177.339844 C 27.847656 175.863281 28.105469 174.738281 28.625 173.964844 C 29.140625 173.1875 29.890625 172.800781 30.871094 172.800781 "/>
<path fill-rule="nonzero" fill="rgb(0%, 0%, 0%)" fill-opacity="1" d="M 35.972656 180.21875 L 37.210938 180.21875 L 37.210938 181.707031 L 35.972656 181.707031 Z M 35.972656 180.21875 "/>
<path fill-rule="nonzero" fill="rgb(0%, 0%, 0%)" fill-opacity="1" d="M 42.320312 173.738281 C 41.710938 173.738281 41.25 174.039062 40.945312 174.636719 C 40.636719 175.234375 40.484375 176.136719 40.484375 177.339844 C 40.484375 178.539062 40.636719 179.4375 40.945312 180.039062 C 41.25 180.640625 41.710938 180.9375 42.320312 180.9375 C 42.933594 180.9375 43.390625 180.640625 43.699219 180.039062 C 44.007812 179.4375 44.160156 178.539062 44.160156 177.339844 C 44.160156 176.136719 44.007812 175.234375 43.699219 174.636719 C 43.390625 174.039062 42.933594 173.738281 42.320312 173.738281 M 42.320312 172.800781 C 43.300781 172.800781 44.050781 173.1875 44.566406 173.964844 C 45.085938 174.738281 45.34375 175.863281 45.34375 177.339844 C 45.34375 178.8125 45.085938 179.9375 44.566406 180.714844 C 44.050781 181.488281 43.300781 181.875 42.320312 181.875 C 41.339844 181.875 40.589844 181.488281 40.074219 180.714844 C 39.554688 179.9375 39.296875 178.8125 39.296875 177.339844 C 39.296875 175.863281 39.554688 174.738281 40.074219 173.964844 C 40.589844 173.1875 41.339844 172.800781 42.320312 172.800781 "/>
<path fill="none" stroke-width="0.5" stroke-linecap="butt" stroke-linejoin="round" stroke="rgb(0%, 0%, 0%)" stroke-opacity="1" stroke-miterlimit="100000" d="M 50.140625 91.996094 L 54.140625 91.996094 "/>
<path fill="none" stroke-width="0.5" stroke-linecap="butt" stroke-linejoin="round" stroke="rgb(0%, 0%, 0%)" stroke-opacity="1" stroke-miterlimit="100000" d="M 496.539062 91.996094 L 492.539062 91.996094 "/>
<path fill-rule="nonzero" fill="rgb(0%, 0%, 0%)" fill-opacity="1" d="M 30.871094 87.335938 C 30.261719 87.335938 29.800781 87.636719 29.496094 88.238281 C 29.1875 88.835938 29.035156 89.738281 29.035156 90.941406 C 29.035156 92.140625 29.1875 93.039062 29.496094 93.640625 C 29.800781 94.238281 30.261719 94.539062 30.871094 94.539062 C 31.484375 94.539062 31.941406 94.238281 32.25 93.640625 C 32.558594 93.039062 32.710938 92.140625 32.710938 90.941406 C 32.710938 89.738281 32.558594 88.835938 32.25 88.238281 C 31.941406 87.636719 31.484375 87.335938 30.871094 87.335938 M 30.871094 86.398438 C 31.851562 86.398438 32.601562 86.789062 33.117188 87.5625 C 33.636719 88.339844 33.894531 89.464844 33.894531 90.941406 C 33.894531 92.414062 33.636719 93.539062 33.117188 94.3125 C 32.601562 95.089844 31.851562 95.476562 30.871094 95.476562 C 29.890625 95.476562 29.140625 95.089844 28.625 94.3125 C 28.105469 93.539062 27.847656 92.414062 27.847656 90.941406 C 27.847656 89.464844 28.105469 88.339844 28.625 87.5625 C 29.140625 86.789062 29.890625 86.398438 30.871094 86.398438 "/>
<path fill-rule="nonzero" fill="rgb(0%, 0%, 0%)" fill-opacity="1" d="M 35.972656 93.816406 L 37.210938 93.816406 L 37.210938 95.304688 L 35.972656 95.304688 Z M 35.972656 93.816406 "/>
<path fill-rule="nonzero" fill="rgb(0%, 0%, 0%)" fill-opacity="1" d="M 39.800781 86.558594 L 44.445312 86.558594 L 44.445312 87.554688 L 40.882812 87.554688 L 40.882812 89.699219 C 41.054688 89.640625 41.226562 89.59375 41.398438 89.566406 C 41.570312 89.539062 41.742188 89.523438 41.914062 89.523438 C 42.890625 89.523438 43.664062 89.792969 44.234375 90.328125 C 44.804688 90.859375 45.089844 91.585938 45.089844 92.5 C 45.089844 93.441406 44.796875 94.171875 44.210938 94.695312 C 43.625 95.214844 42.800781 95.476562 41.734375 95.476562 C 41.367188 95.476562 40.992188 95.445312 40.609375 95.382812 C 40.230469 95.320312 39.835938 95.226562 39.429688 95.101562 L 39.429688 93.910156 C 39.78125 94.101562 40.144531 94.246094 40.519531 94.339844 C 40.894531 94.433594 41.292969 94.480469 41.710938 94.480469 C 42.386719 94.480469 42.921875 94.300781 43.3125 93.945312 C 43.710938 93.59375 43.90625 93.109375 43.90625 92.5 C 43.90625 91.890625 43.710938 91.410156 43.3125 91.054688 C 42.921875 90.699219 42.386719 90.519531 41.710938 90.519531 C 41.394531 90.519531 41.078125 90.554688 40.761719 90.625 C 40.449219 90.695312 40.128906 90.804688 39.800781 90.953125 Z M 39.800781 86.558594 "/>
<path fill="none" stroke-width="0.5" stroke-linecap="butt" stroke-linejoin="round" stroke="rgb(0%, 0%, 0%)" stroke-opacity="1" stroke-miterlimit="100000" d="M 50.140625 5.59375 L 54.140625 5.59375 "/>
<path fill="none" stroke-width="0.5" stroke-linecap="butt" stroke-linejoin="round" stroke="rgb(0%, 0%, 0%)" stroke-opacity="1" stroke-miterlimit="100000" d="M 496.539062 5.59375 L 492.539062 5.59375 "/>
<path fill-rule="nonzero" fill="rgb(0%, 0%, 0%)" fill-opacity="1" d="M 28.542969 7.910156 L 30.476562 7.910156 L 30.476562 1.234375 L 28.375 1.65625 L 28.375 0.578125 L 30.464844 0.15625 L 31.648438 0.15625 L 31.648438 7.910156 L 33.582031 7.910156 L 33.582031 8.90625 L 28.542969 8.90625 Z M 28.542969 7.910156 "/>
<path fill-rule="nonzero" fill="rgb(0%, 0%, 0%)" fill-opacity="1" d="M 35.972656 7.417969 L 37.210938 7.417969 L 37.210938 8.90625 L 35.972656 8.90625 Z M 35.972656 7.417969 "/>
<path fill-rule="nonzero" fill="rgb(0%, 0%, 0%)" fill-opacity="1" d="M 42.320312 0.9375 C 41.710938 0.9375 41.25 1.238281 40.945312 1.835938 C 40.636719 2.4375 40.484375 3.335938 40.484375 4.542969 C 40.484375 5.738281 40.636719 6.640625 40.945312 7.238281 C 41.25 7.839844 41.710938 8.140625 42.320312 8.140625 C 42.933594 8.140625 43.390625 7.839844 43.699219 7.238281 C 44.007812 6.640625 44.160156 5.738281 44.160156 4.542969 C 44.160156 3.335938 44.007812 2.4375 43.699219 1.835938 C 43.390625 1.238281 42.933594 0.9375 42.320312 0.9375 M 42.320312 0 C 43.300781 0 44.050781 0.386719 44.566406 1.164062 C 45.085938 1.9375 45.34375 3.066406 45.34375 4.542969 C 45.34375 6.015625 45.085938 7.136719 44.566406 7.914062 C 44.050781 8.6875 43.300781 9.078125 42.320312 9.078125 C 41.339844 9.078125 40.589844 8.6875 40.074219 7.914062 C 39.554688 7.136719 39.296875 6.015625 39.296875 4.542969 C 39.296875 3.066406 39.554688 1.9375 40.074219 1.164062 C 40.589844 0.386719 41.339844 0 42.320312 0 "/>
<path fill-rule="nonzero" fill="rgb(0%, 0%, 0%)" fill-opacity="1" d="M 9 200.152344 C 9 200.230469 8.949219 200.269531 8.84375 200.269531 C 8.667969 200.238281 8.578125 200.1875 8.578125 200.113281 C 8.578125 199.640625 8.5625 199.324219 8.53125 199.15625 C 8.488281 198.972656 8.371094 198.855469 8.171875 198.808594 L 1.582031 197.160156 C 1.503906 197.148438 1.453125 197.140625 1.429688 197.140625 C 1.378906 197.140625 1.34375 197.152344 1.320312 197.179688 C 1.300781 197.203125 1.28125 197.242188 1.269531 197.296875 C 1.238281 197.457031 1.222656 197.761719 1.222656 198.207031 C 1.222656 198.289062 1.171875 198.328125 1.066406 198.328125 C 0.964844 198.300781 0.894531 198.28125 0.859375 198.265625 C 0.820312 198.25 0.800781 198.203125 0.800781 198.125 L 0.800781 194.769531 C 0.800781 194.695312 0.855469 194.65625 0.960938 194.65625 C 0.980469 194.660156 1.015625 194.667969 1.0625 194.679688 C 1.109375 194.691406 1.144531 194.707031 1.175781 194.726562 C 1.207031 194.746094 1.222656 194.773438 1.222656 194.8125 C 1.222656 195.28125 1.238281 195.605469 1.269531 195.785156 C 1.3125 195.960938 1.433594 196.074219 1.636719 196.121094 L 8.21875 197.761719 C 8.316406 197.78125 8.371094 197.789062 8.378906 197.789062 C 8.398438 197.789062 8.417969 197.785156 8.433594 197.78125 C 8.453125 197.773438 8.46875 197.761719 8.480469 197.746094 C 8.496094 197.726562 8.503906 197.710938 8.511719 197.691406 C 8.515625 197.675781 8.523438 197.65625 8.53125 197.628906 C 8.5625 197.480469 8.578125 197.175781 8.578125 196.71875 C 8.578125 196.640625 8.628906 196.597656 8.734375 196.597656 C 8.847656 196.625 8.921875 196.648438 8.953125 196.664062 C 8.984375 196.679688 9 196.726562 9 196.804688 Z M 9 200.152344 "/>
<path fill-rule="nonzero" fill="rgb(0%, 0%, 0%)" fill-opacity="1" d="M 8.796875 194.460938 C 8.75 194.460938 8.710938 194.457031 8.6875 194.449219 L 5.109375 193.554688 C 4.886719 193.496094 4.691406 193.464844 4.523438 193.464844 C 4.179688 193.464844 4.007812 193.582031 4.007812 193.816406 C 4.007812 194.066406 4.15625 194.25 4.457031 194.371094 C 4.753906 194.496094 5.132812 194.613281 5.589844 194.726562 C 5.613281 194.726562 5.632812 194.738281 5.644531 194.761719 C 5.660156 194.785156 5.667969 194.804688 5.667969 194.824219 L 5.667969 194.964844 C 5.667969 194.992188 5.652344 195.015625 5.625 195.035156 C 5.59375 195.054688 5.566406 195.066406 5.542969 195.066406 C 5.195312 194.980469 4.902344 194.894531 4.660156 194.816406 C 4.417969 194.734375 4.195312 194.609375 3.996094 194.441406 C 3.796875 194.269531 3.699219 194.058594 3.699219 193.804688 C 3.699219 193.503906 3.792969 193.238281 3.984375 193.011719 C 4.171875 192.777344 4.410156 192.664062 4.703125 192.664062 C 4.390625 192.425781 4.144531 192.144531 3.96875 191.824219 C 3.789062 191.503906 3.699219 191.164062 3.699219 190.804688 C 3.699219 190.425781 3.792969 190.097656 3.988281 189.824219 C 4.179688 189.546875 4.453125 189.410156 4.8125 189.410156 C 4.460938 189.164062 4.191406 188.878906 3.992188 188.546875 C 3.796875 188.214844 3.699219 187.855469 3.699219 187.464844 C 3.699219 187.050781 3.808594 186.71875 4.035156 186.46875 C 4.257812 186.214844 4.578125 186.089844 4.992188 186.089844 C 5.320312 186.089844 5.71875 186.164062 6.183594 186.308594 C 6.648438 186.453125 7.167969 186.636719 7.738281 186.855469 C 8.015625 186.96875 8.257812 187.027344 8.460938 187.027344 C 8.699219 187.027344 8.816406 186.933594 8.816406 186.746094 C 8.816406 186.433594 8.652344 186.171875 8.316406 185.964844 C 7.980469 185.757812 7.621094 185.613281 7.234375 185.527344 C 7.1875 185.503906 7.167969 185.46875 7.167969 185.425781 L 7.167969 185.285156 C 7.167969 185.253906 7.175781 185.226562 7.199219 185.207031 C 7.21875 185.183594 7.242188 185.175781 7.269531 185.175781 C 7.277344 185.175781 7.289062 185.179688 7.308594 185.183594 C 7.757812 185.296875 8.175781 185.484375 8.5625 185.757812 C 8.945312 186.027344 9.136719 186.367188 9.136719 186.773438 C 9.136719 187.054688 9.039062 187.296875 8.84375 187.496094 C 8.652344 187.695312 8.414062 187.792969 8.140625 187.792969 C 8 187.792969 7.84375 187.761719 7.671875 187.695312 C 7.066406 187.46875 6.53125 187.28125 6.058594 187.128906 C 5.585938 186.980469 5.171875 186.902344 4.8125 186.902344 C 4.585938 186.902344 4.398438 186.949219 4.242188 187.039062 C 4.085938 187.128906 4.007812 187.277344 4.007812 187.488281 C 4.007812 187.925781 4.140625 188.304688 4.410156 188.625 C 4.675781 188.945312 5.03125 189.222656 5.472656 189.457031 C 5.550781 189.472656 5.609375 189.484375 5.65625 189.492188 L 8.734375 190.265625 C 8.84375 190.292969 8.9375 190.355469 9.015625 190.453125 C 9.09375 190.546875 9.136719 190.652344 9.136719 190.769531 C 9.136719 190.863281 9.105469 190.945312 9.042969 191.019531 C 8.980469 191.089844 8.898438 191.128906 8.796875 191.128906 C 8.75 191.128906 8.710938 191.125 8.6875 191.117188 L 5.628906 190.347656 C 5.304688 190.265625 5.03125 190.226562 4.8125 190.226562 C 4.585938 190.226562 4.398438 190.273438 4.242188 190.363281 C 4.085938 190.457031 4.007812 190.609375 4.007812 190.828125 C 4.007812 191.121094 4.070312 191.390625 4.203125 191.636719 C 4.332031 191.882812 4.5 192.097656 4.714844 192.28125 C 4.925781 192.464844 5.179688 192.632812 5.472656 192.785156 L 8.734375 193.601562 C 8.84375 193.628906 8.9375 193.691406 9.015625 193.785156 C 9.09375 193.882812 9.136719 193.988281 9.136719 194.105469 C 9.136719 194.203125 9.105469 194.285156 9.042969 194.355469 C 8.980469 194.425781 8.898438 194.460938 8.796875 194.460938 "/>
<path fill-rule="nonzero" fill="rgb(0%, 0%, 0%)" fill-opacity="1" d="M 11.976562 181.132812 C 11.625 181.578125 11.222656 181.960938 10.765625 182.285156 C 10.3125 182.605469 9.824219 182.867188 9.308594 183.074219 C 8.792969 183.28125 8.253906 183.433594 7.691406 183.535156 C 7.128906 183.636719 6.566406 183.6875 6 183.6875 C 5.425781 183.6875 4.859375 183.636719 4.296875 183.535156 C 3.734375 183.433594 3.191406 183.277344 2.671875 183.070312 C 2.152344 182.859375 1.664062 182.59375 1.214844 182.269531 C 0.757812 181.945312 0.363281 181.566406 0.0234375 181.132812 C 0.0078125 181.132812 0 181.113281 0 181.070312 L 0 180.960938 C 0 180.9375 0.0117188 180.917969 0.03125 180.898438 C 0.0546875 180.878906 0.078125 180.867188 0.105469 180.867188 C 0.140625 180.867188 0.164062 180.875 0.183594 180.890625 C 0.5625 181.28125 0.972656 181.605469 1.410156 181.867188 C 1.847656 182.128906 2.316406 182.335938 2.8125 182.496094 C 3.304688 182.652344 3.816406 182.765625 4.347656 182.835938 C 4.875 182.90625 5.425781 182.941406 6 182.941406 C 8.542969 182.941406 10.472656 182.261719 11.796875 180.902344 C 11.816406 180.878906 11.851562 180.867188 11.894531 180.867188 C 11.914062 180.867188 11.9375 180.878906 11.960938 180.898438 C 11.988281 180.921875 12 180.941406 12 180.960938 L 12 181.070312 C 12 181.113281 11.992188 181.132812 11.976562 181.132812 "/>
<path fill-rule="nonzero" fill="rgb(0%, 0%, 0%)" fill-opacity="1" d="M 9.183594 177.792969 C 9.183594 178.070312 9.128906 178.328125 9.027344 178.566406 C 8.921875 178.804688 8.773438 179.011719 8.578125 179.1875 C 8.382812 179.367188 8.164062 179.5 7.925781 179.585938 C 7.683594 179.671875 7.421875 179.714844 7.140625 179.714844 C 6.640625 179.714844 6.15625 179.597656 5.6875 179.359375 C 5.214844 179.125 4.808594 178.800781 4.464844 178.390625 C 4.121094 177.984375 3.886719 177.539062 3.765625 177.058594 C 3.332031 177.292969 2.960938 177.472656 2.644531 177.59375 C 2.332031 177.71875 2.007812 177.777344 1.683594 177.777344 C 1.4375 177.777344 1.226562 177.722656 1.039062 177.609375 C 0.855469 177.496094 0.707031 177.339844 0.605469 177.140625 C 0.496094 176.941406 0.445312 176.71875 0.445312 176.472656 C 0.445312 176.234375 0.523438 175.761719 0.6875 175.054688 C 0.730469 174.871094 0.835938 174.777344 1.007812 174.777344 C 1.140625 174.777344 1.261719 174.828125 1.371094 174.925781 C 1.480469 175.023438 1.535156 175.140625 1.535156 175.273438 C 1.535156 175.371094 1.511719 175.457031 1.46875 175.535156 C 1.421875 175.613281 1.34375 175.738281 1.230469 175.90625 C 1.117188 176.074219 1.03125 176.222656 0.972656 176.355469 C 0.910156 176.488281 0.878906 176.628906 0.878906 176.773438 C 0.878906 176.9375 0.929688 177.082031 1.03125 177.214844 C 1.128906 177.347656 1.257812 177.410156 1.417969 177.410156 C 1.671875 177.410156 1.964844 177.300781 2.292969 177.074219 C 2.625 176.847656 3.046875 176.53125 3.5625 176.117188 C 4.164062 175.644531 4.828125 175.40625 5.554688 175.40625 C 5.914062 175.40625 6.304688 175.460938 6.722656 175.5625 C 7.140625 175.664062 7.535156 175.816406 7.90625 176.011719 C 8.273438 176.210938 8.582031 176.460938 8.820312 176.769531 C 9.0625 177.078125 9.183594 177.417969 9.183594 177.792969 M 8.855469 177.769531 C 8.855469 177.457031 8.691406 177.1875 8.367188 176.964844 C 8.042969 176.738281 7.65625 176.570312 7.210938 176.453125 C 6.761719 176.335938 6.386719 176.277344 6.082031 176.277344 C 5.484375 176.277344 4.8125 176.488281 4.066406 176.90625 C 4.183594 177.328125 4.429688 177.691406 4.804688 177.996094 C 5.179688 178.300781 5.609375 178.53125 6.097656 178.6875 C 6.589844 178.84375 7.050781 178.921875 7.488281 178.921875 C 7.871094 178.921875 8.195312 178.824219 8.457031 178.625 C 8.722656 178.425781 8.855469 178.140625 8.855469 177.769531 "/>
<path fill-rule="nonzero" fill="rgb(0%, 0%, 0%)" fill-opacity="1" d="M 9 174.269531 C 9 174.347656 8.949219 174.386719 8.84375 174.386719 C 8.824219 174.382812 8.789062 174.375 8.742188 174.367188 C 8.695312 174.351562 8.65625 174.335938 8.625 174.320312 C 8.59375 174.296875 8.578125 174.269531 8.578125 174.226562 C 8.578125 174.003906 8.574219 173.804688 8.5625 173.636719 C 8.546875 173.46875 8.527344 173.328125 8.496094 173.210938 C 8.460938 173.117188 8.351562 173.039062 8.171875 172.980469 L 1.582031 171.339844 C 1.503906 171.324219 1.449219 171.316406 1.417969 171.316406 C 1.332031 171.316406 1.28125 171.363281 1.269531 171.457031 C 1.238281 171.609375 1.222656 171.898438 1.222656 172.324219 C 1.222656 172.402344 1.171875 172.441406 1.066406 172.441406 C 1.046875 172.4375 1.011719 172.429688 0.964844 172.417969 C 0.914062 172.40625 0.875 172.390625 0.847656 172.367188 C 0.816406 172.347656 0.800781 172.320312 0.800781 172.289062 L 0.800781 167.988281 C 0.800781 167.726562 0.835938 167.46875 0.898438 167.210938 C 0.964844 166.957031 1.066406 166.71875 1.207031 166.503906 C 1.347656 166.289062 1.523438 166.117188 1.734375 165.988281 C 1.941406 165.859375 2.183594 165.796875 2.460938 165.796875 C 2.761719 165.796875 3.042969 165.875 3.300781 166.027344 C 3.558594 166.183594 3.78125 166.382812 3.972656 166.628906 C 4.164062 166.871094 4.320312 167.132812 4.445312 167.417969 C 4.566406 167.699219 4.660156 167.996094 4.71875 168.304688 C 4.71875 168.085938 4.761719 167.867188 4.847656 167.640625 C 4.933594 167.417969 5.046875 167.214844 5.199219 167.039062 C 5.347656 166.863281 5.523438 166.722656 5.730469 166.613281 C 5.9375 166.507812 6.160156 166.453125 6.398438 166.453125 C 6.878906 166.453125 7.320312 166.621094 7.71875 166.957031 C 8.113281 167.292969 8.429688 167.714844 8.65625 168.226562 C 8.886719 168.738281 9 169.230469 9 169.707031 Z M 8.484375 172.0625 C 8.546875 172.0625 8.578125 171.925781 8.578125 171.648438 L 8.578125 169.933594 C 8.578125 169.542969 8.46875 169.167969 8.253906 168.808594 C 8.035156 168.449219 7.75 168.160156 7.390625 167.945312 C 7.03125 167.726562 6.65625 167.617188 6.265625 167.617188 C 6.027344 167.617188 5.800781 167.667969 5.585938 167.769531 C 5.375 167.867188 5.207031 168.011719 5.082031 168.199219 C 4.960938 168.386719 4.898438 168.601562 4.898438 168.84375 L 4.898438 171.179688 L 8.21875 172.015625 C 8.328125 172.046875 8.417969 172.0625 8.484375 172.0625 M 4.582031 171.101562 L 4.582031 169.277344 C 4.582031 168.894531 4.484375 168.523438 4.289062 168.160156 C 4.09375 167.800781 3.828125 167.503906 3.492188 167.277344 C 3.15625 167.050781 2.800781 166.933594 2.425781 166.933594 C 2.078125 166.933594 1.792969 167.042969 1.566406 167.261719 C 1.339844 167.476562 1.222656 167.757812 1.222656 168.101562 L 1.222656 169.746094 C 1.222656 169.960938 1.246094 170.105469 1.285156 170.179688 C 1.324219 170.253906 1.441406 170.316406 1.636719 170.367188 Z M 4.582031 171.101562 "/>
<path fill-rule="nonzero" fill="rgb(0%, 0%, 0%)" fill-opacity="1" d="M 11.039062 165.355469 L 10.816406 165.355469 C 10.800781 165.355469 10.785156 165.351562 10.769531 165.339844 L 9.328125 164.035156 C 9.113281 163.839844 8.933594 163.679688 8.789062 163.554688 C 8.644531 163.433594 8.476562 163.3125 8.289062 163.191406 C 8.097656 163.070312 7.90625 162.976562 7.710938 162.90625 C 7.515625 162.835938 7.308594 162.800781 7.089844 162.800781 C 6.859375 162.800781 6.640625 162.84375 6.433594 162.925781 C 6.222656 163.011719 6.054688 163.136719 5.929688 163.304688 C 5.804688 163.476562 5.742188 163.675781 5.742188 163.914062 C 5.742188 164.160156 5.8125 164.378906 5.960938 164.570312 C 6.109375 164.765625 6.296875 164.902344 6.527344 164.984375 C 6.523438 164.960938 6.519531 164.929688 6.519531 164.890625 C 6.519531 164.765625 6.5625 164.660156 6.648438 164.570312 C 6.734375 164.480469 6.84375 164.4375 6.976562 164.4375 C 7.105469 164.4375 7.214844 164.480469 7.304688 164.570312 C 7.390625 164.660156 7.433594 164.765625 7.433594 164.890625 C 7.433594 165.023438 7.390625 165.132812 7.296875 165.222656 C 7.207031 165.3125 7.097656 165.355469 6.976562 165.355469 C 6.765625 165.355469 6.566406 165.316406 6.382812 165.238281 C 6.199219 165.15625 6.035156 165.042969 5.890625 164.894531 C 5.746094 164.746094 5.636719 164.578125 5.5625 164.390625 C 5.484375 164.203125 5.445312 164.003906 5.445312 163.792969 C 5.445312 163.472656 5.511719 163.175781 5.648438 162.898438 C 5.785156 162.625 5.976562 162.40625 6.222656 162.242188 C 6.46875 162.082031 6.761719 162 7.089844 162 C 7.335938 162 7.566406 162.054688 7.785156 162.160156 C 8.003906 162.265625 8.203125 162.40625 8.382812 162.570312 C 8.558594 162.738281 8.761719 162.949219 8.992188 163.210938 C 9.21875 163.46875 9.367188 163.640625 9.445312 163.722656 L 10.359375 164.675781 L 10.359375 163.867188 C 10.359375 163.46875 10.355469 163.140625 10.351562 162.871094 C 10.34375 162.605469 10.332031 162.464844 10.320312 162.449219 C 10.246094 162.382812 9.988281 162.316406 9.542969 162.246094 L 9.542969 162 L 11.039062 162.238281 Z M 11.039062 165.355469 "/>
<path fill-rule="nonzero" fill="rgb(0%, 0%, 0%)" fill-opacity="1" d="M 12 160.027344 C 12 160.101562 11.964844 160.136719 11.894531 160.136719 C 11.859375 160.136719 11.835938 160.128906 11.816406 160.113281 C 10.480469 158.742188 8.542969 158.058594 6 158.058594 C 3.457031 158.058594 1.527344 158.738281 0.203125 160.089844 C 0.1875 160.121094 0.152344 160.136719 0.105469 160.136719 C 0.078125 160.136719 0.0546875 160.125 0.03125 160.105469 C 0.0117188 160.082031 0 160.054688 0 160.027344 L 0 159.917969 C 0 159.894531 0.0078125 159.875 0.0234375 159.859375 C 0.476562 159.285156 1.027344 158.804688 1.675781 158.425781 C 2.324219 158.042969 3.015625 157.761719 3.75 157.582031 C 4.484375 157.40625 5.234375 157.316406 6 157.316406 C 6.566406 157.316406 7.125 157.363281 7.671875 157.460938 C 8.222656 157.554688 8.761719 157.707031 9.292969 157.917969 C 9.828125 158.125 10.320312 158.390625 10.773438 158.710938 C 11.222656 159.03125 11.625 159.414062 11.976562 159.859375 C 11.992188 159.875 12 159.894531 12 159.917969 Z M 12 160.027344 "/>
<path fill="none" stroke-width="1" stroke-linecap="square" stroke-linejoin="round" stroke="rgb(0%, 0%, 100%)" stroke-opacity="1" stroke-miterlimit="100000" d="M 386.667969 24.457031 L 406.828125 24.457031 "/>
<path fill-rule="nonzero" fill="rgb(0%, 0%, 0%)" fill-opacity="1" d="M 423.316406 29.382812 C 423.222656 29.382812 423.171875 29.320312 423.171875 29.195312 C 423.210938 28.984375 423.273438 28.878906 423.355469 28.878906 C 423.746094 28.878906 424.082031 28.800781 424.367188 28.644531 C 424.648438 28.492188 424.894531 28.253906 425.101562 27.929688 L 425.128906 27.902344 L 430.269531 19.230469 C 430.34375 19.128906 430.433594 19.078125 430.542969 19.078125 L 430.730469 19.078125 C 430.761719 19.078125 430.789062 19.082031 430.816406 19.09375 C 430.84375 19.105469 430.871094 19.125 430.890625 19.152344 C 430.914062 19.175781 430.921875 19.203125 430.921875 19.230469 L 431.792969 28.535156 C 431.792969 28.574219 431.8125 28.640625 431.855469 28.722656 C 431.949219 28.828125 432.308594 28.878906 432.933594 28.878906 C 433.03125 28.878906 433.082031 28.941406 433.082031 29.066406 C 433.046875 29.195312 433.019531 29.277344 433 29.320312 C 432.976562 29.363281 432.921875 29.382812 432.835938 29.382812 L 429.234375 29.382812 C 429.144531 29.382812 429.101562 29.320312 429.101562 29.195312 C 429.152344 28.984375 429.214844 28.878906 429.292969 28.878906 C 430.050781 28.878906 430.453125 28.75 430.5 28.492188 L 430.28125 26.113281 L 426.730469 26.113281 L 425.578125 28.046875 C 425.507812 28.152344 425.472656 28.269531 425.472656 28.40625 C 425.472656 28.574219 425.554688 28.695312 425.714844 28.769531 C 425.878906 28.84375 426.058594 28.878906 426.253906 28.878906 C 426.347656 28.878906 426.394531 28.941406 426.394531 29.066406 C 426.359375 29.203125 426.335938 29.289062 426.316406 29.328125 C 426.296875 29.367188 426.242188 29.382812 426.15625 29.382812 Z M 427.011719 25.609375 L 430.226562 25.609375 L 429.796875 20.945312 Z M 427.011719 25.609375 "/>
<path fill-rule="nonzero" fill="rgb(0%, 0%, 0%)" fill-opacity="1" d="M 434.402344 31.832031 L 434.402344 31.480469 C 435.242188 31.480469 435.664062 31.371094 435.664062 31.160156 L 435.664062 25.867188 C 435.316406 26.035156 434.875 26.117188 434.34375 26.117188 L 434.34375 25.765625 C 435.167969 25.765625 435.789062 25.550781 436.210938 25.117188 L 436.351562 25.117188 C 436.375 25.117188 436.394531 25.128906 436.417969 25.148438 C 436.4375 25.164062 436.449219 25.1875 436.449219 25.207031 L 436.449219 31.160156 C 436.449219 31.371094 436.871094 31.480469 437.710938 31.480469 L 437.710938 31.832031 Z M 434.402344 31.832031 "/>
<path fill-rule="nonzero" fill="rgb(0%, 0%, 0%)" fill-opacity="1" d="M 445.527344 22.847656 L 454.542969 22.847656 L 454.542969 24.027344 L 445.527344 24.027344 Z M 445.527344 25.714844 L 454.542969 25.714844 L 454.542969 26.910156 L 445.527344 26.910156 Z M 445.527344 25.714844 "/>
<path fill-rule="nonzero" fill="rgb(0%, 0%, 0%)" fill-opacity="1" d="M 465.222656 19.820312 C 464.492188 19.820312 463.941406 20.183594 463.574219 20.902344 C 463.207031 21.621094 463.023438 22.703125 463.023438 24.144531 C 463.023438 25.585938 463.207031 26.664062 463.574219 27.382812 C 463.941406 28.105469 464.492188 28.464844 465.222656 28.464844 C 465.960938 28.464844 466.511719 28.105469 466.878906 27.382812 C 467.246094 26.664062 467.433594 25.585938 467.433594 24.144531 C 467.433594 22.703125 467.246094 21.621094 466.878906 20.902344 C 466.511719 20.183594 465.960938 19.820312 465.222656 19.820312 M 465.222656 18.695312 C 466.398438 18.695312 467.300781 19.164062 467.921875 20.09375 C 468.542969 21.023438 468.851562 22.375 468.851562 24.144531 C 468.851562 25.914062 468.542969 27.261719 467.921875 28.195312 C 467.300781 29.125 466.398438 29.589844 465.222656 29.589844 C 464.046875 29.589844 463.148438 29.125 462.527344 28.195312 C 461.90625 27.261719 461.59375 25.914062 461.59375 24.144531 C 461.59375 22.375 461.90625 21.023438 462.527344 20.09375 C 463.148438 19.164062 464.046875 18.695312 465.222656 18.695312 "/>
<path fill-rule="nonzero" fill="rgb(0%, 0%, 0%)" fill-opacity="1" d="M 471.347656 27.597656 L 472.832031 27.597656 L 472.832031 29.382812 L 471.347656 29.382812 Z M 471.347656 27.597656 "/>
<path fill-rule="nonzero" fill="rgb(0%, 0%, 0%)" fill-opacity="1" d="M 478.960938 19.820312 C 478.230469 19.820312 477.679688 20.183594 477.3125 20.902344 C 476.945312 21.621094 476.761719 22.703125 476.761719 24.144531 C 476.761719 25.585938 476.945312 26.664062 477.3125 27.382812 C 477.679688 28.105469 478.230469 28.464844 478.960938 28.464844 C 479.699219 28.464844 480.25 28.105469 480.617188 27.382812 C 480.988281 26.664062 481.171875 25.585938 481.171875 24.144531 C 481.171875 22.703125 480.988281 21.621094 480.617188 20.902344 C 480.25 20.183594 479.699219 19.820312 478.960938 19.820312 M 478.960938 18.695312 C 480.140625 18.695312 481.039062 19.164062 481.660156 20.09375 C 482.28125 21.023438 482.589844 22.375 482.589844 24.144531 C 482.589844 25.914062 482.28125 27.261719 481.660156 28.195312 C 481.039062 29.125 480.140625 29.589844 478.960938 29.589844 C 477.785156 29.589844 476.886719 29.125 476.265625 28.195312 C 475.644531 27.261719 475.335938 25.914062 475.335938 24.144531 C 475.335938 22.375 475.644531 21.023438 476.265625 20.09375 C 476.886719 19.164062 477.785156 18.695312 478.960938 18.695312 "/>
<path fill="none" stroke-width="1" stroke-linecap="square" stroke-linejoin="round" stroke="rgb(0%, 50.195312%, 0%)" stroke-opacity="1" stroke-miterlimit="100000" d="M 386.667969 45.59375 L 406.828125 45.59375 "/>
<path fill-rule="nonzero" fill="rgb(0%, 0%, 0%)" fill-opacity="1" d="M 423.316406 50.519531 C 423.222656 50.519531 423.171875 50.457031 423.171875 50.332031 C 423.210938 50.121094 423.273438 50.015625 423.355469 50.015625 C 423.746094 50.015625 424.082031 49.9375 424.367188 49.78125 C 424.648438 49.628906 424.894531 49.390625 425.101562 49.066406 L 425.128906 49.039062 L 430.269531 40.367188 C 430.34375 40.265625 430.433594 40.214844 430.542969 40.214844 L 430.730469 40.214844 C 430.761719 40.214844 430.789062 40.21875 430.816406 40.230469 C 430.84375 40.242188 430.871094 40.261719 430.890625 40.289062 C 430.914062 40.3125 430.921875 40.339844 430.921875 40.367188 L 431.792969 49.671875 C 431.792969 49.710938 431.8125 49.773438 431.855469 49.859375 C 431.949219 49.960938 432.308594 50.015625 432.933594 50.015625 C 433.03125 50.015625 433.082031 50.078125 433.082031 50.203125 C 433.046875 50.332031 433.019531 50.414062 433 50.457031 C 432.976562 50.5 432.921875 50.519531 432.835938 50.519531 L 429.234375 50.519531 C 429.144531 50.519531 429.101562 50.457031 429.101562 50.332031 C 429.152344 50.121094 429.214844 50.015625 429.292969 50.015625 C 430.050781 50.015625 430.453125 49.886719 430.5 49.628906 L 430.28125 47.25 L 426.730469 47.25 L 425.578125 49.183594 C 425.507812 49.289062 425.472656 49.40625 425.472656 49.542969 C 425.472656 49.710938 425.554688 49.832031 425.714844 49.90625 C 425.878906 49.976562 426.058594 50.015625 426.253906 50.015625 C 426.347656 50.015625 426.394531 50.078125 426.394531 50.203125 C 426.359375 50.339844 426.335938 50.425781 426.316406 50.464844 C 426.296875 50.503906 426.242188 50.519531 426.15625 50.519531 Z M 427.011719 46.746094 L 430.226562 46.746094 L 429.796875 42.082031 Z M 427.011719 46.746094 "/>
<path fill-rule="nonzero" fill="rgb(0%, 0%, 0%)" fill-opacity="1" d="M 434.402344 52.96875 L 434.402344 52.617188 C 435.242188 52.617188 435.664062 52.507812 435.664062 52.296875 L 435.664062 47.003906 C 435.316406 47.171875 434.875 47.253906 434.34375 47.253906 L 434.34375 46.902344 C 435.167969 46.902344 435.789062 46.6875 436.210938 46.253906 L 436.351562 46.253906 C 436.375 46.253906 436.394531 46.265625 436.417969 46.285156 C 436.4375 46.300781 436.449219 46.320312 436.449219 46.34375 L 436.449219 52.296875 C 436.449219 52.507812 436.871094 52.617188 437.710938 52.617188 L 437.710938 52.96875 Z M 434.402344 52.96875 "/>
<path fill-rule="nonzero" fill="rgb(0%, 0%, 0%)" fill-opacity="1" d="M 445.527344 43.980469 L 454.542969 43.980469 L 454.542969 45.164062 L 445.527344 45.164062 Z M 445.527344 46.851562 L 454.542969 46.851562 L 454.542969 48.046875 L 445.527344 48.046875 Z M 445.527344 46.851562 "/>
<path fill-rule="nonzero" fill="rgb(0%, 0%, 0%)" fill-opacity="1" d="M 462.433594 49.324219 L 464.753906 49.324219 L 464.753906 41.316406 L 462.226562 41.820312 L 462.226562 40.527344 L 464.738281 40.023438 L 466.160156 40.023438 L 466.160156 49.324219 L 468.476562 49.324219 L 468.476562 50.519531 L 462.433594 50.519531 Z M 462.433594 49.324219 "/>
<path fill-rule="nonzero" fill="rgb(0%, 0%, 0%)" fill-opacity="1" d="M 471.347656 48.734375 L 472.832031 48.734375 L 472.832031 50.519531 L 471.347656 50.519531 Z M 471.347656 48.734375 "/>
<path fill-rule="nonzero" fill="rgb(0%, 0%, 0%)" fill-opacity="1" d="M 478.960938 40.957031 C 478.230469 40.957031 477.679688 41.316406 477.3125 42.039062 C 476.945312 42.757812 476.761719 43.839844 476.761719 45.28125 C 476.761719 46.722656 476.945312 47.800781 477.3125 48.519531 C 477.679688 49.242188 478.230469 49.601562 478.960938 49.601562 C 479.699219 49.601562 480.25 49.242188 480.617188 48.519531 C 480.988281 47.800781 481.171875 46.722656 481.171875 45.28125 C 481.171875 43.839844 480.988281 42.757812 480.617188 42.039062 C 480.25 41.316406 479.699219 40.957031 478.960938 40.957031 M 478.960938 39.832031 C 480.140625 39.832031 481.039062 40.300781 481.660156 41.230469 C 482.28125 42.160156 482.589844 43.511719 482.589844 45.28125 C 482.589844 47.050781 482.28125 48.398438 481.660156 49.332031 C 481.039062 50.261719 480.140625 50.726562 478.960938 50.726562 C 477.785156 50.726562 476.886719 50.261719 476.265625 49.332031 C 475.644531 48.398438 475.335938 47.050781 475.335938 45.28125 C 475.335938 43.511719 475.644531 42.160156 476.265625 41.230469 C 476.886719 40.300781 477.785156 39.832031 478.960938 39.832031 "/>
<path fill="none" stroke-width="1" stroke-linecap="square" stroke-linejoin="round" stroke="rgb(100%, 0%, 0%)" stroke-opacity="1" stroke-miterlimit="100000" d="M 386.667969 66.730469 L 406.828125 66.730469 "/>
<path fill-rule="nonzero" fill="rgb(0%, 0%, 0%)" fill-opacity="1" d="M 423.316406 71.65625 C 423.222656 71.65625 423.171875 71.59375 423.171875 71.46875 C 423.210938 71.257812 423.273438 71.152344 423.355469 71.152344 C 423.746094 71.152344 424.082031 71.074219 424.367188 70.917969 C 424.648438 70.765625 424.894531 70.527344 425.101562 70.203125 L 425.128906 70.175781 L 430.269531 61.503906 C 430.34375 61.402344 430.433594 61.351562 430.542969 61.351562 L 430.730469 61.351562 C 430.761719 61.351562 430.789062 61.355469 430.816406 61.367188 C 430.84375 61.378906 430.871094 61.398438 430.890625 61.425781 C 430.914062 61.449219 430.921875 61.476562 430.921875 61.503906 L 431.792969 70.808594 C 431.792969 70.847656 431.8125 70.910156 431.855469 70.996094 C 431.949219 71.097656 432.308594 71.152344 432.933594 71.152344 C 433.03125 71.152344 433.082031 71.214844 433.082031 71.339844 C 433.046875 71.46875 433.019531 71.550781 433 71.59375 C 432.976562 71.636719 432.921875 71.65625 432.835938 71.65625 L 429.234375 71.65625 C 429.144531 71.65625 429.101562 71.59375 429.101562 71.46875 C 429.152344 71.257812 429.214844 71.152344 429.292969 71.152344 C 430.050781 71.152344 430.453125 71.023438 430.5 70.765625 L 430.28125 68.386719 L 426.730469 68.386719 L 425.578125 70.320312 C 425.507812 70.425781 425.472656 70.542969 425.472656 70.679688 C 425.472656 70.847656 425.554688 70.96875 425.714844 71.042969 C 425.878906 71.113281 426.058594 71.152344 426.253906 71.152344 C 426.347656 71.152344 426.394531 71.214844 426.394531 71.339844 C 426.359375 71.476562 426.335938 71.5625 426.316406 71.601562 C 426.296875 71.636719 426.242188 71.65625 426.15625 71.65625 Z M 427.011719 67.882812 L 430.226562 67.882812 L 429.796875 63.21875 Z M 427.011719 67.882812 "/>
<path fill-rule="nonzero" fill="rgb(0%, 0%, 0%)" fill-opacity="1" d="M 434.402344 74.105469 L 434.402344 73.75 C 435.242188 73.75 435.664062 73.644531 435.664062 73.433594 L 435.664062 68.140625 C 435.316406 68.308594 434.875 68.390625 434.34375 68.390625 L 434.34375 68.039062 C 435.167969 68.039062 435.789062 67.824219 436.210938 67.390625 L 436.351562 67.390625 C 436.375 67.390625 436.394531 67.402344 436.417969 67.421875 C 436.4375 67.4375 436.449219 67.457031 436.449219 67.480469 L 436.449219 73.433594 C 436.449219 73.644531 436.871094 73.75 437.710938 73.75 L 437.710938 74.105469 Z M 434.402344 74.105469 "/>
<path fill-rule="nonzero" fill="rgb(0%, 0%, 0%)" fill-opacity="1" d="M 445.527344 65.117188 L 454.542969 65.117188 L 454.542969 66.300781 L 445.527344 66.300781 Z M 445.527344 67.988281 L 454.542969 67.988281 L 454.542969 69.183594 L 445.527344 69.183594 Z M 445.527344 67.988281 "/>
<path fill-rule="nonzero" fill="rgb(0%, 0%, 0%)" fill-opacity="1" d="M 463.410156 70.460938 L 468.367188 70.460938 L 468.367188 71.65625 L 461.703125 71.65625 L 461.703125 70.460938 C 462.238281 69.90625 462.972656 69.15625 463.902344 68.21875 C 464.835938 67.277344 465.421875 66.667969 465.660156 66.398438 C 466.113281 65.886719 466.429688 65.453125 466.609375 65.101562 C 466.792969 64.746094 466.882812 64.398438 466.882812 64.058594 C 466.882812 63.5 466.6875 63.042969 466.296875 62.691406 C 465.902344 62.339844 465.394531 62.164062 464.765625 62.164062 C 464.320312 62.164062 463.851562 62.242188 463.355469 62.394531 C 462.863281 62.550781 462.332031 62.785156 461.769531 63.101562 L 461.769531 61.664062 C 462.34375 61.433594 462.875 61.261719 463.371094 61.144531 C 463.871094 61.027344 464.328125 60.96875 464.738281 60.96875 C 465.828125 60.96875 466.691406 61.242188 467.339844 61.785156 C 467.984375 62.328125 468.308594 63.054688 468.308594 63.964844 C 468.308594 64.398438 468.230469 64.804688 468.066406 65.191406 C 467.90625 65.578125 467.613281 66.035156 467.183594 66.558594 C 467.066406 66.695312 466.695312 67.089844 466.066406 67.738281 C 465.4375 68.386719 464.554688 69.296875 463.410156 70.460938 "/>
<path fill-rule="nonzero" fill="rgb(0%, 0%, 0%)" fill-opacity="1" d="M 471.347656 69.871094 L 472.832031 69.871094 L 472.832031 71.65625 L 471.347656 71.65625 Z M 471.347656 69.871094 "/>
<path fill-rule="nonzero" fill="rgb(0%, 0%, 0%)" fill-opacity="1" d="M 478.960938 62.09375 C 478.230469 62.09375 477.679688 62.453125 477.3125 63.175781 C 476.945312 63.894531 476.761719 64.976562 476.761719 66.417969 C 476.761719 67.859375 476.945312 68.9375 477.3125 69.65625 C 477.679688 70.378906 478.230469 70.738281 478.960938 70.738281 C 479.699219 70.738281 480.25 70.378906 480.617188 69.65625 C 480.988281 68.9375 481.171875 67.859375 481.171875 66.417969 C 481.171875 64.976562 480.988281 63.894531 480.617188 63.175781 C 480.25 62.453125 479.699219 62.09375 478.960938 62.09375 M 478.960938 60.96875 C 480.140625 60.96875 481.039062 61.433594 481.660156 62.367188 C 482.28125 63.296875 482.589844 64.648438 482.589844 66.417969 C 482.589844 68.1875 482.28125 69.535156 481.660156 70.46875 C 481.039062 71.398438 480.140625 71.863281 478.960938 71.863281 C 477.785156 71.863281 476.886719 71.398438 476.265625 70.46875 C 475.644531 69.535156 475.335938 68.1875 475.335938 66.417969 C 475.335938 64.648438 475.644531 63.296875 476.265625 62.367188 C 476.886719 61.433594 477.785156 60.96875 478.960938 60.96875 "/>
<path fill="none" stroke-width="1" stroke-linecap="square" stroke-linejoin="round" stroke="rgb(0%, 74.900818%, 74.900818%)" stroke-opacity="1" stroke-miterlimit="100000" d="M 386.667969 87.867188 L 406.828125 87.867188 "/>
<path fill-rule="nonzero" fill="rgb(0%, 0%, 0%)" fill-opacity="1" d="M 423.316406 92.792969 C 423.222656 92.792969 423.171875 92.730469 423.171875 92.605469 C 423.210938 92.394531 423.273438 92.289062 423.355469 92.289062 C 423.746094 92.289062 424.082031 92.210938 424.367188 92.054688 C 424.648438 91.902344 424.894531 91.660156 425.101562 91.339844 L 425.128906 91.3125 L 430.269531 82.640625 C 430.34375 82.539062 430.433594 82.488281 430.542969 82.488281 L 430.730469 82.488281 C 430.761719 82.488281 430.789062 82.492188 430.816406 82.503906 C 430.84375 82.515625 430.871094 82.535156 430.890625 82.5625 C 430.914062 82.585938 430.921875 82.613281 430.921875 82.640625 L 431.792969 91.941406 C 431.792969 91.984375 431.8125 92.046875 431.855469 92.132812 C 431.949219 92.234375 432.308594 92.289062 432.933594 92.289062 C 433.03125 92.289062 433.082031 92.351562 433.082031 92.476562 C 433.046875 92.605469 433.019531 92.6875 433 92.730469 C 432.976562 92.773438 432.921875 92.792969 432.835938 92.792969 L 429.234375 92.792969 C 429.144531 92.792969 429.101562 92.730469 429.101562 92.605469 C 429.152344 92.394531 429.214844 92.289062 429.292969 92.289062 C 430.050781 92.289062 430.453125 92.160156 430.5 91.902344 L 430.28125 89.523438 L 426.730469 89.523438 L 425.578125 91.457031 C 425.507812 91.5625 425.472656 91.679688 425.472656 91.816406 C 425.472656 91.984375 425.554688 92.105469 425.714844 92.179688 C 425.878906 92.25 426.058594 92.289062 426.253906 92.289062 C 426.347656 92.289062 426.394531 92.351562 426.394531 92.476562 C 426.359375 92.613281 426.335938 92.699219 426.316406 92.738281 C 426.296875 92.773438 426.242188 92.792969 426.15625 92.792969 Z M 427.011719 89.019531 L 430.226562 89.019531 L 429.796875 84.355469 Z M 427.011719 89.019531 "/>
<path fill-rule="nonzero" fill="rgb(0%, 0%, 0%)" fill-opacity="1" d="M 434.402344 95.242188 L 434.402344 94.886719 C 435.242188 94.886719 435.664062 94.78125 435.664062 94.570312 L 435.664062 89.277344 C 435.316406 89.445312 434.875 89.527344 434.34375 89.527344 L 434.34375 89.175781 C 435.167969 89.175781 435.789062 88.957031 436.210938 88.527344 L 436.351562 88.527344 C 436.375 88.527344 436.394531 88.539062 436.417969 88.558594 C 436.4375 88.574219 436.449219 88.59375 436.449219 88.617188 L 436.449219 94.570312 C 436.449219 94.78125 436.871094 94.886719 437.710938 94.886719 L 437.710938 95.242188 Z M 434.402344 95.242188 "/>
<path fill-rule="nonzero" fill="rgb(0%, 0%, 0%)" fill-opacity="1" d="M 445.527344 86.253906 L 454.542969 86.253906 L 454.542969 87.4375 L 445.527344 87.4375 Z M 445.527344 89.125 L 454.542969 89.125 L 454.542969 90.320312 L 445.527344 90.320312 Z M 445.527344 89.125 "/>
<path fill-rule="nonzero" fill="rgb(0%, 0%, 0%)" fill-opacity="1" d="M 466.488281 87.132812 C 467.167969 87.277344 467.699219 87.582031 468.078125 88.042969 C 468.460938 88.5 468.652344 89.066406 468.652344 89.742188 C 468.652344 90.777344 468.296875 91.578125 467.585938 92.148438 C 466.871094 92.714844 465.859375 93 464.546875 93 C 464.109375 93 463.65625 92.953125 463.1875 92.867188 C 462.722656 92.78125 462.242188 92.652344 461.742188 92.476562 L 461.742188 91.105469 C 462.136719 91.335938 462.566406 91.507812 463.035156 91.625 C 463.503906 91.742188 463.996094 91.800781 464.507812 91.800781 C 465.398438 91.800781 466.074219 91.625 466.542969 91.273438 C 467.007812 90.925781 467.242188 90.414062 467.242188 89.742188 C 467.242188 89.125 467.023438 88.640625 466.589844 88.292969 C 466.15625 87.941406 465.554688 87.765625 464.78125 87.765625 L 463.558594 87.765625 L 463.558594 86.597656 L 464.835938 86.597656 C 465.535156 86.597656 466.070312 86.460938 466.441406 86.179688 C 466.808594 85.902344 466.996094 85.5 466.996094 84.976562 C 466.996094 84.4375 466.804688 84.023438 466.421875 83.734375 C 466.039062 83.445312 465.492188 83.300781 464.78125 83.300781 C 464.390625 83.300781 463.972656 83.34375 463.527344 83.429688 C 463.082031 83.511719 462.59375 83.644531 462.058594 83.820312 L 462.058594 82.554688 C 462.597656 82.40625 463.105469 82.292969 463.574219 82.21875 C 464.046875 82.144531 464.492188 82.105469 464.90625 82.105469 C 465.984375 82.105469 466.839844 82.351562 467.464844 82.84375 C 468.09375 83.332031 468.410156 83.992188 468.410156 84.828125 C 468.410156 85.410156 468.242188 85.898438 467.910156 86.300781 C 467.574219 86.699219 467.101562 86.976562 466.488281 87.132812 "/>
<path fill-rule="nonzero" fill="rgb(0%, 0%, 0%)" fill-opacity="1" d="M 471.347656 91.007812 L 472.832031 91.007812 L 472.832031 92.792969 L 471.347656 92.792969 Z M 471.347656 91.007812 "/>
<path fill-rule="nonzero" fill="rgb(0%, 0%, 0%)" fill-opacity="1" d="M 478.960938 83.230469 C 478.230469 83.230469 477.679688 83.589844 477.3125 84.3125 C 476.945312 85.03125 476.761719 86.109375 476.761719 87.554688 C 476.761719 88.996094 476.945312 90.074219 477.3125 90.792969 C 477.679688 91.511719 478.230469 91.875 478.960938 91.875 C 479.699219 91.875 480.25 91.511719 480.617188 90.792969 C 480.988281 90.074219 481.171875 88.996094 481.171875 87.554688 C 481.171875 86.109375 480.988281 85.03125 480.617188 84.3125 C 480.25 83.589844 479.699219 83.230469 478.960938 83.230469 M 478.960938 82.105469 C 480.140625 82.105469 481.039062 82.570312 481.660156 83.503906 C 482.28125 84.433594 482.589844 85.785156 482.589844 87.554688 C 482.589844 89.324219 482.28125 90.671875 481.660156 91.601562 C 481.039062 92.535156 480.140625 93 478.960938 93 C 477.785156 93 476.886719 92.535156 476.265625 91.601562 C 475.644531 90.671875 475.335938 89.324219 475.335938 87.554688 C 475.335938 85.785156 475.644531 84.433594 476.265625 83.503906 C 476.886719 82.570312 477.785156 82.105469 478.960938 82.105469 "/>
<path fill="none" stroke-width="1" stroke-linecap="square" stroke-linejoin="round" stroke="rgb(74.900818%, 0%, 74.900818%)" stroke-opacity="1" stroke-miterlimit="100000" d="M 386.667969 109.003906 L 406.828125 109.003906 "/>
<path fill-rule="nonzero" fill="rgb(0%, 0%, 0%)" fill-opacity="1" d="M 423.316406 113.929688 C 423.222656 113.929688 423.171875 113.867188 423.171875 113.742188 C 423.210938 113.53125 423.273438 113.425781 423.355469 113.425781 C 423.746094 113.425781 424.082031 113.347656 424.367188 113.191406 C 424.648438 113.039062 424.894531 112.796875 425.101562 112.472656 L 425.128906 112.449219 L 430.269531 103.777344 C 430.34375 103.675781 430.433594 103.621094 430.542969 103.621094 L 430.730469 103.621094 C 430.761719 103.621094 430.789062 103.628906 430.816406 103.640625 C 430.84375 103.652344 430.871094 103.671875 430.890625 103.695312 C 430.914062 103.722656 430.921875 103.75 430.921875 103.777344 L 431.792969 113.078125 C 431.792969 113.121094 431.8125 113.183594 431.855469 113.269531 C 431.949219 113.371094 432.308594 113.425781 432.933594 113.425781 C 433.03125 113.425781 433.082031 113.488281 433.082031 113.613281 C 433.046875 113.742188 433.019531 113.824219 433 113.867188 C 432.976562 113.910156 432.921875 113.929688 432.835938 113.929688 L 429.234375 113.929688 C 429.144531 113.929688 429.101562 113.867188 429.101562 113.742188 C 429.152344 113.53125 429.214844 113.425781 429.292969 113.425781 C 430.050781 113.425781 430.453125 113.296875 430.5 113.035156 L 430.28125 110.660156 L 426.730469 110.660156 L 425.578125 112.59375 C 425.507812 112.695312 425.472656 112.816406 425.472656 112.953125 C 425.472656 113.121094 425.554688 113.242188 425.714844 113.316406 C 425.878906 113.386719 426.058594 113.425781 426.253906 113.425781 C 426.347656 113.425781 426.394531 113.488281 426.394531 113.613281 C 426.359375 113.75 426.335938 113.835938 426.316406 113.875 C 426.296875 113.910156 426.242188 113.929688 426.15625 113.929688 Z M 427.011719 110.15625 L 430.226562 110.15625 L 429.796875 105.492188 Z M 427.011719 110.15625 "/>
<path fill-rule="nonzero" fill="rgb(0%, 0%, 0%)" fill-opacity="1" d="M 434.402344 116.378906 L 434.402344 116.023438 C 435.242188 116.023438 435.664062 115.917969 435.664062 115.703125 L 435.664062 110.414062 C 435.316406 110.582031 434.875 110.664062 434.34375 110.664062 L 434.34375 110.3125 C 435.167969 110.3125 435.789062 110.09375 436.210938 109.664062 L 436.351562 109.664062 C 436.375 109.664062 436.394531 109.675781 436.417969 109.691406 C 436.4375 109.710938 436.449219 109.730469 436.449219 109.753906 L 436.449219 115.703125 C 436.449219 115.917969 436.871094 116.023438 437.710938 116.023438 L 437.710938 116.378906 Z M 434.402344 116.378906 "/>
<path fill-rule="nonzero" fill="rgb(0%, 0%, 0%)" fill-opacity="1" d="M 445.527344 107.390625 L 454.542969 107.390625 L 454.542969 108.574219 L 445.527344 108.574219 Z M 445.527344 110.261719 L 454.542969 110.261719 L 454.542969 111.457031 L 445.527344 111.457031 Z M 445.527344 110.261719 "/>
<path fill-rule="nonzero" fill="rgb(0%, 0%, 0%)" fill-opacity="1" d="M 466.089844 104.667969 L 462.503906 110.273438 L 466.089844 110.273438 Z M 465.714844 103.433594 L 467.5 103.433594 L 467.5 110.273438 L 469 110.273438 L 469 111.457031 L 467.5 111.457031 L 467.5 113.929688 L 466.089844 113.929688 L 466.089844 111.457031 L 461.351562 111.457031 L 461.351562 110.085938 Z M 465.714844 103.433594 "/>
<path fill-rule="nonzero" fill="rgb(0%, 0%, 0%)" fill-opacity="1" d="M 471.347656 112.144531 L 472.832031 112.144531 L 472.832031 113.929688 L 471.347656 113.929688 Z M 471.347656 112.144531 "/>
<path fill-rule="nonzero" fill="rgb(0%, 0%, 0%)" fill-opacity="1" d="M 478.960938 104.367188 C 478.230469 104.367188 477.679688 104.726562 477.3125 105.449219 C 476.945312 106.167969 476.761719 107.246094 476.761719 108.691406 C 476.761719 110.128906 476.945312 111.210938 477.3125 111.929688 C 477.679688 112.648438 478.230469 113.011719 478.960938 113.011719 C 479.699219 113.011719 480.25 112.648438 480.617188 111.929688 C 480.988281 111.210938 481.171875 110.128906 481.171875 108.691406 C 481.171875 107.246094 480.988281 106.167969 480.617188 105.449219 C 480.25 104.726562 479.699219 104.367188 478.960938 104.367188 M 478.960938 103.242188 C 480.140625 103.242188 481.039062 103.707031 481.660156 104.640625 C 482.28125 105.570312 482.589844 106.921875 482.589844 108.691406 C 482.589844 110.460938 482.28125 111.808594 481.660156 112.738281 C 481.039062 113.671875 480.140625 114.136719 478.960938 114.136719 C 477.785156 114.136719 476.886719 113.671875 476.265625 112.738281 C 475.644531 111.808594 475.335938 110.460938 475.335938 108.691406 C 475.335938 106.921875 475.644531 105.570312 476.265625 104.640625 C 476.886719 103.707031 477.785156 103.242188 478.960938 103.242188 "/>
</svg>
